<svg xmlns="http://www.w3.org/2000/svg" width="36" height="34.215" viewBox="0 0 36 34.215">
  <g id="boy" transform="translate(0 -1.079)">
    <path id="Path_1810" data-name="Path 1810" d="M21.115,23.046c0,.5-1.022.914-2.284.914s-2.285-.409-2.285-.914,1.022-.914,2.285-.914S21.115,22.54,21.115,23.046Zm-7.664-5.588a1.8,1.8,0,1,0,1.8,1.8A1.8,1.8,0,0,0,13.451,17.458Zm10.759,0a1.8,1.8,0,1,0,1.8,1.8A1.8,1.8,0,0,0,24.209,17.458ZM36,22.035a5.335,5.335,0,0,1-3.518,5.081,15.442,15.442,0,0,1-27.242.021,5.325,5.325,0,0,1-3.579-5.1,5.443,5.443,0,0,1,1.972-4.22A24,24,0,0,1,4.155,14.8a28.5,28.5,0,0,1-3.71-1.523.828.828,0,0,1,.123-1.52,21.618,21.618,0,0,0,6.247-3.8c.629-.527,1.251-1.1,1.851-1.662C11.4,3.764,14.235,1.138,19.479,1.081l.355,0c3.21,0,5.214.581,6.461,3.549a3.411,3.411,0,0,1,.411-.229c2.677-1.248,6.3.85,8.087,4.685,1.569,3.367-.709,8.728-.705,8.778A5.445,5.445,0,0,1,36,22.035Zm-3.311,0a1.936,1.936,0,0,0-1.6-2.01,10.059,10.059,0,0,1-.877,1.227,12.8,12.8,0,0,0,.488-2.689c-2.13-.387-4.335-2.228-5.609-4.963-.049-.1-.086-.2-.129-.305A23.936,23.936,0,0,1,21.1,15.163a20.018,20.018,0,0,1-7.365,1.323,28.276,28.276,0,0,1-6.392-.774,20.223,20.223,0,0,0-.4,2.338,12.615,12.615,0,0,0,.508,3.2,10.213,10.213,0,0,1-.875-1.227,1.935,1.935,0,0,0-1.6,2.01,1.911,1.911,0,0,0,1.776,2.027,1.62,1.62,0,0,0,.692-.156,12.106,12.106,0,0,0,22.825.015,1.571,1.571,0,0,0,.646.145A1.915,1.915,0,0,0,32.688,22.035Z" transform="translate(0 0)" fill="#828690"/>
  </g>
</svg>
