<svg xmlns="http://www.w3.org/2000/svg" width="28.104" height="21" viewBox="0 0 28.104 21">
  <g id="dog" transform="translate(0 -118.007)">
    <g id="Group_146" data-name="Group 146" transform="translate(0 118.007)">
      <path id="Path_1824" data-name="Path 1824" d="M785.072,185.728A26.508,26.508,0,0,1,785.46,191a24.894,24.894,0,0,1-.491,5.755,1.927,1.927,0,0,0,1,.286h1.409a1.233,1.233,0,0,0,1.228-1.261c-.006-.358-.018-.722-.033-1.081a38.476,38.476,0,0,0-.527-5.123,18.345,18.345,0,0,0-1.291-4.774,2.551,2.551,0,0,0-2.471-1.68c-.036.006-.1.018-.181.036a5.912,5.912,0,0,1,.331.611A8.492,8.492,0,0,1,785.072,185.728Z" transform="translate(-760.505 -181.144)" fill="#828690"/>
      <path id="Path_1825" data-name="Path 1825" d="M1.231,197.016H2.639a1.949,1.949,0,0,0,1.005-.289c-.036-.145-.069-.3-.1-.448a26.77,26.77,0,0,1-.394-5.3,26.073,26.073,0,0,1,.394-5.27,8.535,8.535,0,0,1,.638-1.962,6.4,6.4,0,0,1,.331-.6,1.408,1.408,0,0,0-.19-.039,2.544,2.544,0,0,0-2.471,1.677A18.266,18.266,0,0,0,.56,189.548a38.476,38.476,0,0,0-.527,5.123c-.015.358-.024.725-.033,1.084A1.237,1.237,0,0,0,1.231,197.016Z" transform="translate(0 -181.123)" fill="#828690"/>
      <path id="Path_1826" data-name="Path 1826" d="M140,132.518c.406,2.387,1.3,3.783,3.082,4.557a2.014,2.014,0,0,1-.039-.4,2.311,2.311,0,0,1,.734-1.649,4.674,4.674,0,0,1,1.5-.969,12.3,12.3,0,0,1,8.554,0c1.947.831,2.239,2,2.239,2.619a2.049,2.049,0,0,1-.042.406c1.788-.774,2.682-2.167,3.085-4.557a28.852,28.852,0,0,0,.289-4.668c0-3.549-.277-5.86-1.234-7.344-1.3-2-3.835-2.5-8.617-2.5s-7.317.5-8.611,2.516c-.957,1.487-1.237,3.8-1.237,7.332A28.412,28.412,0,0,0,140,132.518Zm15.636-4a1.047,1.047,0,1,1-1.047,1.047A1.048,1.048,0,0,1,155.635,128.518Zm-12.13,0a1.047,1.047,0,1,1-1.047,1.047A1.048,1.048,0,0,1,143.505,128.518Z" transform="translate(-135.502 -118.007)" fill="#828690"/>
      <path id="Path_1827" data-name="Path 1827" d="M290.869,660.708c-3.016,0-5.463,1.044-5.463,2.333a1.253,1.253,0,0,0,.367.843,3.335,3.335,0,0,0,1.044.722,9.169,9.169,0,0,0,3.215.74c.274.018.551.027.837.027s.563-.009.834-.027a9.219,9.219,0,0,0,3.209-.737,3.333,3.333,0,0,0,1.047-.719,1.25,1.25,0,0,0,.37-.846C296.332,661.752,293.885,660.708,290.869,660.708Z" transform="translate(-276.816 -644.373)" fill="#828690"/>
    </g>
  </g>
</svg>
