<svg xmlns="http://www.w3.org/2000/svg" width="31.127" height="34.234" viewBox="0 0 31.127 34.234">
  <path id="findme" d="M269.288,34.234c-4.941-5.148-10.605-1.179-16.661-5.878-10.486-7.166-7.907-23.892,4.24-27.592,15.08-4.733,26.88,13.579,16.242,25.312-.354,1.037-1.782-2.119-2.161-2.474-.925-1.745-2.51-3.227-2.94-5.188-.125-1.612.454-3.2.3-4.831.056-1.041-.379-2.03-.361-3.063-.28-.918,1.334-3.5.288-3.594-2.29.221-2.117,3.155-2.761,4.785-1.346,2.035-3.336-1.327-3.87-2.578-.461-1.036-3.289-8-4.424-5.861a1.689,1.689,0,0,0-.118,1.268c.6,2.026,2.063,3.7,2.852,5.658.649,2.633-2.056-.777-2.365-1.477-1.029-1.4-1.918-3.155-3.458-4.043a1.218,1.218,0,0,0-.932-.131c-2.26.628,4.453,6.486,4.693,7.775.211,2.661-5.44-3.9-6.62-3.854-3.317.479,4.068,5.709,4.884,6.556.975.863-.423.294-.893.041-1.445-.64-2.588-1.8-4.084-2.335-1.186-.17-.573,1.346.02,1.712a18.177,18.177,0,0,0,2.682,1.961,16.933,16.933,0,0,1,3.471,2.81,7.153,7.153,0,0,0,.95.864c.377.231,1.913,1.746,2.057,1.25-.53-.952-1.531-1.557-1.928-2.626-.064-.594-2-1.444-1.064-1.653a1.182,1.182,0,0,1,.931.183c.519.363.894,1.022,1.571.906,1-1.456-.4-3.267-.206-4.877a.389.389,0,0,1,.742-.2,1.291,1.291,0,0,0,.069.132c.432.718.09,3.2.894,3.059.368-.607-.212-2.742.146-3.588a.446.446,0,0,1,.845.08c.238,1.1-.363,2.4-.015,3.413a.207.207,0,0,0,.368.045c.509-.76.366-1.942.786-2.772.362-.865.819-.084.733.493a1.177,1.177,0,0,0-.015.2c.015.695-.479,1.579-.478,2.245a.166.166,0,0,0,.317.067c.365-.769.8-2.447,1.13-1.678a1,1,0,0,1,.065.565c-.156.931-.753,1.728-.863,2.66a1.964,1.964,0,0,0-.01.2,4.949,4.949,0,0,1-.326,1.567,6.636,6.636,0,0,0-.213,3.734c.935,3.921,3.474,7.3,5.494,10.755" transform="translate(-246.068 0)" fill="#828690"/>
</svg>
