<svg xmlns="http://www.w3.org/2000/svg" width="74.32" height="81.737" viewBox="0 0 74.32 81.737">
  <path id="no_data" data-name="no data" d="M301.507,81.737c-11.8-12.29-25.321-2.814-39.779-14.034C236.691,50.6,242.848,10.659,271.851,1.826c36-11.3,64.179,32.42,38.779,60.435-.845,2.475-4.254-5.06-5.161-5.907-2.209-4.167-5.993-7.706-7.018-12.387-.3-3.849,1.084-7.646.706-11.535.133-2.486-.9-4.847-.861-7.313-.669-2.192,3.185-8.366.688-8.58-5.467.529-5.054,7.533-6.592,11.424-3.214,4.859-7.966-3.168-9.24-6.155-1.1-2.472-7.853-19.1-10.564-13.995a4.034,4.034,0,0,0-.282,3.027c1.427,4.838,4.926,8.839,6.809,13.509,1.551,6.287-4.908-1.856-5.646-3.526-2.458-3.343-4.579-7.532-8.256-9.653a2.908,2.908,0,0,0-2.225-.313c-5.395,1.5,10.631,15.487,11.2,18.564.5,6.352-12.989-9.319-15.807-9.2-7.92,1.144,9.712,13.63,11.66,15.652,2.329,2.061-1.011.7-2.131.1-3.45-1.527-6.179-4.308-9.752-5.576-2.831-.407-1.368,3.213.047,4.088a43.4,43.4,0,0,0,6.4,4.683,40.427,40.427,0,0,1,8.288,6.708,17.079,17.079,0,0,0,2.268,2.062c.9.551,4.568,4.169,4.911,2.984-1.266-2.274-3.655-3.718-4.6-6.269-.153-1.419-4.787-3.448-2.541-3.947a2.822,2.822,0,0,1,2.224.437c1.239.867,2.133,2.441,3.751,2.162,2.387-3.476-.965-7.8-.493-11.645a.928.928,0,0,1,1.772-.473,3.073,3.073,0,0,0,.165.314c1.031,1.715.214,7.631,2.135,7.3.879-1.449-.506-6.546.349-8.566a1.065,1.065,0,0,1,2.018.19c.568,2.616-.867,5.732-.035,8.149a.494.494,0,0,0,.878.106c1.216-1.815.874-4.638,1.878-6.62.865-2.066,1.956-.2,1.751,1.177a2.816,2.816,0,0,0-.036.476c.037,1.659-1.144,3.769-1.142,5.361a.4.4,0,0,0,.756.16c.871-1.837,1.9-5.842,2.7-4.005a2.4,2.4,0,0,1,.155,1.35c-.373,2.222-1.8,4.127-2.061,6.35a4.678,4.678,0,0,0-.023.474,11.817,11.817,0,0,1-.779,3.741,15.843,15.843,0,0,0-.508,8.914c2.233,9.363,8.3,17.421,13.117,25.679" transform="translate(-246.068 0)" fill="#c6c9d1"/>
</svg>
