<svg xmlns="http://www.w3.org/2000/svg" xmlns:xlink="http://www.w3.org/1999/xlink" width="42.977" height="50.379" viewBox="0 0 42.977 50.379">
  <defs>
    <clipPath id="clip-path">
      <rect id="Rectangle_538" data-name="Rectangle 538" width="42.977" height="50.379" transform="translate(0 0)" fill="#828690"/>
    </clipPath>
  </defs>
  <g id="no_notf" data-name="no notf" clip-path="url(#clip-path)">
    <path id="Path_2528" data-name="Path 2528" d="M35.108,104.408a9.372,9.372,0,0,1-7.014-3.281,1.835,1.835,0,1,1,2.737-2.445,5.49,5.49,0,0,0,8.568,0,1.835,1.835,0,1,1,2.734,2.448,9.4,9.4,0,0,1-7.026,3.28" transform="translate(-15.22 -54.029)" fill="#828690"/>
    <path id="Path_2529" data-name="Path 2529" d="M7.159,47.087a2.021,2.021,0,0,1-1.429-3.45L42.357,7.01a2.021,2.021,0,0,1,2.858,2.858L8.588,46.5a2.015,2.015,0,0,1-1.429.592" transform="translate(-2.831 -3.536)" fill="#828690"/>
    <path id="Path_2530" data-name="Path 2530" d="M2.237,35.413l2.595-2.595a5.525,5.525,0,0,1-.459-.578,4.058,4.058,0,0,1-.332-4.026c2.129-4.691,2.288-5.121,2.178-7.808-.023-.572-.053-1.284-.053-2.249,0-4.726,3.354-14.484,13.726-14.484A12.543,12.543,0,0,1,29.7,7.948l2.589-2.589A16.249,16.249,0,0,0,19.894,0a16.252,16.252,0,0,0-13.3,6.433A19.807,19.807,0,0,0,2.5,18.157c0,1.04.031,1.793.056,2.4.076,1.889.076,1.889-1.875,6.19-.014.032-.027.063-.039.093a7.743,7.743,0,0,0,.706,7.473,9.115,9.115,0,0,0,.894,1.1" transform="translate(0 0)" fill="#828690"/>
    <path id="Path_2531" data-name="Path 2531" d="M45.855,37.4C43.9,33.1,43.9,33.1,43.98,31.21c.025-.6.056-1.358.056-2.4a19.8,19.8,0,0,0-2.61-9.475l-2.719,2.719a16.431,16.431,0,0,1,1.656,6.755c0,.965-.029,1.677-.053,2.249-.108,2.688.051,3.117,2.178,7.808h0a4.057,4.057,0,0,1-.333,4.026c-2.277,3.328-9.678,5.316-15.52,5.316A29.462,29.462,0,0,1,14.962,45.8l-2.723,2.723a23.389,23.389,0,0,0,4.342,1.819,35.307,35.307,0,0,0,10.056,1.537,35.3,35.3,0,0,0,10.055-1.537c2.791-.868,6.53-2.505,8.495-5.377a7.746,7.746,0,0,0,.708-7.473c-.012-.033-.026-.064-.04-.094" transform="translate(-6.743 -10.653)" fill="#828690"/>
  </g>
</svg>
