<svg id="search" xmlns="http://www.w3.org/2000/svg" width="20.095" height="20.095" viewBox="0 0 20.095 20.095">
  <g id="Search-2" data-name="Search" transform="translate(0.75 0.75)">
    <path id="Stroke_1" data-name="Stroke 1" d="M8.561-.75A9.311,9.311,0,1,1-.75,8.561,9.322,9.322,0,0,1,8.561-.75Zm0,17.122A7.811,7.811,0,1,0,.75,8.561,7.82,7.82,0,0,0,8.561,16.372Z" transform="translate(1.473 0)" fill="#828690"/>
    <path id="Stroke_3" data-name="Stroke 3" d="M1.41-.75A2.161,2.161,0,1,1-.75,1.41,2.163,2.163,0,0,1,1.41-.75Zm0,2.822A.661.661,0,1,0,.75,1.41.662.662,0,0,0,1.41,2.072Z" transform="translate(0 15.773)" fill="#828690"/>
  </g>
</svg>
