<svg xmlns="http://www.w3.org/2000/svg" width="25.656" height="26.368" viewBox="0 0 25.656 26.368">
  <g id="staff" transform="matrix(1, -0.017, 0.017, 1, -4.485, 0.38)">
    <path id="Path_1828" data-name="Path 1828" d="M14.215,11.977A5.744,5.744,0,0,1,15.9,7.821a5.834,5.834,0,0,1,1.661-1.179V5.673a.7.7,0,0,1,1.4,0V6.2a5.949,5.949,0,0,1,1.073-.1,5.769,5.769,0,0,1,1.734.259V2.9a1.385,1.385,0,0,0-1.239-1.4L6.065.007A1.286,1.286,0,0,0,5.927,0a1.451,1.451,0,0,0-.959.362A1.422,1.422,0,0,0,4.486,1.4v8.773a1.439,1.439,0,0,0,1.436,1.4c.045,0,.1,0,.141-.006l5.632-.546a4.556,4.556,0,0,0-.568,2.174A4.384,4.384,0,0,0,13.7,17.242V24.16a1.886,1.886,0,1,0,3.773,0V23.133H16.285a.7.7,0,0,1,0-1.4h1.186V20.237H16.285a.7.7,0,1,1,0-1.4h1.186V17.277c0-.008.058-.016.076-.024a5.957,5.957,0,0,1-3.332-5.276ZM10.052,8.986C5.342,5.981,6.649,3.3,7.9,2.9a1.774,1.774,0,0,1,2.156.994A1.67,1.67,0,0,1,12.209,2.9C13.456,3.3,14.762,5.981,10.052,8.986Z" fill="#828690"/>
    <path id="Path_1829" data-name="Path 1829" d="M137.227,94.139l4.892,4.892a1.919,1.919,0,0,0,1.359.568,1.867,1.867,0,0,0,1.327-.551,1.889,1.889,0,0,0-.018-2.684l-.726-.726-.869.869a.7.7,0,0,1-.993-.993l.869-.869-1.055-1.055-.868.869a.7.7,0,0,1-.993-.992l.868-.869h0l-1.1-1.1a4.227,4.227,0,0,0-1.083-4.68,4.522,4.522,0,0,0-3.194-1.315,4.665,4.665,0,0,0-1.095.13v1.815a.7.7,0,1,1-1.4,0v-1.2a3.585,3.585,0,0,0-.668.565,4.483,4.483,0,0,0,3.179,7.608A4.537,4.537,0,0,0,137.227,94.139Z" transform="translate(-115.586 -78.001)" fill="#828690"/>
  </g>
</svg>
