<svg xmlns="http://www.w3.org/2000/svg" width="44.931" height="40.247" viewBox="0 0 44.931 40.247">
  <g id="t-shirt" transform="translate(0 -15.569)">
    <path id="Path_1846" data-name="Path 1846" d="M.091,33.494a1.056,1.056,0,0,0,.461,1.355l4.342,2.359a1.055,1.055,0,0,0,1.37-.324l3.371-4.839c1.771,4.312.546,17.025-.005,21.868a1.71,1.71,0,0,0,1.7,1.9H33.6a1.713,1.713,0,0,0,1.7-1.9c-.552-4.843-1.777-17.556-.005-21.868l3.371,4.839a1.055,1.055,0,0,0,1.37.324l4.342-2.359a1.055,1.055,0,0,0,.461-1.355L38.364,18.9a5.682,5.682,0,0,0-4.474-3.331H30.037a1.12,1.12,0,0,0-1.1.886c-.529,2.462-3.227,4.336-6.476,4.336s-5.946-1.874-6.476-4.336a1.121,1.121,0,0,0-1.1-.886H11.041A5.682,5.682,0,0,0,6.567,18.9Z" transform="translate(0)" fill="#828690"/>
  </g>
</svg>
