<?xml version="1.0" encoding="utf-8"?>
<!-- Generator: Adobe Illustrator 26.2.1, SVG Export Plug-In . SVG Version: 6.00 Build 0)  -->
<svg version="1.1" id="Layer_1" xmlns="http://www.w3.org/2000/svg" xmlns:xlink="http://www.w3.org/1999/xlink" x="0px" y="0px"
	 viewBox="0 0 1366 768" style="enable-background:new 0 0 1366 768;" xml:space="preserve">
<style type="text/css">
	.st0{enable-background:new    ;}
	.st1{fill:#B92056;}
	.st2{fill:#25304E;}
</style>
<g>
	<g class="st0">
		<path class="st1" d="M748.38,445.53c-41.94-43.68-90-10-141.39-49.88c-88.99-60.81-67.11-202.76,35.98-234.16
			c127.98-40.16,228.12,115.24,137.84,214.81c-3,8.8-15.12-17.99-18.34-21c-7.85-14.81-21.3-27.39-24.95-44.03
			c-1.06-13.68,3.85-27.18,2.51-41c0.48-8.84-3.21-17.23-3.06-25.99c-2.38-7.79,11.32-29.74,2.45-30.5
			c-19.43,1.88-17.96,26.78-23.43,40.61c-11.42,17.27-28.32-11.26-32.84-21.88c-3.91-8.79-27.91-67.9-37.55-49.74
			c-1.75,3.3-2.06,7.18-1,10.76c5.07,17.2,17.51,31.42,24.2,48.02c5.51,22.35-17.45-6.6-20.07-12.53
			c-8.74-11.88-16.28-26.77-29.34-34.31c-2.39-1.38-5.25-1.85-7.91-1.11c-19.18,5.33,37.79,55.05,39.83,65.99
			c1.79,22.58-46.17-33.12-56.18-32.71c-28.15,4.06,34.52,48.45,41.44,55.64c8.28,7.33-3.59,2.49-7.57,0.35
			c-12.26-5.43-21.96-15.31-34.66-19.82c-10.06-1.45-4.86,11.42,0.17,14.53c7.01,6.3,14.73,11.72,22.76,16.64
			c10.82,6.63,20.75,14.62,29.46,23.85c2.5,2.64,5.12,5.16,8.06,7.33c3.2,1.96,16.24,14.82,17.46,10.61
			c-4.5-8.08-12.99-13.21-16.36-22.28c-0.55-5.04-17.01-12.25-9.03-14.03c2.73-0.61,5.62-0.05,7.91,1.55
			c4.4,3.08,7.58,8.67,13.33,7.69c8.49-12.36-3.43-27.73-1.75-41.39c-0.19-3.98,4.8-4.98,6.3-1.68c0.17,0.38,0.37,0.76,0.59,1.12
			c3.66,6.1,0.76,27.12,7.59,25.96c3.12-5.15-1.8-23.27,1.24-30.45c1.43-3.38,6.39-2.91,7.17,0.68c2.02,9.3-3.08,20.37-0.12,28.97
			c0.47,1.37,2.31,1.58,3.12,0.38c4.32-6.45,3.11-16.48,6.67-23.53c3.07-7.35,6.95-0.72,6.22,4.18c-0.08,0.56-0.14,1.13-0.13,1.69
			c0.13,5.9-4.07,13.4-4.06,19.05c0,1.49,2.05,1.91,2.69,0.57c3.1-6.53,6.75-20.76,9.59-14.24c0.65,1.5,0.82,3.18,0.55,4.8
			c-1.33,7.9-6.39,14.67-7.32,22.57c-0.07,0.56-0.07,1.12-0.08,1.68c-0.07,4.62-1.26,9.01-2.77,13.3
			c-3.58,10.19-4.31,21.19-1.8,31.69C709.7,387.54,731.25,416.18,748.38,445.53z"/>
	</g>
	<g class="st0">
		<path class="st2" d="M305.26,420.46h109.08v33.09h-68.57v40.77h64.07v32.83h-64.07v71.75h-40.51V420.46z"/>
		<path class="st2" d="M519.72,510.75c0-16.15-0.53-29.92-1.06-41.3h34.95l1.85,17.74h0.79c5.29-8.21,18.53-20.65,39.98-20.65
			c26.48,0,46.33,17.47,46.33,55.6v76.78h-40.24v-71.75c0-16.68-5.82-28.06-20.39-28.06c-11.12,0-17.74,7.68-20.39,15.09
			c-1.06,2.38-1.59,6.35-1.59,10.06v74.66h-40.24V510.75z"/>
		<path class="st2" d="M804.87,410.93v149.32c0,14.56,0.53,29.92,1.06,38.65h-35.74l-1.85-19.06h-0.53
			c-8.21,14.56-23.83,21.97-40.51,21.97c-30.71,0-55.33-26.21-55.33-66.45c-0.27-43.68,27-68.84,57.98-68.84
			c15.88,0,28.33,5.56,34.15,14.56h0.53v-70.16H804.87z M764.62,524.25c0-2.12-0.26-5.03-0.53-7.15
			c-2.38-10.85-11.12-19.86-23.56-19.86c-18.27,0-27.8,16.42-27.8,36.8c0,21.97,10.86,35.74,27.54,35.74
			c11.65,0,20.92-7.94,23.3-19.33c0.79-2.91,1.06-5.82,1.06-9.27V524.25z"/>
		<path class="st1" d="M841.67,510.75c0-16.15-0.53-29.92-1.06-41.3h33.89l1.85,17.47h0.79c5.56-8.21,16.94-20.39,39.18-20.39
			c16.68,0,29.92,8.47,35.48,21.97h0.53c4.77-6.62,10.59-11.91,16.68-15.62c7.15-4.24,15.09-6.35,24.62-6.35
			c24.89,0,43.69,17.47,43.69,56.13v76.25h-39.18v-70.42c0-18.8-6.09-29.65-19.06-29.65c-9.27,0-15.88,6.35-18.53,14.03
			c-1.06,2.91-1.59,7.15-1.59,10.33v75.72h-39.18v-72.54c0-16.42-5.82-27.53-18.53-27.53c-10.33,0-16.42,7.94-18.8,14.56
			c-1.32,3.18-1.59,6.88-1.59,10.06v75.46h-39.18V510.75z"/>
		<path class="st2" d="M1104.84,547.02c1.32,16.68,17.74,24.62,36.54,24.62c13.77,0,24.89-1.85,35.74-5.29l5.3,27.27
			c-13.24,5.29-29.39,7.94-46.86,7.94c-43.95,0-69.1-25.42-69.1-65.92c0-32.83,20.39-69.1,65.39-69.1
			c41.83,0,57.72,32.57,57.72,64.6c0,6.88-0.79,12.97-1.32,15.89H1104.84z M1152.24,519.48c0-9.8-4.24-26.21-22.77-26.21
			c-16.94,0-23.83,15.36-24.89,26.21H1152.24z"/>
		<g>
			<path class="st2" d="M469.25,475.58c-1.44,2.16-3.79,3.42-6.31,3.42c-2.56,0-4.91-1.28-6.29-3.42l-13.98-21.59v144.92h40.24
				V454.48L469.25,475.58z"/>
		</g>
		<path class="st1" d="M462.95,419.88c-11.08,0-19.94,8.67-19.94,19.94c0,3.9,1.15,7.26,3.12,10.32l14.72,22.73
			c0.44,0.68,1.22,1.14,2.1,1.14s1.66-0.45,2.11-1.14l14.72-22.73c1.98-3.06,3.12-6.42,3.12-10.32
			C482.88,428.54,474.03,419.88,462.95,419.88z M462.95,451.2c-6.29,0-11.39-5.1-11.39-11.39s5.1-11.39,11.39-11.39
			s11.39,5.1,11.39,11.39S469.24,451.2,462.95,451.2z"/>
	</g>
</g>
</svg>
