<svg xmlns="http://www.w3.org/2000/svg" width="280.52" height="163.903" viewBox="0 0 280.52 163.903">
  <g id="Group_708" data-name="Group 708" transform="translate(-425 -1400)">
    <g id="freepik--background-complete--inject-4" transform="translate(436.39 1400)">
      <path id="Path_207" data-name="Path 207" d="M312.13,291.433c0,.059-59.1.1-132,.1s-132.013-.043-132.013-.1,59.091-.1,132.013-.1S312.13,291.377,312.13,291.433Z" transform="translate(-48.12 -191.358)" fill="#e0e0e0"/>
      <path id="Path_208" data-name="Path 208" d="M269.894,169.36s3.274-80.88-74.2-80.88-71.443,80.88-71.443,80.88Z" transform="translate(-94.086 -68.708)" fill="#ebebeb"/>
      <path id="Path_209" data-name="Path 209" d="M270.463,222.912s-2.518-45.862,27.968-45.862S326.9,222.912,326.9,222.912Z" transform="translate(-182.525 -122.26)" fill="#e0e0e0"/>
      <path id="Path_210" data-name="Path 210" d="M289.412,222.912S286.89,177.05,317.38,177.05s28.466,45.862,28.466,45.862Z" transform="translate(-193.983 -122.26)" fill="#f5f5f5"/>
      <path id="Path_211" data-name="Path 211" d="M182.926,254.563c0,.055-12.806.1-28.6.1s-28.6-.047-28.6-.1,12.806-.1,28.6-.1S182.926,254.5,182.926,254.563Z" transform="translate(-95.04 -169.065)" fill="#e0e0e0"/>
      <path id="Path_212" data-name="Path 212" d="M223.513,255.56c.059,0,.107,3.4.107,7.6s-.047,7.6-.107,7.6-.1-3.4-.1-7.6S223.457,255.56,223.513,255.56Z" transform="translate(-154.106 -169.73)" fill="#e0e0e0"/>
      <path id="Path_213" data-name="Path 213" d="M194.392,211.733c0,.055-13.644.1-30.471.1s-30.471-.047-30.471-.1,13.64-.1,30.471-.1S194.392,211.677,194.392,211.733Z" transform="translate(-99.713 -143.168)" fill="#e0e0e0"/>
      <path id="Path_214" data-name="Path 214" d="M262.843,229.446c-.055,0-.1-3.867-.1-8.635s.047-8.631.1-8.631.1,3.863.1,8.631S262.9,229.446,262.843,229.446Z" transform="translate(-177.887 -143.501)" fill="#e0e0e0"/>
      <path id="Path_215" data-name="Path 215" d="M180.717,228.987c-.059,0-.107-3.764-.107-8.4s.047-8.405.107-8.405.1,3.76.1,8.405S180.764,228.987,180.717,228.987Z" transform="translate(-128.228 -143.501)" fill="#e0e0e0"/>
      <path id="Path_216" data-name="Path 216" d="M279.828,253.934a33.673,33.673,0,0,1-5.258,0,33.673,33.673,0,0,1,5.258,0Z" transform="translate(-185.039 -168.677)" fill="#e0e0e0"/>
      <path id="Path_217" data-name="Path 217" d="M304.457,260.292c0,.051-2.938-.652-6.527-1.581s-6.492-1.72-6.48-1.775,2.938.648,6.531,1.581S304.473,260.237,304.457,260.292Z" transform="translate(-195.246 -170.56)" fill="#e0e0e0"/>
      <path id="Path_218" data-name="Path 218" d="M311.88,231.595a2.307,2.307,0,0,1-.494-.182l-1.313-.565c-1.1-.49-2.625-1.186-4.3-1.945s-3.187-1.479-4.278-2l-1.285-.625a2.665,2.665,0,0,1-.459-.257,2.9,2.9,0,0,1,.494.182l1.313.569c1.107.486,2.625,1.186,4.3,1.945s3.187,1.475,4.274,1.977l1.289.629A2.532,2.532,0,0,1,311.88,231.595Z" transform="translate(-200.264 -151.869)" fill="#e0e0e0"/>
      <path id="Path_219" data-name="Path 219" d="M326.937,204.764c-.04.043-2.218-1.977-4.863-4.476s-4.764-4.59-4.725-4.63,2.218,1.977,4.863,4.479S326.976,204.725,326.937,204.764Z" transform="translate(-210.905 -133.512)" fill="#e0e0e0"/>
      <path id="Path_220" data-name="Path 220" d="M324.437,210.17a1.881,1.881,0,0,1-.178.4q-.221.439-.546,1.067c-.467.9-1.127,2.135-1.866,3.5s-1.419,2.582-1.921,3.463c-.237.4-.439.755-.6,1.04a1.913,1.913,0,0,1-.245.368,1.979,1.979,0,0,1,.174-.4l.546-1.071c.47-.9,1.127-2.135,1.866-3.491s1.419-2.582,1.921-3.463l.6-1.04A1.912,1.912,0,0,1,324.437,210.17Z" transform="translate(-211.952 -142.286)" fill="#e0e0e0"/>
      <path id="Path_221" data-name="Path 221" d="M385.741,191.909c.043.04-2.107,2.439-4.8,5.365s-4.91,5.262-4.946,5.223,2.107-2.439,4.8-5.365S385.7,191.87,385.741,191.909Z" transform="translate(-246.367 -131.244)" fill="#e0e0e0"/>
      <path id="Path_222" data-name="Path 222" d="M394.882,218.221a2.4,2.4,0,0,1-.3-.4c-.186-.269-.443-.664-.759-1.154-.629-.977-1.487-2.337-2.412-3.851a37.164,37.164,0,0,1-3.135-5.61s.02.04.059.115.1.186.182.324c.186.316.423.712.7,1.186l2.372,3.879c.909,1.5,1.736,2.851,2.372,3.882.277.474.514.87.7,1.186a2.425,2.425,0,0,1,.221.439Z" transform="translate(-253.783 -140.496)" fill="#e0e0e0"/>
      <path id="Path_223" data-name="Path 223" d="M402.1,228.507c.024.051-2.934,1.3-6.6,2.791s-6.654,2.653-6.674,2.6,2.934-1.3,6.6-2.791S402.083,228.456,402.1,228.507Z" transform="translate(-254.125 -153.372)" fill="#e0e0e0"/>
      <path id="Path_224" data-name="Path 224" d="M408.284,260.744c0,.055-3.218.727-7.215,1.5s-7.247,1.352-7.259,1.3,3.238-.72,7.219-1.51S408.276,260.689,408.284,260.744Z" transform="translate(-257.136 -172.862)" fill="#e0e0e0"/>
      <path id="Path_225" data-name="Path 225" d="M293.4,212.278a5.1,5.1,0,0,1-1.02.095c-.633.028-1.506.047-2.471.04s-1.835-.043-2.467-.083a4.72,4.72,0,0,1-1.02-.115,5.454,5.454,0,0,1,1.024-.032l2.467.024,2.463.02A5.374,5.374,0,0,1,293.4,212.278Z" transform="translate(-192.204 -143.496)" fill="#e0e0e0"/>
      <path id="Path_226" data-name="Path 226" d="M273.808,169.223c0,.055-27.474.1-61.357.1s-61.361-.047-61.361-.1,27.466-.1,61.361-.1S273.808,169.167,273.808,169.223Z" transform="translate(-110.379 -117.465)" fill="#e0e0e0"/>
      <path id="Path_227" data-name="Path 227" d="M442.366,211.573c0,.055-5.535.1-12.371.1s-12.375-.047-12.375-.1,5.535-.1,12.375-.1S442.366,211.517,442.366,211.573Z" transform="translate(-271.532 -143.072)" fill="#e0e0e0"/>
      <path id="Path_228" data-name="Path 228" d="M454.829,254.033c0,.055-5.215.1-11.647.1s-11.651-.047-11.651-.1,5.215-.1,11.651-.1S454.829,253.977,454.829,254.033Z" transform="translate(-279.943 -168.744)" fill="#e0e0e0"/>
      <path id="Path_229" data-name="Path 229" d="M428.843,229.624c-.059,0-.1-3.6-.1-8.03s.043-8.034.1-8.034.1,3.594.1,8.034S428.886,229.624,428.843,229.624Z" transform="translate(-278.256 -144.335)" fill="#e0e0e0"/>
      <path id="Path_230" data-name="Path 230" d="M461.023,270.047c-.059,0-.1-3.143-.1-7.022s.032-7.026.1-7.026.1,3.163.1,7.018S461.078,270.047,461.023,270.047Z" transform="translate(-297.713 -169.996)" fill="#e0e0e0"/>
      <path id="Path_231" data-name="Path 231" d="M453.151,186.21a3.786,3.786,0,0,1-.134-.672c-.083-.47-.186-1.091-.316-1.842-.273-1.554-.692-3.693-1.269-6.029s-1.186-4.424-1.68-5.93c-.237-.724-.431-1.324-.577-1.775a3.8,3.8,0,0,1-.194-.66,5.032,5.032,0,0,1,.269.633c.162.4.4,1.012.64,1.759.518,1.491,1.162,3.582,1.744,5.93s.977,4.491,1.21,6.053c.119.791.206,1.415.253,1.854A5.079,5.079,0,0,1,453.151,186.21Z" transform="translate(-290.494 -117.574)" fill="#e0e0e0"/>
      <path id="Path_232" data-name="Path 232" d="M278.63,128.837c0,.055-21.745.1-48.555.1s-48.555-.047-48.555-.1,21.745-.107,48.555-.107S278.63,128.781,278.63,128.837Z" transform="translate(-128.778 -93.044)" fill="#e0e0e0"/>
      <path id="Path_233" data-name="Path 233" d="M267.119,145.49a3.656,3.656,0,0,1,0-.64c0-.4.036-1.008.1-1.744a32.784,32.784,0,0,1,3.025-11.07c.32-.664.593-1.186.791-1.55a3.585,3.585,0,0,1,.332-.546,4.106,4.106,0,0,1-.265.581c-.182.368-.435.905-.735,1.581a37,37,0,0,0-3.013,11.015c-.083.727-.138,1.321-.166,1.732A3.519,3.519,0,0,1,267.119,145.49Z" transform="translate(-180.525 -93.776)" fill="#e0e0e0"/>
      <path id="Path_234" data-name="Path 234" d="M346.619,145.376a4.1,4.1,0,0,1-.123-.644c-.063-.451-.15-1.044-.257-1.759-.2-1.522-.471-3.558-.771-5.812s-.6-4.317-.874-5.792c-.13-.712-.241-1.3-.328-1.748a4.864,4.864,0,0,1-.107-.64,3.617,3.617,0,0,1,.186.625c.1.4.245,1,.4,1.736.3,1.471.637,3.523.933,5.792s.538,4.349.712,5.824c.079.72.142,1.313.19,1.767A3.476,3.476,0,0,1,346.619,145.376Z" transform="translate(-227.116 -93.195)" fill="#e0e0e0"/>
      <path id="Path_235" data-name="Path 235" d="M412.478,144.694a3.845,3.845,0,0,1-.17-.625l-.4-1.712c-.34-1.451-.791-3.452-1.487-5.61-.344-1.079-.72-2.088-1.1-2.993a24.179,24.179,0,0,0-1.123-2.348c-.17-.332-.348-.617-.494-.874s-.277-.47-.4-.644a4.047,4.047,0,0,1-.328-.557,3.952,3.952,0,0,1,.4.514c.123.166.269.4.423.629s.344.534.522.862a24.364,24.364,0,0,1,1.186,2.345,27.389,27.389,0,0,1,1.119,3,57.984,57.984,0,0,1,1.431,5.642c.15.727.261,1.321.336,1.728a3.723,3.723,0,0,1,.075.641Z" transform="translate(-265.105 -93.407)" fill="#e0e0e0"/>
      <path id="Path_236" data-name="Path 236" d="M192.96,128.41a4.4,4.4,0,0,1-.356.593c-.241.4-.581.921-.992,1.605a51.624,51.624,0,0,0-2.882,5.507,50.933,50.933,0,0,0-2.174,5.824c-.233.759-.4,1.38-.53,1.811a4.1,4.1,0,0,1-.206.66,5.211,5.211,0,0,1,.13-.68c.091-.439.249-1.064.467-1.835a43.49,43.49,0,0,1,2.127-5.863,44.344,44.344,0,0,1,2.942-5.5c.431-.672.791-1.21,1.056-1.581A5.033,5.033,0,0,1,192.96,128.41Z" transform="translate(-131.378 -92.851)" fill="#e0e0e0"/>
      <path id="Path_237" data-name="Path 237" d="M223.17,187.162a3.475,3.475,0,0,1-.091-.64c-.047-.4-.087-1.012-.115-1.755a32.815,32.815,0,0,1,1.672-11.438c.237-.7.451-1.269.613-1.649a4.452,4.452,0,0,1,.269-.589,3.954,3.954,0,0,1-.194.617c-.138.4-.328.957-.55,1.665a36.768,36.768,0,0,0-1.665,11.39c0,.743.028,1.34.047,1.755A4.43,4.43,0,0,1,223.17,187.162Z" transform="translate(-153.827 -118.657)" fill="#e0e0e0"/>
      <path id="Path_238" data-name="Path 238" d="M152.7,186.507a3.7,3.7,0,0,1,0-.617,16.714,16.714,0,0,1,.13-1.668,34.087,34.087,0,0,1,1.111-5.417c.593-2.08,1.257-3.918,1.755-5.243.249-.66.459-1.186.6-1.562a4.287,4.287,0,0,1,.249-.561,2.918,2.918,0,0,1-.174.589c-.138.4-.324.945-.542,1.581-.463,1.332-1.107,3.163-1.7,5.247a40.36,40.36,0,0,0-1.166,5.377c-.095.7-.158,1.265-.19,1.661a3.614,3.614,0,0,1-.083.613Z" transform="translate(-111.345 -118.868)" fill="#e0e0e0"/>
      <path id="Path_239" data-name="Path 239" d="M316.914,175.441a15.814,15.814,0,0,1-.332-2.518,16.293,16.293,0,0,1-.13-2.542,15.631,15.631,0,0,1,.336,2.522A15.384,15.384,0,0,1,316.914,175.441Z" transform="translate(-210.358 -118.227)" fill="#e0e0e0"/>
      <path id="Path_240" data-name="Path 240" d="M266.555,89.13a1.076,1.076,0,0,1-.237.087l-.684.206-.5.146c-.182.059-.372.134-.581.21-.4.154-.9.3-1.4.538l-.791.348c-.277.123-.553.277-.846.423-.593.281-1.186.648-1.819,1.02a25.157,25.157,0,0,0-6.994,6.46c-.419.6-.834,1.186-1.162,1.736-.166.281-.344.546-.486.791l-.4.791c-.277.486-.463.953-.648,1.356-.091.2-.182.4-.253.561s-.127.336-.182.486c-.107.273-.194.494-.265.668a1.127,1.127,0,0,1-.1.229.961.961,0,0,1,.067-.241c.055-.178.13-.4.225-.684l.166-.494c.067-.178.154-.368.237-.573.178-.4.356-.882.625-1.372.127-.253.261-.514.4-.791s.316-.538.478-.822c.324-.577.735-1.147,1.154-1.759a26.34,26.34,0,0,1,3.2-3.6,26.791,26.791,0,0,1,3.835-2.906c.644-.368,1.245-.735,1.842-1.012.3-.142.577-.293.858-.4l.814-.336c.51-.229,1-.368,1.419-.514.21-.067.4-.138.585-.194l.506-.127.7-.17a.956.956,0,0,1,.237-.067Z" transform="translate(-169.706 -69.101)" fill="#e0e0e0"/>
      <path id="Path_241" data-name="Path 241" d="M338.73,105.777a1.344,1.344,0,0,1-.083-.221l-.21-.637c-.083-.277-.19-.617-.34-1s-.293-.834-.51-1.3-.427-1-.716-1.542-.585-1.115-.933-1.708a24.431,24.431,0,0,0-5.871-6.654c-.546-.4-1.064-.791-1.581-1.139s-.992-.637-1.439-.9-.87-.474-1.234-.668-.684-.348-.949-.467l-.609-.285a.791.791,0,0,1-.206-.115,1.185,1.185,0,0,1,.221.075l.625.253a10.424,10.424,0,0,1,.969.431c.372.19.791.4,1.253.648s.953.534,1.463.882,1.048.72,1.6,1.135a25.975,25.975,0,0,1,3.278,3.068,25.3,25.3,0,0,1,2.637,3.637c.344.6.668,1.186.925,1.728s.494,1.079.7,1.581.344.933.482,1.321.237.735.312,1.016.127.482.17.652a.875.875,0,0,1,.047.21Z" transform="translate(-214.957 -69.107)" fill="#e0e0e0"/>
      <path id="Path_242" data-name="Path 242" d="M352.351,211.73a9.489,9.489,0,0,0-4.171.929c10.975,5.258,10.161,31.21,10.161,31.21h8.35S367.7,211.73,352.351,211.73Z" transform="translate(-229.547 -143.228)" fill="#ebebeb"/>
      <path id="Path_243" data-name="Path 243" d="M332.983,214.08c-10.932,5.258-9.912,31.2-9.912,31.2h20.073S343.959,219.338,332.983,214.08Z" transform="translate(-214.35 -144.65)" fill="#e0e0e0"/>
      <path id="Path_244" data-name="Path 244" d="M352.663,177.4c.055,0,.589,3.013,1.186,6.745s1.044,6.773.988,6.784-.589-3.013-1.186-6.749S352.608,177.408,352.663,177.4Z" transform="translate(-232.254 -122.472)" fill="#e0e0e0"/>
      <path id="Path_245" data-name="Path 245" d="M489.843,110.108c-.059,0-.1-4.812-.1-10.75s.043-10.758.1-10.758.1,4.816.1,10.758S489.91,110.108,489.843,110.108Z" transform="translate(-315.138 -68.78)" fill="#e0e0e0"/>
      <path id="Path_246" data-name="Path 246" d="M485,113.023c-.028.051-4.306-2.372-9.552-5.417s-9.489-5.535-9.449-5.6,4.306,2.372,9.552,5.42S485.029,112.976,485,113.023Z" transform="translate(-300.784 -76.887)" fill="#e0e0e0"/>
      <path id="Path_247" data-name="Path 247" d="M466.59,113.319c-.028-.047,4.1-2.4,9.216-5.262s9.287-5.14,9.315-5.088-4.1,2.408-9.216,5.266S466.617,113.371,466.59,113.319Z" transform="translate(-301.141 -77.468)" fill="#e0e0e0"/>
      <path id="Path_248" data-name="Path 248" d="M488.812,101.066a5.414,5.414,0,0,1-.684.791c-.443.47-1.064,1.111-1.759,1.807h0l-.071.075-.075-.075c-.68-.7-1.289-1.348-1.724-1.823a4.9,4.9,0,0,1-.668-.791,5.426,5.426,0,0,1,.771.7c.463.447,1.087,1.075,1.771,1.779h-.15c.7-.7,1.332-1.324,1.8-1.767a5.349,5.349,0,0,1,.791-.692Z" transform="translate(-311.565 -76.308)" fill="#e0e0e0"/>
      <path id="Path_249" data-name="Path 249" d="M489.243,94.19a12.577,12.577,0,0,1-1.55,1.708l-.04.043-.071.071-.071-.067a12.355,12.355,0,0,1-1.581-1.605,12.134,12.134,0,0,1,1.712,1.455H487.5l.043-.04A12.97,12.97,0,0,1,489.243,94.19Z" transform="translate(-312.835 -72.16)" fill="#e0e0e0"/>
      <path id="Path_250" data-name="Path 250" d="M501.212,107.015a5.139,5.139,0,0,1-1.024-.213c-.625-.158-1.487-.4-2.435-.656h-.02l-.1-.032.032-.1c.285-.937.55-1.783.755-2.392a5.139,5.139,0,0,1,.368-.973,5.282,5.282,0,0,1-.229,1.016c-.166.617-.4,1.471-.7,2.408l-.083-.123h.02c.949.269,1.8.522,2.42.716A5.334,5.334,0,0,1,501.212,107.015Z" transform="translate(-319.909 -77.275)" fill="#e0e0e0"/>
      <path id="Path_251" data-name="Path 251" d="M508.03,104.2a12.8,12.8,0,0,1-2.246-.522h-.055l-.1-.028.024-.1a12.506,12.506,0,0,1,.64-2.155,12.5,12.5,0,0,1-.439,2.206l-.071-.123h.055a13,13,0,0,1,2.19.72Z" transform="translate(-324.746 -76.52)" fill="#e0e0e0"/>
      <path id="Path_252" data-name="Path 252" d="M498.3,122.154a5.753,5.753,0,0,1-.4-.969c-.214-.609-.5-1.455-.791-2.372h0l-.032-.1.1-.032c.937-.285,1.791-.534,2.408-.7a5.086,5.086,0,0,1,1.016-.233,5.29,5.29,0,0,1-.973.372c-.609.206-1.455.474-2.392.759l.071-.13h0c.3.937.569,1.787.747,2.408A5.216,5.216,0,0,1,498.3,122.154Z" transform="translate(-319.577 -86.405)" fill="#e0e0e0"/>
      <path id="Path_253" data-name="Path 253" d="M505.042,125.569a12.7,12.7,0,0,1-.81-2.159v-.055l-.032-.095.095-.036a12.471,12.471,0,0,1,2.147-.664,12.562,12.562,0,0,1-2.076.858l.063-.13v.059a12.617,12.617,0,0,1,.613,2.222Z" transform="translate(-323.882 -89.314)" fill="#e0e0e0"/>
      <path id="Path_254" data-name="Path 254" d="M483.72,126.9a5.313,5.313,0,0,1,.66-.811c.427-.486,1.028-1.143,1.7-1.862h0l.071-.079.075.075c.7.68,1.332,1.309,1.779,1.767a5.072,5.072,0,0,1,.7.791,5.093,5.093,0,0,1-.791-.672c-.474-.431-1.119-1.04-1.823-1.724h.146c-.672.72-1.289,1.364-1.744,1.823a5.016,5.016,0,0,1-.771.692Z" transform="translate(-311.499 -90.275)" fill="#e0e0e0"/>
      <path id="Path_255" data-name="Path 255" d="M486,134.26a12.853,12.853,0,0,1,1.495-1.751l.04-.043.067-.075.075.067a12.592,12.592,0,0,1,1.621,1.554,12.455,12.455,0,0,1-1.755-1.4h.142l-.04.043A13.017,13.017,0,0,1,486,134.26Z" transform="translate(-312.877 -95.257)" fill="#e0e0e0"/>
      <path id="Path_256" data-name="Path 256" d="M473.68,117.68a5.112,5.112,0,0,1,1.024.225c.625.166,1.483.4,2.428.688h0l.1.032-.032.1c-.293.933-.569,1.775-.791,2.372a5.112,5.112,0,0,1-.4.969,5.183,5.183,0,0,1,.241-1.012c.178-.617.431-1.463.727-2.4l.067.13h-.02c-.945-.277-1.795-.542-2.412-.743a5.862,5.862,0,0,1-.937-.36Z" transform="translate(-305.428 -86.363)" fill="#e0e0e0"/>
      <path id="Path_257" data-name="Path 257" d="M469.31,122.37a12.652,12.652,0,0,1,2.238.55h.055l.1.028-.028.1a12.225,12.225,0,0,1-.664,2.147,12.415,12.415,0,0,1,.467-2.2l.071.123h-.059a13.546,13.546,0,0,1-2.178-.747Z" transform="translate(-302.786 -89.199)" fill="#e0e0e0"/>
      <path id="Path_258" data-name="Path 258" d="M476.391,102.27a5.1,5.1,0,0,1,.281,1.008c.146.629.336,1.5.534,2.467h0l.02.1h-.1c-.965.178-1.838.328-2.471.423a5.266,5.266,0,0,1-1.032.119,5.077,5.077,0,0,1,1-.261c.629-.134,1.5-.3,2.463-.482l-.083.119h0c-.2-.965-.364-1.842-.474-2.479a5.371,5.371,0,0,1-.138-1.016Z" transform="translate(-305.392 -77.046)" fill="#e0e0e0"/>
      <path id="Path_259" data-name="Path 259" d="M471.1,101.44a12.819,12.819,0,0,1,.561,2.234v.059l.02.1-.095.02a12.213,12.213,0,0,1-2.21.419,12.952,12.952,0,0,1,2.163-.617l-.079.119v-.055A13.206,13.206,0,0,1,471.1,101.44Z" transform="translate(-302.828 -76.544)" fill="#e0e0e0"/>
      <path id="Path_260" data-name="Path 260" d="M644.073,323.955c-.059,0-.1-3.04-.1-6.792s.043-6.792.1-6.792.1,3.04.1,6.792S644.128,323.955,644.073,323.955Z" transform="translate(-408.391 -202.87)" fill="#e0e0e0"/>
      <path id="Path_261" data-name="Path 261" d="M641.053,325.8c-.028.051-2.74-1.467-6.053-3.388s-5.982-3.519-5.95-3.558,2.736,1.471,6.053,3.392S641.081,325.748,641.053,325.8Z" transform="translate(-399.37 -207.996)" fill="#e0e0e0"/>
      <path id="Path_262" data-name="Path 262" d="M629.42,326.02c-.028-.051,2.574-1.554,5.8-3.361s5.875-3.23,5.9-3.163-2.57,1.554-5.8,3.361S629.447,326.056,629.42,326.02Z" transform="translate(-399.593 -208.387)" fill="#e0e0e0"/>
      <path id="Path_263" data-name="Path 263" d="M643.457,318.228a12.313,12.313,0,0,1-1.514,1.672h0l-.071.075-.075-.075a12.476,12.476,0,0,1-1.487-1.68,12.112,12.112,0,0,1,1.633,1.538h-.174A12.7,12.7,0,0,1,643.457,318.228Z" transform="translate(-406.178 -207.616)" fill="#e0e0e0"/>
      <path id="Path_264" data-name="Path 264" d="M643.737,313.88a4.944,4.944,0,0,1-.949,1.107l-.028.028-.071.071-.071-.071a4.909,4.909,0,0,1-.969-1.04,5.1,5.1,0,0,1,1.107.89h-.142l.028-.028a5.335,5.335,0,0,1,1.1-.957Z" transform="translate(-406.988 -204.992)" fill="#e0e0e0"/>
      <path id="Path_265" data-name="Path 265" d="M651.241,321.986a12.2,12.2,0,0,1-2.2-.514h0l-.1-.028.032-.1a12.312,12.312,0,0,1,.747-2.115,12.9,12.9,0,0,1-.55,2.174l-.071-.13h0a12.74,12.74,0,0,1,2.143.712Z" transform="translate(-411.396 -208.227)" fill="#e0e0e0"/>
      <path id="Path_266" data-name="Path 266" d="M655.532,320.205a5.451,5.451,0,0,1-1.431-.3h-.036l-.095-.028.024-.1a5.231,5.231,0,0,1,.439-1.352,5.01,5.01,0,0,1-.237,1.4l-.075-.127h.036a5.193,5.193,0,0,1,1.376.5Z" transform="translate(-414.438 -207.743)" fill="#e0e0e0"/>
      <path id="Path_267" data-name="Path 267" d="M649.366,331.525a12.168,12.168,0,0,1-.791-2.111h0l-.036-.1.1-.032a12.282,12.282,0,0,1,2.171-.553,11.986,11.986,0,0,1-2.111.751l.067-.13h0a12.418,12.418,0,0,1,.6,2.174Z" transform="translate(-411.154 -213.971)" fill="#e0e0e0"/>
      <path id="Path_268" data-name="Path 268" d="M653.637,333.684a5.486,5.486,0,0,1-.546-1.352V332.3l-.032-.095.095-.036a5.1,5.1,0,0,1,1.368-.4,4.935,4.935,0,0,1-1.3.577l.059-.126v.036A5.117,5.117,0,0,1,653.637,333.684Z" transform="translate(-413.887 -215.809)" fill="#e0e0e0"/>
      <path id="Path_269" data-name="Path 269" d="M640.24,334.471a12.465,12.465,0,0,1,1.467-1.716h0l.071-.075.075.071a12.4,12.4,0,0,1,1.538,1.633,12.256,12.256,0,0,1-1.68-1.483h.146A12.528,12.528,0,0,1,640.24,334.471Z" transform="translate(-406.136 -216.359)" fill="#e0e0e0"/>
      <path id="Path_270" data-name="Path 270" d="M641.66,339.114a5.14,5.14,0,0,1,.917-1.135l.024-.024.067-.075.075.067a5.139,5.139,0,0,1,1,1.008,4.945,4.945,0,0,1-1.135-.854h.142l-.024.028A5.223,5.223,0,0,1,641.66,339.114Z" transform="translate(-406.994 -219.503)" fill="#e0e0e0"/>
      <path id="Path_271" data-name="Path 271" d="M633.9,328.72a12.3,12.3,0,0,1,2.19.538h0l.1.032-.032.1a13.021,13.021,0,0,1-.771,2.107,11.972,11.972,0,0,1,.573-2.167l.071.127h0a12.482,12.482,0,0,1-2.135-.735Z" transform="translate(-402.303 -213.965)" fill="#e0e0e0"/>
      <path id="Path_272" data-name="Path 272" d="M631.14,331.68a5.271,5.271,0,0,1,1.423.312h.036l.1.028-.028.095a5.168,5.168,0,0,1-.455,1.348,4.949,4.949,0,0,1,.257-1.4l.071.127h-.036A5.14,5.14,0,0,1,631.14,331.68Z" transform="translate(-400.634 -215.755)" fill="#e0e0e0"/>
      <path id="Path_273" data-name="Path 273" d="M635.581,319a12.293,12.293,0,0,1,.55,2.19h0v.1l-.1.02a12.211,12.211,0,0,1-2.218.3,12.4,12.4,0,0,1,2.182-.506l-.083.119h0A12.738,12.738,0,0,1,635.581,319Z" transform="translate(-402.248 -208.088)" fill="#e0e0e0"/>
      <path id="Path_274" data-name="Path 274" d="M632.253,318.46a5.3,5.3,0,0,1,.4,1.4V320l-.1.024a4.971,4.971,0,0,1-1.4.229,4.993,4.993,0,0,1,1.352-.431l-.075.123v-.036a5.177,5.177,0,0,1-.174-1.447Z" transform="translate(-400.64 -207.761)" fill="#e0e0e0"/>
      <path id="Path_275" data-name="Path 275" d="M684.593,221.849c-.055,0-.1-4.179-.1-9.335s.047-9.335.1-9.335.1,4.179.1,9.335S684.652,221.849,684.593,221.849Z" transform="translate(-432.891 -138.059)" fill="#e0e0e0"/>
      <path id="Path_276" data-name="Path 276" d="M680.388,224.379c-.032.051-3.748-2.048-8.3-4.689s-8.224-4.82-8.2-4.871,3.744,2.052,8.3,4.693S680.416,224.323,680.388,224.379Z" transform="translate(-420.435 -145.096)" fill="#e0e0e0"/>
      <path id="Path_277" data-name="Path 277" d="M664.41,224.615c-.028-.047,3.558-2.1,7.994-4.582s8.065-4.452,8.093-4.4-3.558,2.1-7.994,4.582S664.437,224.667,664.41,224.615Z" transform="translate(-420.75 -145.586)" fill="#e0e0e0"/>
      <path id="Path_278" data-name="Path 278" d="M683.689,213.994a4,4,0,0,1-.589.7c-.4.4-.917.969-1.522,1.581h0l-.075.075-.071-.075c-.593-.609-1.123-1.186-1.495-1.581a4.066,4.066,0,0,1-.577-.7,3.729,3.729,0,0,1,.68.6c.4.4.945.929,1.538,1.542h-.146c.6-.6,1.158-1.147,1.581-1.53a4.067,4.067,0,0,1,.676-.6Z" transform="translate(-429.789 -144.595)" fill="#e0e0e0"/>
      <path id="Path_279" data-name="Path 279" d="M684.08,208a10.062,10.062,0,0,1-1.332,1.494l-.036.036-.071.071-.075-.067a9.768,9.768,0,0,1-1.356-1.4,9.1,9.1,0,0,1,1.5,1.253h-.142l.036-.036A9.91,9.91,0,0,1,684.08,208Z" transform="translate(-430.908 -140.974)" fill="#e0e0e0"/>
      <path id="Path_280" data-name="Path 280" d="M694.461,219.148a4.057,4.057,0,0,1-.893-.178c-.542-.134-1.293-.332-2.115-.565h0l-.1-.028.032-.1c.245-.814.478-1.546.66-2.076a3.915,3.915,0,0,1,.328-.838,3.918,3.918,0,0,1-.19.882c-.146.538-.356,1.277-.6,2.091l-.071-.127h0c.822.233,1.581.455,2.1.625a4.01,4.01,0,0,1,.858.316Z" transform="translate(-437.039 -145.424)" fill="#e0e0e0"/>
      <path id="Path_281" data-name="Path 281" d="M700.355,216.708a9.791,9.791,0,0,1-1.953-.439h-.047l-.095-.028.024-.095a9.644,9.644,0,0,1,.565-1.866,9.137,9.137,0,0,1-.368,1.914l-.071-.123h.051A10.045,10.045,0,0,1,700.355,216.708Z" transform="translate(-441.217 -144.771)" fill="#e0e0e0"/>
      <path id="Path_282" data-name="Path 282" d="M691.893,232.253a3.84,3.84,0,0,1-.348-.838c-.19-.53-.439-1.261-.7-2.076h0l-.032-.1.1-.032c.814-.249,1.554-.459,2.091-.6a4.432,4.432,0,0,1,.882-.194,3.773,3.773,0,0,1-.838.332c-.53.182-1.261.4-2.076.664l.067-.13h0c.261.814.49,1.554.644,2.091a4.026,4.026,0,0,1,.214.886Z" transform="translate(-436.712 -153.314)" fill="#e0e0e0"/>
      <path id="Path_283" data-name="Path 283" d="M697.757,235.249a10.28,10.28,0,0,1-.716-1.87v-.047l-.032-.095.095-.036a9.292,9.292,0,0,1,1.866-.561,9.528,9.528,0,0,1-1.795.755l.063-.127v.047A9.684,9.684,0,0,1,697.757,235.249Z" transform="translate(-440.461 -155.872)" fill="#e0e0e0"/>
      <path id="Path_284" data-name="Path 284" d="M679.28,236.378a4.152,4.152,0,0,1,.565-.712c.372-.423.89-1,1.475-1.621h0l.071-.075.075.071c.613.593,1.154,1.135,1.542,1.538a3.728,3.728,0,0,1,.6.68,3.954,3.954,0,0,1-.7-.577c-.4-.372-.973-.9-1.581-1.494h.146c-.585.625-1.123,1.186-1.518,1.581A4.061,4.061,0,0,1,679.28,236.378Z" transform="translate(-429.741 -156.676)" fill="#e0e0e0"/>
      <path id="Path_285" data-name="Path 285" d="M681.22,242.765a9.441,9.441,0,0,1,1.289-1.534l.036-.036.067-.075.075.067a9.809,9.809,0,0,1,1.4,1.36,9.2,9.2,0,0,1-1.534-1.186h.142l-.036.04a10.033,10.033,0,0,1-1.439,1.364Z" transform="translate(-430.914 -160.999)" fill="#e0e0e0"/>
      <path id="Path_286" data-name="Path 286" d="M670.56,228.4a3.814,3.814,0,0,1,.893.186c.542.142,1.285.352,2.107.593h0l.1.032-.032.1c-.257.791-.5,1.542-.684,2.068a3.772,3.772,0,0,1-.34.834,3.844,3.844,0,0,1,.2-.878c.15-.538.368-1.273.625-2.088l.071.13h0c-.818-.245-1.558-.474-2.091-.652a3.988,3.988,0,0,1-.854-.324Z" transform="translate(-424.468 -153.308)" fill="#e0e0e0"/>
      <path id="Path_287" data-name="Path 287" d="M666.77,232.47a9.724,9.724,0,0,1,1.945.467h.051l.095.028-.024.111a9.487,9.487,0,0,1-.593,1.858,9.94,9.94,0,0,1,.4-1.91l.071.123h-.047A9.761,9.761,0,0,1,666.77,232.47Z" transform="translate(-422.177 -155.769)" fill="#e0e0e0"/>
      <path id="Path_288" data-name="Path 288" d="M672.918,215a4.036,4.036,0,0,1,.253.874c.127.546.293,1.3.463,2.139v.02l.024.1-.1.02c-.838.154-1.581.281-2.147.364a4.074,4.074,0,0,1-.9.095,3.768,3.768,0,0,1,.87-.237c.546-.119,1.3-.269,2.135-.423l-.083.119h0c-.17-.838-.312-1.6-.4-2.151A4.08,4.08,0,0,1,672.918,215Z" transform="translate(-424.438 -145.206)" fill="#e0e0e0"/>
      <path id="Path_289" data-name="Path 289" d="M668.324,214.3a9.842,9.842,0,0,1,.5,1.937v.051l.02.1h-.1a9.418,9.418,0,0,1-1.918.352,9.551,9.551,0,0,1,1.87-.55l-.075.119v-.047A9.885,9.885,0,0,1,668.324,214.3Z" transform="translate(-422.213 -144.783)" fill="#e0e0e0"/>
      <path id="Path_290" data-name="Path 290" d="M341.843,319.622c-.055,0-.1-2.72-.1-6.069s.047-6.073.1-6.073.1,2.716.1,6.073S341.89,319.622,341.843,319.622Z" transform="translate(-225.653 -201.123)" fill="#e0e0e0"/>
      <path id="Path_291" data-name="Path 291" d="M339.136,321.258c-.028.047-2.455-1.3-5.417-3.021s-5.341-3.163-5.31-3.2,2.451,1.3,5.413,3.021S339.163,321.207,339.136,321.258Z" transform="translate(-217.592 -205.693)" fill="#e0e0e0"/>
      <path id="Path_292" data-name="Path 292" d="M328.74,321.421c-.028-.047,2.293-1.4,5.179-3.013s5.254-2.882,5.282-2.831-2.289,1.4-5.179,3.013S328.767,321.473,328.74,321.421Z" transform="translate(-217.792 -206.018)" fill="#e0e0e0"/>
      <path id="Path_293" data-name="Path 293" d="M341.281,314.5a9.684,9.684,0,0,1-1.344,1.5h0l-.075.071-.075-.075a9.791,9.791,0,0,1-1.317-1.506,9.861,9.861,0,0,1,1.467,1.364h-.146A9.882,9.882,0,0,1,341.281,314.5Z" transform="translate(-223.675 -205.361)" fill="#e0e0e0"/>
      <path id="Path_294" data-name="Path 294" d="M341.536,310.63a4.238,4.238,0,0,1-.842.992l-.024.024-.071.071-.071-.067a4.023,4.023,0,0,1-.858-.937,3.894,3.894,0,0,1,1,.791h-.142l.024-.024A4.107,4.107,0,0,1,341.536,310.63Z" transform="translate(-224.401 -203.027)" fill="#e0e0e0"/>
      <path id="Path_295" data-name="Path 295" d="M348.2,317.863a9.914,9.914,0,0,1-1.977-.447h0l-.1-.028.032-.1a10.28,10.28,0,0,1,.676-1.886,9.514,9.514,0,0,1-.478,1.945l-.071-.127h0A9.767,9.767,0,0,1,348.2,317.863Z" transform="translate(-228.301 -205.911)" fill="#e0e0e0"/>
      <path id="Path_296" data-name="Path 296" d="M352.048,316.281a4.193,4.193,0,0,1-1.277-.253h-.032l-.1-.024.024-.1a4.02,4.02,0,0,1,.4-1.206,4.248,4.248,0,0,1-.206,1.257l-.071-.127h.032a4.115,4.115,0,0,1,1.234.451Z" transform="translate(-231.034 -205.488)" fill="#e0e0e0"/>
      <path id="Path_297" data-name="Path 297" d="M346.547,326.395a10,10,0,0,1-.716-1.882h0l-.032-.1.1-.032a9.828,9.828,0,0,1,1.945-.482,10.3,10.3,0,0,1-1.886.68l.067-.13h0A9.681,9.681,0,0,1,346.547,326.395Z" transform="translate(-228.107 -211.051)" fill="#e0e0e0"/>
      <path id="Path_298" data-name="Path 298" d="M350.36,328.36a4.263,4.263,0,0,1-.5-1.186v-.032l-.032-.1.095-.032a3.973,3.973,0,0,1,1.226-.332,4.107,4.107,0,0,1-1.155.526l.063-.13v.032A4.2,4.2,0,0,1,350.36,328.36Z" transform="translate(-230.544 -212.732)" fill="#e0e0e0"/>
      <path id="Path_299" data-name="Path 299" d="M338.41,328.991a9.98,9.98,0,0,1,1.3-1.542h0l.071-.079.075.075a9.807,9.807,0,0,1,1.368,1.467,9.884,9.884,0,0,1-1.51-1.321h.146a10.075,10.075,0,0,1-1.451,1.4Z" transform="translate(-223.639 -213.149)" fill="#e0e0e0"/>
      <path id="Path_300" data-name="Path 300" d="M339.67,333.131a4.221,4.221,0,0,1,.814-1.02v-.028l.107-.083.075.067a4.2,4.2,0,0,1,.886.909,3.892,3.892,0,0,1-1.024-.755h.142l-.02.024A4.123,4.123,0,0,1,339.67,333.131Z" transform="translate(-224.401 -215.948)" fill="#e0e0e0"/>
      <path id="Path_301" data-name="Path 301" d="M332.74,323.88a9.848,9.848,0,0,1,1.977.474h0l.1.032-.032.1a9.884,9.884,0,0,1-.7,1.878,10.281,10.281,0,0,1,.506-1.937l.067.127h0a9.95,9.95,0,0,1-1.918-.672Z" transform="translate(-220.211 -211.039)" fill="#e0e0e0"/>
      <path id="Path_302" data-name="Path 302" d="M330.28,326.53a4.062,4.062,0,0,1,1.273.269h.032l.1.028-.028.1a3.952,3.952,0,0,1-.419,1.186,4.108,4.108,0,0,1,.221-1.249l.071.123H331.5A4.262,4.262,0,0,1,330.28,326.53Z" transform="translate(-218.724 -212.641)" fill="#e0e0e0"/>
      <path id="Path_303" data-name="Path 303" d="M334.294,315.18a10.012,10.012,0,0,1,.5,1.953h0l.024.1h-.1a9.757,9.757,0,0,1-1.977.261,10.084,10.084,0,0,1,1.949-.463l-.083.123h0A9.957,9.957,0,0,1,334.294,315.18Z" transform="translate(-220.211 -205.778)" fill="#e0e0e0"/>
      <path id="Path_304" data-name="Path 304" d="M331.287,314.71a4.222,4.222,0,0,1,.36,1.253V316l.02.095-.1.024a4,4,0,0,1-1.257.194,4.079,4.079,0,0,1,1.21-.4l-.075.123v-.032A4.1,4.1,0,0,1,331.287,314.71Z" transform="translate(-218.742 -205.494)" fill="#e0e0e0"/>
      <path id="Path_305" data-name="Path 305" d="M254.083,52.059c-.055,0-.1-3.044-.1-6.792s.047-6.8.1-6.8.1,3.04.1,6.8S254.142,52.059,254.083,52.059Z" transform="translate(-172.59 -38.47)" fill="#e0e0e0"/>
      <path id="Path_306" data-name="Path 306" d="M251.063,53.905c-.028.047-2.736-1.467-6.053-3.388s-5.978-3.519-5.95-3.558,2.74,1.471,6.057,3.392S251.095,53.858,251.063,53.905Z" transform="translate(-163.569 -43.602)" fill="#e0e0e0"/>
      <path id="Path_307" data-name="Path 307" d="M239.44,54.1c-.028-.051,2.57-1.554,5.8-3.361s5.875-3.23,5.9-3.163-2.57,1.554-5.8,3.357S239.467,54.147,239.44,54.1Z" transform="translate(-163.798 -43.975)" fill="#e0e0e0"/>
      <path id="Path_308" data-name="Path 308" d="M253.471,46.332A12.65,12.65,0,0,1,251.953,48h0l-.075.075L251.807,48a12.472,12.472,0,0,1-1.487-1.68,12.514,12.514,0,0,1,1.633,1.534h-.146a12.291,12.291,0,0,1,1.664-1.522Z" transform="translate(-170.377 -43.216)" fill="#e0e0e0"/>
      <path id="Path_309" data-name="Path 309" d="M253.808,42a5.278,5.278,0,0,1-.953,1.107l-.024.024-.071.071-.075-.067a5.064,5.064,0,0,1-.965-1.04,5.065,5.065,0,0,1,1.107.89h-.142l.024-.028A5.294,5.294,0,0,1,253.808,42Z" transform="translate(-171.223 -40.604)" fill="#e0e0e0"/>
      <path id="Path_310" data-name="Path 310" d="M261.263,50.1a12.126,12.126,0,0,1-2.194-.514h0l-.1-.028.028-.1a12.313,12.313,0,0,1,.747-2.115,12.043,12.043,0,0,1-.55,2.175l-.071-.13h0a12.454,12.454,0,0,1,2.139.712Z" transform="translate(-175.607 -43.833)" fill="#e0e0e0"/>
      <path id="Path_311" data-name="Path 311" d="M265.542,48.3A5.14,5.14,0,0,1,264.114,48h-.036l-.1-.024.028-.1a5.056,5.056,0,0,1,.439-1.352,4.939,4.939,0,0,1-.241,1.4l-.071-.127h.036a5.381,5.381,0,0,1,1.372.49Z" transform="translate(-178.636 -43.343)" fill="#e0e0e0"/>
      <path id="Path_312" data-name="Path 312" d="M259.392,59.635a12.139,12.139,0,0,1-.791-2.111h0l-.032-.1.1-.028a12.275,12.275,0,0,1,2.174-.554,12.542,12.542,0,0,1-2.111.751l.067-.13h0a12.747,12.747,0,0,1,.593,2.175Z" transform="translate(-175.365 -49.577)" fill="#e0e0e0"/>
      <path id="Path_313" data-name="Path 313" d="M263.651,61.794a5.231,5.231,0,0,1-.55-1.352v-.036l-.032-.095.091-.036a5.14,5.14,0,0,1,1.372-.4,5.25,5.25,0,0,1-1.3.577l.063-.127v.036a5.116,5.116,0,0,1,.356,1.427Z" transform="translate(-178.086 -51.415)" fill="#e0e0e0"/>
      <path id="Path_314" data-name="Path 314" d="M250.26,62.589a12.445,12.445,0,0,1,1.479-1.7h0l.071-.075.075.071a12.188,12.188,0,0,1,1.534,1.633,12.316,12.316,0,0,1-1.68-1.506h.146a12.417,12.417,0,0,1-1.625,1.581Z" transform="translate(-170.341 -51.978)" fill="#e0e0e0"/>
      <path id="Path_315" data-name="Path 315" d="M251.67,67.224a5.425,5.425,0,0,1,.921-1.135l.028-.028.067-.071.075.063a5.108,5.108,0,0,1,1,1.012,5.092,5.092,0,0,1-1.135-.854h.146l-.028.028a5.14,5.14,0,0,1-1.071.984Z" transform="translate(-171.193 -55.11)" fill="#e0e0e0"/>
      <path id="Path_316" data-name="Path 316" d="M243.92,56.83a12.3,12.3,0,0,1,2.19.538h0l.1.032-.032.1a11.909,11.909,0,0,1-.771,2.1,12.394,12.394,0,0,1,.577-2.167l.067.13h0A12.731,12.731,0,0,1,243.92,56.83Z" transform="translate(-166.507 -49.571)" fill="#e0e0e0"/>
      <path id="Path_317" data-name="Path 317" d="M241.16,59.79a5.092,5.092,0,0,1,1.423.312h.036l.095.032-.024.095a4.957,4.957,0,0,1-.459,1.344,5.325,5.325,0,0,1,.257-1.4l.071.123h-.036A5.175,5.175,0,0,1,241.16,59.79Z" transform="translate(-164.839 -51.361)" fill="#e0e0e0"/>
      <path id="Path_318" data-name="Path 318" d="M245.6,47.09a12.6,12.6,0,0,1,.55,2.186h0v.1h-.1a12.624,12.624,0,0,1-2.222.3,12.288,12.288,0,0,1,2.182-.51l-.079.123h0a12.352,12.352,0,0,1-.328-2.206Z" transform="translate(-166.447 -43.682)" fill="#e0e0e0"/>
      <path id="Path_319" data-name="Path 319" d="M242.343,46.57a5.21,5.21,0,0,1,.4,1.4v.036l.024.1-.1.024a5.187,5.187,0,0,1-1.4.229,5.053,5.053,0,0,1,1.34-.435l-.079.123v-.04A5.258,5.258,0,0,1,242.343,46.57Z" transform="translate(-164.899 -43.368)" fill="#e0e0e0"/>
      <path id="Path_320" data-name="Path 320" d="M644.453,61.9c-.059,0-.1-5.14-.1-11.466s.043-11.485.1-11.485.1,5.14.1,11.485S644.508,61.9,644.453,61.9Z" transform="translate(-408.621 -38.76)" fill="#e0e0e0"/>
      <path id="Path_321" data-name="Path 321" d="M639.234,65.011c-.028.051-4.594-2.542-10.2-5.792s-10.125-5.93-10.1-5.97,4.594,2.546,10.2,5.792S639.266,64.944,639.234,65.011Z" transform="translate(-393.257 -47.406)" fill="#e0e0e0"/>
      <path id="Path_322" data-name="Path 322" d="M619.58,65.277c-.028-.051,4.381-2.566,9.845-5.618s9.92-5.488,9.947-5.44-4.381,2.566-9.849,5.618S619.607,65.325,619.58,65.277Z" transform="translate(-393.644 -47.992)" fill="#e0e0e0"/>
      <path id="Path_323" data-name="Path 323" d="M643.3,52.22a5.983,5.983,0,0,1-.735.842c-.471.5-1.135,1.186-1.878,1.929v.02l-.071.071-.075-.075c-.728-.751-1.38-1.439-1.842-1.941a6.2,6.2,0,0,1-.72-.846,5.971,5.971,0,0,1,.8.743c.49.478,1.158,1.151,1.886,1.9h-.146c.743-.747,1.423-1.415,1.921-1.89a6.079,6.079,0,0,1,.862-.755Z" transform="translate(-404.77 -46.784)" fill="#e0e0e0"/>
      <path id="Path_324" data-name="Path 324" d="M643.781,44.85a14.758,14.758,0,0,1-1.657,1.819l-.047.043-.067.071-.075-.067a14.115,14.115,0,0,1-1.684-1.708,14.374,14.374,0,0,1,1.827,1.558h-.146l.047-.047a14.891,14.891,0,0,1,1.8-1.668Z" transform="translate(-406.142 -42.328)" fill="#e0e0e0"/>
      <path id="Path_325" data-name="Path 325" d="M656.6,58.551a6.361,6.361,0,0,1-1.1-.233c-.668-.17-1.581-.419-2.6-.7h0l-.1-.028.032-.1c.3-1,.589-1.9.791-2.554a6.07,6.07,0,0,1,.4-1.04,5.858,5.858,0,0,1-.253,1.083c-.178.66-.443,1.581-.743,2.574l-.071-.13h.024c1.012.285,1.925.554,2.582.759a5.857,5.857,0,0,1,1.044.376Z" transform="translate(-413.73 -47.793)" fill="#e0e0e0"/>
      <path id="Path_326" data-name="Path 326" d="M663.844,55.549a14.631,14.631,0,0,1-2.4-.565h-.059l-.1-.024.024-.1a14.988,14.988,0,0,1,.676-2.3,14.33,14.33,0,0,1-.474,2.372l-.071-.127h.059a14.783,14.783,0,0,1,2.341.743Z" transform="translate(-418.863 -46.989)" fill="#e0e0e0"/>
      <path id="Path_327" data-name="Path 327" d="M653.465,74.679a6.123,6.123,0,0,1-.4-1.04c-.229-.648-.534-1.554-.858-2.554h0l-.032-.1.1-.032c1-.3,1.91-.569,2.57-.751a5.856,5.856,0,0,1,1.083-.253,6.068,6.068,0,0,1-1.04.4c-.648.217-1.554.506-2.554.791l.067-.13h0c.324,1,.609,1.91.791,2.574A5.93,5.93,0,0,1,653.465,74.679Z" transform="translate(-413.355 -57.504)" fill="#e0e0e0"/>
      <path id="Path_328" data-name="Path 328" d="M660.609,78.379a14.875,14.875,0,0,1-.862-2.309l-.02-.059-.028-.095.119-.016a14.741,14.741,0,0,1,2.289-.72,13.968,13.968,0,0,1-2.218.913l.063-.13.02.059A15.325,15.325,0,0,1,660.609,78.379Z" transform="translate(-417.902 -60.666)" fill="#e0e0e0"/>
      <path id="Path_329" data-name="Path 329" d="M637.87,79.818a6.2,6.2,0,0,1,.712-.866c.455-.514,1.1-1.218,1.815-1.977h0l.071-.075.079.071c.751.731,1.419,1.4,1.9,1.886a5.74,5.74,0,0,1,.747.826,6.2,6.2,0,0,1-.846-.72c-.506-.463-1.186-1.115-1.945-1.842h.146c-.716.767-1.376,1.455-1.862,1.945A5.536,5.536,0,0,1,637.87,79.818Z" transform="translate(-404.703 -61.706)" fill="#e0e0e0"/>
      <path id="Path_330" data-name="Path 330" d="M640.26,87.659a14.477,14.477,0,0,1,1.581-1.87l.043-.047.067-.071.075.067a13.9,13.9,0,0,1,1.755,1.645,14.772,14.772,0,0,1-1.87-1.5h.142l-.043.047a14.875,14.875,0,0,1-1.751,1.732Z" transform="translate(-406.148 -67.009)" fill="#e0e0e0"/>
      <path id="Path_331" data-name="Path 331" d="M627.15,69.93a5.882,5.882,0,0,1,1.091.245c.664.178,1.581.439,2.59.735h.024l.1.028-.032.1c-.312,1-.609,1.9-.834,2.542a5.659,5.659,0,0,1-.4,1.036,6.765,6.765,0,0,1,.265-1.079c.19-.656.463-1.581.791-2.562l.067.13h-.024c-1.008-.3-1.918-.577-2.574-.791A6.013,6.013,0,0,1,627.15,69.93Z" transform="translate(-398.221 -57.492)" fill="#e0e0e0"/>
      <path id="Path_332" data-name="Path 332" d="M622.48,74.94a14.444,14.444,0,0,1,2.372.593h.059l.1.028-.028.1a14.241,14.241,0,0,1-.7,2.293,14.437,14.437,0,0,1,.506-2.348l.071.127h-.063A14.9,14.9,0,0,1,622.48,74.94Z" transform="translate(-395.398 -60.521)" fill="#e0e0e0"/>
      <path id="Path_333" data-name="Path 333" d="M630.011,53.47a6.2,6.2,0,0,1,.3,1.079c.154.672.356,1.581.565,2.633v.127h-.1c-1.028.19-1.977.348-2.637.455a5.949,5.949,0,0,1-1.1.13,6,6,0,0,1,1.075-.273c.672-.142,1.581-.324,2.629-.514l-.083.119v.012c-.21-1.032-.4-1.977-.506-2.649a5.83,5.83,0,0,1-.134-1.119Z" transform="translate(-398.149 -47.54)" fill="#e0e0e0"/>
      <path id="Path_334" data-name="Path 334" d="M624.344,52.59a14.835,14.835,0,0,1,.593,2.372v.158l-.095.024a14,14,0,0,1-2.372.455,14.556,14.556,0,0,1,2.309-.656l-.079.123V55a14.721,14.721,0,0,1-.356-2.412Z" transform="translate(-395.392 -47.007)" fill="#e0e0e0"/>
      <path id="Path_335" data-name="Path 335" d="M88.963,107.7c-.055,0-.1-3.325-.1-7.425s.047-7.429.1-7.429.1,3.325.1,7.429S89.018,107.7,88.963,107.7Z" transform="translate(-72.753 -71.35)" fill="#e0e0e0"/>
      <path id="Path_336" data-name="Path 336" d="M85.646,109.705c-.032.047-2.993-1.613-6.614-3.716s-6.539-3.843-6.512-3.89,2.989,1.613,6.614,3.712S85.674,109.654,85.646,109.705Z" transform="translate(-62.873 -76.941)" fill="#e0e0e0"/>
      <path id="Path_337" data-name="Path 337" d="M72.94,109.906c-.028-.047,2.815-1.688,6.326-3.665s6.421-3.535,6.448-3.483-2.811,1.688-6.326,3.665S72.963,109.97,72.94,109.906Z" transform="translate(-63.127 -77.34)" fill="#e0e0e0"/>
      <path id="Path_338" data-name="Path 338" d="M88.28,101.442a14.866,14.866,0,0,1-1.664,1.819h0l-.071.075-.075-.075a14.822,14.822,0,0,1-1.629-1.831,15,15,0,0,1,1.779,1.688h-.146A15.182,15.182,0,0,1,88.28,101.442Z" transform="translate(-70.322 -76.538)" fill="#e0e0e0"/>
      <path id="Path_339" data-name="Path 339" d="M88.585,96.7a6.42,6.42,0,0,1-1.048,1.186l-.028.028-.071.071-.071-.051A6.179,6.179,0,0,1,86.3,96.819a5.907,5.907,0,0,1,1.186.981h-.119l.028-.028A6.136,6.136,0,0,1,88.585,96.7Z" transform="translate(-71.205 -73.678)" fill="#e0e0e0"/>
      <path id="Path_340" data-name="Path 340" d="M96.8,105.553a14.408,14.408,0,0,1-2.4-.569h0l-.1-.028.032-.1a14.629,14.629,0,0,1,.791-2.313,15.023,15.023,0,0,1-.609,2.372l-.071-.13h0a15.683,15.683,0,0,1,2.36.771Z" transform="translate(-76.042 -77.209)" fill="#e0e0e0"/>
      <path id="Path_341" data-name="Path 341" d="M101.492,103.607a6.041,6.041,0,0,1-1.558-.332h-.04l-.095-.028.024-.1a6.109,6.109,0,0,1,.47-1.479,5.966,5.966,0,0,1-.273,1.53l-.071-.123h.04A6.135,6.135,0,0,1,101.492,103.607Z" transform="translate(-79.368 -76.683)" fill="#e0e0e0"/>
      <path id="Path_342" data-name="Path 342" d="M94.79,115.986a14.605,14.605,0,0,1-.838-2.313h0l-.032-.1.1-.032a14.324,14.324,0,0,1,2.372-.613,15.182,15.182,0,0,1-2.313.791l.071-.13h0a14.743,14.743,0,0,1,.64,2.4Z" transform="translate(-75.812 -83.491)" fill="#e0e0e0"/>
      <path id="Path_343" data-name="Path 343" d="M99.425,118.366a6.164,6.164,0,0,1-.593-1.483v-.036l-.032-.095.095-.036a5.931,5.931,0,0,1,1.494-.427,6.132,6.132,0,0,1-1.423.621l.063-.127v.036a6.413,6.413,0,0,1,.4,1.546Z" transform="translate(-78.763 -85.523)" fill="#e0e0e0"/>
      <path id="Path_344" data-name="Path 344" d="M84.76,119.215a15.464,15.464,0,0,1,1.609-1.866h0l.071-.079.075.075a14.1,14.1,0,0,1,1.684,1.779,14.5,14.5,0,0,1-1.827-1.633h.146A14.568,14.568,0,0,1,84.76,119.215Z" transform="translate(-70.274 -86.115)" fill="#e0e0e0"/>
      <path id="Path_345" data-name="Path 345" d="M86.31,124.3a6.374,6.374,0,0,1,1.008-1.234l.028-.028.067-.075.075.067a5.851,5.851,0,0,1,1.1,1.1,6.057,6.057,0,0,1-1.214-.945h.142l-.028.032A6.251,6.251,0,0,1,86.31,124.3Z" transform="translate(-71.211 -89.556)" fill="#e0e0e0"/>
      <path id="Path_346" data-name="Path 346" d="M77.83,112.91a15.646,15.646,0,0,1,2.372.6h0l.1.032-.032.1a14.538,14.538,0,0,1-.791,2.309,14.336,14.336,0,0,1,.637-2.372l.071.13h0A14.371,14.371,0,0,1,77.83,112.91Z" transform="translate(-66.084 -83.479)" fill="#e0e0e0"/>
      <path id="Path_347" data-name="Path 347" d="M74.81,116.15a6.392,6.392,0,0,1,1.554.352h.04l.1.028-.028.095a5.863,5.863,0,0,1-.49,1.475,6.136,6.136,0,0,1,.293-1.526l.071.127h-.04a6.25,6.25,0,0,1-1.5-.55Z" transform="translate(-64.258 -85.438)" fill="#e0e0e0"/>
      <path id="Path_348" data-name="Path 348" d="M79.667,102.27a15.237,15.237,0,0,1,.593,2.4h0v.1h-.1a14.839,14.839,0,0,1-2.428.344,14.774,14.774,0,0,1,2.372-.546l-.079.123h0a14.74,14.74,0,0,1-.356-2.42Z" transform="translate(-66.023 -77.046)" fill="#e0e0e0"/>
      <path id="Path_349" data-name="Path 349" d="M76.02,101.7a6.136,6.136,0,0,1,.419,1.538v.138l-.095.024a5.931,5.931,0,0,1-1.534.257A6.073,6.073,0,0,1,76.3,103.2l-.079.119v-.04A6.326,6.326,0,0,1,76.02,101.7Z" transform="translate(-64.258 -76.701)" fill="#e0e0e0"/>
      <path id="Path_350" data-name="Path 350" d="M78.413,335.848c-.055,0-.1-4.816-.1-10.754s.047-10.754.1-10.754.1,4.816.1,10.754S78.472,335.848,78.413,335.848Z" transform="translate(-66.374 -205.27)" fill="#e0e0e0"/>
      <path id="Path_351" data-name="Path 351" d="M73.545,338.743c-.032.047-4.309-2.372-9.556-5.417s-9.489-5.535-9.449-5.6,4.306,2.372,9.556,5.42S73.572,338.692,73.545,338.743Z" transform="translate(-52.001 -213.365)" fill="#e0e0e0"/>
      <path id="Path_352" data-name="Path 352" d="M55.14,339.039c-.028-.047,4.1-2.408,9.216-5.266s9.287-5.14,9.315-5.084-4.1,2.408-9.216,5.262S55.167,339.091,55.14,339.039Z" transform="translate(-52.364 -213.945)" fill="#e0e0e0"/>
      <path id="Path_353" data-name="Path 353" d="M77.382,326.792a5.23,5.23,0,0,1-.684.791c-.443.47-1.064,1.111-1.755,1.811h0l-.075.075-.071-.075c-.684-.7-1.293-1.348-1.724-1.823a5.323,5.323,0,0,1-.672-.791,5.023,5.023,0,0,1,.791.7c.459.447,1.083,1.075,1.767,1.775h-.146c.692-.7,1.332-1.321,1.8-1.767A5.316,5.316,0,0,1,77.382,326.792Z" transform="translate(-62.801 -212.792)" fill="#e0e0e0"/>
      <path id="Path_354" data-name="Path 354" d="M77.787,319.91a12.859,12.859,0,0,1-1.55,1.708l-.04.043-.071.071-.075-.071a12.711,12.711,0,0,1-1.581-1.605,12.7,12.7,0,0,1,1.724,1.471h-.142l.04-.043A13.257,13.257,0,0,1,77.787,319.91Z" transform="translate(-64.052 -208.638)" fill="#e0e0e0"/>
      <path id="Path_355" data-name="Path 355" d="M89.762,332.741a5.143,5.143,0,0,1-1.024-.214c-.629-.158-1.491-.4-2.435-.656h-.024l-.1-.028.032-.1c.281-.941.55-1.783.751-2.392a5.29,5.29,0,0,1,.372-.973,5.219,5.219,0,0,1-.229,1.012c-.17.621-.4,1.471-.7,2.412l-.067-.13h0c.949.265,1.8.522,2.42.712A5.273,5.273,0,0,1,89.762,332.741Z" transform="translate(-71.132 -213.759)" fill="#e0e0e0"/>
      <path id="Path_356" data-name="Path 356" d="M96.576,329.923a13.046,13.046,0,0,1-2.246-.526h-.055l-.095-.028.024-.095a13.024,13.024,0,0,1,.637-2.155,12.075,12.075,0,0,1-.439,2.2l-.071-.123h.055A12.786,12.786,0,0,1,96.576,329.923Z" transform="translate(-75.969 -212.998)" fill="#e0e0e0"/>
      <path id="Path_357" data-name="Path 357" d="M86.848,347.838a5.345,5.345,0,0,1-.4-.973c-.217-.609-.5-1.451-.791-2.372v-.02l-.032-.1.1-.028c.937-.289,1.787-.534,2.408-.7a5.221,5.221,0,0,1,1.012-.229,5.67,5.67,0,0,1-.973.372c-.6.2-1.451.47-2.372.755l.067-.13v.024c.3.937.565,1.787.747,2.408A5.219,5.219,0,0,1,86.848,347.838Z" transform="translate(-70.8 -222.847)" fill="#e0e0e0"/>
      <path id="Path_358" data-name="Path 358" d="M93.558,351.255a13.36,13.36,0,0,1-.811-2.159v-.055l-.047-.111.095-.032a12.6,12.6,0,0,1,2.147-.668,12.5,12.5,0,0,1-2.08.862l.063-.13v.055A13,13,0,0,1,93.558,351.255Z" transform="translate(-75.075 -225.761)" fill="#e0e0e0"/>
      <path id="Path_359" data-name="Path 359" d="M72.27,352.622a5.435,5.435,0,0,1,.66-.814c.427-.482,1.028-1.143,1.7-1.862h0l.071-.075.075.071c.7.684,1.332,1.309,1.779,1.767a5.342,5.342,0,0,1,.692.791,5.415,5.415,0,0,1-.791-.668c-.47-.435-1.115-1.044-1.819-1.724h.146c-.672.72-1.289,1.364-1.744,1.823a5.248,5.248,0,0,1-.771.692Z" transform="translate(-62.722 -226.753)" fill="#e0e0e0"/>
      <path id="Path_360" data-name="Path 360" d="M74.5,359.98a12.957,12.957,0,0,1,1.5-1.755l.04-.043.067-.071.075.063a12.46,12.46,0,0,1,1.621,1.558,12.452,12.452,0,0,1-1.755-1.4h.142l-.04.043A12.889,12.889,0,0,1,74.5,359.98Z" transform="translate(-64.07 -231.735)" fill="#e0e0e0"/>
      <path id="Path_361" data-name="Path 361" d="M62.23,343.39a5.286,5.286,0,0,1,1.02.229c.625.162,1.483.4,2.428.684h0l.1.028-.032.1c-.3.933-.573,1.775-.791,2.372a5.076,5.076,0,0,1-.4.969,5.425,5.425,0,0,1,.245-1.012c.174-.617.431-1.467.724-2.4l.071.13h-.024c-.941-.281-1.795-.542-2.408-.743A5.25,5.25,0,0,1,62.23,343.39Z" transform="translate(-56.651 -222.835)" fill="#e0e0e0"/>
      <path id="Path_362" data-name="Path 362" d="M57.86,348.08a12.978,12.978,0,0,1,2.238.553h.055l.095.028-.024.1a12.944,12.944,0,0,1-.664,2.143,12.256,12.256,0,0,1,.463-2.2l.071.127h-.055a12.571,12.571,0,0,1-2.178-.751Z" transform="translate(-54.009 -225.671)" fill="#e0e0e0"/>
      <path id="Path_363" data-name="Path 363" d="M64.935,328a5.713,5.713,0,0,1,.281,1.012c.146.629.336,1.5.53,2.463v.024l.024.1h-.1c-.965.178-1.838.328-2.475.427a5.265,5.265,0,0,1-1.032.119,5.177,5.177,0,0,1,1.008-.261c.625-.134,1.494-.308,2.459-.486l-.083.123v-.02c-.194-.969-.364-1.842-.474-2.479A5.507,5.507,0,0,1,64.935,328Z" transform="translate(-56.609 -213.53)" fill="#e0e0e0"/>
      <path id="Path_364" data-name="Path 364" d="M59.692,327.15a13.134,13.134,0,0,1,.565,2.238v.154l-.1.024a12.2,12.2,0,0,1-2.159.419,12.744,12.744,0,0,1,2.159-.621l-.075.123v-.059A12.952,12.952,0,0,1,59.692,327.15Z" transform="translate(-54.094 -213.016)" fill="#e0e0e0"/>
      <path id="Path_365" data-name="Path 365" d="M65.509,179.051a2,2,0,1,1-2-2,2,2,0,0,1,2,2Z" transform="translate(-56.21 -122.26)" fill="#ebebeb"/>
      <circle id="Ellipse_1" data-name="Ellipse 1" cx="2.005" cy="2.005" r="2.005" transform="translate(163.282 65.038)" fill="#ebebeb"/>
      <circle id="Ellipse_2" data-name="Ellipse 2" cx="2.001" cy="2.001" r="2.001" transform="translate(74.222 114.545)" fill="#ebebeb"/>
      <circle id="Ellipse_3" data-name="Ellipse 3" cx="2.001" cy="2.001" r="2.001" transform="translate(239.177 41.798)" fill="#ebebeb"/>
      <circle id="Ellipse_4" data-name="Ellipse 4" cx="2.001" cy="2.001" r="2.001" transform="translate(253.422 136.33)" fill="#ebebeb"/>
      <circle id="Ellipse_5" data-name="Ellipse 5" cx="1" cy="1" r="1" transform="translate(44.202 20.931)" fill="#ebebeb"/>
      <circle id="Ellipse_6" data-name="Ellipse 6" cx="1" cy="1" r="1" transform="translate(43.716 108.069)" fill="#ebebeb"/>
      <circle id="Ellipse_7" data-name="Ellipse 7" cx="1" cy="1" r="1" transform="translate(177.95 83.711)" fill="#ebebeb"/>
      <circle id="Ellipse_8" data-name="Ellipse 8" cx="1" cy="1" r="1" transform="translate(266.18 29.621)" fill="#ebebeb"/>
      <circle id="Ellipse_9" data-name="Ellipse 9" cx="1" cy="1" r="1" transform="translate(21.124 2.42)" fill="#ebebeb"/>
      <circle id="Ellipse_10" data-name="Ellipse 10" cx="1" cy="1" r="1" transform="translate(119.59 20.298)" fill="#ebebeb"/>
      <circle id="Ellipse_11" data-name="Ellipse 11" cx="1" cy="1" r="1" transform="translate(208.279 15.712)" fill="#ebebeb"/>
      <circle id="Ellipse_12" data-name="Ellipse 12" cx="1" cy="1" r="1" transform="translate(137.627 3.882)" fill="#ebebeb"/>
      <path id="Path_366" data-name="Path 366" d="M613.013,390.38a4.634,4.634,0,0,0-2.843,2.289,8.156,8.156,0,0,0-.941,3.6,14.427,14.427,0,0,0,1.925,7.188c2.3-1.4,3.274-4.349,3.677-5.9.637-2.424.316-7.192-1.819-7.176" transform="translate(-387.377 -251.247)" fill="#ebebeb"/>
      <path id="Path_367" data-name="Path 367" d="M596.623,423.423a3.977,3.977,0,0,0-.629-3.954,5.286,5.286,0,0,0-3.637-1.858,2.195,2.195,0,0,0-1.815.471,1.7,1.7,0,0,0-.316,1.692,3.444,3.444,0,0,0,1.048,1.455c1.542,1.384,3.293,2.435,5.349,2.182" transform="translate(-375.835 -267.7)" fill="#ebebeb"/>
      <path id="Path_368" data-name="Path 368" d="M602.683,435.067a2.716,2.716,0,0,0,0-.5v-1.36a13.953,13.953,0,0,0-.64-4.44,8.524,8.524,0,0,0-2.471-3.724,5.846,5.846,0,0,0-1.139-.755c-.138-.075-.261-.115-.336-.15a.4.4,0,0,0-.127-.04,9.045,9.045,0,0,1,1.522,1.04,8.837,8.837,0,0,1,2.372,3.689,15.072,15.072,0,0,1,.684,4.385c.024.573.047,1.036.071,1.356a2.772,2.772,0,0,0,.063.5Z" transform="translate(-380.578 -271.635)" fill="#e0e0e0"/>
      <path id="Path_369" data-name="Path 369" d="M613.285,399.61a.914.914,0,0,0-.063.21c-.036.154-.083.356-.138.6-.123.526-.285,1.289-.474,2.234-.4,1.89-.886,4.507-1.368,7.409s-.862,5.535-1.111,7.457c-.123.957-.217,1.732-.273,2.269-.028.253-.047.455-.063.617a1.477,1.477,0,0,0,0,.217.85.85,0,0,0,.047-.213l.095-.613c.079-.557.194-1.324.328-2.262.281-1.906.676-4.539,1.158-7.441s.961-5.535,1.317-7.417c.174-.933.316-1.692.423-2.246l.107-.609A1.271,1.271,0,0,0,613.285,399.61Z" transform="translate(-387.725 -256.828)" fill="#e0e0e0"/>
      <path id="Path_370" data-name="Path 370" d="M614.67,428.3a9.311,9.311,0,0,1,6.156-5.863,1.969,1.969,0,0,1,2.1.324,1.93,1.93,0,0,1-.2,2.107,7.951,7.951,0,0,1-8.038,3.633" transform="translate(-390.675 -270.543)" fill="#ebebeb"/>
      <path id="Path_371" data-name="Path 371" d="M617.383,428.21a2.34,2.34,0,0,0-.455.111c-.146.043-.324.095-.522.174a6.556,6.556,0,0,0-.676.281,8.3,8.3,0,0,0-.791.4,9.1,9.1,0,0,0-.858.55,10.452,10.452,0,0,0-1.72,1.581,10.14,10.14,0,0,0-1.289,1.941,8.767,8.767,0,0,0-.4.937,6.618,6.618,0,0,0-.269.842,6.21,6.21,0,0,0-.154.716,4.346,4.346,0,0,0-.079.542,2.616,2.616,0,0,0-.028.47c.039,0,.087-.664.4-1.692a8.255,8.255,0,0,1,.285-.826q.175-.468.4-.917a10.65,10.65,0,0,1,1.277-1.9,10.858,10.858,0,0,1,1.68-1.554,9.254,9.254,0,0,1,.838-.554c.265-.17.53-.3.767-.419C616.747,428.416,617.4,428.246,617.383,428.21Z" transform="translate(-387.94 -274.12)" fill="#e0e0e0"/>
    </g>
    <g id="freepik--Floor--inject-4" transform="translate(425 1563.697)">
      <path id="Path_464" data-name="Path 464" d="M299.83,452.613c0,.055-62.8.1-140.252.1s-140.268-.047-140.268-.1,62.788-.1,140.268-.1S299.83,452.553,299.83,452.613Z" transform="translate(-19.31 -452.51)" fill="#263238"/>
    </g>
    <g id="Group_65" data-name="Group 65" transform="translate(162.519 257.67)">
      <rect id="Rectangle_118" data-name="Rectangle 118" width="5.396" height="77.756" transform="translate(379.166 1306.028) rotate(180)" fill="#b92056"/>
      <path id="Path_1226" data-name="Path 1226" d="M203.34,251.83h5.4v13.077l-5.4-1.39Z" transform="translate(170.434 976.447)" opacity="0.2"/>
      <path id="Path_1227" data-name="Path 1227" d="M0,0H48.136V9.014A12.353,12.353,0,0,1,35.782,21.367H12.353A12.353,12.353,0,0,1,0,9.014Z" transform="translate(405.324 1237.958) rotate(180)" fill="#b92056"/>
      <rect id="Rectangle_119" data-name="Rectangle 119" width="23.429" height="5.954" transform="translate(380.618 1235.286) rotate(180)" fill="#fff" opacity="0.1"/>
      <path id="Path_1231" data-name="Path 1231" d="M217.81,248.487v-9.014a12.353,12.353,0,0,1,24.706,0v9.014" transform="translate(162.808 989.47)" opacity="0.2"/>
      <rect id="Rectangle_120" data-name="Rectangle 120" width="33.806" height="1.584" transform="translate(414.423 1239.542) rotate(180)" fill="#b92056"/>
      <rect id="Rectangle_121" data-name="Rectangle 121" width="24.706" height="1.584" transform="translate(414.423 1239.542) rotate(180)" opacity="0.2"/>
      <rect id="Rectangle_122" data-name="Rectangle 122" width="0.875" height="20.871" transform="translate(377.35 1231.488) rotate(180)" fill="#e0e0e0"/>
      <path id="Path_1232" data-name="Path 1232" d="M198.51,219.276h6.12v-3a.4.4,0,0,0-.4-.4H198.51l1,1.7Z" transform="translate(172.98 995.395)" fill="#b92056"/>
    </g>
    <g id="Group_66" data-name="Group 66" transform="translate(-385.231 208.647)">
      <path id="Path_1182" data-name="Path 1182" d="M364.282,224.935h4.783a.742.742,0,0,0,.742-.742h0a.745.745,0,0,0-.742-.742h-4.783a.742.742,0,0,0-.742.742h0A.742.742,0,0,0,364.282,224.935Z" transform="translate(605.86 1054.854)" fill="#e0e0e0"/>
      <rect id="Rectangle_109" data-name="Rectangle 109" width="9.098" height="2.571" transform="translate(990.088 1236.166) rotate(180)" fill="#e6e6e6"/>
      <path id="Path_1233" data-name="Path 1233" d="M328.234,86.916a.151.151,0,0,1-.145-.118.148.148,0,0,1,.112-.181,7.043,7.043,0,0,0,.984-.3.151.151,0,0,1,.112.281,7.126,7.126,0,0,1-1.026.323Z" transform="translate(627.902 1149.315)" fill="#db532a"/>
      <path id="Path_1234" data-name="Path 1234" d="M258.8,137.7a.154.154,0,0,1-.151-.145.151.151,0,0,1,.145-.157c.7-.036,1.409-.1,2.112-.193a.154.154,0,0,1,.169.13.148.148,0,0,1-.13.169c-.712.1-1.433.16-2.139.193Zm4.224-.558a.152.152,0,0,1-.033-.3c.709-.154,1.4-.335,2.052-.54a.151.151,0,1,1,.091.287c-.661.208-1.358.392-2.079.549Zm4.058-1.3a.148.148,0,0,1-.136-.087.151.151,0,0,1,.072-.2,10.982,10.982,0,0,0,1.476-.8l.359-.241a.151.151,0,0,1,.208.042.148.148,0,0,1-.039.208l-.362.241a11.228,11.228,0,0,1-1.509.824.163.163,0,0,1-.06.015Zm3.552-2.351a.157.157,0,0,1-.115-.051.154.154,0,0,1,.015-.214,12.813,12.813,0,0,0,1.482-1.509.154.154,0,0,1,.214-.018.148.148,0,0,1,.018.211,13.45,13.45,0,0,1-1.509,1.536.148.148,0,0,1-.1.045Zm2.682-3.289a.139.139,0,0,1-.069-.018.151.151,0,0,1-.066-.2q.148-.284.272-.579a9.465,9.465,0,0,0,.453-1.388.155.155,0,1,1,.3.072,9.479,9.479,0,0,1-.468,1.433c-.084.2-.178.4-.281.6a.148.148,0,0,1-.133.078Zm1.047-4.11h0a.151.151,0,0,1-.142-.163c.027-.41.042-.845.042-1.325v-.794a.151.151,0,0,1,.148-.157.148.148,0,0,1,.154.148v.8c0,.489-.015.929-.042,1.346a.151.151,0,0,1-.151.142Zm-.057-4.27a.151.151,0,0,1-.151-.142c-.027-.6-.054-1.273-.054-1.931v-.214a.139.139,0,0,1,.151-.148.151.151,0,0,1,.151.151v.211c0,.652.027,1.307.054,1.916a.151.151,0,0,1-.145.157Zm12.9-1.859c-.275,0-.543,0-.8-.018a.151.151,0,1,1,.012-.3c.253,0,.519.018.788.018a12.037,12.037,0,0,0,1.325-.066.152.152,0,1,1,.033.3,12.669,12.669,0,0,1-1.349.066Zm-2.924-.154h0c-.706-.054-1.424-.118-2.13-.19a.152.152,0,1,1,.03-.3c.7.072,1.418.139,2.112.193a.151.151,0,0,1,0,.3Zm6.337-.431a.157.157,0,0,1-.139-.088.151.151,0,0,1,.075-.2,3.376,3.376,0,0,0,1.536-1.3.151.151,0,1,1,.257.157,3.66,3.66,0,0,1-1.666,1.421A.157.157,0,0,1,290.615,119.38Zm-10.576,0h-.018c-.7-.091-1.418-.193-2.112-.3a.151.151,0,0,1-.127-.172.154.154,0,0,1,.172-.127c.7.109,1.409.211,2.112.3a.151.151,0,0,1-.018.3Zm-4.224-.655h-.027c-.7-.127-1.4-.266-2.1-.41a.154.154,0,1,1,.06-.3c.694.145,1.4.284,2.091.41a.151.151,0,0,1,.124.175.154.154,0,0,1-.148.121Zm-4.179-.875H271.6c-.688-.163-1.388-.338-2.073-.519a.156.156,0,1,1,.075-.3c.685.181,1.379.356,2.067.516a.157.157,0,0,1,.115.184.151.151,0,0,1-.145.115Zm2.77-.284h-.024a.154.154,0,0,1-.127-.172,10.613,10.613,0,0,1,.534-2.1.151.151,0,0,1,.284.1,10.259,10.259,0,0,0-.513,2.04.151.151,0,0,1-.151.127Zm-6.9-.806a.109.109,0,0,1-.042,0c-.679-.2-1.37-.407-2.046-.625a.148.148,0,0,1-.1-.19.151.151,0,0,1,.19-.1c.673.214,1.358.425,2.037.622a.151.151,0,0,1,.1.187.148.148,0,0,1-.142.1Zm25.138-.775a.154.154,0,0,1-.148-.124,3.156,3.156,0,0,0-1.068-1.693.148.148,0,0,1,0-.211.151.151,0,0,1,.214,0,3.431,3.431,0,0,1,1.162,1.859.151.151,0,0,1-.118.178Zm-29.2-.528a.143.143,0,0,1-.051,0c-.688-.244-1.361-.5-2.007-.751a.154.154,0,0,1-.084-.2.151.151,0,0,1,.2-.084c.64.253,1.313.5,1.995.748a.141.141,0,0,1-.045.278Zm-3.971-1.578a.139.139,0,0,1-.06,0c-.664-.3-1.316-.6-1.934-.92a.151.151,0,1,1,.136-.269c.6.3,1.261.6,1.922.905a.154.154,0,0,1-.063.3Zm16.451-.263a.166.166,0,0,1-.091-.027.151.151,0,0,1-.03-.211,5.835,5.835,0,0,1,1.433-1.388l.157-.1a.151.151,0,1,1,.16.256l-.148.094a5.561,5.561,0,0,0-1.361,1.316.154.154,0,0,1-.118.054Zm13.841-.6a.16.16,0,0,1-.072-.018c-.253-.136-.5-.263-.736-.38-.383-.187-.779-.362-1.177-.519a.151.151,0,1,1,.109-.281c.407.157.812.338,1.207.531.235.118.489.244.745.383a.154.154,0,0,1,.06.205.148.148,0,0,1-.133.072Zm-34.1-1.071a.136.136,0,0,1-.075-.021c-.631-.365-1.243-.745-1.81-1.135a.151.151,0,0,1,.166-.25c.573.383,1.18.763,1.81,1.126a.151.151,0,0,1-.075.281Zm30.129-.474h-.036a15.251,15.251,0,0,0-2.085-.344.151.151,0,0,1-.136-.163.154.154,0,0,1,.166-.136,15.363,15.363,0,0,1,2.112.35.152.152,0,1,1-.033.3Zm-6.352-.1a.154.154,0,0,1-.148-.118.151.151,0,0,1,.112-.181,10.99,10.99,0,0,1,1.611-.256c.175,0,.353-.027.528-.036a.145.145,0,0,1,.16.142.151.151,0,0,1-.142.157c-.175,0-.347.024-.519.039a10.721,10.721,0,0,0-1.566.247Zm-27.317-1.81a.151.151,0,0,1-.094-.03c-.573-.45-1.122-.92-1.632-1.394a.151.151,0,0,1,0-.214.154.154,0,0,1,.214,0c.5.471,1.047.935,1.614,1.379a.151.151,0,0,1,.024.211.145.145,0,0,1-.124.039Zm-3.114-2.912a.157.157,0,0,1-.115-.051,18.479,18.479,0,0,1-1.325-1.7.154.154,0,0,1,.036-.211.157.157,0,0,1,.211.039,17.894,17.894,0,0,0,1.322,1.66.147.147,0,0,1-.127.25ZM246.6,103.14a.148.148,0,0,1-.133-.084,15.263,15.263,0,0,1-.854-1.976.154.154,0,0,1,.094-.193.151.151,0,0,1,.19.094,14.887,14.887,0,0,0,.839,1.94.151.151,0,0,1-.066.2.139.139,0,0,1-.069.009Zm-1.379-4.031a.148.148,0,0,1-.148-.127c-.03-.16-.054-.32-.078-.483a11.789,11.789,0,0,1-.112-1.605v-.063a.151.151,0,1,1,.3,0v.06a11.166,11.166,0,0,0,.109,1.563c.024.16.048.317.075.474a.151.151,0,0,1-.121.175Zm.015-4.249h-.027a.151.151,0,0,1-.121-.175,12.812,12.812,0,0,1,.57-2.082.157.157,0,0,1,.2-.091.151.151,0,0,1,.087.193,12.307,12.307,0,0,0-.558,2.034.148.148,0,0,1-.163.121Zm1.473-3.986a.178.178,0,0,1-.075-.021.154.154,0,0,1-.054-.208,11.809,11.809,0,0,1,1.252-1.759.151.151,0,0,1,.226.2,11.9,11.9,0,0,0-1.207,1.717.151.151,0,0,1-.151.075Zm2.779-3.214a.151.151,0,0,1-.094-.269,11.3,11.3,0,0,1,1.826-1.156.152.152,0,0,1,.136.272,11.165,11.165,0,0,0-1.777,1.122.148.148,0,0,1-.1.03Zm18.533-1.88h0a16.228,16.228,0,0,1-2.145-.19.152.152,0,0,1,.042-.3,15.692,15.692,0,0,0,2.112.187.151.151,0,1,1,0,.3ZM253.25,85.7a.153.153,0,0,1-.048-.3,18.34,18.34,0,0,1,2.082-.543.151.151,0,0,1,.178.121.145.145,0,0,1-.118.175,18.406,18.406,0,0,0-2.049.534Zm10.537-.474h-.027c-.649-.121-1.382-.256-2.112-.359a.151.151,0,0,1-.127-.169.148.148,0,0,1,.169-.13c.724.1,1.46.241,2.112.362a.151.151,0,0,1,.121.175.154.154,0,0,1-.136.13Zm-6.361-.389a.151.151,0,1,1-.018-.3c.383-.042.794-.081,1.207-.115.266-.021.546-.033.833-.033h.1a.151.151,0,0,1,.148.154.157.157,0,0,1-.151.148h-.1a7.164,7.164,0,0,0-.812.03c-.416.033-.821.072-1.207.118Z" transform="translate(686 1150.652)" fill="#db532a"/>
      <path id="Path_1235" data-name="Path 1235" d="M281.053,260.231h0c-.359-.015-.715-.042-1.059-.075a.148.148,0,0,1-.136-.163.145.145,0,0,1,.163-.136c.341.033.691.057,1.047.072a.151.151,0,0,1,0,.3Z" transform="translate(661.577 1028.131)" fill="#db532a"/>
      <g id="Group_64" data-name="Group 64" transform="translate(930.88 1235.042)" opacity="0.6">
        <path id="Path_1236" data-name="Path 1236" d="M328.234,86.916a.151.151,0,0,1-.145-.118.148.148,0,0,1,.112-.181,7.043,7.043,0,0,0,.984-.3.151.151,0,0,1,.112.281,7.126,7.126,0,0,1-1.026.323Z" transform="translate(-302.978 -85.727)" fill="#b92056"/>
        <path id="Path_1237" data-name="Path 1237" d="M258.8,137.7a.154.154,0,0,1-.151-.145.151.151,0,0,1,.145-.157c.7-.036,1.409-.1,2.112-.193a.154.154,0,0,1,.169.13.148.148,0,0,1-.13.169c-.712.1-1.433.16-2.139.193Zm4.224-.558a.152.152,0,0,1-.033-.3c.709-.154,1.4-.335,2.052-.54a.151.151,0,1,1,.091.287c-.661.208-1.358.392-2.079.549Zm4.058-1.3a.148.148,0,0,1-.136-.087.151.151,0,0,1,.072-.2,10.982,10.982,0,0,0,1.476-.8l.359-.241a.151.151,0,0,1,.208.042.148.148,0,0,1-.039.208l-.362.241a11.228,11.228,0,0,1-1.509.824.163.163,0,0,1-.06.015Zm3.552-2.351a.157.157,0,0,1-.115-.051.154.154,0,0,1,.015-.214,12.813,12.813,0,0,0,1.482-1.509.154.154,0,0,1,.214-.018.148.148,0,0,1,.018.211,13.45,13.45,0,0,1-1.509,1.536.148.148,0,0,1-.1.045Zm2.682-3.289a.139.139,0,0,1-.069-.018.151.151,0,0,1-.066-.2q.148-.284.272-.579a9.465,9.465,0,0,0,.453-1.388.155.155,0,1,1,.3.072,9.479,9.479,0,0,1-.468,1.433c-.084.2-.178.4-.281.6a.148.148,0,0,1-.133.078Zm1.047-4.11h0a.151.151,0,0,1-.142-.163c.027-.41.042-.845.042-1.325v-.794a.151.151,0,0,1,.148-.157.148.148,0,0,1,.154.148v.8c0,.489-.015.929-.042,1.346a.151.151,0,0,1-.151.142Zm-.057-4.27a.151.151,0,0,1-.151-.142c-.027-.6-.054-1.273-.054-1.931v-.214a.139.139,0,0,1,.151-.148.151.151,0,0,1,.151.151v.211c0,.652.027,1.307.054,1.916a.151.151,0,0,1-.145.157Zm12.9-1.859c-.275,0-.543,0-.8-.018a.151.151,0,1,1,.012-.3c.253,0,.519.018.788.018a12.037,12.037,0,0,0,1.325-.066.152.152,0,1,1,.033.3,12.669,12.669,0,0,1-1.349.066Zm-2.924-.154h0c-.706-.054-1.424-.118-2.13-.19a.152.152,0,1,1,.03-.3c.7.072,1.418.139,2.112.193a.151.151,0,0,1,0,.3Zm6.337-.431a.157.157,0,0,1-.139-.088.151.151,0,0,1,.075-.2,3.376,3.376,0,0,0,1.536-1.3.151.151,0,1,1,.257.157,3.66,3.66,0,0,1-1.666,1.421A.157.157,0,0,1,290.615,119.38Zm-10.576,0h-.018c-.7-.091-1.418-.193-2.112-.3a.151.151,0,0,1-.127-.172.154.154,0,0,1,.172-.127c.7.109,1.409.211,2.112.3a.151.151,0,0,1-.018.3Zm-4.224-.655h-.027c-.7-.127-1.4-.266-2.1-.41a.154.154,0,1,1,.06-.3c.694.145,1.4.284,2.091.41a.151.151,0,0,1,.124.175.154.154,0,0,1-.148.121Zm-4.179-.875H271.6c-.688-.163-1.388-.338-2.073-.519a.156.156,0,1,1,.075-.3c.685.181,1.379.356,2.067.516a.157.157,0,0,1,.115.184.151.151,0,0,1-.145.115Zm2.77-.284h-.024a.154.154,0,0,1-.127-.172,10.613,10.613,0,0,1,.534-2.1.151.151,0,0,1,.284.1,10.259,10.259,0,0,0-.513,2.04.151.151,0,0,1-.151.127Zm-6.9-.806a.109.109,0,0,1-.042,0c-.679-.2-1.37-.407-2.046-.625a.148.148,0,0,1-.1-.19.151.151,0,0,1,.19-.1c.673.214,1.358.425,2.037.622a.151.151,0,0,1,.1.187.148.148,0,0,1-.142.1Zm25.138-.775a.154.154,0,0,1-.148-.124,3.156,3.156,0,0,0-1.068-1.693.148.148,0,0,1,0-.211.151.151,0,0,1,.214,0,3.431,3.431,0,0,1,1.162,1.859.151.151,0,0,1-.118.178Zm-29.2-.528a.143.143,0,0,1-.051,0c-.688-.244-1.361-.5-2.007-.751a.154.154,0,0,1-.084-.2.151.151,0,0,1,.2-.084c.64.253,1.313.5,1.995.748a.141.141,0,0,1-.045.278Zm-3.971-1.578a.139.139,0,0,1-.06,0c-.664-.3-1.316-.6-1.934-.92a.151.151,0,1,1,.136-.269c.6.3,1.261.6,1.922.905a.154.154,0,0,1-.063.3Zm16.451-.263a.166.166,0,0,1-.091-.027.151.151,0,0,1-.03-.211,5.835,5.835,0,0,1,1.433-1.388l.157-.1a.151.151,0,1,1,.16.256l-.148.094a5.561,5.561,0,0,0-1.361,1.316.154.154,0,0,1-.118.054Zm13.841-.6a.16.16,0,0,1-.072-.018c-.253-.136-.5-.263-.736-.38-.383-.187-.779-.362-1.177-.519a.151.151,0,1,1,.109-.281c.407.157.812.338,1.207.531.235.118.489.244.745.383a.154.154,0,0,1,.06.205.148.148,0,0,1-.133.072Zm-34.1-1.071a.136.136,0,0,1-.075-.021c-.631-.365-1.243-.745-1.81-1.135a.151.151,0,0,1,.166-.25c.573.383,1.18.763,1.81,1.126a.151.151,0,0,1-.075.281Zm30.129-.474h-.036a15.251,15.251,0,0,0-2.085-.344.151.151,0,0,1-.136-.163.154.154,0,0,1,.166-.136,15.363,15.363,0,0,1,2.112.35.152.152,0,1,1-.033.3Zm-6.352-.1a.154.154,0,0,1-.148-.118.151.151,0,0,1,.112-.181,10.99,10.99,0,0,1,1.611-.256c.175,0,.353-.027.528-.036a.145.145,0,0,1,.16.142.151.151,0,0,1-.142.157c-.175,0-.347.024-.519.039a10.721,10.721,0,0,0-1.566.247Zm-27.317-1.81a.151.151,0,0,1-.094-.03c-.573-.45-1.122-.92-1.632-1.394a.151.151,0,0,1,0-.214.154.154,0,0,1,.214,0c.5.471,1.047.935,1.614,1.379a.151.151,0,0,1,.024.211.145.145,0,0,1-.124.039Zm-3.114-2.912a.157.157,0,0,1-.115-.051,18.479,18.479,0,0,1-1.325-1.7.154.154,0,0,1,.036-.211.157.157,0,0,1,.211.039,17.894,17.894,0,0,0,1.322,1.66.147.147,0,0,1-.127.25ZM246.6,103.14a.148.148,0,0,1-.133-.084,15.263,15.263,0,0,1-.854-1.976.154.154,0,0,1,.094-.193.151.151,0,0,1,.19.094,14.887,14.887,0,0,0,.839,1.94.151.151,0,0,1-.066.2.139.139,0,0,1-.069.009Zm-1.379-4.031a.148.148,0,0,1-.148-.127c-.03-.16-.054-.32-.078-.483a11.789,11.789,0,0,1-.112-1.605v-.063a.151.151,0,1,1,.3,0v.06a11.166,11.166,0,0,0,.109,1.563c.024.16.048.317.075.474a.151.151,0,0,1-.121.175Zm.015-4.249h-.027a.151.151,0,0,1-.121-.175,12.812,12.812,0,0,1,.57-2.082.157.157,0,0,1,.2-.091.151.151,0,0,1,.087.193,12.307,12.307,0,0,0-.558,2.034.148.148,0,0,1-.163.121Zm1.473-3.986a.178.178,0,0,1-.075-.021.154.154,0,0,1-.054-.208,11.809,11.809,0,0,1,1.252-1.759.151.151,0,0,1,.226.2,11.9,11.9,0,0,0-1.207,1.717.151.151,0,0,1-.151.075Zm2.779-3.214a.151.151,0,0,1-.094-.269,11.3,11.3,0,0,1,1.826-1.156.152.152,0,0,1,.136.272,11.165,11.165,0,0,0-1.777,1.122.148.148,0,0,1-.1.03Zm18.533-1.88h0a16.228,16.228,0,0,1-2.145-.19.152.152,0,0,1,.042-.3,15.692,15.692,0,0,0,2.112.187.151.151,0,1,1,0,.3ZM253.25,85.7a.153.153,0,0,1-.048-.3,18.34,18.34,0,0,1,2.082-.543.151.151,0,0,1,.178.121.145.145,0,0,1-.118.175,18.406,18.406,0,0,0-2.049.534Zm10.537-.474h-.027c-.649-.121-1.382-.256-2.112-.359a.151.151,0,0,1-.127-.169.148.148,0,0,1,.169-.13c.724.1,1.46.241,2.112.362a.151.151,0,0,1,.121.175.154.154,0,0,1-.136.13Zm-6.361-.389a.151.151,0,1,1-.018-.3c.383-.042.794-.081,1.207-.115.266-.021.546-.033.833-.033h.1a.151.151,0,0,1,.148.154.157.157,0,0,1-.151.148h-.1a7.164,7.164,0,0,0-.812.03c-.416.033-.821.072-1.207.118Z" transform="translate(-244.88 -84.39)" fill="#b92056"/>
        <path id="Path_1238" data-name="Path 1238" d="M281.053,260.231h0c-.359-.015-.715-.042-1.059-.075a.148.148,0,0,1-.136-.163.145.145,0,0,1,.163-.136c.341.033.691.057,1.047.072a.151.151,0,0,1,0,.3Z" transform="translate(-269.303 -206.91)" fill="#b92056"/>
      </g>
      <g id="freepik--Envelope--inject-1" transform="translate(958.796 1224.559)">
        <rect id="Rectangle_123" data-name="Rectangle 123" width="12.607" height="6.771" rx="3.22" transform="translate(0.278 0) rotate(2.35)" fill="#db532a"/>
        <path id="Path_2163" data-name="Path 2163" d="M3.22,0H9.387a3.22,3.22,0,0,1,3.22,3.22v.331a3.22,3.22,0,0,1-3.22,3.22H3.22A3.22,3.22,0,0,1,0,3.551V3.22A3.22,3.22,0,0,1,3.22,0Z" transform="translate(0.278 0) rotate(2.35)" fill="#b92056"/>
        <path id="Path_1239" data-name="Path 1239" d="M345.45,56.517a.157.157,0,0,1-.088-.027l-5.516-3.8a.151.151,0,0,1-.039-.211.154.154,0,0,1,.208-.039l5.431,3.748L351.18,52.9a.151.151,0,0,1,.151.263l-5.8,3.319a.142.142,0,0,1-.081.033Z" transform="translate(-339.061 -51.583)" fill="#25304e"/>
        <path id="Path_1240" data-name="Path 1240" d="M369.477,65.116a.142.142,0,0,1-.084-.027L366.237,62.9a.151.151,0,0,1-.039-.211.154.154,0,0,1,.211-.036l3.156,2.2a.148.148,0,0,1,.036.208A.151.151,0,0,1,369.477,65.116Z" transform="translate(-357.488 -58.706)" fill="#25304e"/>
        <path id="Path_1241" data-name="Path 1241" d="M339.3,64.208a.151.151,0,0,1-.078-.284L342.545,62a.151.151,0,0,1,.151.259l-3.319,1.928A.142.142,0,0,1,339.3,64.208Z" transform="translate(-338.618 -58.263)" fill="#25304e"/>
      </g>
      <g id="freepik--paper-plane--inject-1" transform="translate(957.418 1227.622)">
        <path id="Path_1242" data-name="Path 1242" d="M356.785,59.8l-21.234,4.843-2.722,1.681Z" transform="translate(-332.83 -59.8)" fill="#db532a"/>
        <path id="Path_1243" data-name="Path 1243" d="M335.552,64.643l-2.722,1.681L356.785,59.8" transform="translate(-332.83 -59.8)" fill="#465377"/>
        <path id="Path_1244" data-name="Path 1244" d="M363.084,59.8,341.85,64.643l2,1.469Z" transform="translate(-339.128 -59.8)" fill="#25304e"/>
        <path id="Path_1245" data-name="Path 1245" d="M367.706,59.8l-18.2,3.724-1.032,2.589Z" transform="translate(-343.751 -59.8)" fill="#db532a"/>
        <path id="Path_1246" data-name="Path 1246" d="M367.706,59.8l-18.2,3.724-1.032,2.589Z" transform="translate(-343.751 -59.8)" fill="#465377"/>
        <path id="Path_1247" data-name="Path 1247" d="M370.094,59.8l-18.2,3.724,5.733,2.079Z" transform="translate(-346.139 -59.8)" fill="#25304e"/>
      </g>
    </g>
  </g>
</svg>
