<svg xmlns="http://www.w3.org/2000/svg" xmlns:xlink="http://www.w3.org/1999/xlink" width="159.944" height="154.037" viewBox="0 0 159.944 154.037">
  <defs>
    <clipPath id="clip-path">
      <rect id="Rectangle_1" data-name="Rectangle 1" width="32.049" height="16.194" fill="none"/>
    </clipPath>
  </defs>
  <g id="Group_709" data-name="Group 709" transform="translate(-9171.556 -910.803)">
    <g id="New_notifications-bro" data-name="New notifications-bro" transform="translate(9171.556 910.803)">
      <g id="freepik--background-simple--inject-2" transform="translate(0 5.284)">
        <path id="Path_2065" data-name="Path 2065" d="M172.742,92.431a78.084,78.084,0,0,0-3.327-7.82c-10.956-22.32-31.379-37.454-56.521-41.432q-1.623-.26-3.261-.453C89.1,40.265,60.369,43.335,48.655,62.3c-6.082,9.852-3.586,22.275-10.039,31.846-8.353,12.424-19.091,18.63-21.078,38.018-1.464,14.265-.782,29.683,9.3,41.061,11.887,13.414,32.286,18.031,49.712,15.456,16.913-2.5,32.054-10.849,46.846-18.692,14.04-7.446,30.116-12.853,41.477-24.231C179.222,131.387,179.212,110.372,172.742,92.431Z" transform="translate(-16.956 -41.993)" fill="#b92056"/>
        <path id="Path_2066" data-name="Path 2066" d="M172.742,92.431a78.084,78.084,0,0,0-3.327-7.82c-10.956-22.32-31.379-37.454-56.521-41.432q-1.623-.26-3.261-.453C89.1,40.265,60.369,43.335,48.655,62.3c-6.082,9.852-3.586,22.275-10.039,31.846-8.353,12.424-19.091,18.63-21.078,38.018-1.464,14.265-.782,29.683,9.3,41.061,11.887,13.414,32.286,18.031,49.712,15.456,16.913-2.5,32.054-10.849,46.846-18.692,14.04-7.446,30.116-12.853,41.477-24.231C179.222,131.387,179.212,110.372,172.742,92.431Z" transform="translate(-16.956 -41.993)" fill="#fff" opacity="0.92"/>
      </g>
      <g id="freepik--Icons--inject-2" transform="translate(3.068 0)">
        <path id="Path_2069" data-name="Path 2069" d="M98.746,68.06a2.216,2.216,0,1,1-2.216,2.216A2.219,2.219,0,0,1,98.746,68.06Zm0,3.981a1.765,1.765,0,1,0-1.765-1.765A1.767,1.767,0,0,0,98.746,72.041Z" transform="translate(-72.105 -53.805)" fill="#969696"/>
        <path id="Path_2070" data-name="Path 2070" d="M426.3,340.247H415.836a1.869,1.869,0,0,1-1.866-1.866V327.916a1.869,1.869,0,0,1,1.866-1.866h9.346v.451h-9.346a1.417,1.417,0,0,0-1.415,1.415v10.464a1.417,1.417,0,0,0,1.415,1.415H426.3a1.417,1.417,0,0,0,1.415-1.415v-8.609h.451v8.609A1.869,1.869,0,0,1,426.3,340.247Z" transform="translate(-279.661 -222.49)" fill="#969696"/>
        <path id="Path_2071" data-name="Path 2071" d="M420,337.1h9.346a.611.611,0,0,1,.61.61v5.376a.611.611,0,0,1-.61.61H420a.611.611,0,0,1-.61-.61V337.71A.611.611,0,0,1,420,337.1Zm9.5.561a.159.159,0,0,0-.151-.109H420a.159.159,0,0,0-.159.159v.075a.57.57,0,0,1,.436.046l4.49,2.488,4.225-2.61a.571.571,0,0,1,.434-.07A.559.559,0,0,1,429.5,337.661Zm-.094.605a.12.12,0,0,0,0-.128l0-.006a.121.121,0,0,0-.166-.04l-4.45,2.749-4.719-2.615a.117.117,0,0,0-.056-.014.121.121,0,0,0-.06.226l3.341,1.855-2.958,2.188a.121.121,0,0,0,.073.216h0a.1.1,0,0,0,.063-.021l.005,0,3.045-2.25,1.265.7,1.087-.669,3,2.216a.123.123,0,0,0,.073.025.121.121,0,0,0,.07-.217l-2.922-2.164Zm.1,4.234v-3.753l-.176.1,0-.007-2.435,1.5,2.387,1.768A.573.573,0,0,1,429.5,342.5Zm-7.051-2.153-2.612-1.451v3.565a.571.571,0,0,1,.217-.342Zm2.34,1.3-1.242-.686-2.81,2.076a.554.554,0,0,1-.337.115h0a.572.572,0,0,1-.56-.457v.394a.159.159,0,0,0,.159.159h9.346a.159.159,0,0,0,.159-.159v-.439a.572.572,0,0,1-.561.5h0a.576.576,0,0,1-.343-.114L425.845,341Z" transform="translate(-283.205 -229.715)" fill="#969696"/>
        <path id="Path_2072" data-name="Path 2072" d="M447.149,322.5a2.649,2.649,0,1,1-2.649,2.649A2.652,2.652,0,0,1,447.149,322.5Zm0,4.846a2.2,2.2,0,1,0-2.2-2.2A2.2,2.2,0,0,0,447.149,327.346Z" transform="translate(-299.623 -220.169)" fill="#969696"/>
        <path id="Path_2073" data-name="Path 2073" d="M332.3,60.247H321.836a1.868,1.868,0,0,1-1.866-1.866V47.916a1.869,1.869,0,0,1,1.866-1.866h9.346V46.5h-9.346a1.417,1.417,0,0,0-1.415,1.415V58.381a1.417,1.417,0,0,0,1.415,1.415H332.3a1.417,1.417,0,0,0,1.415-1.415V49.772h.451v8.609A1.869,1.869,0,0,1,332.3,60.247Z" transform="translate(-218.2 -39.414)" fill="#969696"/>
        <path id="Path_2074" data-name="Path 2074" d="M353.149,42.5a2.649,2.649,0,1,1-2.649,2.649A2.652,2.652,0,0,1,353.149,42.5Zm0,4.846a2.2,2.2,0,1,0-2.2-2.2A2.2,2.2,0,0,0,353.149,47.346Z" transform="translate(-238.161 -37.093)" fill="#969696"/>
        <path id="Path_2075" data-name="Path 2075" d="M331.87,52.96a5.083,5.083,0,0,1,3.3,1.16,3.653,3.653,0,0,1,.01,5.725,5.038,5.038,0,0,1-3.288,1.168h-.005a5.432,5.432,0,0,1-.99-.091l-2.134,1.324L329,60.161A3.86,3.86,0,0,1,327.2,57v-.006a3.753,3.753,0,0,1,1.381-2.866A5.044,5.044,0,0,1,331.87,52.96Zm.012,7.6h0c2.325,0,4.216-1.607,4.216-3.582s-1.9-3.568-4.233-3.568-4.217,1.605-4.219,3.579a3.431,3.431,0,0,0,1.7,2.857l.128.074-.165,1.449,1.494-.927.088.018A4.978,4.978,0,0,0,331.882,60.562Z" transform="translate(-222.927 -43.932)" fill="#969696"/>
        <path id="Path_2076" data-name="Path 2076" d="M38.3,286.247H27.836a1.869,1.869,0,0,1-1.866-1.866V273.916a1.869,1.869,0,0,1,1.866-1.866h9.346v.451H27.836a1.417,1.417,0,0,0-1.415,1.415v10.464a1.417,1.417,0,0,0,1.415,1.415H38.3a1.417,1.417,0,0,0,1.415-1.415v-8.609h.451v8.609A1.869,1.869,0,0,1,38.3,286.247Z" transform="translate(-25.97 -187.183)" fill="#969696"/>
        <path id="Path_2077" data-name="Path 2077" d="M59.149,268.5a2.649,2.649,0,1,1-2.649,2.649A2.652,2.652,0,0,1,59.149,268.5Zm0,4.846a2.2,2.2,0,1,0-2.2-2.2A2.2,2.2,0,0,0,59.149,273.346Z" transform="translate(-45.932 -184.862)" fill="#969696"/>
        <path id="Path_2078" data-name="Path 2078" d="M37.87,278.96a5.052,5.052,0,0,1,3.287,1.16,3.66,3.66,0,0,1,0,5.725,5.038,5.038,0,0,1-3.288,1.168,5.428,5.428,0,0,1-.977-.091l-2.134,1.324L35,286.161A3.86,3.86,0,0,1,33.2,283v-.006a3.753,3.753,0,0,1,1.381-2.866A5.044,5.044,0,0,1,37.87,278.96Zm0,7.6c2.324,0,4.215-1.607,4.215-3.582s-1.891-3.568-4.216-3.568-4.217,1.605-4.219,3.579a3.432,3.432,0,0,0,1.7,2.857l.128.074-.165,1.449,1.494-.927.088.018A4.972,4.972,0,0,0,37.871,286.562Z" transform="translate(-30.697 -191.701)" fill="#969696"/>
        <path id="Rectangle_451" data-name="Rectangle 451" d="M0,0H5.3V5.3H0ZM4.846.451H.451V4.846H4.846Z" transform="translate(89.467 14.304) rotate(-45)" fill="#969696"/>
        <path id="Rectangle_452" data-name="Rectangle 452" d="M0,0H5.3V5.3H0ZM4.846.451H.451V4.846H4.846Z" transform="translate(108.854 121.266) rotate(-45)" fill="#969696"/>
        <path id="Rectangle_453" data-name="Rectangle 453" d="M0,0H5.3V5.3H0ZM4.846.451H.451V4.846H4.846Z" transform="translate(9.507 130.613) rotate(-45)" fill="#969696"/>
        <path id="Rectangle_454" data-name="Rectangle 454" d="M0,0H3.1V3.1H0ZM2.645.451H.451V2.645H2.645Z" transform="translate(55.923 2.189) rotate(-45)" fill="#969696"/>
        <path id="Rectangle_455" data-name="Rectangle 455" d="M0,0H3.1V3.1H0ZM2.645.451H.451V2.645H2.645Z" transform="translate(10.199 79.035) rotate(-45)" fill="#969696"/>
        <path id="Rectangle_456" data-name="Rectangle 456" d="M0,0H3.1V3.1H0ZM2.645.451H.451V2.645H2.645Z" transform="translate(136.925 28.841) rotate(-45)" fill="#969696"/>
        <path id="Ellipse_118" data-name="Ellipse 118" d="M1.11-.5A1.61,1.61,0,1,1-.5,1.11,1.612,1.612,0,0,1,1.11-.5Zm0,2.769A1.159,1.159,0,1,0-.049,1.11,1.16,1.16,0,0,0,1.11,2.269Z" transform="translate(35.334 23.232)" fill="#969696"/>
        <path id="Ellipse_119" data-name="Ellipse 119" d="M1.11-.5A1.61,1.61,0,1,1-.5,1.11,1.612,1.612,0,0,1,1.11-.5Zm0,2.769A1.159,1.159,0,1,0-.049,1.11,1.16,1.16,0,0,0,1.11,2.269Z" transform="translate(142.989 98.348)" fill="#969696"/>
        <path id="Ellipse_120" data-name="Ellipse 120" d="M1.11-.5A1.61,1.61,0,1,1-.5,1.11,1.612,1.612,0,0,1,1.11-.5Zm0,2.769A1.159,1.159,0,1,0-.049,1.11,1.16,1.16,0,0,0,1.11,2.269Z" transform="translate(109.412 28.424)" fill="#969696"/>
        <path id="Ellipse_121" data-name="Ellipse 121" d="M.418-.5A.918.918,0,1,1-.5.418.919.919,0,0,1,.418-.5Zm0,1.385A.467.467,0,1,0-.049.418.467.467,0,0,0,.418.885Z" transform="translate(150.224 73.079)" fill="#969696"/>
        <path id="Ellipse_122" data-name="Ellipse 122" d="M1.11-.5A1.61,1.61,0,1,1-.5,1.11,1.612,1.612,0,0,1,1.11-.5Zm0,2.769A1.159,1.159,0,1,0-.049,1.11,1.16,1.16,0,0,0,1.11,2.269Z" transform="translate(1.064 38.809)" fill="#969696"/>
        <path id="Path_2079" data-name="Path 2079" d="M427,160.506h-8.117a1.506,1.506,0,0,1-1.059-.44,1.486,1.486,0,0,1-.437-1.06V150.9a1.486,1.486,0,0,1,.437-1.06,1.506,1.506,0,0,1,1.059-.44h7.269v.451h-7.269a1.052,1.052,0,0,0-.74.307,1.038,1.038,0,0,0-.305.741v8.108a1.038,1.038,0,0,0,.3.741,1.052,1.052,0,0,0,.74.307H427a1.049,1.049,0,0,0,1.048-1.048V152.34h.451v6.667A1.5,1.5,0,0,1,427,160.506Z" transform="translate(-281.897 -106.989)" fill="#969696"/>
        <path id="Ellipse_123" data-name="Ellipse 123" d="M1.609-.5A2.109,2.109,0,1,1-.5,1.609,2.111,2.111,0,0,1,1.609-.5Zm0,3.766A1.657,1.657,0,1,0-.049,1.609,1.659,1.659,0,0,0,1.609,3.266Z" transform="translate(144.187 41.966)" fill="#969696"/>
        <path id="Path_2080" data-name="Path 2080" d="M425.6,162.817a3.736,3.736,0,0,1-2.015-.589l-.844-.539.993.125a2.252,2.252,0,0,0,1.235-.194,1.461,1.461,0,0,1-.786-.884l-.117-.365.015,0a1.459,1.459,0,0,1-.342-.96l.005-.379.116.065a1.466,1.466,0,0,1,.086-1.291l.164-.284.206.255a3.275,3.275,0,0,0,2.115,1.184,1.461,1.461,0,0,1,2.431-1.122,2.254,2.254,0,0,0,.6-.248l.508-.3-.178.564a1.475,1.475,0,0,1-.071.181l.631-.285-.439.656a2.739,2.739,0,0,1-.575.625,3.743,3.743,0,0,1-3.742,3.785Zm-.984-.6a3.292,3.292,0,0,0,4.272-3.283l-.005-.121.1-.071.042-.031-1.019.134.9-.547-.066.014-.123.024-.086-.091a1.01,1.01,0,0,0-1.72.92l.067.291-.3-.014a3.726,3.726,0,0,1-2.458-1.092,1.017,1.017,0,0,0,.431,1.039l.655.438-.788-.025a1.448,1.448,0,0,1-.273-.035,1.011,1.011,0,0,0,.754.661l.922.187-.906.252a1.434,1.434,0,0,1-.239.045,1.01,1.01,0,0,0,.779.391l.631.012-.5.391A2.718,2.718,0,0,1,424.616,162.215Z" transform="translate(-285.568 -112.191)" fill="#969696"/>
      </g>
      <g id="freepik--Plants--inject-2" transform="translate(17.811 44.28)">
        <path id="Path_2081" data-name="Path 2081" d="M70.666,180.806a12.527,12.527,0,0,0,3.673.408s-.561-1.707-.609-1.81c-.571-1.194-2.378-3.167-3.849-2.97a1.758,1.758,0,0,0-1.409,2.2A3.615,3.615,0,0,0,70.666,180.806Z" transform="translate(-68.408 -168.884)" fill="#b92056"/>
        <path id="Path_2082" data-name="Path 2082" d="M144.211,178.284c.021,0,.471-1.731.488-1.845.183-1.312-.235-3.953-1.572-4.6a1.755,1.755,0,0,0-2.388,1.059,3.718,3.718,0,0,0,.633,3.022A12.857,12.857,0,0,0,144.211,178.284Z" transform="translate(-115.621 -165.788)" fill="#b92056"/>
        <path id="Path_2083" data-name="Path 2083" d="M105.166,157.709c-1.475-.159-3.226,1.862-3.766,3.07-.048.107-.588,1.824-.561,1.824h.031c-.277.318-.575.661-.89,1.038-.578.71-1.222,1.516-1.866,2.44a31.629,31.629,0,0,0-1.935,3.081,22.954,22.954,0,0,0-1.651,3.721.224.224,0,0,0,0,.045c0-.433,0-1.648-.024-1.731-.17-1.315-1.27-3.752-2.731-4.022a1.758,1.758,0,0,0-2.025,1.651,3.711,3.711,0,0,0,1.409,2.749,12.4,12.4,0,0,0,3.327,1.52,31.553,31.553,0,0,0-.976,4.029c-.138.793-.26,1.6-.367,2.406v-.758c-.173-1.315-1.274-3.752-2.731-4.022a1.755,1.755,0,0,0-2.025,1.651,3.7,3.7,0,0,0,1.409,2.748,11.316,11.316,0,0,0,3.226,1.485c-.038.312-.08.62-.118.931-.177,1.489-.346,2.977-.561,4.427-.076.512-.166,1.014-.256,1.516a4.221,4.221,0,0,0-.021-.658c-.17-1.312-1.27-3.752-2.728-4.022a1.755,1.755,0,0,0-2.025,1.651,3.7,3.7,0,0,0,1.409,2.748,10.615,10.615,0,0,0,3.133,1.457c-.107.512-.215,1.038-.346,1.516-.1.346-.166.661-.277.99s-.211.654-.315.976c-.225.609-.45,1.243-.692,1.838-.159.412-.318.8-.478,1.2.08-.509.218-1.509.218-1.6a6.806,6.806,0,0,0-.914-3.316,2.077,2.077,0,0,0-.024-.388,1.755,1.755,0,0,0-2.146-1.488c-1.433.381-2.343,2.9-2.423,4.22,0,.08.048.931.09,1.468-.073-.312-.138-.616-.218-.935-.149-.633-.318-1.263-.5-1.942-.1-.322-.194-.651-.294-.98s-.232-.665-.346-1c-.284-.775-.609-1.547-.955-2.316a11.57,11.57,0,0,0,3.309-1.239,3.666,3.666,0,0,0,1.61-2.634,1.759,1.759,0,0,0-1.9-1.8c-1.475.163-2.769,2.513-3.022,3.808,0,.083-.1,1.038-.142,1.558-.211-.46-.419-.921-.647-1.385-.661-1.329-1.385-2.652-2.077-3.974-.215-.4-.422-.813-.633-1.218a12.161,12.161,0,0,0,3.427-1.267,3.671,3.671,0,0,0,1.61-2.634,1.758,1.758,0,0,0-1.9-1.8c-1.475.163-2.769,2.51-3.022,3.808-.021.1-.142,1.468-.159,1.821-.464-.9-.917-1.79-1.329-2.693a31.156,31.156,0,0,1-1.44-3.742,12.524,12.524,0,0,0,3.462-1.274,3.664,3.664,0,0,0,1.61-2.634,1.755,1.755,0,0,0-1.9-1.8c-1.475.159-2.769,2.51-3.022,3.808,0,.083-.114,1.128-.145,1.627h-.087a22.768,22.768,0,0,1-.775-3.957c-.083-.737-.121-1.447-.142-2.136a12.044,12.044,0,0,0,3.486-.876,3.606,3.606,0,0,0,1.89-2.444,1.758,1.758,0,0,0-1.689-1.994c-1.482,0-3.012,2.191-3.423,3.462-.021.069-.17.793-.27,1.319v-.935c0-1.122.073-2.146.142-3.057.045-.516.093-.983.145-1.419a11.688,11.688,0,0,0,2.672-2.371,3.655,3.655,0,0,0,.554-3.039,1.755,1.755,0,0,0-2.423-.993c-1.319.692-1.665,3.333-1.447,4.642,0,.114.516,1.845.54,1.831l.024-.021c-.059.419-.114.869-.17,1.36-.09.91-.183,1.938-.208,3.067a30.394,30.394,0,0,0,.087,3.635,22.993,22.993,0,0,0,.672,4.015.27.27,0,0,1,0,.048c-.235-.367-.921-1.385-.983-1.443-.865-1-3.115-2.423-4.5-1.849a1.758,1.758,0,0,0-.779,2.5,3.659,3.659,0,0,0,2.693,1.513,12.279,12.279,0,0,0,3.614-.564,31.239,31.239,0,0,0,1.409,3.891c.318.741.665,1.478,1.021,2.208-.215-.308-.4-.585-.436-.62-.865-1-3.115-2.423-4.5-1.848a1.755,1.755,0,0,0-.779,2.492A3.673,3.673,0,0,0,74.96,181.2a12.2,12.2,0,0,0,3.51-.54c.142.28.277.561.415.841q1.038,2.009,1.977,4c.222.471.419.938.62,1.409-.187-.277-.346-.509-.377-.54-.865-1-3.115-2.423-4.5-1.848a1.755,1.755,0,0,0-.775,2.5,3.615,3.615,0,0,0,2.69,1.513,11.584,11.584,0,0,0,3.417-.512c.194.485.388.973.55,1.454.1.329.228.64.315.976s.183.661.273.987c.152.637.315,1.288.447,1.911.1.433.18.845.263,1.26-.211-.467-.651-1.385-.692-1.447-.692-1.122-2.728-2.877-4.154-2.51a1.755,1.755,0,0,0-1.146,2.347,3.643,3.643,0,0,0,2.423,1.907,12.483,12.483,0,0,0,3.635,0c.138.692.267,1.36.377,1.994.384,2.184.623,4.015.775,5.31h1v-.087c-.18-1.305-.464-3.167-.9-5.383-.138-.692-.3-1.447-.471-2.212a19.65,19.65,0,0,0,2.028-.952,12.954,12.954,0,0,0,2.956,1.907c-.263.651-.53,1.281-.786,1.873-.883,2.032-1.7,3.694-2.285,4.846h1.1c.543-1.153,1.243-2.686,1.99-4.5.27-.658.547-1.385.824-2.1a12.013,12.013,0,0,0,3.628.28,3.655,3.655,0,0,0,2.568-1.731,1.759,1.759,0,0,0-.969-2.423c-1.409-.474-3.555,1.125-4.341,2.191-.045.062-.474.8-.737,1.27.114-.3.225-.588.346-.9.225-.613.433-1.229.654-1.89.1-.325.2-.654.294-.983s.177-.692.267-1.038c.19-.8.346-1.627.481-2.458a11.594,11.594,0,0,0,3.462.789,3.632,3.632,0,0,0,2.8-1.308,1.755,1.755,0,0,0-.592-2.544c-1.319-.692-3.683.571-4.621,1.506-.059.059-.658.807-.976,1.222.076-.5.159-1,.222-1.509.183-1.471.322-2.967.467-4.458.045-.457.093-.91.142-1.364a12.333,12.333,0,0,0,3.559.834,3.667,3.667,0,0,0,2.8-1.312,1.755,1.755,0,0,0-.592-2.544c-1.319-.692-3.68.575-4.621,1.509-.069.069-.928,1.146-1.135,1.43.107-1,.222-2,.374-2.98a31.665,31.665,0,0,1,.855-3.919,12.408,12.408,0,0,0,3.579.841,3.664,3.664,0,0,0,2.8-1.309,1.755,1.755,0,0,0-.588-2.544c-1.319-.692-3.683.571-4.621,1.506-.062.062-.72.879-1.021,1.277L94.86,173a22.6,22.6,0,0,1,1.558-3.721c.346-.661.692-1.274,1.059-1.859a11.917,11.917,0,0,0,3.389,1.191,3.625,3.625,0,0,0,2.925-.993,1.762,1.762,0,0,0-.308-2.6c-1.236-.82-3.725.166-4.76.99-.055.045-.578.568-.952.948.166-.26.346-.537.5-.782.62-.935,1.246-1.755,1.807-2.475.322-.405.62-.765.9-1.1a11.409,11.409,0,0,0,3.538-.505,3.636,3.636,0,0,0,2.136-2.229,1.755,1.755,0,0,0-1.492-2.157Z" transform="translate(-68.794 -154.648)" fill="#b92056"/>
        <path id="Path_2084" data-name="Path 2084" d="M236.17,310.3a14.207,14.207,0,0,0,4.137.457s-.63-1.921-.692-2.039c-.644-1.347-2.683-3.572-4.341-3.347a1.977,1.977,0,0,0-1.589,2.479A4.1,4.1,0,0,0,236.17,310.3Z" transform="translate(-176.426 -253.186)" fill="#b92056"/>
        <path id="Path_2085" data-name="Path 2085" d="M319.1,307.442c.028.017.537-1.949.554-2.077.2-1.482-.267-4.462-1.772-5.192a1.983,1.983,0,0,0-2.7,1.194,4.145,4.145,0,0,0,.717,3.406A13.926,13.926,0,0,0,319.1,307.442Z" transform="translate(-229.665 -249.685)" fill="#b92056"/>
        <path id="Path_2086" data-name="Path 2086" d="M275.055,284.211c-1.662-.18-3.638,2.1-4.247,3.462-.052.118-.661,2.056-.63,2.056h.035c-.315.346-.647.744-1,1.173-.651.8-1.385,1.71-2.1,2.752a35.464,35.464,0,0,0-2.181,3.462,25.618,25.618,0,0,0-1.862,4.2.06.06,0,0,1-.017.052c0-.488,0-1.859-.024-1.963-.194-1.482-1.437-4.233-3.081-4.538a1.983,1.983,0,0,0-2.285,1.862,4.2,4.2,0,0,0,1.592,3.115A13.728,13.728,0,0,0,263,301.554a35.7,35.7,0,0,0-1.1,4.548c-.159.9-.291,1.8-.415,2.714a7.309,7.309,0,0,0-.021-.855c-.19-1.482-1.433-4.234-3.077-4.538a1.98,1.98,0,0,0-2.285,1.862,4.136,4.136,0,0,0,1.589,3.1,13.361,13.361,0,0,0,3.638,1.679c-.042.346-.09.692-.132,1.039-.2,1.679-.395,3.358-.633,5-.083.578-.187,1.142-.291,1.71a5.542,5.542,0,0,0-.021-.744c-.19-1.482-1.433-4.23-3.077-4.535a1.983,1.983,0,0,0-2.285,1.862,4.206,4.206,0,0,0,1.589,3.115,11.821,11.821,0,0,0,3.534,1.644c-.121.578-.242,1.156-.388,1.707-.107.377-.183.744-.312,1.118l-.346,1.1c-.249.692-.505,1.405-.768,2.077-.177.467-.346.907-.537,1.35.09-.571.246-1.7.246-1.793a7.668,7.668,0,0,0-1.038-3.742,2.3,2.3,0,0,0-.024-.436,1.983,1.983,0,0,0-2.423-1.682c-1.617.433-2.641,3.271-2.717,4.763,0,.087.052,1.038.1,1.651-.083-.346-.159-.692-.246-1.038-.17-.717-.346-1.426-.561-2.188l-.346-1.108c-.1-.37-.26-.751-.391-1.128-.318-.876-.692-1.731-1.073-2.613a13.477,13.477,0,0,0,3.728-1.385,4.109,4.109,0,0,0,1.817-2.97,1.983,1.983,0,0,0-2.139-2.028c-1.665.18-3.115,2.832-3.41,4.292-.017.093-.118,1.167-.159,1.758-.239-.523-.474-1.038-.73-1.561-.744-1.5-1.544-2.987-2.333-4.479-.242-.457-.478-.917-.717-1.385a13.763,13.763,0,0,0,3.867-1.43,4.151,4.151,0,0,0,1.814-2.97A1.98,1.98,0,0,0,248.785,303c-1.665.18-3.115,2.832-3.41,4.292-.024.111-.163,1.658-.18,2.053-.523-1.007-1.038-2.018-1.5-3.036a34.774,34.774,0,0,1-1.634-4.216,14.013,14.013,0,0,0,3.891-1.433,4.168,4.168,0,0,0,1.814-2.974,1.977,1.977,0,0,0-2.139-2.025c-1.662.18-3.115,2.828-3.406,4.292-.021.1-.128,1.274-.166,1.835h-.093a25.143,25.143,0,0,1-.858-4.49c-.093-.831-.138-1.63-.163-2.423a13.24,13.24,0,0,0,3.929-.987A4.081,4.081,0,0,0,247,291.134a1.98,1.98,0,0,0-1.9-2.25c-1.672,0-3.4,2.472-3.86,3.891-.024.08-.19.893-.3,1.485,0-.346-.017-.713-.017-1.038,0-1.267.083-2.423.163-3.462.048-.582.1-1.108.163-1.6a13.477,13.477,0,0,0,3.015-2.672,4.12,4.12,0,0,0,.623-3.427,1.983,1.983,0,0,0-2.728-1.122c-1.485.768-1.876,3.759-1.63,5.234.021.128.582,2.077.609,2.077l.028-.017c-.066.471-.128.976-.187,1.53-.1,1.038-.208,2.188-.239,3.462a35.459,35.459,0,0,0,.1,4.1,25.886,25.886,0,0,0,.762,4.528.308.308,0,0,0,.017.052c-.263-.415-1.038-1.547-1.108-1.627-.98-1.128-3.531-2.738-5.071-2.077a1.983,1.983,0,0,0-.876,2.814,4.124,4.124,0,0,0,3.032,1.707,13.777,13.777,0,0,0,4.074-.64,35.217,35.217,0,0,0,1.592,4.4c.346.834.748,1.661,1.149,2.489-.239-.346-.457-.661-.492-.692-.976-1.128-3.531-2.738-5.068-2.077a1.98,1.98,0,0,0-.879,2.814A4.12,4.12,0,0,0,241,310.723a13.383,13.383,0,0,0,3.96-.606l.467.945c.758,1.513,1.523,3.018,2.226,4.517.249.526.474,1.056.692,1.585-.211-.312-.395-.571-.426-.609-.98-1.128-3.531-2.738-5.071-2.077a1.983,1.983,0,0,0-.876,2.814A4.124,4.124,0,0,0,245.005,319a12.237,12.237,0,0,0,3.856-.578c.215.547.433,1.1.616,1.637.121.374.26.723.346,1.1l.312,1.115c.17.713.346,1.45.5,2.153.107.485.2.952.3,1.419-.242-.526-.734-1.551-.786-1.634-.8-1.263-3.074-3.24-4.7-2.828a1.98,1.98,0,0,0-1.291,2.648,4.136,4.136,0,0,0,2.742,2.15,14.553,14.553,0,0,0,4.1,0c.156.779.3,1.534.426,2.25.433,2.461.692,4.531.872,5.988h1.132v-.1c-.2-1.475-.523-3.572-1.021-6.072-.152-.789-.346-1.63-.53-2.492a21.964,21.964,0,0,0,2.288-1.077,14.458,14.458,0,0,0,3.334,2.15c-.3.734-.6,1.447-.886,2.115-1,2.292-1.914,4.154-2.575,5.473H255.3c.616-1.3,1.4-3.029,2.243-5.089.308-.744.62-1.547.935-2.371a13.637,13.637,0,0,0,4.088.318,4.1,4.1,0,0,0,2.894-1.939,1.98,1.98,0,0,0-1.09-2.738c-1.589-.533-4.008,1.27-4.895,2.472-.052.073-.533.9-.831,1.433.128-.346.253-.665.377-1.014.256-.692.488-1.385.741-2.132.107-.367.218-.734.329-1.108s.2-.772.3-1.16c.218-.9.391-1.835.547-2.769a12.985,12.985,0,0,0,3.88.893,4.145,4.145,0,0,0,3.154-1.478,1.977,1.977,0,0,0-.665-2.87c-1.488-.765-4.154.647-5.192,1.7-.069.062-.744.907-1.1,1.385.09-.564.18-1.129.253-1.7.2-1.658.346-3.344.526-5.026.048-.512.1-1.038.159-1.54a13.463,13.463,0,0,0,4.012.942,4.136,4.136,0,0,0,3.154-1.475,1.98,1.98,0,0,0-.665-2.873c-1.485-.765-4.154.647-5.192,1.7-.08.08-1.038,1.291-1.281,1.61.118-1.128.249-2.253.422-3.358a34.776,34.776,0,0,1,.962-4.417,14.129,14.129,0,0,0,4.036.949,4.145,4.145,0,0,0,3.154-1.478,1.98,1.98,0,0,0-.665-2.87c-1.488-.768-4.154.647-5.213,1.7-.069.069-.807.993-1.149,1.44l-.083-.045a25.5,25.5,0,0,1,1.752-4.2c.381-.744.786-1.433,1.2-2.1a13.364,13.364,0,0,0,3.808,1.347,4.089,4.089,0,0,0,3.3-1.122,1.983,1.983,0,0,0-.346-2.929c-1.385-.924-4.2.187-5.365,1.118-.066.052-.654.637-1.077,1.07.19-.294.381-.606.568-.886.692-1.038,1.405-1.973,2.035-2.787.363-.457.692-.865,1.021-1.243a12.969,12.969,0,0,0,3.991-.568,4.081,4.081,0,0,0,2.406-2.517,1.977,1.977,0,0,0-1.665-2.5Z" transform="translate(-176.86 -237.095)" fill="#b92056"/>
        <path id="Path_2087" data-name="Path 2087" d="M72.308,333.328a12.619,12.619,0,0,0,3.645.049s-.713-1.62-.768-1.731c-.692-1.122-2.641-2.89-4.067-2.555a1.731,1.731,0,0,0-1.177,2.3A3.546,3.546,0,0,0,72.308,333.328Z" transform="translate(-69.334 -268.679)" fill="#b92056"/>
        <path id="Path_2088" data-name="Path 2088" d="M144.385,323.837c.024,0,.3-1.731.308-1.859.052-1.309-.609-3.867-1.987-4.372a1.731,1.731,0,0,0-2.247,1.267,3.637,3.637,0,0,0,.91,2.911A12.357,12.357,0,0,0,144.385,323.837Z" transform="translate(-115.477 -261.137)" fill="#b92056"/>
        <path id="Path_2089" data-name="Path 2089" d="M106.716,306.281c-1.464,0-3,2.139-3.41,3.382-.038.107-.4,1.849-.377,1.845h.031c-.246.346-.5.692-.775,1.108-.5.755-1.059,1.606-1.6,2.579a30.5,30.5,0,0,0-1.61,3.212,22.824,22.824,0,0,0-1.267,3.808v.048c-.035-.429-.17-1.62-.19-1.71-.291-1.277-1.606-3.569-3.067-3.7a1.731,1.731,0,0,0-1.835,1.817,3.634,3.634,0,0,0,1.648,2.569,12.091,12.091,0,0,0,3.417,1.177,31.153,31.153,0,0,0-.575,4.053c-.066.8-.1,1.6-.132,2.4-.042-.37-.083-.692-.093-.744-.291-1.277-1.606-3.569-3.067-3.7a1.731,1.731,0,0,0-1.835,1.817,3.634,3.634,0,0,0,1.648,2.569,11.539,11.539,0,0,0,3.316,1.156c0,.308-.021.616-.028.924-.035,1.482-.059,2.96-.132,4.407-.024.512-.066,1.014-.107,1.516-.038-.329-.069-.606-.08-.647-.294-1.274-1.61-3.565-3.067-3.694a1.731,1.731,0,0,0-1.835,1.817,3.571,3.571,0,0,0,1.648,2.569A10.782,10.782,0,0,0,96.56,338c-.059.516-.114,1.038-.194,1.523-.062.346-.1.665-.177,1s-.145.661-.218.987c-.159.623-.322,1.27-.5,1.873-.118.422-.235.82-.346,1.222.031-.505.069-1.5.062-1.585a6.733,6.733,0,0,0-1.215-3.174,1.754,1.754,0,0,0-.062-.377,1.731,1.731,0,0,0-2.25-1.26c-1.385.512-2.028,3.07-1.97,4.379,0,.076.135.91.228,1.433-.1-.3-.2-.592-.3-.9-.208-.609-.433-1.208-.675-1.859q-.187-.46-.384-.935c-.121-.315-.291-.633-.436-.952-.346-.737-.744-1.464-1.156-2.188a11.031,11.031,0,0,0,3.115-1.534,3.725,3.725,0,0,0,1.329-2.745,1.731,1.731,0,0,0-2.035-1.585c-1.433.3-2.468,2.728-2.607,4.029V336.9c-.249-.436-.5-.869-.768-1.3-.772-1.243-1.6-2.479-2.423-3.711-.249-.377-.492-.758-.741-1.135a12.12,12.12,0,0,0,3.25-1.575,3.612,3.612,0,0,0,1.333-2.745,1.731,1.731,0,0,0-2.035-1.585c-1.437.3-2.468,2.731-2.61,4.033v1.8c-.54-.838-1.073-1.672-1.565-2.52a30.748,30.748,0,0,1-1.779-3.538,12.282,12.282,0,0,0,3.268-1.578,3.645,3.645,0,0,0,1.333-2.745A1.731,1.731,0,0,0,82,318.715c-1.433.3-2.468,2.731-2.607,4.033v1.613l-.083.017a22.068,22.068,0,0,1-1.118-3.808c-.152-.717-.26-1.412-.346-2.077a11.565,11.565,0,0,0,3.344-1.194,3.576,3.576,0,0,0,1.623-2.579,1.731,1.731,0,0,0-1.8-1.807c-1.457.142-2.769,2.444-3.036,3.721,0,.069-.093.793-.142,1.322-.035-.308-.076-.623-.1-.914-.1-1.1-.132-2.122-.149-3.022v-1.409a11.948,11.948,0,0,0,2.4-2.586,3.6,3.6,0,0,0,.253-3.043,1.731,1.731,0,0,0-2.472-.744c-1.229.8-1.319,3.437-.98,4.7.031.111.692,1.765.692,1.748l.024-.021c0,.419-.031.865-.038,1.353,0,.9,0,1.921.087,3.032a30.726,30.726,0,0,0,.433,3.569,22.334,22.334,0,0,0,1.038,3.88.048.048,0,0,0,.017.045c-.263-.346-1.038-1.26-1.1-1.322-.948-.9-3.309-2.077-4.6-1.385a1.731,1.731,0,0,0-.526,2.527A3.636,3.636,0,0,0,75.6,325.6a12.023,12.023,0,0,0,3.5-.9,30.714,30.714,0,0,0,1.758,3.7c.384.692.793,1.385,1.212,2.077-.235-.284-.45-.537-.485-.571-.948-.9-3.309-2.077-4.6-1.385a1.731,1.731,0,0,0-.526,2.527,3.624,3.624,0,0,0,2.79,1.232,11.532,11.532,0,0,0,3.4-.865c.166.263.325.526.492.786.789,1.257,1.582,2.5,2.323,3.749.26.44.5.883.744,1.322-.211-.253-.391-.464-.422-.492-.948-.9-3.309-2.077-4.6-1.385a1.731,1.731,0,0,0-.526,2.527,3.621,3.621,0,0,0,2.79,1.229,10.892,10.892,0,0,0,3.309-.827c.235.46.471.921.692,1.385.135.315.284.609.4.931l.377.9c.208.609.429,1.236.62,1.835.135.415.256.813.381,1.215-.256-.44-.772-1.291-.824-1.357-.8-1.038-2.956-2.565-4.334-2.077a1.731,1.731,0,0,0-.9,2.423,3.636,3.636,0,0,0,2.572,1.641,12.57,12.57,0,0,0,3.572-.346c.2.665.391,1.315.561,1.928.588,2.108,1,3.887,1.267,5.147l.99-.1-.021-.083c-.3-1.267-.758-3.07-1.385-5.21-.2-.675-.429-1.385-.672-2.125a19.856,19.856,0,0,0,1.9-1.132,12.83,12.83,0,0,0,3.091,1.592c-.2.665-.4,1.312-.6,1.918-.692,2.077-1.315,3.808-1.783,4.988l1.083-.1c.426-1.184.966-2.769,1.527-4.625.2-.675.408-1.385.613-2.15a11.959,11.959,0,0,0,3.593-.066,3.625,3.625,0,0,0,2.357-1.935,1.731,1.731,0,0,0-1.184-2.3c-1.426-.329-3.385,1.447-4.057,2.569-.038.066-.388.834-.6,1.322.083-.308.166-.6.246-.917.163-.623.3-1.25.464-1.925.062-.325.128-.658.194-.993s.107-.692.163-1.038c.111-.806.183-1.63.239-2.461a11.492,11.492,0,0,0,3.462.45,3.614,3.614,0,0,0,2.624-1.554,1.731,1.731,0,0,0-.824-2.447c-1.36-.543-3.565.914-4.4,1.925-.052.062-.568.852-.845,1.291.031-.5.062-1,.076-1.506.038-1.464.031-2.946.035-4.424V329.56a12.161,12.161,0,0,0,3.579.481,3.627,3.627,0,0,0,2.624-1.554,1.731,1.731,0,0,0-.824-2.447c-1.36-.543-3.565.914-4.4,1.925-.062.076-.8,1.215-.98,1.513,0-1,.028-1.987.087-2.963a30.592,30.592,0,0,1,.464-3.936,11.7,11.7,0,0,0,3.6.488,3.627,3.627,0,0,0,2.624-1.554,1.731,1.731,0,0,0-.82-2.447c-1.364-.543-3.565.914-4.4,1.925-.055.066-.623.931-.883,1.35l-.076-.031A22.208,22.208,0,0,1,99.2,318.5c.27-.692.564-1.319.865-1.932a11.6,11.6,0,0,0,3.462.848,3.5,3.5,0,0,0,2.769-1.257,1.731,1.731,0,0,0-.547-2.52c-1.295-.692-3.645.516-4.587,1.426-.052.052-.516.613-.845,1.038.138-.273.277-.561.419-.82.519-.976,1.038-1.842,1.54-2.6.277-.429.537-.813.782-1.17a11.658,11.658,0,0,0,3.43-.831,3.581,3.581,0,0,0,1.887-2.4,1.731,1.731,0,0,0-1.662-2Z" transform="translate(-71.065 -253.599)" fill="#b92056"/>
      </g>
      <g id="freepik--Device--inject-2" transform="translate(34.333 18.111)">
        <rect id="Rectangle_457" data-name="Rectangle 457" width="65.455" height="127.732" rx="14.52" fill="#263238"/>
        <path id="Path_2090" data-name="Path 2090" d="M205.521,434.013a2.451,2.451,0,0,1,0-4.9h0a2.451,2.451,0,0,1,0,4.9Zm0-4.452a2,2,0,1,0,1.414.588A2,2,0,0,0,205.523,429.561Z" transform="translate(-173.031 -307.987)" fill="#fff"/>
        <path id="Path_2091" data-name="Path 2091" d="M157.34,79.05H121.166a5.026,5.026,0,0,0-5.026,5.026v100.04Z" transform="translate(-116.14 -79.05)" fill="#fff" opacity="0.3"/>
        <rect id="Rectangle_458" data-name="Rectangle 458" width="59.633" height="111.477" transform="translate(2.911 8.675)" fill="#fff"/>
        <path id="Rectangle_458_-_Outline" data-name="Rectangle 458 - Outline" d="M-.274-.5H59.358a.226.226,0,0,1,.226.226V111.2a.226.226,0,0,1-.226.226H-.274A.226.226,0,0,1-.5,111.2V-.274A.226.226,0,0,1-.274-.5Zm59.407.451H-.049V110.977H59.133Z" transform="translate(3.186 8.949)" fill="#263238"/>
        <path id="Rectangle_459" data-name="Rectangle 459" d="M-.225-.411H4.718A.185.185,0,0,1,4.9-.225v2.71a.185.185,0,0,1-.185.185H-.225a.185.185,0,0,1-.185-.185V-.225A.185.185,0,0,1-.225-.411ZM4.533-.04H-.04V2.3H4.533Z" transform="translate(55.794 10.056)" fill="#263238"/>
        <rect id="Rectangle_460" data-name="Rectangle 460" width="3.856" height="2.71" transform="translate(55.569 9.831)" fill="#263238"/>
        <path id="Rectangle_460_-_Outline" data-name="Rectangle 460 - Outline" d="M-.2-.363H3.657A.164.164,0,0,1,3.821-.2v2.71a.164.164,0,0,1-.164.164H-.2a.164.164,0,0,1-.164-.164V-.2A.164.164,0,0,1-.2-.363Zm3.693.327H-.035V2.348H3.494Z" transform="translate(55.768 10.03)" fill="#263238"/>
        <rect id="Rectangle_461" data-name="Rectangle 461" width="0.696" height="1.194" transform="translate(60.505 10.589)" fill="#263238"/>
        <path id="Rectangle_461_-_Outline" data-name="Rectangle 461 - Outline" d="M-.2-.363H.5A.164.164,0,0,1,.66-.2V1A.164.164,0,0,1,.5,1.159H-.2A.164.164,0,0,1-.363,1V-.2A.164.164,0,0,1-.2-.363Zm.532.327H-.035V.832H.333Z" transform="translate(60.704 10.788)" fill="#263238"/>
        <rect id="Rectangle_462" data-name="Rectangle 462" width="0.907" height="1.554" transform="translate(4.254 10.672)" fill="#263238"/>
        <path id="Rectangle_462_-_Outline" data-name="Rectangle 462 - Outline" d="M-.242-.442H.665a.2.2,0,0,1,.2.2V1.312a.2.2,0,0,1-.2.2H-.242a.2.2,0,0,1-.2-.2V-.242A.2.2,0,0,1-.242-.442Zm.708.4H-.043V1.113H.465Z" transform="translate(4.497 10.914)" fill="#263238"/>
        <rect id="Rectangle_463" data-name="Rectangle 463" width="0.907" height="2.101" transform="translate(5.677 10.125)" fill="#263238"/>
        <path id="Rectangle_463_-_Outline" data-name="Rectangle 463 - Outline" d="M-.242-.442H.665a.2.2,0,0,1,.2.2v2.1a.2.2,0,0,1-.2.2H-.242a.2.2,0,0,1-.2-.2v-2.1A.2.2,0,0,1-.242-.442Zm.708.4H-.043v1.7H.465Z" transform="translate(5.919 10.367)" fill="#263238"/>
        <rect id="Rectangle_464" data-name="Rectangle 464" width="0.907" height="2.745" transform="translate(7.103 9.481)" fill="#263238"/>
        <path id="Rectangle_464_-_Outline" data-name="Rectangle 464 - Outline" d="M-.242-.442H.665a.2.2,0,0,1,.2.2V2.5a.2.2,0,0,1-.2.2H-.242a.2.2,0,0,1-.2-.2V-.242A.2.2,0,0,1-.242-.442Zm.708.4H-.043V2.3H.465Z" transform="translate(7.345 9.724)" fill="#263238"/>
        <rect id="Rectangle_465" data-name="Rectangle 465" width="57.261" height="4.306" transform="translate(3.874 14.051)" fill="#b92056"/>
        <path id="Path_2092" data-name="Path 2092" d="M185.212,459.769c0,1.385-14.154,2.5-31.615,2.5s-31.6-1.122-31.6-2.5,14.154-2.5,31.615-2.5S185.212,458.388,185.212,459.769Z" transform="translate(-119.971 -326.346)" fill="#263238"/>
        <path id="Path_2093" data-name="Path 2093" d="M150.21,314.5a4.528,4.528,0,0,0,6.968-4.022,3.274,3.274,0,0,0,.8-.824,3.273,3.273,0,0,1-.917.253,1.61,1.61,0,0,0,.692-.883,3.213,3.213,0,0,1-1.014.388,1.575,1.575,0,0,0-1.16-.505,1.6,1.6,0,0,0-1.554,1.956,4.521,4.521,0,0,1-3.282-1.662,1.6,1.6,0,0,0,.5,2.125,1.55,1.55,0,0,1-.723-.2,1.592,1.592,0,0,0,1.277,1.582,1.572,1.572,0,0,1-.72.028,1.6,1.6,0,0,0,1.488,1.108A3.205,3.205,0,0,1,150.21,314.5Z" transform="translate(-138.416 -229.342)" fill="#fff"/>
        <rect id="Rectangle_469" data-name="Rectangle 469" width="13.746" height="13.746" rx="4.74" transform="translate(26.021 101.009)" fill="#263238"/>
        <path id="Path_2097" data-name="Path 2097" d="M202.675,377.61c-2.454,0-4.445,1.7-4.445,3.808a3.652,3.652,0,0,0,1.81,3.053l-.2,1.762,1.817-1.125a5.153,5.153,0,0,0,1.018.107c2.454,0,4.445-1.7,4.445-3.808S205.129,377.61,202.675,377.61Z" transform="translate(-169.814 -274.261)" fill="#fff" fill-rule="evenodd"/>
        <rect id="Rectangle_470" data-name="Rectangle 470" width="13.746" height="13.746" rx="4.74" transform="translate(43.533 101.009)" fill="#263238"/>
        <path id="Path_2098" data-name="Path 2098" d="M257.06,381.9h-9.346a.384.384,0,0,0-.384.384v5.376a.384.384,0,0,0,.384.384h9.346a.384.384,0,0,0,.384-.384v-5.379a.384.384,0,0,0-.384-.381Zm.125,1.163L254.2,384.9l2.655,1.966a.345.345,0,1,1-.412.554l-2.88-2.125-1.066.658-1.253-.692-2.929,2.163a.345.345,0,0,1-.412-.554l2.676-1.98-3.022-1.689a.349.349,0,0,1,.346-.606l4.6,2.555,4.337-2.679a.34.34,0,1,1,.339.589Z" transform="translate(-201.918 -277.066)" fill="#fff" fill-rule="evenodd"/>
        <path id="Path_2099" data-name="Path 2099" d="M181.787,243.358H140.806a5.466,5.466,0,0,1-5.466-5.466h0a5.462,5.462,0,0,1,5.466-5.462h40.982a5.459,5.459,0,0,1,5.462,5.462h0a5.462,5.462,0,0,1-5.462,5.466Z" transform="translate(-128.694 -179.336)" fill="#c6c9d1" fill-rule="evenodd"/>
        <rect id="Rectangle_471" data-name="Rectangle 471" width="25.086" height="15.646" transform="translate(6.646 30.978)" fill="#25304e"/>
        <rect id="Rectangle_472" data-name="Rectangle 472" width="25.086" height="15.646" transform="translate(33.224 30.978)" fill="#3c4c77"/>
        <rect id="Rectangle_473" data-name="Rectangle 473" width="25.086" height="8.654" transform="translate(33.224 30.978)" fill="#25304e"/>
        <path id="Path_2100" data-name="Path 2100" d="M246.944,199.947a1.987,1.987,0,1,0-1.987,1.987A1.987,1.987,0,0,0,246.944,199.947Z" transform="translate(-199.067 -156.798)" fill="#fff" fill-rule="evenodd"/>
        <path id="Path_2101" data-name="Path 2101" d="M248.727,201.688l-1.8-1.038v2.077Z" transform="translate(-201.656 -158.557)" fill="#25304e" fill-rule="evenodd"/>
        <circle id="Ellipse_124" data-name="Ellipse 124" cx="1.987" cy="1.987" r="1.987" transform="translate(53.343 41.162)" fill="#fff"/>
        <path id="Path_2102" data-name="Path 2102" d="M274.8,200.74v.82l-1.575-.91v2.077l1.575-.91v1h.4V200.74Z" transform="translate(-218.846 -158.557)" fill="#25304e" fill-rule="evenodd"/>
        <path id="Path_2158" data-name="Path 2158" d="M1.987,0A1.987,1.987,0,1,1,0,1.987,1.987,1.987,0,0,1,1.987,0Z" transform="translate(34.467 41.162)" fill="#fff"/>
        <path id="Path_2103" data-name="Path 2103" d="M219.088,200.74v.82l1.575-.91v2.077l-1.575-.91v1h-.4V200.74Z" transform="translate(-183.192 -158.557)" fill="#25304e" fill-rule="evenodd"/>
        <circle id="Ellipse_129" data-name="Ellipse 129" cx="3.392" cy="3.392" r="3.392" transform="translate(34.88 98.841) rotate(-9.25)" fill="#b92056"/>
        <path id="Ellipse_129_-_Outline" data-name="Ellipse 129 - Outline" d="M3.618,0A3.618,3.618,0,1,1,0,3.618,3.622,3.622,0,0,1,3.618,0Zm0,6.785A3.167,3.167,0,1,0,.451,3.618,3.17,3.17,0,0,0,3.618,6.785Z" transform="translate(34.621 98.655) rotate(-9.25)" fill="#263238"/>
        <path id="Path_2110" data-name="Path 2110" d="M222.88,367.167a.661.661,0,0,0,.737-.537h.45v4.282H223.4v-3.257h-.519Z" transform="translate(-185.931 -267.082)" fill="#263238"/>
        <path id="Path_2111" data-name="Path 2111" d="M228.49,367.563a1.017,1.017,0,1,1,2.032,0v2.219a1.017,1.017,0,1,1-2.032,0Zm.668,2.264c0,.3.135.422.346.422s.346-.118.346-.422v-2.305c0-.3-.135-.422-.346-.422s-.346.118-.346.422Z" transform="translate(-189.599 -266.99)" fill="#263238"/>
        <circle id="Ellipse_130" data-name="Ellipse 130" cx="3.392" cy="3.392" r="3.392" transform="translate(51.482 99.067) rotate(-12.58)" fill="#b92056"/>
        <path id="Ellipse_130_-_Outline" data-name="Ellipse 130 - Outline" d="M3.618,0A3.618,3.618,0,1,1,0,3.618,3.622,3.622,0,0,1,3.618,0Zm0,6.785A3.167,3.167,0,1,0,.451,3.618,3.17,3.17,0,0,0,3.618,6.785Z" transform="translate(51.213 98.896) rotate(-12.58)" fill="#263238"/>
        <path id="Path_2112" data-name="Path 2112" d="M274.13,369.54v.4c0,.3.135.415.346.415s.346-.111.346-.415V369c0-.308-.135-.422-.346-.422s-.346.114-.346.422v.128h-.63l.121-2.478h1.762v.609h-1.16l-.055,1.021a.63.63,0,0,1,.585-.312c.492,0,.741.346.741.976v.942c0,.692-.346,1.073-1,1.073s-1-.381-1-1.073v-.346Z" transform="translate(-219.029 -267.095)" fill="#263238"/>
        <rect id="Rectangle_474" data-name="Rectangle 474" width="13.746" height="13.746" rx="4.74" transform="translate(8.512 101.009)" fill="#c6c9d1"/>
        <ellipse id="Ellipse_131" data-name="Ellipse 131" cx="2.167" cy="2.821" rx="2.167" ry="2.821" transform="translate(13.216 102.926)" fill="#fff"/>
        <path id="Path_2113" data-name="Path 2113" d="M152.487,398.836a5.787,5.787,0,0,0,4.24-1.842,5.341,5.341,0,0,0-8.218.26A5.777,5.777,0,0,0,152.487,398.836Z" transform="translate(-137.305 -285.757)" fill="#fff" fill-rule="evenodd"/>
        <path id="Path_2114" data-name="Path 2114" d="M140.18,140.237c0,2.354-3.2,3.136-3.247,6.044v.048h3.2v.253H136.67v-.18c0-3.16,3.25-3.884,3.25-6.151,0-1.063-.346-1.928-1.506-1.928s-1.492.914-1.492,1.928v.457h-.253v-.447c0-1.167.457-2.181,1.758-2.181S140.18,139.046,140.18,140.237Z" transform="translate(-129.563 -117.646)" fill="#25304e"/>
        <path id="Path_2115" data-name="Path 2115" d="M153.014,140.216v.2a1.765,1.765,0,0,1-1.2,1.731,1.6,1.6,0,0,1,1.2,1.689v.651c0,1.18-.467,2.132-1.755,2.132s-1.769-.952-1.769-2.132v-.381h.263v.4c0,1.038.374,1.893,1.492,1.893s1.506-.858,1.506-1.907v-.637a1.4,1.4,0,0,0-1.385-1.558h-.627v-.239h.627a1.509,1.509,0,0,0,1.385-1.606v-.239c0-1.038-.384-1.893-1.506-1.893s-1.492.841-1.492,1.88v.253h-.263v-.239c0-1.184.481-2.136,1.769-2.136S153.014,139.032,153.014,140.216Z" transform="translate(-137.946 -117.646)" fill="#25304e"/>
        <path id="Path_2116" data-name="Path 2116" d="M162.683,146.54v.98h-.263v-.98Zm0,4.6v.976h-.263v-.976Z" transform="translate(-146.4 -123.178)" fill="#25304e"/>
        <path id="Path_2117" data-name="Path 2117" d="M167.649,138.739a1.686,1.686,0,0,1-1.409.938v-.239a1.648,1.648,0,0,0,1.419-1.218h.253v8.453h-.263Z" transform="translate(-148.898 -117.738)" fill="#25304e"/>
        <path id="Path_2118" data-name="Path 2118" d="M174.6,141.958a1.537,1.537,0,0,1,1.43-.748c1.239,0,1.7.966,1.7,2.108V144.6c0,1.17-.481,2.132-1.755,2.132s-1.769-.962-1.769-2.132v-.357h.277v.363c0,1.038.388,1.88,1.492,1.88s1.506-.855,1.506-1.88v-1.263c0-1.014-.384-1.869-1.506-1.869a1.409,1.409,0,0,0-1.385,1.014v.093h-.253l.218-4.351h3.043v.267h-2.8Z" transform="translate(-154.102 -117.744)" fill="#25304e"/>
      </g>
      <g id="freepik--Character--inject-2" transform="translate(101.979 42.507)">
        <ellipse id="Ellipse_132" data-name="Ellipse 132" cx="23.577" cy="3.392" rx="23.577" ry="3.392" transform="translate(7.955 104.742)" fill="#263238"/>
        <path id="Path_2119" data-name="Path 2119" d="M409.627,437.462a32.736,32.736,0,0,1-2.579,3.4c-.62.516-3.2,1.648-3.3,2.077s-.308.72.1,1.038,5.362.412,6.29.412,1.547-.928,1.959-1.239,1.651-1.236,2.371-1.752,2.887-1.755,2.991-2.475-2.769-3.507-2.769-3.507Z" transform="translate(-371.743 -336.455)" fill="#b92056"/>
        <path id="Path_2119_-_Outline" data-name="Path 2119 - Outline" d="M414.422,434.92a.226.226,0,0,1,.157.064c.007.007.732.711,1.434,1.495,1.313,1.464,1.438,1.948,1.4,2.206-.089.619-1.175,1.373-2.477,2.222-.246.16-.458.3-.606.4-.735.527-1.991,1.464-2.366,1.748a3.592,3.592,0,0,0-.323.3,2.606,2.606,0,0,1-1.772.983c-.444,0-1.9-.022-3.348-.087-2.758-.124-2.975-.292-3.079-.372a.832.832,0,0,1-.245-1.057c.021-.069.042-.14.06-.213.077-.318.658-.66,1.965-1.367a11.76,11.76,0,0,0,1.408-.83,30.425,30.425,0,0,0,2.536-3.356.225.225,0,0,1,.1-.083l5.068-2.042A.225.225,0,0,1,414.422,434.92Zm-4.552,8.972a2.225,2.225,0,0,0,1.453-.851,3.847,3.847,0,0,1,.37-.343c.377-.285,1.637-1.226,2.376-1.755.155-.111.372-.252.622-.415.458-.3,1.029-.671,1.489-1.034.65-.513.773-.768.788-.874.005-.035.012-.387-1.289-1.839-.536-.6-1.086-1.15-1.31-1.371l-4.867,1.962a30.307,30.307,0,0,1-2.582,3.392,11.481,11.481,0,0,1-1.483.88c-.412.223-.838.453-1.172.657a1.9,1.9,0,0,0-.571.427c-.02.083-.044.161-.065.23-.1.319-.114.41.087.566a11.027,11.027,0,0,0,2.879.283C408.016,443.871,409.439,443.892,409.87,443.892Z" transform="translate(-371.471 -336.181)" fill="#263238"/>
        <path id="Path_2120" data-name="Path 2120" d="M403.822,448.007c.412.308,5.362.412,6.29.412s1.547-.928,1.959-1.239,1.651-1.236,2.371-1.752,2.887-1.755,2.991-2.475c.038-.26-.308-.779-.765-1.343a18.25,18.25,0,0,0-2.122,2.375,8.815,8.815,0,0,1-4.95,3.091c-1.444.1-5.885-.1-5.885-.1C403.614,447.387,403.41,447.7,403.822,448.007Z" transform="translate(-371.722 -340.502)" fill="#fff"/>
        <path id="Path_2120_-_Outline" data-name="Path 2120 - Outline" d="M409.838,448.37c-.479,0-1.952-.027-3.349-.091-2.756-.126-2.972-.288-3.076-.366a.835.835,0,0,1-.251-1.06c.02-.066.04-.135.056-.2a.225.225,0,0,1,.23-.174c.028,0,2.859.128,4.708.128.5,0,.888-.009,1.151-.028a6.366,6.366,0,0,0,2.564-1.047,8.038,8.038,0,0,0,2.216-1.948l0-.007a18.529,18.529,0,0,1,2.148-2.4.226.226,0,0,1,.33.022c.773.954.844,1.3.813,1.518-.089.619-1.175,1.372-2.477,2.221-.246.16-.458.3-.606.4-.734.526-1.99,1.464-2.366,1.748a3.6,3.6,0,0,0-.323.3A2.606,2.606,0,0,1,409.838,448.37Zm-6.157-.82a11.392,11.392,0,0,0,2.88.281c1.375.062,2.813.088,3.277.088a2.225,2.225,0,0,0,1.453-.851,3.845,3.845,0,0,1,.37-.343c.377-.286,1.638-1.227,2.376-1.755.155-.111.372-.252.622-.416.458-.3,1.029-.671,1.489-1.034.65-.513.773-.768.788-.874.005-.037,0-.249-.565-.977a18.08,18.08,0,0,0-1.916,2.173,8.506,8.506,0,0,1-2.344,2.069,6.7,6.7,0,0,1-2.773,1.115c-.273.019-.671.029-1.182.029-1.588,0-3.891-.093-4.548-.121l-.014.047C403.5,447.3,403.482,447.4,403.681,447.55Z" transform="translate(-371.449 -340.228)" fill="#263238"/>
        <path id="Path_2121" data-name="Path 2121" d="M370.63,316.517s1.544,5.05,2.887,9.073,4.022,11.655,5.258,13.715a123.041,123.041,0,0,1,5.982,11.035c1.032,2.579,2.991,6.5,2.991,6.5l5.165-2.579s-1.752-5.258-2.371-7.941-1.34-5.67-2.475-7.321a31.049,31.049,0,0,0-2.475-3.095l-2.679-12.271L380.229,312.9S373.105,312.8,370.63,316.517Z" transform="translate(-350.182 -256.346)" fill="#1c2746"/>
        <path id="Path_2121_-_Outline" data-name="Path 2121 - Outline" d="M379.9,312.4h.054a.226.226,0,0,1,.216.171l2.683,10.731,0,.007,2.666,12.212a31.386,31.386,0,0,1,2.452,3.072c1.114,1.62,1.823,4.424,2.51,7.4.61,2.642,2.348,7.868,2.365,7.92a.226.226,0,0,1-.113.273l-5.165,2.579a.226.226,0,0,1-.3-.1c-.02-.039-1.975-3.956-3-6.514a121.425,121.425,0,0,0-5.966-11c-1.5-2.5-4.9-12.614-5.279-13.759-1.329-3.979-2.873-9.028-2.889-9.078a.226.226,0,0,1,.028-.191C372.576,312.5,379.16,312.4,379.9,312.4Zm2.514,11.008-2.639-10.556a19.76,19.76,0,0,0-3.958.478c-2.5.575-4.252,1.567-5.218,2.95.228.742,1.632,5.306,2.853,8.964,1.382,4.138,4.04,11.673,5.238,13.67a122.445,122.445,0,0,1,6,11.068c.883,2.208,2.47,5.444,2.883,6.278l4.788-2.391c-.317-.96-1.766-5.4-2.315-7.776-.542-2.347-1.285-5.562-2.441-7.244a30.934,30.934,0,0,0-2.456-3.071.225.225,0,0,1-.054-.1Z" transform="translate(-349.908 -256.072)" fill="#263238"/>
        <path id="Path_2122" data-name="Path 2122" d="M416.089,430.943s.72,1.343.928,1.755,2.267.516,3.2.1,3.507-1.755,3.507-2.375a8.683,8.683,0,0,0-1.135-2.679c-.312-.516-1.443-.1-2.163.208s-3.4,1.648-3.714,1.752a.931.931,0,0,0-.616,1.236Z" transform="translate(-379.863 -331.279)" fill="#fff"/>
        <path id="Path_2122_-_Outline" data-name="Path 2122 - Outline" d="M418.318,433.015h0a5.238,5.238,0,0,1-1.076-.1c-.382-.084-.611-.211-.7-.388-.2-.4-.918-1.737-.925-1.75a.224.224,0,0,1-.011-.024,1.157,1.157,0,0,1,.759-1.533c.164-.057,1.047-.483,1.827-.86.749-.362,1.524-.736,1.865-.883a4.628,4.628,0,0,1,1.692-.471.807.807,0,0,1,.754.354,9.268,9.268,0,0,1,1.168,2.8c0,.248-.172.638-1.513,1.458a20.855,20.855,0,0,1-2.127,1.123A4.5,4.5,0,0,1,418.318,433.015Zm-1.376-.7a2.538,2.538,0,0,0,1.375.244h0a4.117,4.117,0,0,0,1.528-.242,20.361,20.361,0,0,0,2.072-1.094c1.282-.783,1.3-1.071,1.3-1.074a8.624,8.624,0,0,0-1.1-2.563c-.02-.034-.082-.136-.368-.136a4.307,4.307,0,0,0-1.513.434c-.333.144-1.1.516-1.848.876-1.061.512-1.717.827-1.884.883l-.01,0a.706.706,0,0,0-.471.925C416.1,430.72,416.743,431.923,416.943,432.319Z" transform="translate(-379.589 -331.004)" fill="#263238"/>
        <path id="Path_2123" data-name="Path 2123" d="M346.7,446.68a12.24,12.24,0,0,1-2.077,1.752,20.393,20.393,0,0,1-5.674,2.077c-1.135.218-1.132.827-1.132,1.443s3.919,1.547,5.885,1.859,7.217.2,7.733-.208.516-4.538.516-4.95S346.7,446.68,346.7,446.68Z" transform="translate(-328.729 -343.817)" fill="#b92056"/>
        <path id="Path_2123_-_Outline" data-name="Path 2123 - Outline" d="M346.428,446.18a.226.226,0,0,1,.064.009c.013,0,1.332.4,2.633.835.767.258,1.379.482,1.82.664.811.337.96.5.96.69,0,.5-.008,1.5-.065,2.488-.037.658-.09,1.2-.156,1.609-.119.738-.266.938-.38,1.03-.076.061-.278.222-1.677.336-.8.065-1.807.1-2.844.1a24.539,24.539,0,0,1-3.388-.183,35.215,35.215,0,0,1-3.706-.821,12.27,12.27,0,0,1-1.593-.548c-.544-.244-.776-.457-.776-.712v-.006a1.393,1.393,0,0,1,1.315-1.659,20.2,20.2,0,0,0,5.587-2.041l0,0a12.031,12.031,0,0,0,2.039-1.719A.226.226,0,0,1,346.428,446.18Zm5.025,2.262a11.987,11.987,0,0,0-2.641-1.047c-1-.332-1.972-.629-2.317-.734a12.485,12.485,0,0,1-2.017,1.682,20.667,20.667,0,0,1-5.758,2.112c-.944.181-.949.611-.949,1.207.03.048.292.356,2.179.881a34.591,34.591,0,0,0,3.515.77,24.118,24.118,0,0,0,3.318.177c1.02,0,2.013-.035,2.8-.1a3.922,3.922,0,0,0,1.443-.24c.025-.022.252-.28.368-2.33C351.443,449.887,351.453,448.953,351.454,448.442Z" transform="translate(-328.455 -343.543)" fill="#263238"/>
        <path id="Path_2124" data-name="Path 2124" d="M351.453,461.762a2.57,2.57,0,0,0,.346-1.336,36.049,36.049,0,0,1-5.708.422,20.032,20.032,0,0,1-8.065-1.669,1.637,1.637,0,0,0-.183.945c0,.62,3.919,1.547,5.885,1.859S350.938,462.174,351.453,461.762Z" transform="translate(-328.738 -351.99)" fill="#fff"/>
        <path id="Path_2124_-_Outline" data-name="Path 2124 - Outline" d="M346.717,462.111h0a23.882,23.882,0,0,1-3.3-.178,35.3,35.3,0,0,1-3.706-.82,12.212,12.212,0,0,1-1.593-.548c-.527-.237-.767-.453-.776-.7a1.856,1.856,0,0,1,.21-1.065.226.226,0,0,1,.289-.1,19.691,19.691,0,0,0,7.914,1.65h.263a35.94,35.94,0,0,0,5.471-.42.226.226,0,0,1,.259.245c-.109,1.1-.287,1.377-.43,1.491-.077.061-.281.225-1.709.342C348.793,462.074,347.766,462.111,346.717,462.111Zm-8.924-2.276c.027.044.276.354,2.178.882a34.686,34.686,0,0,0,3.516.77,23.46,23.46,0,0,0,3.229.173h0c1.032,0,2.042-.036,2.845-.1a4.019,4.019,0,0,0,1.476-.246c.005,0,.131-.125.23-.893a36.413,36.413,0,0,1-5.249.382h-.263a20.256,20.256,0,0,1-7.889-1.6,1.407,1.407,0,0,0-.074.626Z" transform="translate(-328.463 -351.716)" fill="#263238"/>
        <path id="Path_2125" data-name="Path 2125" d="M368.895,314.284s-.827,7.633-1.038,11.344-.827,7.013-.827,8.654-1.443,11.963-1.443,13.715a53.838,53.838,0,0,1-1.236,7.013s0,.2,1.135.516,2.991.72,2.991.72h.945s1.132-3.4,2.475-6.5,2.475-5.258,2.769-8.353,0-6.805.412-7.525,5.054-12.479,5.673-13.5,1.855-3.61,1.855-3.61a6.982,6.982,0,0,0,1.34-4.639c-.1-2.991-1.648-2.787-4.538-2.787a17.225,17.225,0,0,0-7.733,2.077A16.049,16.049,0,0,0,368.895,314.284Z" transform="translate(-346.076 -254.013)" fill="#25304e"/>
        <path id="Path_2125_-_Outline" data-name="Path 2125 - Outline" d="M380.117,308.831a5.265,5.265,0,0,1,2.708.442c.695.43,1.025,1.221,1.072,2.566a8.056,8.056,0,0,1-.65,3.54,5.5,5.5,0,0,1-.724,1.23c-.138.289-1.261,2.628-1.854,3.6-.342.564-2.046,4.74-3.414,8.1-1.284,3.147-2.079,5.091-2.256,5.4a12.33,12.33,0,0,0-.225,3.214c-.012,1.325-.026,2.826-.158,4.221a21.8,21.8,0,0,1-2.243,7.184c-.176.4-.358.809-.544,1.237-1.323,3.05-2.457,6.445-2.468,6.479a.226.226,0,0,1-.214.154H368.2a.223.223,0,0,1-.048-.005c-.019,0-1.874-.413-3-.723-1.153-.316-1.3-.558-1.3-.733a.224.224,0,0,1,.006-.052,53.992,53.992,0,0,0,1.23-6.962c0-.9.377-4.04.741-7.073.345-2.875.7-5.848.7-6.642a32.877,32.877,0,0,1,.312-3.378c.19-1.574.406-3.357.516-5.289.209-3.674,1.031-11.279,1.039-11.355a.225.225,0,0,1,.044-.112,16.021,16.021,0,0,1,2.833-2.924,13.33,13.33,0,0,1,3.31-1.382,16.9,16.9,0,0,1,4.549-.733l.52,0Zm-11.132,46.914c.238-.7,1.26-3.665,2.43-6.362.187-.43.369-.842.546-1.24a21.452,21.452,0,0,0,2.206-7.044c.131-1.375.144-2.866.156-4.182a10.3,10.3,0,0,1,.284-3.434c.171-.3,1.171-2.75,2.23-5.346,1.446-3.546,3.086-7.565,3.447-8.159.607-1,1.832-3.565,1.845-3.591a.225.225,0,0,1,.034-.051,4.974,4.974,0,0,0,.68-1.159,7.611,7.611,0,0,0,.6-3.323c-.085-2.462-1.141-2.572-3.329-2.572h-.462l-.522,0a17.055,17.055,0,0,0-7.607,2.038,15.449,15.449,0,0,0-2.688,2.773c-.08.741-.832,7.784-1.031,11.269-.111,1.946-.337,3.815-.518,5.317a33.324,33.324,0,0,0-.309,3.324c0,.82-.343,3.674-.706,6.7s-.738,6.143-.738,7.019a50.6,50.6,0,0,1-1.216,6.953,3.452,3.452,0,0,0,.949.358c1.048.288,2.735.663,2.956.712Z" transform="translate(-345.801 -253.739)" fill="#263238"/>
        <path id="Path_2126" data-name="Path 2126" d="M378.246,433.1a.226.226,0,0,1-.214-.3c0-.006.193-.569.462-1.422a.226.226,0,0,1,.43.136c-.271.858-.463,1.425-.465,1.431A.226.226,0,0,1,378.246,433.1Z" transform="translate(-355.066 -333.761)" fill="#fff"/>
        <path id="Path_2127" data-name="Path 2127" d="M380.476,395.152a.226.226,0,0,1-.216-.291,38.673,38.673,0,0,0,1.521-6.5,26.747,26.747,0,0,0,0-4.851c0-.007,0-.014,0-.021a1.5,1.5,0,0,1,.859-1.335,2.742,2.742,0,0,0-.234-.8,3.568,3.568,0,0,1-.363-1.631,2.552,2.552,0,0,1,.38-1.062.625.625,0,0,0,.13-.322v-1.16a.226.226,0,0,1,.451,0v1.16a1.021,1.021,0,0,1-.194.553,2.126,2.126,0,0,0-.321.895,3.3,3.3,0,0,0,.337,1.405c.227.587.423,1.095.078,1.326l-.008.006c-.368.247-.66.442-.664.953a27.193,27.193,0,0,1,0,4.922,39.051,39.051,0,0,1-1.539,6.587A.226.226,0,0,1,380.476,395.152Z" transform="translate(-356.524 -298.284)" fill="#fff"/>
        <path id="Path_2128" data-name="Path 2128" d="M387.286,343.225h-.01a.226.226,0,0,1-.216-.235,14.564,14.564,0,0,1,.352-2.6v0c.347-1.383,2.944-8.148,5.063-13.579a.226.226,0,1,1,.42.164c-3.029,7.766-4.773,12.442-5.045,13.523a14.118,14.118,0,0,0-.34,2.519A.226.226,0,0,1,387.286,343.225Z" transform="translate(-360.977 -265.396)" fill="#fff"/>
        <path id="Path_2129" data-name="Path 2129" d="M404.216,321.117a.226.226,0,0,1-.21-.308l.523-1.336a.226.226,0,0,1,.42.164l-.523,1.336A.226.226,0,0,1,404.216,321.117Z" transform="translate(-372.047 -260.603)" fill="#636363"/>
        <path id="Path_2130" data-name="Path 2130" d="M361.575,438s3.2,1.135,4.022,1.443,2.267.308,2.267.928.1,2.786-.412,2.887a17.84,17.84,0,0,1-4.538-.928c-1.031-.412-1.752-.412-1.959-.824s.1-1.547.1-2.167A2.874,2.874,0,0,1,361.575,438Z" transform="translate(-343.809 -338.142)" fill="#fff"/>
        <path id="Path_2130_-_Outline" data-name="Path 2130 - Outline" d="M361.3,437.5a.225.225,0,0,1,.076.013c.032.011,3.206,1.14,4.026,1.445a6.369,6.369,0,0,0,.887.223,5.606,5.606,0,0,1,.971.255c.369.153.556.375.556.661,0,.072,0,.168,0,.279.026,1.713-.063,2.725-.6,2.829a1.039,1.039,0,0,1-.2.015,19.992,19.992,0,0,1-4.47-.955,9.526,9.526,0,0,0-.978-.32c-.536-.152-.923-.262-1.1-.611a2.935,2.935,0,0,1,0-1.478,6.415,6.415,0,0,0,.082-.791.23.23,0,0,1,0-.026,3.107,3.107,0,0,1,.556-1.445A.226.226,0,0,1,361.3,437.5Zm5.829,5.263c.019-.016.154-.152.213-.905.04-.507.031-1.089.025-1.475,0-.113,0-.21,0-.286,0-.236-.647-.368-1.167-.474a6.674,6.674,0,0,1-.954-.242c-.708-.264-3.187-1.146-3.854-1.383a2.656,2.656,0,0,0-.38,1.082,6.857,6.857,0,0,1-.086.84,3.116,3.116,0,0,0-.042,1.212c.087.172.394.26.819.381a10.047,10.047,0,0,1,1.022.335,19.721,19.721,0,0,0,4.3.922A.69.69,0,0,0,367.129,442.763Z" transform="translate(-343.535 -337.868)" fill="#263238"/>
        <path id="Path_2131" data-name="Path 2131" d="M359.955,203.084s-5.192,1.243-5.67,1.786-3.652,6.061-3.884,6.293a13.948,13.948,0,0,1-1.71,1.319,2.576,2.576,0,0,0-.855,1.167,13.047,13.047,0,0,1-1.243,2.423c-.935,1.648-3.115,4.427-2.485,4.583s2.641-.467,4.351-.855a12.314,12.314,0,0,0,3.884-2.177s-.384,4.659-.384,7.456.076,12.116.076,13.826a32.012,32.012,0,0,0,0,3.964,17,17,0,0,0,1.243,2.25l.855-1.007.692,1.475s.931-1.167,4.815-2.485,5.594-1.866,6.6-1.786,6.525,3.185,6.837,3.34-.312-5.905-.312-9.322-.232-9.478-.232-9.478,2.641-12.808,2.949-15.612a9.854,9.854,0,0,0-1.63-6.137c-.543-.775-7.145-2.565-7.145-2.565Z" transform="translate(-332.767 -183.535)" fill="#b92056"/>
        <path id="Path_2131_-_Outline" data-name="Path 2131 - Outline" d="M366.439,201.04a.225.225,0,0,1,.059.008c.017,0,1.675.455,3.378.994,1,.318,1.826.6,2.446.851,1.083.431,1.342.658,1.447.808a10.29,10.29,0,0,1,1.163,2.363,8.954,8.954,0,0,1,.507,3.928c-.3,2.746-2.778,14.786-2.947,15.606.017.448.231,6.194.231,9.459,0,1.546.127,3.62.239,5.45.2,3.315.208,3.841.04,4.02a.248.248,0,0,1-.294.053c-.051-.025-.209-.112-.47-.255-.727-.4-2.081-1.14-3.388-1.806a12.013,12.013,0,0,0-2.9-1.257c-.058,0-.119-.007-.182-.007-.983,0-2.684.543-6.332,1.782-3.743,1.271-4.7,2.4-4.712,2.414a.225.225,0,0,1-.38-.046l-.543-1.157-.628.74a.226.226,0,0,1-.362-.025,16.111,16.111,0,0,1-1.269-2.309,10.047,10.047,0,0,1-.048-2.225c.018-.555.039-1.183.039-1.8,0-.75-.014-2.928-.031-5.451-.021-3.189-.045-6.8-.045-8.375,0-2.229.246-5.673.345-6.963a11.083,11.083,0,0,1-3.569,1.9c-.459.1-.944.226-1.414.345a14.643,14.643,0,0,1-2.738.541,1.267,1.267,0,0,1-.3-.031.357.357,0,0,1-.255-.221c-.155-.4.33-1.2,1.473-2.921.409-.618.833-1.257,1.125-1.771a13.628,13.628,0,0,0,1.22-2.365.215.215,0,0,1,.007-.023,2.8,2.8,0,0,1,.93-1.269l.014-.01a13.759,13.759,0,0,0,1.674-1.29c.12-.144.849-1.366,1.493-2.445,1.229-2.059,2.119-3.539,2.381-3.837.094-.107.343-.39,3.123-1.165,1.346-.375,2.651-.688,2.664-.691h0l6.757-1.544A.225.225,0,0,1,366.439,201.04Zm6.228,43.007c.023-.587-.071-2.127-.156-3.512-.113-1.837-.24-3.919-.24-5.478,0-3.373-.229-9.409-.232-9.469a.228.228,0,0,1,0-.054c.026-.128,2.643-12.829,2.946-15.591a8.508,8.508,0,0,0-.485-3.731,9.809,9.809,0,0,0-1.106-2.253c-.069-.1-.538-.5-3.659-1.488-1.522-.482-3.007-.892-3.305-.974l-6.7,1.531c-.046.011-1.327.319-2.648.687-2.459.686-2.845.96-2.9,1.028-.255.29-1.407,2.22-2.333,3.771-1.023,1.714-1.451,2.423-1.561,2.533l-.008.008a14.215,14.215,0,0,1-1.73,1.335,2.345,2.345,0,0,0-.77,1.049,13.5,13.5,0,0,1-1.262,2.468c-.3.528-.727,1.174-1.141,1.8-.376.567-.764,1.153-1.038,1.625a2.882,2.882,0,0,0-.387.84,1.111,1.111,0,0,0,.134.007,14.627,14.627,0,0,0,2.628-.527c.472-.119.959-.242,1.424-.347a12.164,12.164,0,0,0,3.79-2.132.226.226,0,0,1,.368.193c0,.047-.383,4.682-.383,7.438,0,1.569.024,5.183.045,8.372.017,2.523.031,4.7.031,5.454,0,.625-.021,1.258-.039,1.816a10.8,10.8,0,0,0,.031,2.086,13.426,13.426,0,0,0,1.053,1.931l.656-.772a.226.226,0,0,1,.376.05l.557,1.187a14.145,14.145,0,0,1,4.673-2.316c3.779-1.283,5.422-1.806,6.477-1.806.075,0,.148,0,.218.008.148.012.6.047,3.065,1.3,1.313.669,2.671,1.413,3.4,1.812Z" transform="translate(-332.494 -183.26)" fill="#263238"/>
        <path id="Path_2132" data-name="Path 2132" d="M367.836,235.626h-.013a.226.226,0,0,1-.212-.238,30.5,30.5,0,0,1,1.1-6.586.226.226,0,1,1,.427.147,30.7,30.7,0,0,0-1.075,6.465A.226.226,0,0,1,367.836,235.626Z" transform="translate(-348.26 -201.313)" fill="#263238"/>
        <path id="Path_2133" data-name="Path 2133" d="M355.558,242.884a.248.248,0,0,1-.136-.04c-.128-.083-.164-.248-.135-.607a27.947,27.947,0,0,0-.465-3.9.226.226,0,1,1,.444-.08c.015.085.262,1.469.395,2.646.008-.18.012-.376.012-.588a.226.226,0,1,1,.451,0,10.345,10.345,0,0,1-.125,1.743c-.119.687-.256.761-.322.8A.254.254,0,0,1,355.558,242.884Z" transform="translate(-339.897 -207.472)" fill="#263238"/>
        <path id="Path_2134" data-name="Path 2134" d="M381.056,223.806a.226.226,0,0,1-.221-.27c.686-3.388,2.754-10.236,2.774-10.3a.226.226,0,1,1,.432.131c-.021.069-2.082,6.9-2.764,10.264A.226.226,0,0,1,381.056,223.806Z" transform="translate(-356.904 -191.126)" fill="#263238"/>
        <path id="Line_15" data-name="Line 15" d="M-.274,3.911H-.292A.226.226,0,0,1-.5,3.668l.312-3.96A.226.226,0,0,1,.055-.5a.226.226,0,0,1,.207.243L-.049,3.7A.226.226,0,0,1-.274,3.911Z" transform="translate(22.336 43.916)" fill="#263238"/>
        <path id="Path_2135" data-name="Path 2135" d="M373.178,304.457a.226.226,0,0,1-.225-.213,88.981,88.981,0,0,1,.465-9.2.226.226,0,0,1,.449.044,88.6,88.6,0,0,0-.463,9.132.226.226,0,0,1-.213.237Z" transform="translate(-351.737 -244.59)" fill="#263238"/>
        <path id="Path_2136" data-name="Path 2136" d="M339.643,235.06a8.61,8.61,0,0,1-1.475,2.953c-1.167,1.554-1.606,1.786-2.305,1.866s-1.578-1.087-1.814-1.554-.464,0-.232,1.554a4.349,4.349,0,0,0,3.34,3.115c1.087,0,2.8-2.174,3.185-3.261a7.75,7.75,0,0,0,.388-3.42C340.574,235.451,340.574,234.752,339.643,235.06Z" transform="translate(-326.049 -205.403)" fill="#b92056"/>
        <path id="Path_2136_-_Outline" data-name="Path 2136 - Outline" d="M339.757,234.486h0a.7.7,0,0,1,.673.435,3.135,3.135,0,0,1,.2.816c.014.085.029.173.045.262,0,.005,0,.01,0,.015a8.024,8.024,0,0,1-.4,3.52,7.393,7.393,0,0,1-1.375,2.114c-.436.485-1.279,1.3-2.022,1.3a3.706,3.706,0,0,1-2.139-1.03,4.026,4.026,0,0,1-1.424-2.277c-.1-.7-.18-1.6.06-1.876a.3.3,0,0,1,.23-.11c.144,0,.267.1.367.3.245.487,1.012,1.434,1.543,1.434l.044,0c.621-.071,1.012-.26,2.15-1.777l0,0a8.345,8.345,0,0,0,1.436-2.875.226.226,0,0,1,.147-.154A1.47,1.47,0,0,1,339.757,234.486Zm.475,1.585c-.016-.09-.03-.177-.044-.261-.112-.676-.182-.873-.431-.873h0a.855.855,0,0,0-.205.03,8.791,8.791,0,0,1-1.478,2.908c-1.166,1.553-1.658,1.862-2.459,1.953a.841.841,0,0,1-.095.005c-.742,0-1.518-.966-1.843-1.5a6.323,6.323,0,0,0,.09,1.237,4.158,4.158,0,0,0,3.117,2.923,2.965,2.965,0,0,0,1.687-1.148,6.916,6.916,0,0,0,1.285-1.963A7.569,7.569,0,0,0,340.232,236.071Z" transform="translate(-325.774 -205.129)" fill="#263238"/>
        <path id="Path_2137" data-name="Path 2137" d="M340.592,182.048s1.554-1.478,1.866-1.866a9.636,9.636,0,0,0,.692-2.717c.069-.543,1-1.973,1-2.229s-.537-.492-.928-.024a9.448,9.448,0,0,0-.775,1.319c-.156.235-.62.156-.62.156s.048-.415.128-.879a10.942,10.942,0,0,1,1.25-2.24c.312-.467.042-1.731-.668-.789s-2.108,2.665-2.108,2.665a37.98,37.98,0,0,0-2.565,3.5,7.253,7.253,0,0,0-.312,2.565c0,.7.235.388-.156,1.63s-2.562,6.6-3.493,8.934-1.243,4.036-.779,4.971,1.866,2.423,2.641,2.25,2.721-2.794,3.115-3.728a6.438,6.438,0,0,0,.388-2.562c0-.692-.388-5.192,0-6.837A42.994,42.994,0,0,1,340.592,182.048Z" transform="translate(-325.523 -164.506)" fill="#fff"/>
        <path id="Path_2137_-_Outline" data-name="Path 2137 - Outline" d="M342.728,171.938a.5.5,0,0,1,.439.292,1.293,1.293,0,0,1-.044,1.188,9.724,9.724,0,0,0-1.215,2.153c-.041.237-.073.463-.1.625a.289.289,0,0,0,.171-.057,9.711,9.711,0,0,1,.785-1.331l.012-.015a.9.9,0,0,1,.691-.348h0a.7.7,0,0,1,.5.2.452.452,0,0,1,.136.326,2.951,2.951,0,0,1-.41.928,6.216,6.216,0,0,0-.6,1.323,10.177,10.177,0,0,1-.74,2.83c-.294.365-1.6,1.618-1.848,1.852a42.129,42.129,0,0,0-1.292,4.04,29.311,29.311,0,0,0-.039,5.826c.026.458.044.791.045.953a6.626,6.626,0,0,1-.4,2.646l0,.01a11.931,11.931,0,0,1-1.446,2.2c-.553.694-1.319,1.544-1.828,1.658a.828.828,0,0,1-.18.019,2.651,2.651,0,0,1-1.544-.863,6.081,6.081,0,0,1-1.168-1.526c-.48-.966-.227-2.652.771-5.155.157-.393.349-.871.561-1.4,1.037-2.585,2.6-6.492,2.926-7.518.25-.793.228-.9.193-1.076a2.211,2.211,0,0,1-.048-.487,7.407,7.407,0,0,1,.331-2.657,36.884,36.884,0,0,1,2.6-3.546c.014-.018,1.4-1.732,2.1-2.66A.861.861,0,0,1,342.728,171.938Zm-.995,4.712a1.371,1.371,0,0,1-.214-.016.226.226,0,0,1-.186-.249c0-.017.05-.427.13-.891a9.025,9.025,0,0,1,1.284-2.327.87.87,0,0,0,.057-.633.269.269,0,0,0-.078-.146c-.027,0-.127.047-.28.25-.7.934-2.1,2.655-2.113,2.672a35.235,35.235,0,0,0-2.534,3.446,7.114,7.114,0,0,0-.292,2.473,1.79,1.79,0,0,0,.039.4c.053.268.066.435-.206,1.3-.328,1.042-1.9,4.958-2.938,7.55-.212.53-.4,1.008-.561,1.4-.935,2.343-1.2,3.954-.786,4.787.454.914,1.678,2.139,2.308,2.139a.378.378,0,0,0,.082-.008c.212-.047.752-.468,1.573-1.5A11.732,11.732,0,0,0,338.4,195.2a6.178,6.178,0,0,0,.372-2.467s0-.008,0-.012c0-.147-.019-.494-.044-.934a29.385,29.385,0,0,1,.05-5.955,43.508,43.508,0,0,1,1.327-4.144.226.226,0,0,1,.056-.084c.015-.015,1.547-1.472,1.845-1.844a9.685,9.685,0,0,0,.644-2.6,5.926,5.926,0,0,1,.644-1.478,6.72,6.72,0,0,0,.355-.723.244.244,0,0,0-.182-.066h0a.445.445,0,0,0-.339.18,9.252,9.252,0,0,0-.751,1.279.223.223,0,0,1-.015.026A.713.713,0,0,1,341.734,176.65Z" transform="translate(-325.25 -164.232)" fill="#263238"/>
        <path id="Path_2138" data-name="Path 2138" d="M347.049,183.473l.388-.284a2.769,2.769,0,0,0,.665.55,1.142,1.142,0,0,0,1.243-.318l.114-.183.62-.692.582-.637a.737.737,0,0,0,.187-.547,1.946,1.946,0,0,0-.284-.945c-.17-.225-.793-1.675-1.184-1.755s-.852.855-.852.855a3.807,3.807,0,0,0-1.011.855,3.334,3.334,0,0,0-.312.623s-1.011.543-1.087,1.243a18.418,18.418,0,0,0,.159,2.638" transform="translate(-334.154 -168.572)" fill="#fff"/>
        <path id="Path_2138_-_Outline" data-name="Path 2138 - Outline" d="M346,184.825a.226.226,0,0,1-.223-.2,18.717,18.717,0,0,1-.161-2.67c0-.007,0-.015,0-.022.076-.694.877-1.224,1.13-1.374a3.569,3.569,0,0,1,.3-.588.223.223,0,0,1,.017-.023,4.02,4.02,0,0,1,1.014-.872,3.7,3.7,0,0,1,.268-.43c.278-.379.54-.538.8-.485.359.073.7.675,1.107,1.455.087.166.176.338.212.385l.012.018a2.176,2.176,0,0,1,.317,1.051.968.968,0,0,1-.244.71l-.583.638-.605.676-.1.167a.228.228,0,0,1-.022.03,1.361,1.361,0,0,1-1.488.381.225.225,0,0,1-.039-.018,2.991,2.991,0,0,1-.577-.445l-.227.166a.226.226,0,0,1-.267-.364l.388-.284a.226.226,0,0,1,.3.033,2.54,2.54,0,0,0,.591.494.912.912,0,0,0,.966-.249l.1-.167a.224.224,0,0,1,.023-.031l.62-.692.583-.639a.513.513,0,0,0,.129-.378v-.009a1.723,1.723,0,0,0-.246-.827,4.451,4.451,0,0,1-.244-.438c-.128-.245-.287-.549-.446-.8-.231-.365-.339-.416-.352-.422s-.145.04-.341.306a3.272,3.272,0,0,0-.262.428.226.226,0,0,1-.089.1,3.571,3.571,0,0,0-.942.793,3.117,3.117,0,0,0-.283.569.226.226,0,0,1-.1.119c-.25.135-.908.587-.968,1.058a18.259,18.259,0,0,0,.157,2.594.226.226,0,0,1-.194.253Z" transform="translate(-333.879 -168.297)" fill="#263238"/>
        <path id="Path_2139" data-name="Path 2139" d="M354.955,184.046a.226.226,0,0,1-.222-.188,11.016,11.016,0,0,0-1.576-2.534.226.226,0,1,1,.357-.276,11.214,11.214,0,0,1,1.664,2.735.226.226,0,0,1-.223.263Z" transform="translate(-338.779 -170.131)" fill="#263238"/>
        <path id="Path_2140" data-name="Path 2140" d="M351.514,187.539a.226.226,0,0,1-.209-.141,6.184,6.184,0,0,0-2.023-2.174.226.226,0,0,1,.247-.378,6.517,6.517,0,0,1,2.194,2.382.226.226,0,0,1-.209.31Z" transform="translate(-336.209 -172.648)" fill="#263238"/>
        <path id="Path_2141" data-name="Path 2141" d="M389.465,203.43l-1.264.841-.491,3.23.561-.561,1.122-2.807Z" transform="translate(-361.349 -184.77)" fill="#b92056"/>
        <path id="Path_2141_-_Outline" data-name="Path 2141 - Outline" d="M389.191,202.93a.226.226,0,0,1,.224.249l-.073.7a.226.226,0,0,1-.015.061l-1.122,2.807a.225.225,0,0,1-.05.076l-.561.561a.226.226,0,0,1-.383-.193l.492-3.23a.226.226,0,0,1,.1-.154l1.264-.841A.225.225,0,0,1,389.191,202.93Zm-.294.874.02-.195-.782.52-.373,2.452.042-.042Z" transform="translate(-361.075 -184.496)" fill="#263238"/>
        <path id="Path_2142" data-name="Path 2142" d="M367.988,164.5a7.2,7.2,0,0,0,.28,2.458,9.748,9.748,0,0,1,1.122,2.877,4.822,4.822,0,0,0,1.038,2.738c.772,1.038,2.527,2.807,3.372,2.807s2.454-1.471,2.454-1.471l.211,1.333-.91,2.738s3.088-2.316,4-3.16a13.413,13.413,0,0,0,1.963-2.949l-1.8-3.711a4.372,4.372,0,0,0,.772-2.247,4.115,4.115,0,0,0-.211-1.824c-.142-.841-1.682-2.949-3.718-4.154s-5.687-.63-7.093.142S367.988,164.5,367.988,164.5Z" transform="translate(-348.451 -155.875)" fill="#fff"/>
        <path id="Path_2142_-_Outline" data-name="Path 2142 - Outline" d="M373.2,158.736h0a6.521,6.521,0,0,1,3.209.725,10.592,10.592,0,0,1,2.627,2.262,5.349,5.349,0,0,1,1.2,2.048,3.28,3.28,0,0,0,.127.522,3.138,3.138,0,0,1,.087,1.352,4.6,4.6,0,0,1-.738,2.253l1.74,3.594a.226.226,0,0,1,0,.2,13.41,13.41,0,0,1-2.012,3.014c-.912.843-3.893,3.08-4.019,3.175a.226.226,0,0,1-.349-.252l.893-2.686-.139-.876a4.943,4.943,0,0,1-2.3,1.259c-.987,0-2.8-1.884-3.551-2.9a5.02,5.02,0,0,1-1.085-2.863s0-.008,0-.012a9.235,9.235,0,0,0-1.025-2.631l-.073-.144a7.238,7.238,0,0,1-.3-2.566,12.962,12.962,0,0,1,.22-1.958c.273-1.409.738-2.3,1.382-2.656A9.466,9.466,0,0,1,373.2,158.736Zm7.8,12.852-1.748-3.61a.226.226,0,0,1,.018-.227,4.145,4.145,0,0,0,.732-2.131,2.728,2.728,0,0,0-.067-1.19,3.715,3.715,0,0,1-.142-.584,8.6,8.6,0,0,0-3.61-4,5.929,5.929,0,0,0-2.979-.662,9.026,9.026,0,0,0-3.89.808c-1.059.582-1.347,3.251-1.368,4.231,0,0,0,0,0,0a6.707,6.707,0,0,0,.257,2.347l.072.144a8.656,8.656,0,0,1,1.073,2.828,4.572,4.572,0,0,0,.99,2.6l0,.006a12.988,12.988,0,0,0,1.628,1.759,3.276,3.276,0,0,0,1.563.957c.621,0,1.872-1.019,2.3-1.412a.226.226,0,0,1,.375.131l.211,1.333a.226.226,0,0,1-.009.106l-.681,2.049c.938-.712,2.75-2.1,3.405-2.708A12.555,12.555,0,0,0,380.993,171.589Z" transform="translate(-348.176 -155.6)" fill="#263238"/>
        <path id="Path_2143" data-name="Path 2143" d="M391.951,202.6l-.547-.346.62-3-1.385.813.211,1.333-.91,2.738S390.927,203.4,391.951,202.6Z" transform="translate(-362.807 -182.037)" fill="#263238"/>
        <path id="Path_2143_-_Outline" data-name="Path 2143 - Outline" d="M389.666,204.086a.226.226,0,0,1-.214-.3l.893-2.686-.2-1.278a.226.226,0,0,1,.109-.23l1.385-.813a.226.226,0,0,1,.335.24l-.588,2.852.415.263a.226.226,0,0,1,.018.369c-1.015.788-2,1.529-2.015,1.536A.225.225,0,0,1,389.666,204.086Zm.946-4.18.187,1.181a.226.226,0,0,1-.009.106l-.682,2.051c.318-.241.737-.56,1.176-.9l-.275-.174a.226.226,0,0,1-.1-.236l.517-2.507Z" transform="translate(-362.533 -181.763)" fill="#263238"/>
        <path id="Path_2144" data-name="Path 2144" d="M376.117,185.931a1.372,1.372,0,0,1-.446-.069.678.678,0,0,1-.454-.424,26.383,26.383,0,0,1-.351-2.662l-.6-.994a.226.226,0,0,1,.386-.234l.63,1.038a.227.227,0,0,1,.032.1,26.129,26.129,0,0,0,.336,2.617.263.263,0,0,0,.173.136,1.151,1.151,0,0,0,.889-.112.226.226,0,0,1,.251.375A1.568,1.568,0,0,1,376.117,185.931Z" transform="translate(-352.588 -170.445)" fill="#263238"/>
        <path id="Path_2145" data-name="Path 2145" d="M380.034,192.964a2.376,2.376,0,0,1-.566-.063.226.226,0,0,1,.116-.436h0a2.056,2.056,0,0,0,1.436-.212,2.261,2.261,0,0,0,.952-1.517.226.226,0,0,1,.44.1,2.687,2.687,0,0,1-1.163,1.805A2.344,2.344,0,0,1,380.034,192.964Z" transform="translate(-355.903 -176.408)" fill="#263238"/>
        <path id="Path_2146" data-name="Path 2146" d="M370.4,181.842a.226.226,0,0,1-.207-.315c.261-.608,1.133-.693,1.17-.7a.226.226,0,0,1,.041.449h0c-.178.017-.668.126-.8.425A.226.226,0,0,1,370.4,181.842Z" transform="translate(-349.934 -170.046)" fill="#263238"/>
        <path id="Path_2147" data-name="Path 2147" d="M378.506,178.928a.226.226,0,0,1-.124-.414,2.559,2.559,0,0,1,2.544-.152.226.226,0,0,1-.2.4,2.107,2.107,0,0,0-2.094.125A.225.225,0,0,1,378.506,178.928Z" transform="translate(-355.236 -168.257)" fill="#263238"/>
        <path id="Path_2148" data-name="Path 2148" d="M382.793,183.015c.069.28,0,.543-.18.585s-.363-.152-.433-.436,0-.543.18-.585S382.734,182.721,382.793,183.015Z" transform="translate(-357.717 -171.133)" fill="#263238"/>
        <path id="Path_2149" data-name="Path 2149" d="M373.493,185.446c.069.28,0,.543-.18.585s-.363-.152-.433-.433,0-.547.18-.588S373.424,185.162,373.493,185.446Z" transform="translate(-351.636 -172.722)" fill="#263238"/>
        <path id="Path_2150" data-name="Path 2150" d="M362.537,151.846s-.772.983-1.475.914-2.247-.914-3.23.422-.63,2.877.561,3.23,1.125.98,2.035,1.471a2.382,2.382,0,0,0,3.372-.561,3.489,3.489,0,0,1,4.071-1.122c1.038.492.561,1.191.914,1.893a3.689,3.689,0,0,0,1.038,1.194s.138.841.346.983.633.346.692-.142-.069-.772.211-1.263a1.128,1.128,0,0,1,.983-.63,2.9,2.9,0,0,1,1.263.419,15.085,15.085,0,0,0,.346-3.088,5.467,5.467,0,0,0-2.738-4.632c-1.966-1.263-5.265-.633-6.248-.346A7.558,7.558,0,0,0,362.537,151.846Z" transform="translate(-341.442 -149.951)" fill="#25304e"/>
        <path id="Path_2150_-_Outline" data-name="Path 2150 - Outline" d="M367.472,149.676h0a6.071,6.071,0,0,1,3.3.8,6.344,6.344,0,0,1,2.182,2.266,5.322,5.322,0,0,1,.66,2.556,15.342,15.342,0,0,1-.351,3.136.226.226,0,0,1-.333.147,2.985,2.985,0,0,0-1.062-.4.322.322,0,0,0-.052,0l-.031,0a.9.9,0,0,0-.787.5L371,158.7a1.265,1.265,0,0,0-.163.74,3.526,3.526,0,0,1-.02.439c-.057.47-.393.506-.494.506a1.045,1.045,0,0,1-.549-.205c-.093-.063-.215-.2-.342-.673-.039-.146-.067-.284-.084-.37a3.945,3.945,0,0,1-1.03-1.213l0-.007a2.122,2.122,0,0,1-.189-.812.94.94,0,0,0-.613-.976,3.246,3.246,0,0,0-1.206-.232,3.284,3.284,0,0,0-2.6,1.283,2.485,2.485,0,0,1-2.009,1.107,3.486,3.486,0,0,1-1.649-.485,3.033,3.033,0,0,1-.859-.711,2.136,2.136,0,0,0-1.134-.743,1.746,1.746,0,0,1-1.183-1.152,2.712,2.712,0,0,1,.5-2.428,1.969,1.969,0,0,1,1.664-.841,4.916,4.916,0,0,1,1.254.213,3.73,3.73,0,0,0,.516.115l.05,0c.468,0,1.043-.6,1.225-.831a.227.227,0,0,1,.033-.034,7.687,7.687,0,0,1,2.224-1.3A12.149,12.149,0,0,1,367.472,149.676Zm5.414,8.365a14.89,14.89,0,0,0,.28-2.75,5.2,5.2,0,0,0-2.634-4.44,5.639,5.639,0,0,0-3.06-.723,11.62,11.62,0,0,0-3,.4,7.236,7.236,0,0,0-2.044,1.2c-.134.166-.831.984-1.564.984-.032,0-.063,0-.094,0a3.969,3.969,0,0,1-.587-.128,4.491,4.491,0,0,0-1.138-.2,1.5,1.5,0,0,0-1.3.657,2.266,2.266,0,0,0-.44,2.017,1.306,1.306,0,0,0,.883.863,2.57,2.57,0,0,1,1.339.872,2.581,2.581,0,0,0,.739.617,3.056,3.056,0,0,0,1.435.431,2.033,2.033,0,0,0,1.65-.93,3.714,3.714,0,0,1,4.334-1.194l.013.006a1.377,1.377,0,0,1,.876,1.348,1.72,1.72,0,0,0,.141.645,3.488,3.488,0,0,0,.973,1.118.226.226,0,0,1,.088.144,2.434,2.434,0,0,0,.254.836.639.639,0,0,0,.291.124h.015a.222.222,0,0,0,.032-.108,3.108,3.108,0,0,0,.017-.385,1.71,1.71,0,0,1,.219-.957,1.35,1.35,0,0,1,1.162-.749.786.786,0,0,1,.109-.007A2.678,2.678,0,0,1,372.886,158.041Z" transform="translate(-341.168 -149.676)" fill="#263238"/>
        <path id="Path_2151" data-name="Path 2151" d="M379.566,165.1a15,15,0,0,0-2.946-.073c-1.336.142-1.828.492-1.966.692s.069,2.527.841,3.16a2.866,2.866,0,0,0,3.16.138,4,4,0,0,0,1.475-2.6C380.2,165.726,379.989,165.1,379.566,165.1Z" transform="translate(-352.787 -159.632)" fill="#263238"/>
        <path id="Path_2151_-_Outline" data-name="Path 2151 - Outline" d="M377.451,164.482h0a15.284,15.284,0,0,1,1.857.114.644.644,0,0,1,.469.224,1.8,1.8,0,0,1,.3,1.346v.008a4.208,4.208,0,0,1-1.558,2.743l-.024.017a3.092,3.092,0,0,1-3.409-.149l-.01-.008a3.4,3.4,0,0,1-.84-1.875,7.073,7.073,0,0,1-.118-.96c-.023-.486.043-.582.075-.628.156-.227.641-.631,2.128-.789h.007C376.7,164.5,377.078,164.482,377.451,164.482Zm2.182,1.635a1.431,1.431,0,0,0-.191-.995.192.192,0,0,0-.15-.076l-.028,0a14.83,14.83,0,0,0-1.814-.112h0c-.36,0-.725.013-1.084.04-1.35.144-1.717.493-1.789.58a4.832,4.832,0,0,0,.118,1.339,2.886,2.886,0,0,0,.664,1.53,2.641,2.641,0,0,0,2.893.131A3.758,3.758,0,0,0,379.632,166.117Z" transform="translate(-352.513 -159.357)" fill="#263238"/>
        <path id="Line_16" data-name="Line 16" d="M3.024,2.759A.225.225,0,0,1,2.878,2.7L-.421-.1A.226.226,0,0,1-.446-.421.226.226,0,0,1-.128-.446l3.3,2.807a.226.226,0,0,1-.146.4Z" transform="translate(27.334 5.808)" fill="#263238"/>
        <path id="Line_17" data-name="Line 17" d="M-.275.232A.226.226,0,0,1-.493.061.226.226,0,0,1-.329-.213L.8-.493a.226.226,0,0,1,.273.164.226.226,0,0,1-.164.273L-.22.225A.226.226,0,0,1-.275.232Z" transform="translate(21.017 6.369)" fill="#263238"/>
        <path id="Path_2152" data-name="Path 2152" d="M364.919,168.882a1.252,1.252,0,0,0-1.191-1.122c-1.052,0-2.88,1.122-3.018,1.966a2.674,2.674,0,0,0,1.613,2.458c.983.422,2.177-.633,2.385-1.056a3.856,3.856,0,0,0,.211-2.247Z" transform="translate(-343.685 -161.448)" fill="#263238"/>
        <path id="Path_2152_-_Outline" data-name="Path 2152 - Outline" d="M363.454,167.26a1.312,1.312,0,0,1,1.184.671,1.865,1.865,0,0,1,.229.637,4.067,4.067,0,0,1-.225,2.371l-.006.014a2.526,2.526,0,0,1-.766.794,2.41,2.41,0,0,1-1.334.485,1.452,1.452,0,0,1-.577-.116,2.892,2.892,0,0,1-1.747-2.7c.107-.651.922-1.233,1.268-1.454A4.085,4.085,0,0,1,363.454,167.26Zm.967,1.375c-.005-.041-.133-.924-.967-.924-.983,0-2.681,1.079-2.8,1.777a1.835,1.835,0,0,0,.352,1.227,2.664,2.664,0,0,0,1.127.987,1,1,0,0,0,.4.08,1.951,1.951,0,0,0,1.074-.4,2.148,2.148,0,0,0,.618-.619,3.618,3.618,0,0,0,.2-2.107Q364.422,168.644,364.421,168.635Z" transform="translate(-343.411 -161.173)" fill="#263238"/>
        <path id="Path_2153" data-name="Path 2153" d="M397.9,194.1l-5.123,5.054,1.191,1.9,5.127-4.562Z" transform="translate(-364.664 -178.67)" fill="#b92056"/>
        <path id="Path_2153_-_Outline" data-name="Path 2153 - Outline" d="M397.629,193.6a.226.226,0,0,1,.2.125l1.194,2.388a.226.226,0,0,1-.052.269l-5.127,4.562a.226.226,0,0,1-.341-.049l-1.191-1.9a.226.226,0,0,1,.033-.281l5.123-5.054A.226.226,0,0,1,397.629,193.6Zm.915,2.56-.978-1.956-4.773,4.708.953,1.518Z" transform="translate(-364.39 -178.396)" fill="#263238"/>
        <path id="Path_2154" data-name="Path 2154" d="M312.21,243.719l3.773,6.068,2.79.083-3.61-6.48Z" transform="translate(-311.984 -210.898)" fill="#263238"/>
        <path id="Path_2154_-_Outline" data-name="Path 2154 - Outline" d="M314.888,242.89a.226.226,0,0,1,.2.116l3.61,6.48a.226.226,0,0,1-.2.335l-2.79-.083a.226.226,0,0,1-.185-.106l-3.773-6.068a.226.226,0,0,1,.167-.343l2.953-.329Zm3.22,6.468-3.344-6-2.448.273,3.52,5.662Z" transform="translate(-311.71 -210.623)" fill="#263238"/>
        <path id="Path_2155" data-name="Path 2155" d="M342.477,254.495s-9.433,1.97-12.057,2.049-4.431.166-4.431.166-1.315-1.478-2.215-2.382a3.327,3.327,0,0,0-2.627-.571s-2.049.08-2.624.08-2.053.412-2.053.737.329.495.82.495h1.641l1.149.329a19.24,19.24,0,0,0-2.3.492c-.329.163,0,.9,0,.9l.325.329.346.658.412.329s0,.408.82.737a20.472,20.472,0,0,0,4.185.492h1.312s7.615.9,9.346,1.149a60.041,60.041,0,0,0,9.346.163c1.385-.246,2.053-.08,2.382-.654s-1.478-4.431-1.97-5.005S342.477,254.495,342.477,254.495Z" transform="translate(-314.77 -217.637)" fill="#fff"/>
        <path id="Path_2155_-_Outline" data-name="Path 2155 - Outline" d="M321.609,253.2a2.892,2.892,0,0,1,2.051.7c.774.777,1.864,1.989,2.152,2.31.427-.02,2.089-.093,4.327-.161,2.574-.078,11.923-2.025,12.017-2.045l.032,0s.075,0,.189,0a2.513,2.513,0,0,1,1.81.575,14.337,14.337,0,0,1,1.329,2.561c.944,2.216.734,2.583.665,2.7-.287.5-.762.55-1.482.624-.3.031-.645.067-1.056.14a22.467,22.467,0,0,1-2.868.125,65.127,65.127,0,0,1-6.549-.287c-1.675-.238-8.968-1.1-9.328-1.147h-1.3a20.669,20.669,0,0,1-4.269-.508c-.695-.278-.888-.634-.942-.822l-.347-.277a.226.226,0,0,1-.059-.071l-.331-.628-.3-.3a.226.226,0,0,1-.046-.067,2.331,2.331,0,0,1-.138-.436c-.1-.479.08-.676.244-.758a.226.226,0,0,1,.039-.015c.446-.124.9-.233,1.355-.326l-.18-.051h-1.609c-.771,0-1.046-.372-1.046-.721,0-.246.266-.4.354-.448a3.405,3.405,0,0,1,.613-.257,4.934,4.934,0,0,1,1.312-.258c.537,0,2.407-.071,2.6-.079A4.637,4.637,0,0,1,321.609,253.2Zm4.106,3.464a.226.226,0,0,1-.169-.076c-.013-.015-1.322-1.484-2.207-2.372a2.463,2.463,0,0,0-1.731-.564,4.147,4.147,0,0,0-.694.056l-.034,0c-.084,0-2.06.08-2.633.08a4.38,4.38,0,0,0-1.072.2,2.1,2.1,0,0,0-.753.338c.035.221.459.239.592.239h1.641a.225.225,0,0,1,.062.009l1.149.329a.226.226,0,0,1-.028.44,19.09,19.09,0,0,0-2.233.476.441.441,0,0,0,0,.253,1.852,1.852,0,0,0,.095.312l.294.3a.227.227,0,0,1,.039.054l.324.616.375.3a.185.185,0,0,1,.086.17c.009.041.09.3.678.534a20.392,20.392,0,0,0,4.1.475h1.312l.027,0c.076.009,7.638.907,9.351,1.15a64.663,64.663,0,0,0,6.486.282,21,21,0,0,0,2.789-.118c.428-.076.794-.114,1.089-.144.686-.071.971-.111,1.136-.4,0,0,.062-.15-.132-.806a14.694,14.694,0,0,0-.57-1.527,14.262,14.262,0,0,0-1.243-2.413c-.331-.387-1.207-.417-1.467-.417-.071,0-.122,0-.146,0-.581.121-9.5,1.972-12.079,2.05s-4.409.165-4.427.166Z" transform="translate(-314.495 -217.363)" fill="#263238"/>
        <path id="Line_18" data-name="Line 18" d="M-.275.114A.226.226,0,0,1-.5-.1a.226.226,0,0,1,.211-.24L2.255-.5a.226.226,0,0,1,.24.211.226.226,0,0,1-.211.24L-.26.113Z" transform="translate(3.615 39.575)" fill="#263238"/>
        <path id="Line_19" data-name="Line 19" d="M2.187.114H2.172L-.289-.049A.226.226,0,0,1-.5-.289.226.226,0,0,1-.26-.5L2.2-.337a.226.226,0,0,1,.21.24A.226.226,0,0,1,2.187.114Z" transform="translate(4.356 40.725)" fill="#263238"/>
        <path id="Path_2156" data-name="Path 2156" d="M403.9,214.082s-2.053,4.351-2.627,6.155-.9,2.3-.737,2.953a1.16,1.16,0,0,1-.246,1.066s-.658.658-.658.9-.82.083-.08,1.641,2.132,4.594,2.541,5.251a1.443,1.443,0,0,0,1.97.492c.737-.408,2.707-1.385,2.953-2.79a16.913,16.913,0,0,1,.575-3.361,45.927,45.927,0,0,0,3.365-7.3c.658-2.378.983-3.856.409-5.414a2.648,2.648,0,0,0-1.641-1.8" transform="translate(-368.892 -190.289)" fill="#b92056"/>
        <path id="Path_2156_-_Outline" data-name="Path 2156 - Outline" d="M403.057,232.7a1.677,1.677,0,0,1-.407-.05,1.659,1.659,0,0,1-1.022-.752c-.315-.508-1.169-2.327-1.921-3.933-.232-.494-.451-.962-.63-1.339a2.317,2.317,0,0,1-.32-1.265.722.722,0,0,1,.356-.516l.026-.018a1.414,1.414,0,0,1,.378-.629c.088-.1.176-.2.234-.262.04-.043.071-.076.1-.1a.932.932,0,0,0,.2-.858v0a3.121,3.121,0,0,1,.326-1.847c.114-.325.256-.729.415-1.228.573-1.8,2.554-6,2.638-6.182a.226.226,0,1,1,.408.193c-.02.043-2.053,4.358-2.616,6.127-.161.506-.3.913-.419,1.241-.293.835-.415,1.181-.315,1.587a1.383,1.383,0,0,1-.294,1.271l-.011.012a3.056,3.056,0,0,0-.591.75.4.4,0,0,1-.223.326.28.28,0,0,0-.161.211,1.93,1.93,0,0,0,.282,1c.18.379.4.846.631,1.341.711,1.515,1.595,3.4,1.9,3.888a1.222,1.222,0,0,0,1.663.417l.006,0,.173-.095c.8-.434,2.457-1.337,2.667-2.537.089-.509.147-1.029.2-1.487a5.725,5.725,0,0,1,.4-1.948,45.209,45.209,0,0,0,3.343-7.251c.629-2.275.971-3.766.414-5.276a2.435,2.435,0,0,0-1.481-1.662.226.226,0,0,1,.1-.439,2.854,2.854,0,0,1,1.8,1.945c.6,1.637.251,3.19-.4,5.552a45.719,45.719,0,0,1-3.387,7.356,5.757,5.757,0,0,0-.346,1.773c-.052.465-.11.992-.2,1.515-.247,1.414-2.036,2.388-2.9,2.855l-.168.092A1.659,1.659,0,0,1,403.057,232.7Z" transform="translate(-368.617 -190.014)" fill="#263238"/>
        <path id="Path_2157" data-name="Path 2157" d="M393.243,250.26s3.61,5.414,3.856,6.141a1.42,1.42,0,0,1-.163,1.558,10.2,10.2,0,0,1-3.365,1.229c-.658,0-.9-1.066-.9-1.558s-3.2-5.5-3.2-5.5a4.846,4.846,0,0,1,.575-1.149A20.78,20.78,0,0,1,393.243,250.26Z" transform="translate(-362.5 -215.39)" fill="#b92056"/>
        <path id="Path_2157_-_Outline" data-name="Path 2157 - Outline" d="M392.969,249.76a.226.226,0,0,1,.188.1c.371.557,3.634,5.46,3.882,6.194a1.638,1.638,0,0,1-.217,1.789,7.07,7.07,0,0,1-1.64.79,8.091,8.091,0,0,1-1.884.505c-.842,0-1.127-1.216-1.129-1.777a16.472,16.472,0,0,0-1.6-2.872c-.779-1.277-1.558-2.5-1.566-2.509a.226.226,0,0,1-.023-.195,5.072,5.072,0,0,1,.6-1.2.225.225,0,0,1,.032-.037c.07-.066.2-.19,1.8-.506.763-.151,1.506-.275,1.514-.276A.226.226,0,0,1,392.969,249.76Zm.329,8.927a7.236,7.236,0,0,0,1.727-.477,6.525,6.525,0,0,0,1.478-.686c.28-.28.316-.714.109-1.326-.189-.558-2.7-4.383-3.749-5.966a20.74,20.74,0,0,0-2.928.638,4.618,4.618,0,0,0-.489.96c.2.315.875,1.379,1.542,2.475,1.632,2.68,1.632,2.93,1.632,3.05C392.62,257.82,392.853,258.687,393.3,258.687Z" transform="translate(-362.226 -215.115)" fill="#263238"/>
        <path id="Path_2158-2" data-name="Path 2158" d="M412.864,259.547a.226.226,0,0,1-.205-.132,2.266,2.266,0,0,0-.7-.869.226.226,0,1,1,.271-.361,2.719,2.719,0,0,1,.838,1.042.226.226,0,0,1-.205.319Z" transform="translate(-377.199 -220.595)" fill="#263238"/>
        <path id="Path_2159" data-name="Path 2159" d="M404.765,253.288a.225.225,0,0,1-.138-.047c-1.208-.933-2.734-1.874-2.749-1.883a.226.226,0,1,1,.236-.384c.015.01,1.561.962,2.789,1.911a.226.226,0,0,1-.138.4Z" transform="translate(-370.595 -215.887)" fill="#263238"/>
        <path id="Path_2160" data-name="Path 2160" d="M407.423,251.68a.226.226,0,0,1-.206-.134c-.038-.085-.274-.39-1.734-.763-.821-.21-1.614-.333-1.622-.334a.226.226,0,0,1,.069-.446c.033.005.82.127,1.662.342,1.6.41,1.93.777,2.037,1.018a.226.226,0,0,1-.206.318Z" transform="translate(-371.837 -215.272)" fill="#263238"/>
      </g>
    </g>
    <g id="Group_647" data-name="Group 647" transform="translate(9223.727 1000.627)">
      <g id="Group_2" data-name="Group 2">
        <g id="Group_1" data-name="Group 1" clip-path="url(#clip-path)">
          <path id="Path_1" data-name="Path 1" d="M253.21,10.529c-1.52-1.583-3.262-.362-5.124-1.808a4.79,4.79,0,1,1,6.3-.7c-.109.319-.548-.652-.665-.761a6.814,6.814,0,0,1-.9-1.6c-.038-.5.14-.985.091-1.486.017-.32-.116-.624-.111-.942-.086-.282.41-1.078.089-1.105-.7.068-.651.97-.849,1.472-.414.626-1.026-.408-1.19-.793-.142-.318-1.012-2.461-1.361-1.8a.52.52,0,0,0-.036.39c.184.623.635,1.139.877,1.74.2.81-.632-.239-.727-.454a4.068,4.068,0,0,0-1.064-1.244.375.375,0,0,0-.287-.04c-.695.193,1.37,2,1.443,2.391.065.818-1.673-1.2-2.036-1.185-1.02.147,1.251,1.756,1.5,2.016.3.266-.13.09-.275.013-.444-.2-.8-.555-1.256-.718-.365-.052-.176.414.006.527a5.59,5.59,0,0,0,.825.6,5.209,5.209,0,0,1,1.068.864,2.2,2.2,0,0,0,.292.266c.116.071.588.537.633.384-.163-.293-.471-.479-.593-.808-.02-.183-.617-.444-.327-.509a.363.363,0,0,1,.286.056c.16.112.275.314.483.279.308-.448-.124-1-.063-1.5a.12.12,0,0,1,.228-.061.405.405,0,0,0,.021.04c.133.221.028.983.275.941.113-.187-.065-.843.045-1.1a.137.137,0,0,1,.26.024c.073.337-.112.738,0,1.05a.064.064,0,0,0,.113.014c.157-.234.113-.6.242-.853.111-.266.252-.026.226.152a.366.366,0,0,0,0,.061c0,.214-.147.486-.147.691a.051.051,0,0,0,.1.021c.112-.237.245-.753.347-.516a.309.309,0,0,1,.02.174c-.048.286-.232.532-.265.818a.594.594,0,0,0,0,.061,1.522,1.522,0,0,1-.1.482,2.04,2.04,0,0,0-.065,1.148,12.78,12.78,0,0,0,1.69,3.308" transform="translate(-237.15 0)" fill="#b92056"/>
        </g>
      </g>
      <path id="Path_2" data-name="Path 2" d="M0,265.465v6.467H1.468v-2.6H3.79v-1.19H1.468v-1.478H3.953v-1.2Z" transform="translate(0 -255.844)" fill="#25304e"/>
      <g id="Group_4" data-name="Group 4">
        <g id="Group_3" data-name="Group 3" clip-path="url(#clip-path)">
          <path id="Path_3" data-name="Path 3" d="M213.436,313.134c0-.585-.019-1.084-.038-1.5h1.267l.067.643h.029a1.718,1.718,0,0,1,1.449-.748c.959,0,1.679.633,1.679,2.015v2.783H216.43v-2.6c0-.6-.211-1.017-.739-1.017a.778.778,0,0,0-.739.547,1,1,0,0,0-.058.365v2.706h-1.458Z" transform="translate(-205.664 -300.241)" fill="#25304e"/>
          <path id="Path_4" data-name="Path 4" d="M371.512,255.934v5.412c0,.528.019,1.084.038,1.4h-1.3l-.067-.691h-.019a1.638,1.638,0,0,1-1.468.8,2.154,2.154,0,0,1-2.005-2.408,2.218,2.218,0,0,1,2.1-2.495,1.429,1.429,0,0,1,1.238.528h.019v-2.543Zm-1.458,4.107a2.356,2.356,0,0,0-.019-.259.876.876,0,0,0-.854-.72c-.662,0-1.008.595-1.008,1.334,0,.8.393,1.3,1,1.3a.854.854,0,0,0,.844-.7,1.241,1.241,0,0,0,.038-.336Z" transform="translate(-353.405 -246.658)" fill="#25304e"/>
          <path id="Path_5" data-name="Path 5" d="M535.388,313.134c0-.585-.019-1.084-.038-1.5h1.228l.067.633h.029a1.627,1.627,0,0,1,1.42-.739,1.33,1.33,0,0,1,1.286.8h.019a2.1,2.1,0,0,1,.6-.566,1.692,1.692,0,0,1,.892-.23c.9,0,1.583.633,1.583,2.034v2.763h-1.42v-2.552c0-.681-.221-1.075-.691-1.075a.714.714,0,0,0-.672.509,1.22,1.22,0,0,0-.058.374v2.744h-1.42V313.7c0-.595-.211-1-.672-1a.742.742,0,0,0-.681.528.967.967,0,0,0-.058.365v2.735h-1.42Z" transform="translate(-515.948 -300.241)" fill="#b92056"/>
          <path id="Path_6" data-name="Path 6" d="M762.584,314.449c.048.6.643.892,1.324.892a4.132,4.132,0,0,0,1.3-.192l.192.988a4.632,4.632,0,0,1-1.7.288,2.252,2.252,0,0,1-2.5-2.389,2.35,2.35,0,0,1,2.37-2.5,2.081,2.081,0,0,1,2.092,2.341,3.468,3.468,0,0,1-.048.576Zm1.718-1a.847.847,0,0,0-.825-.95.958.958,0,0,0-.9.95Z" transform="translate(-733.606 -300.241)" fill="#25304e"/>
          <path id="Path_7" data-name="Path 7" d="M138.375,299.776a.274.274,0,0,1-.229.124.271.271,0,0,1-.228-.124l-.507-.782v5.252h1.458v-5.234Z" transform="translate(-132.432 -288.158)" fill="#25304e"/>
          <path id="Path_8" data-name="Path 8" d="M138.468,264.875a.715.715,0,0,0-.723.723.673.673,0,0,0,.113.374l.533.824a.09.09,0,0,0,.076.041.092.092,0,0,0,.076-.041l.533-.824a.672.672,0,0,0,.113-.374.716.716,0,0,0-.723-.723m0,1.135a.413.413,0,1,1,.413-.413.413.413,0,0,1-.413.413" transform="translate(-132.753 -255.275)" fill="#b92056"/>
        </g>
      </g>
    </g>
  </g>
</svg>
