<svg xmlns="http://www.w3.org/2000/svg" width="172.397" height="163.867" viewBox="0 0 172.397 163.867">
  <g id="Location_review-bro" data-name="Location review-bro" transform="translate(-16.89 -29.9)">
    <g id="freepik--background-simple--inject-3" transform="translate(16.89 37.75)">
      <path id="Path_2352" data-name="Path 2352" d="M180.974,176.355a58.563,58.563,0,0,0,6.6-18.781C194.473,118.6,180.8,72.443,141.692,56a63.166,63.166,0,0,0-42.929-2.15C82.907,58.833,72.684,71.19,59.926,81.031c-9,6.939-20.386,10.326-28.666,18.232-8.744,8.343-14.329,20.356-14.37,32.488-.019,8.525,3.429,16.839,10.378,22.054,6.8,5.108,15.456,6.442,22.832,10.438,8.21,4.448,13.151,12.232,19.722,18.555,15.163,14.618,37.873,19.144,58.274,18.458C148.115,200.581,170.38,194.918,180.974,176.355Z" transform="translate(-16.89 -51.078)" fill="#b92056"/>
      <path id="Path_2353" data-name="Path 2353" d="M180.974,176.355a58.563,58.563,0,0,0,6.6-18.781C194.473,118.6,180.8,72.443,141.692,56a63.166,63.166,0,0,0-42.929-2.15C82.907,58.833,72.684,71.19,59.926,81.031c-9,6.939-20.386,10.326-28.666,18.232-8.744,8.343-14.329,20.356-14.37,32.488-.019,8.525,3.429,16.839,10.378,22.054,6.8,5.108,15.456,6.442,22.832,10.438,8.21,4.448,13.151,12.232,19.722,18.555,15.163,14.618,37.873,19.144,58.274,18.458C148.115,200.581,170.38,194.918,180.974,176.355Z" transform="translate(-16.89 -51.078)" fill="#fff" opacity="0.84"/>
    </g>
    <g id="freepik--Plants--inject-3" transform="translate(19.028 146.89)">
      <path id="Path_2354" data-name="Path 2354" d="M384.588,368.922a11.721,11.721,0,0,0,3.477.371s-.53-1.616-.578-1.712c-.541-1.13-2.25-3-3.643-2.813a1.664,1.664,0,0,0-1.334,2.083A3.408,3.408,0,0,0,384.588,368.922Z" transform="translate(-249.093 -357.63)" fill="#b92056"/>
      <path id="Path_2355" data-name="Path 2355" d="M385.74,363.993a11.588,11.588,0,0,0,3.421-.534,29.871,29.871,0,0,0,1.334,3.706c.3.7.63,1.4.967,2.091l-.411-.589c-.823-.949-2.965-2.3-4.259-1.749a1.66,1.66,0,0,0-.741,2.361,3.462,3.462,0,0,0,2.55,1.434,11.448,11.448,0,0,0,3.336-.508c.133.263.259.53.393.793.638,1.271,1.279,2.535,1.872,3.792.208.445.4.89.586,1.334a4.6,4.6,0,0,0-.371-.512c-.823-.949-2.965-2.3-4.259-1.75a1.664,1.664,0,0,0-.741,2.361,3.493,3.493,0,0,0,2.55,1.434,10.325,10.325,0,0,0,3.236-.486c.182.46.371.923.519,1.375.1.315.219.608.3.927s.174.626.259.934c.145.6.3,1.219.423,1.809.089.408.17.8.248,1.194-.2-.441-.615-1.3-.66-1.371-.667-1.06-2.595-2.721-3.944-2.376a1.664,1.664,0,0,0-1.086,2.224,3.478,3.478,0,0,0,2.3,1.805,11.915,11.915,0,0,0,3.447,0c.13.652.252,1.29.371,1.89.234,1.331.411,2.52.545,3.529h.919c-.159-1.042-.371-2.287-.645-3.681-.133-.663-.285-1.368-.448-2.094a17.448,17.448,0,0,0,1.924-.9,12.077,12.077,0,0,0,2.8,1.809c-.252.615-.5,1.212-.741,1.772-.512,1.175-.993,2.224-1.42,3.1h.993c.371-.815.771-1.746,1.194-2.772.256-.626.519-1.3.782-1.994a11.35,11.35,0,0,0,3.436.267,3.462,3.462,0,0,0,2.428-1.627,1.664,1.664,0,0,0-.915-2.3c-1.331-.445-3.366,1.067-4.111,2.076-.044.059-.448.76-.7,1.2.107-.285.211-.56.319-.852.211-.578.408-1.164.619-1.79l.278-.93c.1-.308.167-.649.252-.975.178-.76.326-1.538.456-2.328a10.677,10.677,0,0,0,3.258.741,3.5,3.5,0,0,0,2.65-1.238,1.664,1.664,0,0,0-.56-2.413c-1.249-.645-3.488.545-4.377,1.431-.052.052-.619.741-.923,1.153.074-.474.148-.945.211-1.427.171-1.394.3-2.81.441-4.222.041-.434.089-.864.133-1.294a11.611,11.611,0,0,0,3.369.789,3.47,3.47,0,0,0,2.65-1.242,1.661,1.661,0,0,0-.56-2.409c-1.249-.645-3.488.545-4.377,1.427-.067.067-.878,1.086-1.075,1.357.1-.949.211-1.894.371-2.821a29.092,29.092,0,0,1,.808-3.706,11.886,11.886,0,0,0,3.391.8,3.48,3.48,0,0,0,2.646-1.242,1.661,1.661,0,0,0-.556-2.409c-1.249-.645-3.488.541-4.377,1.427-.07.07-.945,1.164-1.09,1.375a.767.767,0,0,1,.056-.215,21.351,21.351,0,0,1,1.483-3.514c.319-.623.66-1.2,1-1.761a11.125,11.125,0,0,0,3.21,1.13,3.417,3.417,0,0,0,2.769-.941,1.664,1.664,0,0,0-.289-2.457c-1.171-.778-3.525.156-4.507.938-.056.041-.549.534-.9.9.159-.248.319-.508.478-.741.586-.886,1.179-1.661,1.709-2.343.3-.371.589-.741.856-1.045a10.713,10.713,0,0,0,3.336-.478,3.489,3.489,0,0,0,2.024-2.109,1.668,1.668,0,0,0-1.39-2.05c-1.4-.148-3.058,1.764-3.566,2.913-.044.1-.556,1.727-.53,1.727h.03c-.267.3-.545.626-.845.99-.545.671-1.156,1.434-1.768,2.309a29.605,29.605,0,0,0-1.831,2.917,21.525,21.525,0,0,0-1.564,3.525.208.208,0,0,1,0,.044c0-.411,0-1.564-.022-1.653-.159-1.242-1.2-3.551-2.595-3.807a1.664,1.664,0,0,0-1.92,1.564,3.472,3.472,0,0,0,1.334,2.595,11.37,11.37,0,0,0,3.151,1.438,29.585,29.585,0,0,0-.923,3.818c-.133.741-.245,1.512-.348,2.276a5.675,5.675,0,0,0-.019-.719c-.159-1.242-1.2-3.551-2.595-3.807a1.661,1.661,0,0,0-1.916,1.564,3.46,3.46,0,0,0,1.334,2.595,11.277,11.277,0,0,0,3.054,1.408c-.033.293-.074.586-.107.882-.171,1.408-.334,2.817-.534,4.192-.07.486-.156.96-.245,1.434v-.623c-.163-1.242-1.2-3.551-2.595-3.807a1.661,1.661,0,0,0-1.916,1.564,3.449,3.449,0,0,0,1.334,2.595,10.508,10.508,0,0,0,2.965,1.379c-.1.486-.2.971-.322,1.434-.093.315-.156.626-.263.938s-.2.619-.3.923c-.211.582-.423,1.182-.645,1.742-.148.389-.3.76-.448,1.134.074-.482.2-1.431.2-1.509a6.424,6.424,0,0,0-.864-3.143,2.033,2.033,0,0,0-.022-.371,1.664,1.664,0,0,0-2.035-1.408c-1.357.371-2.224,2.743-2.283,4,0,.074.044.882.085,1.39-.07-.3-.133-.582-.208-.886-.141-.6-.3-1.2-.471-1.853-.093-.3-.185-.615-.282-.927s-.219-.63-.326-.949c-.271-.741-.578-1.483-.9-2.2a10.844,10.844,0,0,0,3.132-1.171,3.478,3.478,0,0,0,1.523-2.495,1.66,1.66,0,0,0-1.794-1.7c-1.4.152-2.595,2.38-2.861,3.606,0,.078-.1.979-.137,1.483-.2-.437-.4-.875-.612-1.308-.623-1.257-1.294-2.513-1.961-3.766-.2-.371-.4-.767-.6-1.153a11.4,11.4,0,0,0,3.247-1.2,3.468,3.468,0,0,0,1.523-2.494,1.661,1.661,0,0,0-1.794-1.7c-1.4.152-2.595,2.376-2.861,3.606-.022.093-.137,1.39-.152,1.72-.441-.845-.871-1.694-1.26-2.546a29.4,29.4,0,0,1-1.371-3.543,11.591,11.591,0,0,0,3.265-1.2,3.48,3.48,0,0,0,1.527-2.495,1.661,1.661,0,0,0-1.8-1.7c-1.4.152-2.595,2.376-2.861,3.6-.022.1-.145,1.483-.152,1.75a.943.943,0,0,0-.07-.211,21.5,21.5,0,0,1-.734-3.744c-.078-.7-.115-1.368-.133-2.02a11.337,11.337,0,0,0,3.3-.83,3.421,3.421,0,0,0,1.79-2.313,1.66,1.66,0,0,0-1.6-1.89c-1.4,0-2.854,2.076-3.243,3.269-.022.067-.163.741-.256,1.249v-.886c0-1.06.07-2.035.137-2.895.041-.489.089-.93.137-1.342a11.114,11.114,0,0,0,2.532-2.25,3.388,3.388,0,0,0,.493-2.865,1.664,1.664,0,0,0-2.291-.941c-1.249.645-1.575,3.158-1.368,4.4,0,.108.489,1.749.508,1.735l.026-.019c-.056.4-.108.823-.159,1.29-.085.86-.174,1.835-.2,2.9a29.663,29.663,0,0,0,.085,3.443,21.678,21.678,0,0,0,.638,3.8.2.2,0,0,0,0,.044c-.222-.348-.875-1.3-.93-1.368-.823-.945-2.965-2.3-4.259-1.749a1.668,1.668,0,0,0-.741,2.365A3.592,3.592,0,0,0,385.74,363.993Z" transform="translate(-249.392 -345.547)" fill="#b92056"/>
      <path id="Path_2356" data-name="Path 2356" d="M449.74,366.886c.022,0,.449-1.642.463-1.749.174-1.242-.222-3.744-1.483-4.355a1.664,1.664,0,0,0-2.265,1,3.494,3.494,0,0,0,.6,2.865A11.423,11.423,0,0,0,449.74,366.886Z" transform="translate(-289.3 -355.037)" fill="#b92056"/>
      <path id="Path_2357" data-name="Path 2357" d="M24.8,368.922a11.73,11.73,0,0,0,3.477.371s-.53-1.616-.575-1.712c-.541-1.13-2.254-3-3.647-2.813a1.664,1.664,0,0,0-1.334,2.083A3.427,3.427,0,0,0,24.8,368.922Z" transform="translate(-22.66 -357.63)" fill="#b92056"/>
      <path id="Path_2358" data-name="Path 2358" d="M25.975,363.98a11.586,11.586,0,0,0,3.421-.534,29.88,29.88,0,0,0,1.334,3.707c.3.7.63,1.4.967,2.09-.2-.293-.371-.552-.411-.589-.823-.949-2.965-2.3-4.259-1.749a1.664,1.664,0,0,0-.741,2.361,3.469,3.469,0,0,0,2.55,1.434,11.467,11.467,0,0,0,3.336-.508c.133.263.259.53.393.793.638,1.271,1.279,2.535,1.853,3.792.208.445.4.89.589,1.334a5.963,5.963,0,0,0-.371-.512c-.819-.949-2.965-2.3-4.259-1.75a1.664,1.664,0,0,0-.741,2.361,3.493,3.493,0,0,0,2.55,1.434,10.308,10.308,0,0,0,3.236-.486c.182.46.371.923.523,1.375.1.315.215.608.3.927s.174.626.259.934c.145.6.3,1.219.423,1.809.093.408.171.8.252,1.193-.2-.441-.619-1.3-.66-1.371-.671-1.06-2.595-2.721-3.944-2.376a1.664,1.664,0,0,0-1.086,2.224,3.461,3.461,0,0,0,2.3,1.805,11.89,11.89,0,0,0,3.443,0c.13.652.252,1.29.371,1.89.234,1.331.411,2.52.545,3.529h.923c-.163-1.042-.371-2.287-.649-3.681-.13-.663-.282-1.368-.448-2.094a17.136,17.136,0,0,0,1.935-.923,12.078,12.078,0,0,0,2.8,1.809c-.248.615-.5,1.212-.741,1.772-.508,1.175-.993,2.224-1.42,3.1h1c.371-.815.771-1.746,1.19-2.772.259-.626.519-1.3.782-1.994a11.365,11.365,0,0,0,3.436.267,3.477,3.477,0,0,0,2.431-1.627,1.664,1.664,0,0,0-.919-2.3c-1.331-.445-3.366,1.067-4.111,2.076-.044.059-.448.76-.7,1.2.107-.285.215-.56.319-.852.211-.578.408-1.164.619-1.79l.278-.93c.1-.308.167-.649.252-.975.182-.76.326-1.538.456-2.328a10.677,10.677,0,0,0,3.262.741,3.49,3.49,0,0,0,2.646-1.238,1.668,1.668,0,0,0-.556-2.413c-1.249-.645-3.488.545-4.377,1.431-.056.052-.623.741-.927,1.153.074-.474.152-.945.211-1.427.174-1.394.3-2.81.441-4.222.041-.434.089-.864.133-1.294a11.611,11.611,0,0,0,3.373.789,3.468,3.468,0,0,0,2.646-1.242,1.66,1.66,0,0,0-.56-2.409c-1.245-.645-3.484.545-4.374,1.427-.067.067-.882,1.086-1.075,1.357.1-.949.208-1.894.371-2.821a29.094,29.094,0,0,1,.812-3.706,11.815,11.815,0,0,0,3.388.8,3.488,3.488,0,0,0,2.65-1.242,1.661,1.661,0,0,0-.56-2.409c-1.249-.645-3.488.541-4.377,1.427-.07.07-.945,1.164-1.09,1.375.022-.07.033-.145.056-.215a21.355,21.355,0,0,1,1.483-3.514c.319-.623.66-1.2,1-1.761a11.094,11.094,0,0,0,3.206,1.13,3.417,3.417,0,0,0,2.769-.941,1.66,1.66,0,0,0-.289-2.457c-1.171-.778-3.525.156-4.507.938-.052.041-.549.534-.9.9.156-.248.315-.508.474-.741.586-.886,1.179-1.661,1.709-2.343.308-.371.589-.741.856-1.045a10.7,10.7,0,0,0,3.336-.478,3.489,3.489,0,0,0,2.024-2.109,1.661,1.661,0,0,0-1.39-2.05c-1.4-.148-3.054,1.764-3.566,2.913-.044.1-.556,1.727-.53,1.727h.03c-.267.3-.545.626-.845.99-.545.671-1.156,1.434-1.764,2.309a29.613,29.613,0,0,0-1.853,2.917,22.178,22.178,0,0,0-1.564,3.525v.044c0-.411,0-1.564-.022-1.653-.163-1.242-1.2-3.551-2.595-3.807a1.66,1.66,0,0,0-1.916,1.564,3.448,3.448,0,0,0,1.334,2.595,11.322,11.322,0,0,0,3.151,1.438,29,29,0,0,0-.927,3.818c-.133.741-.245,1.512-.348,2.276v-.719c-.159-1.242-1.2-3.551-2.595-3.807a1.664,1.664,0,0,0-1.92,1.564,3.46,3.46,0,0,0,1.334,2.595,11.244,11.244,0,0,0,3.058,1.409c-.037.293-.078.586-.111.882-.17,1.408-.33,2.817-.534,4.192-.07.486-.156.96-.241,1.434v-.623c-.163-1.242-1.2-3.551-2.595-3.807a1.661,1.661,0,0,0-1.916,1.564,3.46,3.46,0,0,0,1.334,2.595,10.459,10.459,0,0,0,2.965,1.379c-.1.486-.208.971-.326,1.434-.089.315-.156.626-.263.938s-.2.619-.3.923c-.211.582-.426,1.182-.649,1.742-.148.389-.3.76-.448,1.134.074-.482.2-1.431.208-1.509a6.472,6.472,0,0,0-.867-3.143,2.035,2.035,0,0,0-.022-.371,1.664,1.664,0,0,0-2.035-1.408c-1.357.371-2.224,2.743-2.283,4,0,.074.044.882.085,1.39-.07-.3-.133-.582-.208-.886-.141-.6-.3-1.2-.471-1.853-.093-.3-.185-.615-.282-.927s-.219-.63-.326-.949c-.271-.741-.578-1.483-.9-2.2a10.845,10.845,0,0,0,3.132-1.171,3.482,3.482,0,0,0,1.527-2.495,1.668,1.668,0,0,0-1.8-1.705c-1.4.152-2.595,2.38-2.861,3.606,0,.078-.1.979-.133,1.483-.2-.437-.4-.875-.615-1.308-.623-1.256-1.294-2.513-1.957-3.766-.2-.371-.4-.767-.6-1.153a11.356,11.356,0,0,0,3.247-1.2,3.473,3.473,0,0,0,1.527-2.495,1.66,1.66,0,0,0-1.8-1.7c-1.4.152-2.595,2.376-2.861,3.606,0,.093-.137,1.39-.152,1.72-.437-.845-.867-1.694-1.26-2.546a29.4,29.4,0,0,1-1.371-3.543,11.591,11.591,0,0,0,3.265-1.2,3.48,3.48,0,0,0,1.527-2.495,1.661,1.661,0,0,0-1.8-1.7c-1.4.152-2.595,2.376-2.861,3.6-.019.1-.145,1.483-.148,1.75-.022-.07-.052-.141-.074-.211a21.5,21.5,0,0,1-.73-3.725c-.078-.7-.115-1.368-.133-2.02a11.337,11.337,0,0,0,3.3-.83,3.421,3.421,0,0,0,1.79-2.313,1.66,1.66,0,0,0-1.6-1.89c-1.4,0-2.854,2.076-3.243,3.269,0,.067-.159.741-.256,1.249V356c0-1.06.07-2.035.137-2.895.041-.489.089-.93.137-1.342a11.114,11.114,0,0,0,2.532-2.25,3.446,3.446,0,0,0,.523-2.876,1.664,1.664,0,0,0-2.305-.93c-1.245.645-1.575,3.158-1.368,4.4,0,.107.489,1.749.511,1.735l.022-.019c-.056.4-.107.823-.159,1.29-.085.86-.174,1.835-.2,2.9a28.829,28.829,0,0,0,.082,3.443,21.675,21.675,0,0,0,.638,3.8v.044c-.222-.348-.871-1.3-.93-1.368-.823-.945-2.965-2.3-4.259-1.749a1.668,1.668,0,0,0-.741,2.365A3.548,3.548,0,0,0,25.975,363.98Z" transform="translate(-22.984 -345.534)" fill="#b92056"/>
      <path id="Path_2359" data-name="Path 2359" d="M89.95,366.886c.022,0,.448-1.642.463-1.749.174-1.242-.222-3.744-1.483-4.355a1.664,1.664,0,0,0-2.265,1,3.494,3.494,0,0,0,.6,2.865A11.5,11.5,0,0,0,89.95,366.886Z" transform="translate(-62.867 -355.037)" fill="#b92056"/>
    </g>
    <g id="freepik--Floor--inject-3" transform="translate(24.529 190.244)">
      <path id="Line_15" data-name="Line 15" d="M4.874-.129H-.315A.185.185,0,0,1-.5-.315.185.185,0,0,1-.315-.5H4.874a.185.185,0,0,1,.185.185A.185.185,0,0,1,4.874-.129Z" transform="translate(156.544 0.5)" fill="#263238"/>
      <path id="Line_16" data-name="Line 16" d="M90.866-.129H-.315A.185.185,0,0,1-.5-.315.185.185,0,0,1-.315-.5h91.18a.185.185,0,0,1,.185.185A.185.185,0,0,1,90.866-.129Z" transform="translate(60.175 0.5)" fill="#263238"/>
      <path id="Line_17" data-name="Line 17" d="M55.654-.129H-.315A.185.185,0,0,1-.5-.315.185.185,0,0,1-.315-.5H55.654a.185.185,0,0,1,.185.185A.185.185,0,0,1,55.654-.129Z" transform="translate(0.5 0.5)" fill="#263238"/>
    </g>
    <g id="freepik--Graphics--inject-3" transform="translate(29.763 29.9)">
      <path id="Path_2360" data-name="Path 2360" d="M79.6,50.112c0,2.917-5.289,9.018-5.289,9.018s-5.285-6.1-5.285-9.018a5.289,5.289,0,0,1,10.575,0Zm50.679,100.739A5.282,5.282,0,0,0,125,156.136c0,2.917,5.285,9.018,5.285,9.018s5.285-6.1,5.285-9.018A5.285,5.285,0,0,0,130.283,150.851ZM174.446,29.9a5.285,5.285,0,0,0-5.285,5.285c-.011,2.906,5.285,9.018,5.285,9.018s5.274-6.112,5.274-9.018A5.289,5.289,0,0,0,174.446,29.9ZM56.905,99.549a5.282,5.282,0,0,0-5.285,5.285c0,2.917,5.285,9.014,5.285,9.014s5.285-6.1,5.285-9.014A5.285,5.285,0,0,0,56.905,99.549ZM197.442,97.7a5.289,5.289,0,0,0-5.285,5.26c0,2.921,5.285,9.018,5.285,9.018s5.285-6.086,5.285-9.018a5.286,5.286,0,0,0-5.3-5.274Zm-23-60.272h-2.224a.371.371,0,1,1,0-.741h2.224a.371.371,0,0,1,0,.741ZM151.737,158a.371.371,0,0,0-.371-.371h-4.448a.371.371,0,0,0,0,.741h4.448A.371.371,0,0,0,151.737,158Zm-8.859,0a.371.371,0,0,0-.371-.371h-4.426a.371.371,0,0,0,0,.741h4.426A.371.371,0,0,0,142.878,158Zm12.951.337a6.264,6.264,0,0,0,4.077-2.131.37.37,0,0,0-.56-.486,5.53,5.53,0,0,1-3.592,1.879.371.371,0,0,0,.041.741Zm-21.783-.6a.371.371,0,0,0-.193-.489,4.752,4.752,0,0,1-2.672-2.965.371.371,0,0,0-.708.222,5.493,5.493,0,0,0,3.088,3.41.337.337,0,0,0,.145.03A.371.371,0,0,0,134.045,157.738Zm27.391-5.856v-4.422a.371.371,0,1,0-.741,0v4.422a.371.371,0,1,0,.741,0ZM130.965,150v-3.043a9.719,9.719,0,0,0-.108-1.434.371.371,0,1,0-.734.111,8.726,8.726,0,0,1,.1,1.323V150a.371.371,0,1,0,.741,0Zm30.471-6.976V138.6a.371.371,0,1,0-.741,0v4.429a.371.371,0,1,0,.741,0Zm-32.4-1.2a.371.371,0,0,0,.078-.519,9.611,9.611,0,0,0-3.5-2.924.371.371,0,1,0-.326.663,8.858,8.858,0,0,1,3.228,2.7.371.371,0,0,0,.519.078Zm-7.5-4.033a.371.371,0,0,0-.371-.371H116.74a.371.371,0,1,0,0,.741h4.426A.371.371,0,0,0,121.536,137.8Zm-8.855,0a.371.371,0,0,0-.371-.371h-4.448a.371.371,0,1,0,0,.741h4.448A.371.371,0,0,0,112.681,137.8Zm-8.855,0a.371.371,0,0,0-.371-.371H99.026a.371.371,0,1,0,0,.741h4.429A.371.371,0,0,0,103.826,137.8Zm-8.855,0a.371.371,0,0,0-.371-.371H90.153a.371.371,0,1,0,0,.741H94.6A.371.371,0,0,0,94.971,137.8Zm-8.859,0a.371.371,0,0,0-.371-.371H81.317a.371.371,0,1,0,0,.741h4.426a.371.371,0,0,0,.371-.371Zm-8.855,0a.371.371,0,0,0-.371-.371H72.462a.371.371,0,1,0,0,.741h4.426a.371.371,0,0,0,.371-.371Zm-8.855,0a.371.371,0,0,0-.371-.371H63.622a.371.371,0,1,0,0,.741H68.07A.371.371,0,0,0,68.4,137.8Zm-8.777-.593a.371.371,0,0,0-.163-.5A6.857,6.857,0,0,1,56.5,133.82a.371.371,0,0,0-.656.345,7.6,7.6,0,0,0,3.277,3.206.387.387,0,0,0,.508-.17ZM55.719,129.7v-4.429a.371.371,0,0,0-.741,0V129.7a.371.371,0,1,0,.741,0Zm0-8.855v-4.429a.371.371,0,1,0-.741,0v4.429a.371.371,0,0,0,.741,0Zm0-8.859v-1.853a3.955,3.955,0,0,1,.671-2.224.372.372,0,0,0-.619-.411,4.7,4.7,0,0,0-.793,2.621v1.853a.371.371,0,0,0,.741,0Zm150.336-6.157a.371.371,0,0,0-.233-.7,5.349,5.349,0,0,1-1.694.271h-2.595a.371.371,0,0,0,0,.741h2.595a6.188,6.188,0,0,0,1.928-.308Zm-8.573-.063a.371.371,0,0,0-.371-.371h-4.426a.371.371,0,1,0,0,.741h4.426a.371.371,0,0,0,.371-.371Zm-8.855,0a.371.371,0,0,0-.371-.371h-4.426a.371.371,0,1,0,0,.741h4.426a.371.371,0,0,0,.371-.371Zm-8.855,0a.371.371,0,0,0-.371-.371h-4.429a.371.371,0,1,0,0,.741H179.4A.371.371,0,0,0,179.773,105.765Zm-8.855,0a.371.371,0,0,0-.371-.371H166.1a.371.371,0,1,0,0,.741h4.448a.371.371,0,0,0,.371-.371Zm-8.855,0a.371.371,0,0,0-.371-.371h-4.429a.371.371,0,0,0,0,.741h4.429a.371.371,0,0,0,.371-.371Zm-8.859,0a.371.371,0,0,0-.371-.371h-4.426a.371.371,0,0,0,0,.741h4.426a.371.371,0,0,0,.371-.371Zm-8.855,0a.371.371,0,0,0-.371-.371h-4.426a.371.371,0,1,0,0,.741h4.426a.371.371,0,0,0,.371-.371Zm-8.855,0a.371.371,0,0,0-.371-.371H130.71a.371.371,0,1,0,0,.741h4.448a.371.371,0,0,0,.337-.371Zm-8.855,0a.371.371,0,0,0-.371-.371h-4.448a.371.371,0,1,0,0,.741h4.448a.371.371,0,0,0,.363-.371Zm-8.855,0a.371.371,0,0,0-.371-.371h-4.429a.371.371,0,0,0,0,.741h4.429a.371.371,0,0,0,.371-.371Zm-8.859,0a.371.371,0,0,0-.371-.371H104.13a.371.371,0,1,0,0,.741h4.426a.371.371,0,0,0,.371-.371Zm-8.855,0a.371.371,0,0,0-.371-.371H95.275a.371.371,0,1,0,0,.741H99.7a.371.371,0,0,0,.371-.371Zm-8.855,0a.371.371,0,0,0-.371-.371H86.417a.371.371,0,1,0,0,.741h4.429a.371.371,0,0,0,.371-.371Zm-8.855,0a.371.371,0,0,0-.371-.371H77.543a.371.371,0,1,0,0,.741h4.448a.371.371,0,0,0,.371-.371Zm-8.855,0a.371.371,0,0,0-.371-.371H68.688a.371.371,0,1,0,0,.741h4.448a.371.371,0,0,0,.371-.371Zm-8.859,0a.371.371,0,0,0-.371-.371H59.852a.371.371,0,1,0,0,.741h4.426a.371.371,0,0,0,.371-.371Zm144.925-2.917a6.112,6.112,0,0,0,.7-2.835V98.356a.371.371,0,1,0-.741,0v1.657a5.371,5.371,0,0,1-.612,2.491.371.371,0,1,0,.656.345Zm.7-8.922V89.5a.371.371,0,1,0-.741,0v4.426a.371.371,0,1,0,.741,0Zm0-8.855V83.537a6.142,6.142,0,0,0-.741-2.965.37.37,0,0,0-.649.356,5.4,5.4,0,0,1,.663,2.595v1.535a.371.371,0,1,0,.741,0Zm-4.077-6.927a.371.371,0,0,0-.245-.463,6.146,6.146,0,0,0-1.8-.267h-2.709a.371.371,0,0,0,0,.741h2.709a5.3,5.3,0,0,1,1.583.237.427.427,0,0,0,.445-.248Zm-8.81-.371a.371.371,0,0,0-.371-.371h-4.448a.371.371,0,1,0,0,.741h4.429a.371.371,0,0,0,.371-.36Zm-8.859,0a.371.371,0,0,0-.371-.371h-4.44a.371.371,0,0,0,0,.741h4.426a.371.371,0,0,0,.367-.36Zm-8.855,0a.371.371,0,0,0-.371-.371h-4.444a.371.371,0,1,0,0,.741h4.411a.371.371,0,0,0,.371-.36Zm-8.855,0a.371.371,0,0,0-.371-.371H166a.371.371,0,1,0,0,.741h4.429a.371.371,0,0,0,.371-.36Zm-8.855,0a.371.371,0,0,0-.371-.371h-4.448a.371.371,0,0,0,0,.741h4.429a.371.371,0,0,0,.371-.36Zm-8.855,0a.371.371,0,0,0-.371-.371h-4.448a.371.371,0,0,0,0,.741h4.429a.371.371,0,0,0,.371-.36Zm-8.859,0a.371.371,0,0,0-.371-.371h-4.444a.371.371,0,0,0,0,.741h4.426a.371.371,0,0,0,.371-.36Zm-8.855,0a.371.371,0,0,0-.371-.371h-4.444a.371.371,0,0,0,0,.741H135a.371.371,0,0,0,.371-.36Zm-8.855,0a.371.371,0,0,0-.371-.371h-4.448a.371.371,0,0,0,0,.741h4.429a.371.371,0,0,0,.371-.36Zm-8.855,0a.371.371,0,0,0-.371-.371h-4.448a.371.371,0,1,0,0,.741h4.448a.371.371,0,0,0,.352-.36Zm-8.855,0a.371.371,0,0,0-.371-.371h-4.433a.371.371,0,0,0,0,.741h4.429a.371.371,0,0,0,.356-.36Zm-8.859,0A.371.371,0,0,0,99.6,77.4H95.153a.371.371,0,0,0,0,.741h4.422a.371.371,0,0,0,.371-.36Zm-8.855,0a.371.371,0,0,0-.371-.371H86.3a.371.371,0,0,0,0,.741h4.426a.371.371,0,0,0,.371-.36Zm-8.855,0a.371.371,0,0,0-.371-.371H77.44a.371.371,0,0,0,0,.741h4.429a.371.371,0,0,0,.371-.36Zm-8.6-1.112a.371.371,0,0,0,0-.526A4.563,4.563,0,0,1,72.232,72.8v-.4a.371.371,0,0,0-.741,0v.4a5.3,5.3,0,0,0,1.657,3.87.327.327,0,0,0,.482,0Zm-1.442-8.684V63.551a.371.371,0,0,0-.741,0v4.429a.371.371,0,1,0,.741,0Zm0-8.859v-.927a5.519,5.519,0,0,1,.941-3.091.381.381,0,1,0-.641-.411A6.242,6.242,0,0,0,71.446,58.2v.927a.371.371,0,1,0,.741,0Zm4.277-6.3a5.522,5.522,0,0,1,1.26-.145h3.073a.371.371,0,0,0,0-.741H77.755a6.36,6.36,0,0,0-1.427.163.37.37,0,0,0,.093.73.319.319,0,0,0,.056-.022Zm8.818-.234a5.99,5.99,0,0,0,3.873-2.476.37.37,0,1,0-.608-.423,5.26,5.26,0,0,1-3.391,2.168.372.372,0,1,0,.063.741Zm4.922-6.924V42.65a5.365,5.365,0,0,1,.163-1.311.371.371,0,1,0-.715-.182,5.931,5.931,0,0,0-.189,1.483v3.01a.371.371,0,0,0,.741,0Zm2.595-7.528a5.211,5.211,0,0,1,2.628-.708H96.94a.371.371,0,1,0,0-.741H95.457a5.956,5.956,0,0,0-3,.808.371.371,0,1,0,.374.641Zm75.316-1.079a.371.371,0,0,0-.371-.371h-4.422a.371.371,0,1,0,0,.741h4.422A.371.371,0,0,0,168.145,37.054Zm-8.855,0a.371.371,0,0,0-.371-.371H154.5a.371.371,0,1,0,0,.741h4.429a.371.371,0,0,0,.371-.371Zm-8.855,0a.371.371,0,0,0-.371-.371h-4.422a.371.371,0,1,0,0,.741h4.429a.371.371,0,0,0,.371-.371Zm-8.859,0a.371.371,0,0,0-.371-.371h-4.418a.371.371,0,1,0,0,.741h4.426a.371.371,0,0,0,.371-.371Zm-8.855,0a.371.371,0,0,0-.371-.371h-4.418a.371.371,0,1,0,0,.741h4.426a.371.371,0,0,0,.371-.371Zm-8.855,0a.371.371,0,0,0-.371-.371h-4.422a.371.371,0,0,0,0,.741H123.5a.371.371,0,0,0,.371-.371Zm-8.855,0a.371.371,0,0,0-.371-.371H110.22a.371.371,0,1,0,0,.741h4.429a.371.371,0,0,0,.371-.371Zm-8.855,0a.371.371,0,0,0-.371-.371h-4.422a.371.371,0,1,0,0,.741h4.429a.371.371,0,0,0,.371-.371Zm55.279,97.055v-2.224a.371.371,0,0,0-.741,0v2.224a.371.371,0,0,0,.741,0Z" transform="translate(-51.62 -29.9)" opacity="0.1"/>
      <path id="Path_2361" data-name="Path 2361" d="M68.506,153.478v-1.9H67.283v1.9H64.221v-1.9H63v1.9H59.936v-1.9H58.728v1.9H57.39v11.49H69.825v-11.49Zm-7.183,8.881H59.362V160.4h1.961Zm0-3.1H59.362V157.3h1.961Zm3.265,3.1H62.627V160.4h1.961Zm0-3.1H62.627V157.3h1.961Zm3.265,3.1H65.893V160.4h1.961Zm0-3.1H65.893V157.3h1.961Z" transform="translate(-55.251 -106.479)" opacity="0.1"/>
      <path id="Path_2362" data-name="Path 2362" d="M262.537,406.478v-1.9h-1.223v1.9h-3.062v-1.9h-1.223v1.9h-3.062v-1.9H252.76v1.9h-1.32v11.49h12.435v-11.49Zm-7.183,8.9h-1.961v-1.961h1.961Zm0-3.1h-1.961V410.3h1.961Zm3.265,3.1h-1.961v-1.961h1.961Zm0-3.1h-1.961V410.3h1.961Zm3.265,3.1h-1.961v-1.961h1.961Zm0-3.1h-1.961V410.3h1.961Z" transform="translate(-177.376 -265.704)" opacity="0.1"/>
      <path id="Path_2363" data-name="Path 2363" d="M418.7,34.194V32.3h-1.223v1.894h-3.065V32.3h-1.223v1.894h-3.058V32.3H408.9v1.894h-1.32v11.49h12.435V34.194Zm-7.183,8.9h-1.961V41.114h1.961Zm0-3.1h-1.961V38.012h1.961Zm3.265,3.088h-1.961V41.114h1.961Zm0-3.1h-1.961V38.012h1.961Zm3.265,3.1h-1.961V41.114h1.961Zm0-3.1h-1.961V38.012h1.961Z" transform="translate(-275.643 -31.41)" opacity="0.1"/>
    </g>
    <g id="freepik--Window--inject-3" transform="translate(75.979 47.543)">
      <path id="Path_2364" data-name="Path 2364" d="M178.326,78H274.7a1.516,1.516,0,0,1,1.52,1.516v95.828h-99.4V79.516A1.516,1.516,0,0,1,178.326,78Z" transform="translate(-176.625 -77.815)" fill="#e5e5e5"/>
      <path id="Path_2365" data-name="Path 2365" d="M214.012,161.412a2.576,2.576,0,1,1-2.572-2.572,2.576,2.576,0,0,1,2.572,2.572Z" transform="translate(-196.795 -128.691)" fill="#ccc"/>
      <path id="Path_2366" data-name="Path 2366" d="M276.674,88.861l-12.865,12.354a29.087,29.087,0,0,0-5.66.074.63.63,0,0,1-.471-.174c-2.409-1.89-4.655-15.66-5.63-23.121h-.7c.775,5.93,3.039,21.427,5.9,23.674a1.327,1.327,0,0,0,.993.319,26.769,26.769,0,0,1,4.9-.126l-10.412,10.008-14.648-10.853a3.729,3.729,0,0,0-4.919.423c-1.575,1.649-2.769,2.984-3.555,3.966-1.038,1.294-2.676,3.336-4.5,5.56l-5.445-4.385h0c3.232-4.262,6.027-7.947,7.676-9.844,3.354-3.858,11.12-13.592,15.2-18.725h-.9c-4.148,5.226-11.572,14.522-14.826,18.266-1.664,1.913-4.448,5.6-7.695,9.87l-7.413-5.971a.341.341,0,0,0-.526-.423l-7.28-5.86a.352.352,0,1,0-.441.545l7.28,5.86c-1.042,1.338-3.966,5.111-6.053,7.928L185.168,93.183a.352.352,0,0,0-.43.556l19.526,15.052c-.43.586-.812,1.112-1.112,1.553-2.313,3.336-5.408,6.52-10.838,4.781-5.56-1.779-6.3-5.867-6.3-6.038a.371.371,0,0,0-.119-.215l-5.071-4.355c.371-2.706.8-6.5,1.279-11.861.5-5.667.9-11.327,1.112-14.667h-.686c-.56,8.525-1.431,19.2-2.331,25.986l-2.658-2.261v.927l2.543,2.187c-.463,3.336-.934,5.56-1.368,5.867a8.18,8.18,0,0,0-1.175.667v.853a8.742,8.742,0,0,1,1.46-.878c.3-.133.875-.371,1.705-5.975l4.618,3.97c.167.782,1.275,4.707,6.764,6.464a10.186,10.186,0,0,0,3.125.523c4.044,0,6.635-2.869,8.5-5.56.3-.43.675-.949,1.112-1.523l7.509,5.79a123.581,123.581,0,0,1-10.767,12.6c-3.306,3.076-7.476,6.672-10.871,9.555-4.755-3.121-9.214-6.494-9.266-6.538h-.022l-.022-.019-3.825-2.076v.8l2.709,1.483c-.649.163-1.612.4-2.709.623v.656c1.7-.348,3.1-.715,3.584-.845.782.589,4.748,3.551,9,6.346-3.206,2.709-5.589,4.659-5.638,4.7a.352.352,0,1,0,.445.545c.048-.041,2.513-2.061,5.8-4.841.979.634,1.961,1.253,2.917,1.827l2.224,1.308c1.913,1.13,4.24,2.509,6.542,3.959l-6.716,7.3a.353.353,0,0,0,.23.593c.063,0,6.212.537,11.208,7.576,4.348,6.123,8.473,11.272,15.756,14.759h1.705c-8.032-3.421-12.335-8.751-16.891-15.167-4.251-5.993-9.24-7.435-11.042-7.784l6.353-6.9c4.592,2.932,8.929,6.112,9.444,8.173.741,3.006,4.4,6.712,6.149,8.492.448.456.834.849.919.979.489.741,3.707,2.561,4.333,2.921l.078.03a32.816,32.816,0,0,0,7.569,1.231c1.6,0,2.984-.285,3.577-1.134.949-1.349,3.707-3.521,5.93-5.263a31.45,31.45,0,0,0,3.429-2.9c.137-.167.767-.741,1.775-1.661l2.617,2.617-19.978,16.357H230l19.367-15.86,3.454,3.454-13.955,12.406h1.056L253.564,163.2a.348.348,0,0,0,0-.512l-3.666-3.666,16.779-13.744,5.7,4.589L251.3,168.6a2.393,2.393,0,0,0,3.1,3.647l22-19.148.311.252V151.9l-.33.285-2.917-2.346,3.247-2.887v-.938l-3.8,3.377-5.678-4.57,9.44-7.743v-.89l-10.045,8.2-3.566-2.873c4.718-4.118,9.581-8.343,13.6-11.835v-.93c-2.832,2.457-8.4,7.294-14.159,12.32l-7.042-5.667c6.2-6.108,14.541-14.378,15.86-15.99,2.224-2.721,3.1-10.645.971-14.433-1.286-2.287-4.448-3.291-7.584-3.669l11.95-11.49Zm-3.784,61.461,2.91,2.343-21.9,19.059a1.7,1.7,0,1,1-2.183-2.595Zm-42.743-44.478c.741-.953,1.976-2.305,3.514-3.922a3.032,3.032,0,0,1,3.992-.341l14.559,10.771-11.568,11.12-15-12.083c2.5-3.054,4.452-5.489,4.5-5.556Zm-10.923,1.282,5.423,4.366c-2.053,2.5-4.3,5.189-6.168,7.365l-5.189-3.988C215.32,112.275,217.341,109.614,219.223,107.127Zm-14,1.512c2.076-2.806,5-6.572,6.042-7.917l7.413,5.964c-1.887,2.494-3.91,5.156-5.93,7.754Zm-3.2,19.463c2.806-2.595,6.8-7.48,10.845-12.68l5.148,3.97a29.339,29.339,0,0,1-3.536,3.707c-1.234.708-10.949,5.515-15.467,7.75,1.053-.941,2.068-1.864,3.013-2.747Zm.856,16.487c-2.294-1.449-4.648-2.839-6.672-4.036-.8-.471-1.538-.908-2.2-1.3-.893-.537-1.809-1.112-2.721-1.7,1.783-1.512,3.77-3.217,5.73-4.937h0c.66-.326,16.175-7.973,17.791-8.9a29.662,29.662,0,0,0,3.784-3.936h.019a.345.345,0,0,0,.278-.137.341.341,0,0,0,.063-.282c1.935-2.224,4.218-4.985,6.22-7.413l14.952,12.009-7.691,7.387h-.019l-11.95,14.707-10.738-8.417a.371.371,0,0,0-.478.041Zm31.613,21.2c-1.219,1.742-7.839.341-10.341-.371a23.708,23.708,0,0,1-4.055-2.676,11.222,11.222,0,0,0-1-1.082c-1.709-1.735-5.263-5.348-5.967-8.154-.567-2.272-4.915-5.508-9.637-8.525l6.064-6.583,10.749,8.455a.371.371,0,0,0,.489-.052l11.635-14.322,3.64,31.628a11.693,11.693,0,0,0-1.568,1.683Zm11.442-10.141c-1.16,1.045-1.9,1.735-2.065,1.927a32.308,32.308,0,0,1-3.336,2.8c-1.3,1.023-2.687,2.12-3.847,3.136l-3.64-31.772,7.628-7.328,13.736,11.034c-3.521,3.469-6.227,6.112-6.3,6.182a.371.371,0,0,0-.1.2Zm16.587-13.666,3.547,2.858-16.72,13.692-2.639-2.639c3.21-2.884,9.34-8.258,15.816-13.911Zm-.556-.448c-5.838,5.1-11.79,10.315-15.2,13.377l1.927-12.854c.552-.541,3.088-3.021,6.279-6.16Zm-7.042-6.579L241.21,123.906l11.59-11.12,14.011,10.378c-3.336,3.34-8.036,7.995-11.894,11.79ZM271.7,105.3c1.976,3.521,1.149,11.138-.9,13.647-.445.545-1.738,1.9-3.5,3.684l-14-10.378,10.775-10.323c3.254.33,6.446,1.3,7.617,3.384Z" transform="translate(-177.084 -77.808)" fill="#fff"/>
      <rect id="Rectangle_503" data-name="Rectangle 503" width="55.824" height="9.626" transform="translate(40.342 86.288)" fill="#fff"/>
      <rect id="Rectangle_504" data-name="Rectangle 504" width="3.673" height="4.199" transform="translate(44.104 90.884)" fill="#b92056"/>
      <rect id="Rectangle_505" data-name="Rectangle 505" width="3.673" height="4.288" transform="translate(49.178 90.795)" fill="#b92056"/>
      <rect id="Rectangle_506" data-name="Rectangle 506" width="3.673" height="5.248" transform="translate(54.252 89.835)" fill="#b92056"/>
      <rect id="Rectangle_507" data-name="Rectangle 507" width="3.673" height="2.798" transform="translate(59.326 92.285)" fill="#b92056"/>
      <rect id="Rectangle_508" data-name="Rectangle 508" width="3.673" height="5.601" transform="translate(64.401 89.483)" fill="#b92056"/>
      <rect id="Rectangle_509" data-name="Rectangle 509" width="3.673" height="3.936" transform="translate(69.479 91.147)" fill="#b92056"/>
      <rect id="Rectangle_510" data-name="Rectangle 510" width="3.673" height="2.102" transform="translate(74.553 92.982)" fill="#b92056"/>
      <rect id="Rectangle_511" data-name="Rectangle 511" width="3.677" height="3.151" transform="translate(79.627 91.933)" fill="#b92056"/>
      <rect id="Rectangle_512" data-name="Rectangle 512" width="3.673" height="2.276" transform="translate(84.701 92.807)" fill="#b92056"/>
      <rect id="Rectangle_513" data-name="Rectangle 513" width="3.673" height="5.601" transform="translate(89.779 89.483)" fill="#b92056"/>
      <path id="Path_2367" data-name="Path 2367" d="M177.521,278.683h24.834c-1.7-.815-4.259-2.1-4.57-2.561-.467-.7-3.039-5.148-4.448-5.382s-1.872,1.4-1.872,1.4l3.039,4.915-1.168-.7a49,49,0,0,0-3.51-3.51c-.7-.467,0-2.339.234-3.744s1.853-2.339,2.339-3.51,0-4.681,0-5.849-2.105-4.681-3.51-7.491-6.082-8.188-8.658-9.359a10.007,10.007,0,0,0-2.721-.693Z" transform="translate(-177.065 -181.154)" fill="#ccc"/>
      <path id="Path_2368" data-name="Path 2368" d="M328.784,153.15l-3.744,4.681,4.681,6.086,8.658-4.448Z" transform="translate(-269.913 -125.11)" fill="#ccc"/>
      <path id="Path_2369" data-name="Path 2369" d="M338.632,209.98l-5.382,5.148,2.105,11.464,5.849,1.638,1.875-4.915,5.615-5.382Z" transform="translate(-275.08 -160.876)" fill="#ccc"/>
      <path id="Path_2370" data-name="Path 2370" d="M178.011,77.5h96.373a1.7,1.7,0,0,1,1.7,1.7v95.828a.185.185,0,0,1-.185.185H176.5a.185.185,0,0,1-.185-.185V79.2A1.7,1.7,0,0,1,178.011,77.5Zm97.7,97.344V79.2a1.331,1.331,0,0,0-1.331-1.331H178.011a1.332,1.332,0,0,0-1.331,1.331v95.643Z" transform="translate(-176.31 -77.5)" fill="#263238"/>
      <path id="Path_2371" data-name="Path 2371" d="M178.326,78H274.7a1.516,1.516,0,0,1,1.52,1.516v17.2h-99.4v-17.2A1.516,1.516,0,0,1,178.326,78Z" transform="translate(-176.625 -77.815)" fill="#b92056"/>
      <path id="Path_2371_-_Outline" data-name="Path 2371 - Outline" d="M178.011,77.5h96.373a1.7,1.7,0,0,1,1.7,1.7V96.4a.185.185,0,0,1-.185.185H176.5a.185.185,0,0,1-.185-.185V79.2A1.7,1.7,0,0,1,178.011,77.5Zm97.7,18.718V79.2a1.331,1.331,0,0,0-1.331-1.331H178.011a1.332,1.332,0,0,0-1.331,1.331V96.218Z" transform="translate(-176.31 -77.5)" fill="#263238"/>
      <rect id="Rectangle_514" data-name="Rectangle 514" width="78.393" height="3.277" transform="translate(6.687 11.894)" fill="#fff"/>
      <path id="Rectangle_514_-_Outline" data-name="Rectangle 514 - Outline" d="M-.315-.5H78.078a.185.185,0,0,1,.185.185V2.962a.185.185,0,0,1-.185.185H-.315A.185.185,0,0,1-.5,2.962V-.315A.185.185,0,0,1-.315-.5Zm78.207.371H-.129V2.777H77.893Z" transform="translate(7.001 12.209)" fill="#263238"/>
      <path id="Path_2372" data-name="Path 2372" d="M285.7,78H194.18v8.429h92.967V79.434A1.438,1.438,0,0,0,285.7,78Z" transform="translate(-187.556 -77.815)" fill="gray"/>
      <path id="Path_2372_-_Outline" data-name="Path 2372 - Outline" d="M285.394,77.5a1.623,1.623,0,0,1,1.623,1.619v6.995a.185.185,0,0,1-.185.185H193.865a.185.185,0,0,1-.185-.185V77.685a.185.185,0,0,1,.185-.185Zm1.253,8.429V79.12a1.253,1.253,0,0,0-1.253-1.249H194.051v8.058Z" transform="translate(-187.242 -77.5)" fill="#263238"/>
      <path id="Path_2373" data-name="Path 2373" d="M178.326,78H274.7a1.516,1.516,0,0,1,1.52,1.516v3.966h-99.4V79.516A1.516,1.516,0,0,1,178.326,78Z" transform="translate(-176.625 -77.815)" fill="#25304e"/>
      <path id="Path_2373_-_Outline" data-name="Path 2373 - Outline" d="M178.011,77.5h96.373a1.7,1.7,0,0,1,1.7,1.7v3.966a.185.185,0,0,1-.185.185H176.5a.185.185,0,0,1-.185-.185V79.2A1.7,1.7,0,0,1,178.011,77.5Zm97.7,5.482V79.2a1.331,1.331,0,0,0-1.331-1.331H178.011a1.332,1.332,0,0,0-1.331,1.331v3.781Z" transform="translate(-176.31 -77.5)" fill="#263238"/>
      <circle id="Ellipse_140" data-name="Ellipse 140" cx="0.749" cy="0.749" r="0.749" transform="translate(94.75 2.272)" fill="#fff"/>
      <circle id="Ellipse_141" data-name="Ellipse 141" cx="0.749" cy="0.749" r="0.749" transform="translate(91.658 2.272)" fill="#fff"/>
      <circle id="Ellipse_142" data-name="Ellipse 142" cx="0.749" cy="0.749" r="0.749" transform="translate(88.567 2.272)" fill="#fff"/>
    </g>
    <g id="freepik--Locations--inject-3" transform="translate(88.622 68.233)">
      <path id="Path_2374" data-name="Path 2374" d="M350.966,168H338.623a1.749,1.749,0,0,0-1.753,1.749v11.594a1.749,1.749,0,0,0,1.753,1.749h3.651l2.684,5.293,2.465-5.282h3.543a1.75,1.75,0,0,0,1.749-1.749V169.749A1.75,1.75,0,0,0,350.966,168Z" transform="translate(-290.001 -155.146)" fill="#263238"/>
      <path id="Path_2374_-_Outline" data-name="Path 2374 - Outline" d="M338.3,167.5h12.346a1.937,1.937,0,0,1,1.935,1.935V181.04a1.937,1.937,0,0,1-1.935,1.935h-3.425l-2.415,5.175a.185.185,0,0,1-.333.005l-2.632-5.191H338.3a1.935,1.935,0,0,1-1.935-1.935V169.435A1.935,1.935,0,0,1,338.3,167.5Zm0,.371h0a1.564,1.564,0,0,0-1.564,1.564v11.594a1.564,1.564,0,0,0,1.564,1.564h3.655a.185.185,0,0,1,.165.1l2.511,4.953,2.3-4.937a.185.185,0,0,1,.168-.107h3.543a1.566,1.566,0,0,0,1.564-1.564V169.435a1.566,1.566,0,0,0-1.564-1.564Z" transform="translate(-289.686 -154.831)" fill="#263238"/>
      <path id="Path_2375" data-name="Path 2375" d="M349.734,178.375l.426-2.835h.875v4h-.593V176.67l-.434,2.865h-.593l-.471-2.824v2.824H348.4v-4h.871Z" transform="translate(-297.258 -159.891)" fill="#b92056"/>
      <path id="Path_2376" data-name="Path 2376" d="M356.56,176.513a.953.953,0,0,1,1.905,0v2.076a.953.953,0,0,1-1.905,0Zm.626,2.116c0,.285.126.393.326.393s.322-.107.322-.393v-2.165c0-.285-.126-.393-.322-.393s-.326.107-.326.393Z" transform="translate(-302.393 -159.904)" fill="#b92056"/>
      <path id="Path_2377" data-name="Path 2377" d="M363.343,176.641v2.895h-.563v-4h.786l.645,2.391V175.54h.56v4h-.645Z" transform="translate(-306.308 -159.891)" fill="#b92056"/>
      <path id="Path_2378" data-name="Path 2378" d="M353.667,190.776c-.2,0-.322.107-.322.393v.426h-.6v-.371a.938.938,0,1,1,1.872,0c0,1.253-1.249,1.724-1.249,2.38a.343.343,0,0,0,0,.085h1.186v.571H352.74v-.493c0-1.175,1.245-1.368,1.245-2.52C353.993,190.88,353.867,190.776,353.667,190.776Z" transform="translate(-299.989 -169.13)" fill="#b92056"/>
      <path id="Path_2379" data-name="Path 2379" d="M359.767,190.776c-.2,0-.326.107-.326.393v.426h-.593v-.371a.938.938,0,1,1,1.872,0c0,1.253-1.249,1.724-1.249,2.38a.345.345,0,0,0,0,.085h1.186v.571H358.84v-.493c0-1.175,1.245-1.368,1.245-2.52C360.093,190.88,359.967,190.776,359.767,190.776Z" transform="translate(-303.828 -169.13)" fill="#b92056"/>
      <circle id="Ellipse_143" data-name="Ellipse 143" cx="1.368" cy="1.368" r="1.368" transform="translate(53.426 34.411)" fill="#b92056"/>
      <path id="Ellipse_143_-_Outline" data-name="Ellipse 143 - Outline" d="M1.053-.5A1.553,1.553,0,1,1-.5,1.053,1.555,1.555,0,0,1,1.053-.5Zm0,2.735A1.182,1.182,0,1,0-.129,1.053,1.184,1.184,0,0,0,1.053,2.235Z" transform="translate(53.74 34.726)" fill="#263238"/>
      <circle id="Ellipse_144" data-name="Ellipse 144" cx="1.368" cy="1.368" r="1.368" transform="translate(11.216 0.185)" fill="#b92056"/>
      <path id="Ellipse_144_-_Outline" data-name="Ellipse 144 - Outline" d="M1.053-.5A1.553,1.553,0,1,1-.5,1.053,1.555,1.555,0,0,1,1.053-.5Zm0,2.735A1.182,1.182,0,1,0-.129,1.053,1.184,1.184,0,0,0,1.053,2.235Z" transform="translate(11.531 0.5)" fill="#263238"/>
      <path id="Path_2380" data-name="Path 2380" d="M292.045,226.291a1.368,1.368,0,1,1-.4-.969,1.368,1.368,0,0,1,.4.969Z" transform="translate(-260.069 -190.968)" fill="#b92056"/>
      <path id="Path_2380_-_Outline" data-name="Path 2380 - Outline" d="M290.363,227.526h0a1.553,1.553,0,1,1,1.556-1.549A1.555,1.555,0,0,1,290.36,227.526Zm0-2.735a1.182,1.182,0,0,0,0,2.365h0a1.182,1.182,0,0,0,0-2.365Z" transform="translate(-259.755 -190.654)" fill="#263238"/>
      <circle id="Ellipse_145" data-name="Ellipse 145" cx="1.368" cy="1.368" r="1.368" transform="translate(0.185 23.648)" fill="#b92056"/>
      <path id="Ellipse_145_-_Outline" data-name="Ellipse 145 - Outline" d="M1.053-.5A1.553,1.553,0,1,1-.5,1.053,1.555,1.555,0,0,1,1.053-.5Zm0,2.735A1.182,1.182,0,1,0-.129,1.053,1.184,1.184,0,0,0,1.053,2.235Z" transform="translate(0.5 23.962)" fill="#263238"/>
      <path id="Path_2381" data-name="Path 2381" d="M225.263,291.361a1.371,1.371,0,1,1-1.371-1.371,1.371,1.371,0,0,1,1.371,1.371Z" transform="translate(-218.035 -231.92)" fill="#b92056"/>
      <path id="Path_2381_-_Outline" data-name="Path 2381 - Outline" d="M223.577,289.49a1.557,1.557,0,1,1-1.557,1.557A1.558,1.558,0,0,1,223.577,289.49Zm0,2.743a1.186,1.186,0,1,0-1.186-1.186A1.187,1.187,0,0,0,223.577,292.233Z" transform="translate(-217.72 -231.605)" fill="#263238"/>
      <circle id="Ellipse_146" data-name="Ellipse 146" cx="1.368" cy="1.368" r="1.368" transform="translate(69.267 55.809)" fill="#b92056"/>
      <path id="Ellipse_146_-_Outline" data-name="Ellipse 146 - Outline" d="M1.053-.5A1.553,1.553,0,1,1-.5,1.053,1.555,1.555,0,0,1,1.053-.5Zm0,2.735A1.182,1.182,0,1,0-.129,1.053,1.184,1.184,0,0,0,1.053,2.235Z" transform="translate(69.582 56.124)" fill="#263238"/>
      <circle id="Ellipse_147" data-name="Ellipse 147" cx="1.368" cy="1.368" r="1.368" transform="translate(76.276 13.681)" fill="#b92056"/>
      <path id="Ellipse_147_-_Outline" data-name="Ellipse 147 - Outline" d="M1.053-.5A1.553,1.553,0,1,1-.5,1.053,1.555,1.555,0,0,1,1.053-.5Zm0,2.735A1.182,1.182,0,1,0-.129,1.053,1.184,1.184,0,0,0,1.053,2.235Z" transform="translate(76.591 13.995)" fill="#263238"/>
      <circle id="Ellipse_148" data-name="Ellipse 148" cx="1.368" cy="1.368" r="1.368" transform="translate(68.941 0.415)" fill="#b92056"/>
      <path id="Ellipse_148_-_Outline" data-name="Ellipse 148 - Outline" d="M1.053-.5A1.553,1.553,0,1,1-.5,1.053,1.555,1.555,0,0,1,1.053-.5Zm0,2.735A1.182,1.182,0,1,0-.129,1.053,1.184,1.184,0,0,0,1.053,2.235Z" transform="translate(69.256 0.73)" fill="#263238"/>
      <path id="Path_2382" data-name="Path 2382" d="M405.523,231.451a1.368,1.368,0,1,1-.4-.969A1.371,1.371,0,0,1,405.523,231.451Z" transform="translate(-331.482 -194.216)" fill="#b92056"/>
      <path id="Path_2382_-_Outline" data-name="Path 2382 - Outline" d="M403.837,232.693h0a1.557,1.557,0,0,1,0-3.113h0a1.553,1.553,0,0,1,1.553,1.557A1.558,1.558,0,0,1,403.837,232.693Zm0-2.743a1.186,1.186,0,0,0,0,2.372v0a1.188,1.188,0,0,0,1.186-1.186,1.182,1.182,0,0,0-1.182-1.186Z" transform="translate(-331.167 -193.901)" fill="#263238"/>
      <circle id="Ellipse_149" data-name="Ellipse 149" cx="1.368" cy="1.368" r="1.368" transform="translate(34.945 21.635)" fill="#b92056"/>
      <path id="Ellipse_149_-_Outline" data-name="Ellipse 149 - Outline" d="M1.053-.5A1.553,1.553,0,1,1-.5,1.053,1.555,1.555,0,0,1,1.053-.5Zm0,2.735A1.182,1.182,0,1,0-.129,1.053,1.184,1.184,0,0,0,1.053,2.235Z" transform="translate(35.26 21.95)" fill="#263238"/>
    </g>
    <g id="freepik--Character--inject-3" transform="translate(38.212 86.86)">
      <path id="Path_2383" data-name="Path 2383" d="M90.151,355.9s.834,9.266,1.112,11.212-.927,3.151-2.131,4.448-1.668,3.984-1.668,6.023-.278,12.232-.278,12.88S87,392.686,87,392.686s2.965-.093,3.336-.093,1.761-5.282,2.131-6.764,3.243-10.842,4.355-13.436,1.112-4.54,1.575-5.56,1.019-9.359,1.019-9.359,5,8.8,5.189,10.008a3.3,3.3,0,0,1-.185,2.5,13.351,13.351,0,0,0-1.39,6.857c.093,3.984,2.279,11.034,2.279,11.034l.278,4.355s1.668.649,2.5,1.019,2.131-1.575,2.131-1.575-.056-3.251-.148-5.66a100.238,100.238,0,0,1,.927-12.6,19.667,19.667,0,0,0,.556-6.764c-.371-2.039-1.575-11.4-1.575-11.4s-14.085.834-15.845.556-4.077-.371-4.077-.371Z" transform="translate(-82.336 -291.618)" fill="#263238"/>
      <path id="Path_2383_-_Outline" data-name="Path 2383 - Outline" d="M109.666,354.75a.185.185,0,0,1,.184.162c.012.094,1.208,9.377,1.574,11.388a19.791,19.791,0,0,1-.559,6.843,56.981,56.981,0,0,0-.632,5.922c-.217,2.941-.331,5.543-.289,6.628.092,2.384.148,5.631.148,5.664a.185.185,0,0,1-.031.106,7.6,7.6,0,0,1-.661.834,2.165,2.165,0,0,1-1.4.871.739.739,0,0,1-.3-.063c-.82-.365-2.477-1.009-2.494-1.016a.185.185,0,0,1-.118-.161l-.277-4.333c-.064-.208-.581-1.9-1.1-4.012a37.32,37.32,0,0,1-1.18-7.051,16.276,16.276,0,0,1,.427-4.344,12.383,12.383,0,0,1,.87-2.357c.039-.084.076-.163.11-.237a2.838,2.838,0,0,0,.21-2.147c-.012-.079-.025-.162-.039-.25-.138-.9-3.315-6.662-4.864-9.409-.056.783-.162,2.213-.293,3.687a27.853,27.853,0,0,1-.7,5.122,8.036,8.036,0,0,0-.42,1.6,18.688,18.688,0,0,1-1.154,3.956c-1.082,2.525-3.963,11.877-4.346,13.408-.188.752-.625,2.43-1.068,3.945-.247.845-.46,1.515-.632,1.989-.3.825-.436.97-.611.97-.364,0-3.3.092-3.33.093a.185.185,0,0,1-.19-.207c0-.016.184-1.572.184-2.2,0-.236.036-1.721.082-3.6.083-3.367.2-7.979.2-9.28a14.451,14.451,0,0,1,.388-3.334,6.324,6.324,0,0,1,1.33-2.816l.138-.148c1.132-1.215,2.2-2.363,1.945-4.147-.271-1.9-1.08-10.86-1.112-11.212l-.091-.454a.185.185,0,0,1,.189-.221c.023,0,2.348.1,4.1.373a11.316,11.316,0,0,0,1.4.054c4.014,0,14.3-.606,14.4-.612Zm.054,36.553c-.008-.452-.062-3.395-.147-5.6a100.438,100.438,0,0,1,.932-12.654,19.487,19.487,0,0,0,.553-6.686c-.34-1.867-1.389-9.952-1.555-11.236-1.372.08-10.515.6-14.252.6a11.36,11.36,0,0,1-1.461-.059c-1.4-.222-3.187-.326-3.82-.358l.046.231a.192.192,0,0,1,0,.02c.008.093.837,9.284,1.111,11.2a3.822,3.822,0,0,1-.485,2.5,10.66,10.66,0,0,1-1.556,1.949l-.138.148c-1.195,1.286-1.618,3.981-1.618,5.9,0,1.306-.113,5.92-.2,9.289-.046,1.877-.082,3.359-.082,3.591,0,.515-.112,1.576-.162,2.032.66-.02,2.616-.08,3.071-.086a4.251,4.251,0,0,0,.388-.92c.17-.487.374-1.145.609-1.955.425-1.468.835-3.047,1.011-3.749s.955-3.322,1.9-6.312c.641-2.021,1.813-5.637,2.462-7.152a18.371,18.371,0,0,0,1.131-3.883,8.227,8.227,0,0,1,.445-1.681c.369-.811.849-6.984,1-9.295a.185.185,0,0,1,.346-.079c.013.022,1.266,2.229,2.527,4.555a34.68,34.68,0,0,1,2.684,5.516c.013.088.026.17.039.249a3.175,3.175,0,0,1-.239,2.358c-.034.076-.072.156-.111.24a13.076,13.076,0,0,0-1.262,6.536c.091,3.913,2.249,10.913,2.271,10.984a.186.186,0,0,1,.008.043l.27,4.237c.387.151,1.7.667,2.4.98a.366.366,0,0,0,.152.031,1.928,1.928,0,0,0,1.124-.751A7.434,7.434,0,0,0,109.72,391.3Z" transform="translate(-82.021 -291.304)" fill="#263238"/>
      <path id="Path_2384" data-name="Path 2384" d="M90.4,446.861l.556,2.873s2.317,1.946,3.243,2.687,1.483.556,1.483,1.2-.649,1.668-2.224,1.946a12.663,12.663,0,0,1-5.467-.649,5.308,5.308,0,0,1-2.569-1.668s-.971.226-.971-.886a18.394,18.394,0,0,1,.8-3.632s-.371-1.379,0-1.564,1.627,1.171,1.627,1.171S87.063,445.1,90.4,446.861Z" transform="translate(-80.731 -348.944)" fill="#fff"/>
      <path id="Path_2384_-_Outline" data-name="Path 2384 - Outline" d="M88.35,445.837a4.03,4.03,0,0,1,1.821.545.185.185,0,0,1,.1.129l.543,2.808c.344.288,2.351,1.971,3.19,2.642a4.079,4.079,0,0,0,.9.541c.365.171.654.307.654.809a1.858,1.858,0,0,1-.573,1.241,3.224,3.224,0,0,1-1.8.888,7.053,7.053,0,0,1-1.216.1,15.016,15.016,0,0,1-4.337-.751,5.476,5.476,0,0,1-2.589-1.647c-.035,0-.077.006-.123.006a.969.969,0,0,1-.61-.2,1.084,1.084,0,0,1-.35-.893,17.61,17.61,0,0,1,.793-3.638,6.171,6.171,0,0,1-.13-.684c-.074-.591,0-.921.24-1.04a.364.364,0,0,1,.164-.037c.15,0,.423.066,1.064.642.132.118.254.235.354.335a3.125,3.125,0,0,1,.227-.685A1.784,1.784,0,0,1,88.35,445.837Zm1.57.832a3.578,3.578,0,0,0-1.57-.461A1.416,1.416,0,0,0,87,447.1a2.867,2.867,0,0,0-.253.944.185.185,0,0,1-.321.115s-.275-.3-.6-.584c-.578-.519-.779-.545-.814-.545h0c-.015.017-.1.137-.035.667a5.888,5.888,0,0,0,.133.682.185.185,0,0,1,0,.1,18.346,18.346,0,0,0-.792,3.576c0,.484.193.719.589.719a.8.8,0,0,0,.155-.014.187.187,0,0,1,.183.061,5.107,5.107,0,0,0,2.479,1.61h0a14.643,14.643,0,0,0,4.227.735,6.685,6.685,0,0,0,1.152-.092c1.509-.266,2.071-1.223,2.071-1.763,0-.257-.084-.306-.44-.473a4.462,4.462,0,0,1-.973-.587c-.918-.734-3.223-2.671-3.247-2.69a.185.185,0,0,1-.063-.107Z" transform="translate(-80.416 -348.629)" fill="#263238"/>
      <path id="Path_2385" data-name="Path 2385" d="M95.626,462.536a.856.856,0,0,0-.578.03,7.042,7.042,0,0,1-6.672.133,11.337,11.337,0,0,1-3.821-2.709,5.64,5.64,0,0,0-.115.982c0,1.112.971.886.971.886a5.308,5.308,0,0,0,2.572,1.657,12.664,12.664,0,0,0,5.467.649A2.562,2.562,0,0,0,95.626,462.536Z" transform="translate(-80.725 -357.536)" fill="#d2f4dc"/>
      <path id="Path_2385_-_Outline" data-name="Path 2385 - Outline" d="M91.952,464.129h0a15.016,15.016,0,0,1-4.336-.751,5.476,5.476,0,0,1-2.592-1.636c-.035,0-.077.006-.123.006a.969.969,0,0,1-.61-.2,1.084,1.084,0,0,1-.35-.893s0,0,0-.005a5.844,5.844,0,0,1,.119-1.014.185.185,0,0,1,.323-.082,11.157,11.157,0,0,0,3.76,2.662l0,0a6.857,6.857,0,0,0,6.5-.13l.02-.01a1.042,1.042,0,0,1,.7-.036.185.185,0,0,1,.125.227,2.732,2.732,0,0,1-2.322,1.76A7.051,7.051,0,0,1,91.952,464.129ZM85.1,461.358a.184.184,0,0,1,.14.065,5.107,5.107,0,0,0,2.482,1.6h0a14.644,14.644,0,0,0,4.227.735,6.685,6.685,0,0,0,1.152-.092,3.009,3.009,0,0,0,1.436-.628,1.933,1.933,0,0,0,.521-.668.668.668,0,0,0-.246.048,7.228,7.228,0,0,1-6.835.132,12.27,12.27,0,0,1-3.621-2.468,5.467,5.467,0,0,0-.048.577c0,.482.193.717.589.717a.8.8,0,0,0,.155-.014A.184.184,0,0,1,85.1,461.358Z" transform="translate(-80.41 -357.222)" fill="#263238"/>
      <path id="Path_2386" data-name="Path 2386" d="M140.392,447.484a1.245,1.245,0,0,0-1.349.678c-.415.871-.83,2.035-.83,2.035a12.363,12.363,0,0,1-2.072-.371,3.08,3.08,0,0,1-.83-.678s-.83-1.646-1.349-1.064.519,2.517.519,2.517a7.266,7.266,0,0,0-.83,2.52,5.652,5.652,0,0,0,.415,1.935,15.836,15.836,0,0,0,3.006.389c1.349,0,1.453-.389,2.906-.389s5.189.871,6.431.582,2.387-1.164,2.283-1.742-4.359-2.035-5.708-2.906-1.553-.775-1.761-1.164S140.392,447.484,140.392,447.484Z" transform="translate(-111.695 -349.652)" fill="#fff"/>
      <path id="Path_2386_-_Outline" data-name="Path 2386 - Outline" d="M139.847,446.962h0a1.436,1.436,0,0,1,.264.025.185.185,0,0,1,.142.126c.172.539.653,2,.817,2.312.09.169.157.209.5.39.247.132.621.331,1.2.7a23.471,23.471,0,0,0,2.708,1.293c.722.313,1.468.637,2.025.918.831.418,1.023.63,1.057.818.135.752-1.192,1.669-2.424,1.955a3.2,3.2,0,0,1-.71.064,25.437,25.437,0,0,1-3.236-.352,21.565,21.565,0,0,0-2.527-.289,5.021,5.021,0,0,0-1.466.194,5.026,5.026,0,0,1-1.44.2h-.006a16.058,16.058,0,0,1-3.041-.394.185.185,0,0,1-.13-.111,5.82,5.82,0,0,1-.429-2s0,0,0-.007a6.97,6.97,0,0,1,.807-2.521,8.428,8.428,0,0,1-.42-.979c-.286-.818-.3-1.362-.028-1.661a.512.512,0,0,1,.389-.187c.273,0,.563.219.885.669a5.376,5.376,0,0,1,.368.6,2.884,2.884,0,0,0,.746.61,12.218,12.218,0,0,0,1.876.345c.123-.335.457-1.222.788-1.916A1.44,1.44,0,0,1,139.847,446.962Zm.089.374c-.03,0-.06,0-.089,0a1.066,1.066,0,0,0-.952.6c-.406.851-.818,2-.822,2.016a.185.185,0,0,1-.192.122,12.579,12.579,0,0,1-2.1-.376.185.185,0,0,1-.042-.017,3.255,3.255,0,0,1-.879-.717.186.186,0,0,1-.026-.039c-.222-.438-.671-1.087-.933-1.087a.145.145,0,0,0-.113.063c-.16.179-.123.65.1,1.292a8.1,8.1,0,0,0,.442,1.014.185.185,0,0,1,0,.175,7.145,7.145,0,0,0-.808,2.43,5.449,5.449,0,0,0,.366,1.779,15.691,15.691,0,0,0,2.873.363,4.651,4.651,0,0,0,1.344-.183,5.4,5.4,0,0,1,1.559-.206,21.658,21.658,0,0,1,2.581.293,25.243,25.243,0,0,0,3.182.348,2.891,2.891,0,0,0,.626-.054,4.288,4.288,0,0,0,1.576-.729c.377-.288.6-.6.568-.8-.014-.032-.121-.188-.907-.58-.542-.27-1.262-.583-1.959-.885a23.561,23.561,0,0,1-2.761-1.322c-.566-.365-.931-.56-1.173-.689-.346-.185-.5-.269-.65-.543C140.558,449.25,140.074,447.762,139.937,447.337Z" transform="translate(-111.38 -349.337)" fill="#263238"/>
      <path id="Path_2387" data-name="Path 2387" d="M148.946,465c-1.431,1.446-3.336,1.223-4.952.9a22.239,22.239,0,0,0-6.064-.526,21.416,21.416,0,0,1-3.881-.13,5.809,5.809,0,0,0,.267.83,15.833,15.833,0,0,0,3.006.389c1.349,0,1.453-.389,2.906-.389s5.189.871,6.431.582C147.842,466.379,148.928,465.582,148.946,465Z" transform="translate(-111.947 -360.689)" fill="#b92056"/>
      <path id="Path_2387_-_Outline" data-name="Path 2387 - Outline" d="M148.632,464.5a.185.185,0,0,1,.185.191,1.6,1.6,0,0,1-.783,1.086,4.717,4.717,0,0,1-1.647.742,3.2,3.2,0,0,1-.71.064,25.43,25.43,0,0,1-3.236-.352,21.558,21.558,0,0,0-2.527-.289,5.022,5.022,0,0,0-1.466.194,5.026,5.026,0,0,1-1.44.2H137a16.053,16.053,0,0,1-3.041-.394.185.185,0,0,1-.13-.111,6.015,6.015,0,0,1-.275-.857.185.185,0,0,1,.2-.227,21.316,21.316,0,0,0,2.63.164c.4,0,.814-.012,1.217-.035.378-.019.76-.029,1.138-.029a22.459,22.459,0,0,1,4.976.559,10.054,10.054,0,0,0,1.965.237,3.755,3.755,0,0,0,2.816-1.084A.185.185,0,0,1,148.632,464.5Zm-12.243.777a21.7,21.7,0,0,1-2.4-.134c.045.154.1.306.154.455a15.687,15.687,0,0,0,2.873.363,4.651,4.651,0,0,0,1.344-.183,5.4,5.4,0,0,1,1.559-.206,21.665,21.665,0,0,1,2.581.293,25.249,25.249,0,0,0,3.182.348,2.891,2.891,0,0,0,.626-.054,4.42,4.42,0,0,0,1.241-.5,4.629,4.629,0,0,1-1.86.353,10.4,10.4,0,0,1-2.04-.245h0a22.087,22.087,0,0,0-4.9-.55c-.371,0-.747.01-1.118.028C137.216,465.265,136.8,465.277,136.388,465.277Z" transform="translate(-111.632 -360.375)" fill="#263238"/>
      <path id="Path_2388" data-name="Path 2388" d="M89.278,342.446,89,346.582a60.78,60.78,0,0,0,12.695,1.412,41,41,0,0,0,11.861-2.572l-1.2-4.314s-12.695-.082-15.2-.248-4.077-1.909-5-1.661-2.039,3.154-2.039,3.154Z" transform="translate(-83.595 -281.501)" fill="#fff"/>
      <path id="Path_2388_-_Outline" data-name="Path 2388 - Outline" d="M92.029,338.675h0a3.791,3.791,0,0,1,1.538.581,8.08,8.08,0,0,0,3.285,1.1c2.468.164,15.059.247,15.186.248a.185.185,0,0,1,.177.135l1.2,4.314a.185.185,0,0,1-.111.222c-.015.006-1.564.613-3.794,1.231a35.753,35.753,0,0,1-8.129,1.354c-.279.008-.568.012-.861.012a54.486,54.486,0,0,1-8.032-.714c-2.245-.353-3.832-.711-3.848-.714a.185.185,0,0,1-.144-.193l.278-4.136a.185.185,0,0,1,.164-.172l.723-.08c.092-.23.328-.8.639-1.4.555-1.068,1.041-1.645,1.483-1.764A.93.93,0,0,1,92.029,338.675Zm19.867,2.3c-1.394-.01-12.731-.092-15.068-.248a8.387,8.387,0,0,1-3.432-1.145,3.72,3.72,0,0,0-1.366-.539h0a.554.554,0,0,0-.145.018c-.187.05-.6.322-1.25,1.577a16.079,16.079,0,0,0-.663,1.465.185.185,0,0,1-.153.118l-.68.076-.257,3.823c.449.1,1.84.388,3.672.676a54.115,54.115,0,0,0,7.971.709c.289,0,.576,0,.851-.012a35.38,35.38,0,0,0,8.041-1.341c1.807-.5,3.158-.992,3.6-1.159Z" transform="translate(-83.28 -281.187)" fill="#263238"/>
      <path id="Path_2389" data-name="Path 2389" d="M111.722,332.557l.834,4.263s-1.761,1.019-7.135,1.483a81.789,81.789,0,0,1-12.231-.185l-1.3-2.78-.463,3.243H88.741A1.427,1.427,0,0,1,88,338.4l.834-3.428s.371-3.429,2.131-4.262,3.243.093,4.448,1.2,2.595.927,4.54.927S110.146,332,110.146,332,111.536,331.538,111.722,332.557Z" transform="translate(-82.965 -275.968)" fill="#969696"/>
      <path id="Path_2389_-_Outline" data-name="Path 2389 - Outline" d="M92.012,329.883a5.006,5.006,0,0,1,3.212,1.575,4.018,4.018,0,0,0,3.054.889c.2,0,.411,0,.63-.005s.478-.006.731-.006c1.87,0,9.712-.786,10.155-.831a2.564,2.564,0,0,1,.7-.108.984.984,0,0,1,1.092.812l.834,4.262a.185.185,0,0,1-.089.2,7.656,7.656,0,0,1-1.595.586,30.849,30.849,0,0,1-5.617.921c-1.289.111-2.775.168-4.415.168-4.071,0-7.813-.349-7.85-.353a.185.185,0,0,1-.15-.106l-1.034-2.216-.375,2.627a.185.185,0,0,1-.183.159H88.429a1.615,1.615,0,0,1-.835-.209.185.185,0,0,1-.089-.205l.831-3.417a10.25,10.25,0,0,1,.412-1.843,4,4,0,0,1,1.823-2.554A3.355,3.355,0,0,1,92.012,329.883Zm6.266,2.835a7.418,7.418,0,0,1-1.771-.162,3.426,3.426,0,0,1-1.534-.826,4.674,4.674,0,0,0-2.96-1.477,2.988,2.988,0,0,0-1.283.3c-1.648.781-2.023,4.082-2.026,4.115a.185.185,0,0,1,0,.024l-.8,3.285a1.245,1.245,0,0,0,.521.1h2.531L91.394,335a.185.185,0,0,1,.351-.052L93,337.628c.635.056,4.037.342,7.71.342,1.629,0,3.1-.056,4.383-.166a30.619,30.619,0,0,0,5.52-.9,9.245,9.245,0,0,0,1.422-.5l-.807-4.125v0c-.023-.126-.093-.509-.728-.509a2.181,2.181,0,0,0-.607.1.184.184,0,0,1-.04.009c-.337.034-8.279.835-10.212.835-.251,0-.492,0-.726.006S98.483,332.718,98.278,332.718Z" transform="translate(-82.651 -275.654)" fill="#263238"/>
      <path id="Path_2390" data-name="Path 2390" d="M143.07,251.118s3.336,8.525,4.726,11.583,2.687,6.579,2.5,8.525-2.5,7.042-2.5,7.042-2.224-14.641-2.687-16.123-2.595-9.73-2.595-9.73S141.588,250.655,143.07,251.118Z" transform="translate(-117.094 -226.034)" fill="#b92056"/>
      <path id="Path_2390_-_Outline" data-name="Path 2390 - Outline" d="M142.332,250.54a1.628,1.628,0,0,1,.48.086.185.185,0,0,1,.117.109c.033.085,3.35,8.555,4.722,11.574,1.259,2.77,2.718,6.514,2.518,8.619-.186,1.954-2.423,6.892-2.518,7.1a.185.185,0,0,1-.352-.049c-.022-.146-2.227-14.644-2.681-16.1-.448-1.435-2.475-9.265-2.592-9.719a3.589,3.589,0,0,1-.2-.477,1.1,1.1,0,0,1-.012-.9A.555.555,0,0,1,142.332,250.54Zm.285.415a1.133,1.133,0,0,0-.285-.045c-.152,0-.185.054-.2.075-.113.188.07.725.23,1.029a.185.185,0,0,1,.015.04c.021.082,2.135,8.259,2.592,9.721.413,1.32,2.162,12.674,2.6,15.524.606-1.387,2.086-4.9,2.23-6.4a10.437,10.437,0,0,0-.652-3.772,42.206,42.206,0,0,0-1.834-4.659C146.012,259.6,142.97,251.855,142.617,250.956Z" transform="translate(-116.78 -225.72)" fill="#263238"/>
      <path id="Path_2391" data-name="Path 2391" d="M89.312,238.037a11.317,11.317,0,0,0-2.546,4.489c-.6,2.469-1.045,33.288-1.045,33.811s2.224-.675,2.691-.9,2.32-3.74,2.32-3.74l.9,3.588s4.114-.449,7.558-.449,12.491-.823,12.491-.823a55.01,55.01,0,0,0,.741-7.706c-.082-2.695-.649-6.953-.649-7.628s-2.843-14.885-3.888-16.98a20.164,20.164,0,0,0-2.621-4.114,13.529,13.529,0,0,0-5.46-1.853c-2.543-.13-4.262-.823-6.509.226S89.312,238.037,89.312,238.037Z" transform="translate(-81.53 -216.185)" fill="#b92056"/>
      <path id="Path_2391_-_Outline" data-name="Path 2391 - Outline" d="M95.6,234.89h0a16.836,16.836,0,0,1,2.013.164c.594.072,1.207.146,1.884.181a11.08,11.08,0,0,1,3.661.934,14.452,14.452,0,0,1,1.891.949,19.446,19.446,0,0,1,2.685,4.186c.605,1.213,1.733,6.2,2.351,9.066.785,3.639,1.556,7.6,1.556,8,0,.241.08,1,.18,1.958.176,1.674.417,3.966.468,5.664a55.512,55.512,0,0,1-.744,7.741.185.185,0,0,1-.166.155c-.091.008-9.1.824-12.508.824-3.394,0-7.5.443-7.537.447a.185.185,0,0,1-.2-.139l-.78-3.122c-.186.343-.465.853-.761,1.368-1.072,1.864-1.313,1.979-1.416,2.028-.06.029-.151.074-.266.132a7.861,7.861,0,0,1-2.319.914c-.274,0-.371-.17-.371-.316,0-.3.443-31.356,1.05-33.855a10.175,10.175,0,0,1,1.526-3.231,11.562,11.562,0,0,1,1.067-1.342.185.185,0,0,1,.039-.031c.017-.01,1.768-1.043,4-2.084A6.161,6.161,0,0,1,95.6,234.89Zm15.6,38.639a53.117,53.117,0,0,0,.716-7.529c-.051-1.685-.291-3.969-.466-5.637-.106-1.008-.182-1.736-.182-2,0-.293-.665-3.826-1.548-7.918a64.135,64.135,0,0,0-2.321-8.978,27.156,27.156,0,0,0-1.594-2.749,8.671,8.671,0,0,0-.964-1.294,14.042,14.042,0,0,0-1.83-.917,11.1,11.1,0,0,0-3.536-.905c-.689-.035-1.31-.11-1.91-.183a16.56,16.56,0,0,0-1.968-.161h0a5.726,5.726,0,0,0-2.543.553c-2.076.969-3.733,1.931-3.943,2.054a11.707,11.707,0,0,0-1.016,1.283,9.8,9.8,0,0,0-1.467,3.1c-.243,1-.5,7.086-.743,17.6-.177,7.682-.29,15.351-.3,16.117a8.934,8.934,0,0,0,2.153-.874c.117-.059.209-.105.273-.135.041-.021.3-.21,1.258-1.885.512-.891.973-1.765.978-1.774a.185.185,0,0,1,.344.041l.858,3.432c.8-.082,4.385-.433,7.417-.433C102.03,274.339,110.03,273.634,111.2,273.529Z" transform="translate(-81.216 -215.87)" fill="#263238"/>
      <path id="Path_2392" data-name="Path 2392" d="M137.288,293.926a.185.185,0,0,1-.185-.185v-3.365c0-1.439-.831-11.115-1.2-13.512-.37-2.438-1.632-9.723-1.645-9.8a.185.185,0,0,1,.365-.063c.013.073,1.276,7.362,1.646,9.8.365,2.406,1.2,12.122,1.2,13.568v3.365A.185.185,0,0,1,137.288,293.926Z" transform="translate(-112.079 -235.984)" fill="#263238"/>
      <path id="Path_2393" data-name="Path 2393" d="M131.1,298.14h-.006a.185.185,0,0,1-.179-.192,65.782,65.782,0,0,0-.531-10.66c-.74-4.358-2.153-11.665-2.168-11.738a.185.185,0,0,1,.364-.07c.014.073,1.429,7.384,2.169,11.746a66.186,66.186,0,0,1,.536,10.734A.185.185,0,0,1,131.1,298.14Z" transform="translate(-108.271 -241.321)" fill="#263238"/>
      <path id="Path_2394" data-name="Path 2394" d="M107.044,277.643a.185.185,0,0,1-.015-.37l6.01-.506-.165-1.051-6.261.581a.185.185,0,0,1-.034-.369l6.435-.6a.185.185,0,0,1,.2.156l.222,1.42a.185.185,0,0,1-.168.213l-6.208.523Z" transform="translate(-94.552 -241.321)" fill="#263238"/>
      <path id="Path_2395" data-name="Path 2395" d="M140.2,274.842a.185.185,0,0,1-.18-.143l-.3-1.271a.185.185,0,0,1,.166-.227l3.74-.3a.185.185,0,1,1,.03.369l-3.525.283.214.9,3.131-.282a.185.185,0,1,1,.033.369l-3.291.3Z" transform="translate(-115.509 -239.792)" fill="#263238"/>
      <path id="Path_2396" data-name="Path 2396" d="M103.275,223.72s-3.443-.671-4.489-.222-2.02,2.242-2.32,2.843-3.44,1.853-3.666,2.765a4.011,4.011,0,0,0,.3,2.769c.374.374,2.543.226,3.069.371s7.554,4.789,8.751,5.538,3.291,1.794,3.592,1.483a29.662,29.662,0,0,0,2.457-7.091c.289-2.161-.078-2.695-1.049-4.489S105.069,223.957,103.275,223.72Z" transform="translate(-85.919 -208.603)" fill="#263238"/>
      <path id="Path_2396_-_Outline" data-name="Path 2396 - Outline" d="M99.617,222.843h0a21.44,21.44,0,0,1,3.373.379,11.981,11.981,0,0,1,3.692,1.421,8.408,8.408,0,0,1,3.087,2.64l.141.259a8.848,8.848,0,0,1,.9,1.984,6.019,6.019,0,0,1,.031,2.358,24.371,24.371,0,0,1-1.234,4.279,17.553,17.553,0,0,1-1.273,2.916.431.431,0,0,1-.323.113,10.861,10.861,0,0,1-3.5-1.567c-.335-.21-1.112-.714-2.095-1.353-1.258-.818-2.823-1.835-4.124-2.663a23.991,23.991,0,0,0-2.483-1.5,6.664,6.664,0,0,0-1.052-.075c-1.095-.034-1.832-.076-2.1-.343a2.459,2.459,0,0,1-.429-1.294,5.076,5.076,0,0,1,.079-1.65c.149-.6,1.229-1.23,2.274-1.838a5.67,5.67,0,0,0,1.406-.965c.283-.566,1.293-2.45,2.413-2.93A3.244,3.244,0,0,1,99.617,222.843Zm8.453,15.972a20,20,0,0,0,1.193-2.8,22.846,22.846,0,0,0,1.209-4.184,5.186,5.186,0,0,0-.887-4.116l-.141-.26a7.722,7.722,0,0,0-2.942-2.493,11.579,11.579,0,0,0-3.565-1.377l-.011,0a21.578,21.578,0,0,0-3.308-.373h0a2.968,2.968,0,0,0-1.072.139,6.312,6.312,0,0,0-2.228,2.755c-.145.29-.684.614-1.551,1.12-.839.489-1.989,1.159-2.1,1.607a3.933,3.933,0,0,0,.251,2.593c.033.033.163.115.665.17.357.039.8.053,1.184.065a6.424,6.424,0,0,1,1.139.088c.377.1,3.262,1.967,6.711,4.209.982.638,1.757,1.142,2.089,1.35a10.939,10.939,0,0,0,3.3,1.511A.228.228,0,0,0,108.07,238.815Z" transform="translate(-85.605 -208.288)" fill="#263238"/>
      <path id="Path_2397" data-name="Path 2397" d="M116.893,207.64s.526,3.291.526,4.188a39.65,39.65,0,0,1-1.42,5.163s2.843,6.134,4.414,7.854a10.127,10.127,0,0,0,2.32,2.094s.222-3.517.448-5.163,2.595-6.457,2.595-6.457-3.562.549-4.01-1.772-.3-4.337-.741-5.534S117.794,207.113,116.893,207.64Z" transform="translate(-100.587 -198.431)" fill="#fff"/>
      <path id="Path_2397_-_Outline" data-name="Path 2397 - Outline" d="M118.758,206.68h0c1.145,0,1.9.339,2.127.955a10.408,10.408,0,0,1,.393,2.582,25.932,25.932,0,0,0,.356,2.981,1.822,1.822,0,0,0,1.163,1.37,4.735,4.735,0,0,0,1.785.308,6.3,6.3,0,0,0,.852-.054.185.185,0,0,1,.194.265c-.024.048-2.358,4.8-2.577,6.4-.223,1.62-.445,5.115-.447,5.15a.185.185,0,0,1-.268.154,10.213,10.213,0,0,1-2.374-2.135c-1.573-1.721-4.329-7.65-4.446-7.9a.185.185,0,0,1-.008-.136,36.692,36.692,0,0,0,1.41-5.1c0-.872-.519-4.126-.524-4.159a.185.185,0,0,1,.089-.189A5.1,5.1,0,0,1,118.758,206.68Zm5.825,8.567c-1.094,0-2.979-.257-3.312-1.978a26.229,26.229,0,0,1-.362-3.022,10.216,10.216,0,0,0-.372-2.483c-.237-.643-1.323-.713-1.779-.713a5.1,5.1,0,0,0-1.976.376c.1.63.508,3.277.508,4.087a36.678,36.678,0,0,1-1.406,5.152c.313.668,2.9,6.157,4.352,7.741a13.671,13.671,0,0,0,2.019,1.893c.06-.9.244-3.517.429-4.862.2-1.434,1.939-5.121,2.465-6.212C125,215.237,124.8,215.247,124.583,215.247Z" transform="translate(-100.272 -198.116)" fill="#263238"/>
      <path id="Path_2398" data-name="Path 2398" d="M129.149,225.629l-1.709-.319.141,1.483a10.374,10.374,0,0,0,3.021,4.144,3.742,3.742,0,0,0,.319.2c.408-1.179,2.046-4.4,2.046-4.4S129.871,227.59,129.149,225.629Z" transform="translate(-107.787 -209.841)" fill="#263238"/>
      <path id="Path_2398_-_Outline" data-name="Path 2398 - Outline" d="M127.125,224.81a.184.184,0,0,1,.034,0l1.709.319a.185.185,0,0,1,.14.118c.287.777,1.022,1.171,2.185,1.171a5.986,5.986,0,0,0,1.409-.178.185.185,0,0,1,.214.263c-.016.032-1.637,3.227-2.036,4.38a.185.185,0,0,1-.267.1,3.943,3.943,0,0,1-.335-.214,8.855,8.855,0,0,1-2.3-2.655,11.524,11.524,0,0,1-.786-1.573.185.185,0,0,1-.012-.049l-.141-1.483a.185.185,0,0,1,.184-.2Zm1.574.668-1.366-.255.115,1.212a11.626,11.626,0,0,0,.753,1.5,8.481,8.481,0,0,0,2.193,2.536q.057.04.115.079c.4-1.047,1.4-3.053,1.8-3.863a6.326,6.326,0,0,1-1.118.106A2.442,2.442,0,0,1,128.7,225.478Z" transform="translate(-107.472 -209.526)" fill="#263238"/>
      <path id="Path_2399" data-name="Path 2399" d="M130.152,204.622l-.119,2.053s1.853,1.342,2.039,1.99-.9,1.483-.9,1.483a23.267,23.267,0,0,1-.474,4.1c-.308.556-1.853.6-2.706.608s-5.082-1.208-5.812-1.853a10.986,10.986,0,0,1-1.612-2.965s-.934-3.31-1.079-3.814.371-1.193,2.595-1.894S130.27,203.658,130.152,204.622Z" transform="translate(-102.77 -196.332)" fill="#fff"/>
      <path id="Path_2399_-_Outline" data-name="Path 2399 - Outline" d="M126.163,203.345c.955,0,3.232.062,3.743.639a.431.431,0,0,1,.116.338l-.113,1.948c.155.115.508.383.88.7a3.611,3.611,0,0,1,1.146,1.328,1.294,1.294,0,0,1-.416,1.156,4.127,4.127,0,0,1-.478.47c-.012.243-.053.985-.118,1.765a6.668,6.668,0,0,1-.375,2.332c-.165.3-.585.5-1.283.6a11.546,11.546,0,0,1-1.584.1h-.009a15.943,15.943,0,0,1-3.009-.694,11.756,11.756,0,0,1-2.917-1.206,10.908,10.908,0,0,1-1.663-3.038l-.005-.016c-.009-.033-.936-3.315-1.078-3.813-.072-.25-.048-.637.469-1.067a6.921,6.921,0,0,1,2.248-1.055A16.833,16.833,0,0,1,126.163,203.345Zm1.509,11.01h.006a11.206,11.206,0,0,0,1.531-.1c.746-.114.956-.31,1.014-.416a20.906,20.906,0,0,0,.451-4.018.185.185,0,0,1,.072-.138c.255-.2.955-.855.832-1.285a7.2,7.2,0,0,0-1.969-1.891.185.185,0,0,1-.076-.161l.119-2.053s0-.008,0-.012,0-.023-.025-.054c-.226-.256-1.386-.514-3.465-.514a16.727,16.727,0,0,0-4.336.475c-1.694.534-2.618,1.157-2.472,1.666.14.487,1.025,3.623,1.077,3.807a10.765,10.765,0,0,0,1.559,2.885,10.6,10.6,0,0,0,2.78,1.129A15.429,15.429,0,0,0,127.672,214.355Z" transform="translate(-102.456 -196.017)" fill="#263238"/>
      <path id="Path_2400" data-name="Path 2400" d="M115.993,209.675a.942.942,0,0,0,1.483.423,3.514,3.514,0,0,0,1.153-2.057l-5.664,1.535s-.441,2.305.448,3.4,2.187.474,2.113-.467A11.523,11.523,0,0,1,115.993,209.675Z" transform="translate(-98.608 -198.972)" fill="#263238"/>
      <path id="Path_2400_-_Outline" data-name="Path 2400 - Outline" d="M118.311,207.54a.185.185,0,0,1,.183.216,3.709,3.709,0,0,1-1.214,2.166l-.012.009a1.232,1.232,0,0,1-.728.274,1.053,1.053,0,0,1-.791-.4,9.376,9.376,0,0,0-.356,2.375,1.119,1.119,0,0,1-.3.857,1.247,1.247,0,0,1-.916.393,1.6,1.6,0,0,1-1.228-.651c-.933-1.151-.505-3.457-.487-3.554a.185.185,0,0,1,.134-.144l5.664-1.535A.185.185,0,0,1,118.311,207.54Zm-1.269,2.1a3.339,3.339,0,0,0,1.023-1.654l-5.255,1.424c-.071.466-.288,2.254.429,3.138a1.237,1.237,0,0,0,.94.514.876.876,0,0,0,.644-.274.753.753,0,0,0,.2-.576,11.49,11.49,0,0,1,.474-2.9.185.185,0,0,1,.347-.025c0,.005.256.551.7.551A.87.87,0,0,0,117.042,209.638Z" transform="translate(-98.291 -198.657)" fill="#263238"/>
      <path id="Path_2401" data-name="Path 2401" d="M143.194,222.826a3.3,3.3,0,0,1-2.042-.663.185.185,0,0,1,.248-.276,3.036,3.036,0,0,0,1.832.568.185.185,0,0,1,.011.37Z" transform="translate(-116.377 -207.657)" fill="#263238"/>
      <path id="Path_2402" data-name="Path 2402" d="M142.2,210.961c.1.337.044.649-.115.693s-.371-.193-.463-.53-.041-.649.119-.693S142.1,210.639,142.2,210.961Z" transform="translate(-116.683 -200.474)" fill="#263238"/>
      <path id="Path_2403" data-name="Path 2403" d="M111,194.718s3.336-.556,7.372-1.694,5.79-1.79,5.79-1.79l-1.8-5.686a2.15,2.15,0,0,0-1.112-1.112c-1.153-.519-3.547-.4-5.271-.133-2.457.371-4.359,1.079-5.341,2.832a6.49,6.49,0,0,0-.549,4.663C110.36,192.72,111,194.718,111,194.718Z" transform="translate(-96.737 -183.89)" fill="#263238"/>
      <path id="Path_2403_-_Outline" data-name="Path 2403 - Outline" d="M110.685,194.589a.185.185,0,0,1-.176-.129c-.006-.02-.645-2.011-.913-2.925l0-.006a6.66,6.66,0,0,1,.564-4.8l0,0a4.851,4.851,0,0,1,2.2-2.01,11.211,11.211,0,0,1,3.277-.914,19.266,19.266,0,0,1,2.85-.23,6.479,6.479,0,0,1,2.523.377,2.328,2.328,0,0,1,1.207,1.207l.007.018,1.8,5.686a.185.185,0,0,1-.112.23c-.018.007-1.806.668-5.8,1.795s-7.359,1.693-7.392,1.7Zm-.733-3.155c.224.763.705,2.275.86,2.76.708-.125,3.705-.678,7.195-1.662,3.3-.93,5.085-1.54,5.609-1.726l-1.744-5.506a1.958,1.958,0,0,0-1.012-1.007h0a6.233,6.233,0,0,0-2.372-.345,18.889,18.889,0,0,0-2.794.226c-2.811.424-4.368,1.243-5.207,2.737A6.291,6.291,0,0,0,109.952,191.434Z" transform="translate(-96.421 -183.575)" fill="#263238"/>
      <path id="Path_2404" data-name="Path 2404" d="M129.1,202.23a84.871,84.871,0,0,0,8.469-.834c2.343-.5,4.274-3.306,4.274-3.306l-5.612.741a12.921,12.921,0,0,0-7.131,3.4Z" transform="translate(-108.832 -192.71)" fill="#263238"/>
      <path id="Path_2404_-_Outline" data-name="Path 2404 - Outline" d="M128.785,202.1a.185.185,0,0,1-.127-.32,13.106,13.106,0,0,1,7.234-3.448l5.612-.741a.185.185,0,0,1,.177.289,11.4,11.4,0,0,1-1.281,1.491,6.582,6.582,0,0,1-3.106,1.891,83.444,83.444,0,0,1-8.5.838Zm12.329-4.084-5.174.683a12.656,12.656,0,0,0-6.641,3,75.93,75.93,0,0,0,7.916-.8C138.974,200.522,140.519,198.771,141.115,198.017Z" transform="translate(-108.517 -192.395)" fill="#263238"/>
      <path id="Path_2405" data-name="Path 2405" d="M118.445,211.818s-.519-1.564-1.853-1.034-.6,3.125.4,4.162,2.224-.393,2.224-.393" transform="translate(-100.504 -200.63)" fill="#fff"/>
      <path id="Path_2405_-_Outline" data-name="Path 2405 - Outline" d="M117.489,215.194a1.287,1.287,0,0,1-.949-.435,4.515,4.515,0,0,1-1.12-3.466,1.3,1.3,0,0,1,.789-1,1.4,1.4,0,0,1,1.144,0,2.108,2.108,0,0,1,.953,1.15.185.185,0,0,1-.352.117,1.755,1.755,0,0,0-.76-.932,1.045,1.045,0,0,0-.849.011.938.938,0,0,0-.564.731,4.154,4.154,0,0,0,1.026,3.131.915.915,0,0,0,.706.32,2.1,2.1,0,0,0,1.243-.706.185.185,0,1,1,.281.242,2.449,2.449,0,0,1-1.515.834Z" transform="translate(-100.189 -200.314)" fill="#263238"/>
      <path id="Path_2406" data-name="Path 2406" d="M140.41,290.653l6.52-4.874a.223.223,0,0,1,.152-.041l4.57.437a.267.267,0,0,1,.111.493l-5.812,3.473Z" transform="translate(-115.949 -247.871)" fill="#263238"/>
      <path id="Path_2406_-_Outline" data-name="Path 2406 - Outline" d="M140.1,290.524a.185.185,0,0,1-.111-.334l6.52-4.874,0,0a.405.405,0,0,1,.238-.077l.041,0,4.569.437h0a.452.452,0,0,1,.188.835h0l-5.812,3.473a.185.185,0,0,1-.078.025l-5.541.511Zm6.629-4.909-5.992,4.479,4.845-.447,5.774-3.451a.082.082,0,0,0-.034-.15l-4.569-.437h0A.037.037,0,0,0,146.724,285.614Z" transform="translate(-115.635 -247.556)" fill="#263238"/>
      <path id="Path_2407" data-name="Path 2407" d="M129.372,292.735a3.035,3.035,0,0,0,1.724-.741c.671-.675,1.853-2.695,2.391-2.843a32.031,32.031,0,0,1,3.74-.6c.526,0,.823.371.371.823a15.915,15.915,0,0,1-2.543,1.423l-.222.741s5.682-.671,6.134-.671a.8.8,0,0,1,.741.741c0,.3-1.2,1.2-1.568,1.568a29.427,29.427,0,0,1-2.921,2.172c-.523.3-5.908-.152-6.131-.152s-1.8.371-1.8.371Z" transform="translate(-108.951 -249.641)" fill="#fff"/>
      <path id="Path_2407_-_Outline" data-name="Path 2407 - Outline" d="M128.975,295.437a.185.185,0,0,1-.185-.191l.082-2.832a.185.185,0,0,1,.168-.179,2.833,2.833,0,0,0,1.614-.692,11.993,11.993,0,0,0,.939-1.2c.71-.981,1.168-1.584,1.53-1.684l.009,0a32.332,32.332,0,0,1,3.762-.6h.018a.757.757,0,0,1,.74.39.668.668,0,0,1-.238.749,14.522,14.522,0,0,1-2.52,1.425l-.117.392c1.163-.137,5.471-.639,5.876-.639h.013a.986.986,0,0,1,.914.914s0,.008,0,.012c0,.253-.335.581-1.136,1.268-.2.168-.381.326-.486.431l-.011.011A29.728,29.728,0,0,1,137,295.188l-.01.006a2.863,2.863,0,0,1-1.228.125c-1.338,0-3.444-.147-4.456-.218-.27-.019-.5-.035-.538-.035-.126,0-.991.186-1.755.366A.184.184,0,0,1,128.975,295.437Zm.262-2.852-.07,2.431c.478-.11,1.415-.321,1.605-.321.044,0,.2.01.564.036,1.008.07,3.105.217,4.43.217a3.361,3.361,0,0,0,1.042-.076,29.352,29.352,0,0,0,2.89-2.149c.115-.115.294-.268.5-.445.224-.192.478-.409.677-.6a1.392,1.392,0,0,0,.329-.388.614.614,0,0,0-.561-.552c-.385,0-4.156.439-6.106.67a.185.185,0,0,1-.2-.237l.222-.741a.185.185,0,0,1,.1-.115,14.848,14.848,0,0,0,2.49-1.386c.133-.133.192-.262.158-.345s-.165-.159-.388-.161a31.967,31.967,0,0,0-3.7.595c-.062.019-.213.11-.537.5-.245.294-.521.675-.788,1.044a12,12,0,0,1-.98,1.251l-.009.009A3.2,3.2,0,0,1,129.237,292.585Z" transform="translate(-108.636 -249.326)" fill="#263238"/>
      <path id="Path_2408" data-name="Path 2408" d="M148.022,299.455a10.375,10.375,0,0,1-1.5-.134.185.185,0,0,1,.06-.366,5.37,5.37,0,0,0,2.2.022,20.39,20.39,0,0,1,2.969-.843.185.185,0,1,1,.08.362,19.484,19.484,0,0,0-2.865.8A2.123,2.123,0,0,1,148.022,299.455Z" transform="translate(-119.7 -255.67)" fill="#263238"/>
      <path id="Path_2409" data-name="Path 2409" d="M146.955,303.137a.185.185,0,0,1-.008-.37l1.7-.073,1.622-.515a.185.185,0,0,1,.112.353l-1.646.523a.185.185,0,0,1-.048.009l-1.72.074Z" transform="translate(-119.952 -258.212)" fill="#263238"/>
      <path id="Path_2410" data-name="Path 2410" d="M86.627,251.451c.074,1.345-1.572,9.5-1.572,9.5l.371,1.2v.3l10.4,2.839a17.549,17.549,0,0,1-.448,4.114,27.458,27.458,0,0,0-.823,3.517s-4.563-1.112-8.3-2.394-9.578-3.139-10.7-4.414-.448-4.485-.3-5.011,4.337-11.52,5.159-13.014,2.02-2.917,3.592-2.469a5.042,5.042,0,0,1,2.917,3.366" transform="translate(-74.732 -222.568)" fill="#b92056"/>
      <path id="Path_2410_-_Outline" data-name="Path 2410 - Outline" d="M94.237,272.788a.185.185,0,0,1-.044-.005c-.046-.011-4.614-1.129-8.319-2.4q-.661-.227-1.4-.476c-1.832-.62-3.908-1.323-5.656-2.014a11.237,11.237,0,0,1-3.72-1.977A4.138,4.138,0,0,1,74.426,263a11.7,11.7,0,0,1,.332-2.267c.078-.278,1.17-3.176,2.332-6.161.858-2.2,2.369-6.032,2.843-6.892,1.151-2.089,2.431-2.949,3.8-2.557a4.3,4.3,0,0,1,2.089,1.58,5,5,0,0,1,.96,1.933.185.185,0,0,1-.366.06,4.623,4.623,0,0,0-.889-1.769,3.9,3.9,0,0,0-1.9-1.449c-1.186-.338-2.322.462-3.378,2.38-.794,1.441-5,12.448-5.143,12.974-.192.682-.75,3.687.261,4.839.955,1.087,5.73,2.7,9.217,3.885q.74.251,1.4.476c3.257,1.117,7.185,2.115,8.093,2.342a27.75,27.75,0,0,1,.795-3.344l0-.008a16.358,16.358,0,0,0,.437-3.911l-10.259-2.8a.185.185,0,0,1-.137-.179v-.272l-.362-1.17a.185.185,0,0,1,0-.091c.016-.081,1.64-8.146,1.568-9.453a.185.185,0,1,1,.37-.02c.072,1.315-1.419,8.772-1.566,9.5l.357,1.152a.185.185,0,0,1,.008.055v.159l10.26,2.8a.185.185,0,0,1,.137.179,17.437,17.437,0,0,1-.458,4.172,27.369,27.369,0,0,0-.816,3.49.185.185,0,0,1-.183.155Z" transform="translate(-74.417 -222.252)" fill="#263238"/>
      <path id="Path_2411" data-name="Path 2411" d="M87.855,290.238a.185.185,0,0,1-.095-.345,11.442,11.442,0,0,1,1.82-.87l.025-.007a14.3,14.3,0,0,1,3.372.449.185.185,0,1,1-.082.361,14.436,14.436,0,0,0-3.2-.451,11.067,11.067,0,0,0-1.748.837A.184.184,0,0,1,87.855,290.238Z" transform="translate(-82.758 -249.917)" fill="#263238"/>
      <path id="Path_2412" data-name="Path 2412" d="M81.975,293.7a.185.185,0,0,1-.094-.345c.006,0,.64-.376,1.4-.806a.185.185,0,0,1,.182.323c-.757.428-1.388.8-1.395.8A.185.185,0,0,1,81.975,293.7Z" transform="translate(-79.057 -252.146)" fill="#263238"/>
      <path id="Path_2413" data-name="Path 2413" d="M83.785,285.093a.185.185,0,0,1-.08-.353c.006,0,.591-.283,1.232-.559a4.984,4.984,0,0,1,1.691-.571l.033,0a4.749,4.749,0,0,1,1.2.386.185.185,0,1,1-.159.335,4.38,4.38,0,0,0-1.092-.352,15.135,15.135,0,0,0-2.748,1.093A.185.185,0,0,1,83.785,285.093Z" transform="translate(-80.196 -246.532)" fill="#263238"/>
      <path id="Path_2414" data-name="Path 2414" d="M98.274,286.627a.185.185,0,0,1-.08-.018s-.434-.21-.974-.454a.185.185,0,1,1,.153-.338c.544.246.978.456.983.458a.185.185,0,0,1-.081.352Z" transform="translate(-88.699 -247.91)" fill="#263238"/>
    </g>
  </g>
</svg>
