<svg xmlns="http://www.w3.org/2000/svg" width="160.63" height="161" viewBox="0 0 160.63 161">
  <g id="My_password-pana" data-name="My password-pana" transform="translate(-27 -45.43)">
    <g id="freepik--Padlock--inject-43" transform="translate(28.077 55.258)">
      <path id="Path_1317" data-name="Path 1317" d="M61.73,72.974a13.376,13.376,0,0,0-7.3,17.425l8.294,20.245,3.7-1.521L58.133,88.874A9.338,9.338,0,0,1,75.417,81.8l3.72-1.525A13.369,13.369,0,0,0,61.73,72.974Z" transform="translate(-44.727 -71.983)" fill="#db532a"/>
      <g id="Group_79" data-name="Group 79" transform="translate(8.706 0)">
        <path id="Path_1318" data-name="Path 1318" d="M61.73,72.974a13.376,13.376,0,0,0-7.3,17.425l8.294,20.245,3.7-1.521L58.133,88.874A9.338,9.338,0,0,1,75.417,81.8l3.72-1.525A13.369,13.369,0,0,0,61.73,72.974Z" transform="translate(-53.433 -71.983)" fill="#25304e"/>
      </g>
      <rect id="Rectangle_133" data-name="Rectangle 133" width="36.009" height="23.103" rx="5.81" transform="translate(10.011 31.414) rotate(-22.27)" fill="#b92056"/>
      <g id="Group_80" data-name="Group 80" transform="translate(26.89 29.475)" opacity="0.5">
        <path id="Path_1319" data-name="Path 1319" d="M108.362,153.5a3.009,3.009,0,1,0-2.45,4.119l1.7,4.164,1.521-.622L107.429,157A3,3,0,0,0,108.362,153.5Z" transform="translate(-102.563 -151.62)"/>
      </g>
      <path id="Path_1320" data-name="Path 1320" d="M72.056,180.076c-.078.033-1.6-3.509-3.4-7.906s-3.2-7.987-3.124-8.02,1.6,3.509,3.4,7.909S72.13,180.046,72.056,180.076Z" transform="translate(-52.348 -130.037)" fill="#fafafa"/>
      <path id="Path_1321" data-name="Path 1321" d="M102.819,158.517a1.025,1.025,0,0,1-.4-.052,3.752,3.752,0,0,1-1.018-.44,4.212,4.212,0,0,1-1.01-6.425,3.52,3.52,0,0,1,.833-.74,1,1,0,0,1,.37-.174,9.6,9.6,0,0,0-1.036,1.033,4.175,4.175,0,0,0,.962,6.118A9.752,9.752,0,0,0,102.819,158.517Z" transform="translate(-73.636 -121.555)" fill="#fafafa"/>
      <path id="Path_1322" data-name="Path 1322" d="M42.9,180.816l.181-.526.344.437a2.3,2.3,0,0,0,1.066.74l.526.181-.437.344a2.346,2.346,0,0,0-.74,1.066l-.178.537-.37-.433a2.335,2.335,0,0,0-1.07-.74l-.522-.181.433-.344A2.346,2.346,0,0,0,42.9,180.816Z" transform="translate(-37.336 -140.204)" fill="#b92056"/>
      <path id="Path_1323" data-name="Path 1323" d="M91.2,125.4l.1-.3.2.252a1.366,1.366,0,0,0,.622.452l.3.1-.252.2a1.343,1.343,0,0,0-.44.618l-.1.3-.211-.266a1.31,1.31,0,0,0-.618-.437l-.307-.107.255-.2a1.362,1.362,0,0,0,.448-.618Z" transform="translate(-68.075 -105.441)" fill="#b92056"/>
      <path id="Path_1324" data-name="Path 1324" d="M31.916,131.365l.3-.885.581.74a3.879,3.879,0,0,0,1.791,1.266l.881.3-.74.581a3.912,3.912,0,0,0-1.269,1.791l-.3.881-.577-.74a3.886,3.886,0,0,0-1.791-1.269l-.881-.3.74-.577A3.916,3.916,0,0,0,31.916,131.365Z" transform="translate(-29.91 -108.829)" fill="#b92056"/>
    </g>
    <g id="freepik--Device--inject-43" transform="translate(65.607 45.43)">
      <path id="Path_1325" data-name="Path 1325" d="M197.838,206.234l-54.633-.033a11.9,11.9,0,0,1-11.9-11.9l.026-136.969a11.9,11.9,0,0,1,11.91-11.9l54.633.03a11.9,11.9,0,0,1,11.9,11.9l-.026,136.972a11.9,11.9,0,0,1-11.91,11.9Z" transform="translate(-131.31 -45.43)" fill="#25304e"/>
      <path id="Path_1326" data-name="Path 1326" d="M203.976,58.562H193.391a2.628,2.628,0,0,0-2.572,2.687v1.9a2.632,2.632,0,0,1-2.572,2.687H167.6a2.635,2.635,0,0,1-2.591-2.691V61.231a2.632,2.632,0,0,0-2.572-2.691h-12.98a8.339,8.339,0,0,0-8.342,8.313l-.026,133.693a8.335,8.335,0,0,0,8.331,8.335l54.525.033a8.331,8.331,0,0,0,8.339-8.335l.026-133.689a8.335,8.335,0,0,0-8.335-8.328Z" transform="translate(-137.47 -53.688)" fill="#fff"/>
      <path id="Path_1327" data-name="Path 1327" d="M220.065,435.486a1.047,1.047,0,1,1-1.059-1.036A1.047,1.047,0,0,1,220.065,435.486Z" transform="translate(-185.896 -290.468)" fill="#263238"/>
      <path id="Path_1328" data-name="Path 1328" d="M235.9,435.356a1.047,1.047,0,1,1-1.055-1.036A1.047,1.047,0,0,1,235.9,435.356Z" transform="translate(-195.873 -290.386)" fill="#263238"/>
      <path id="Path_1329" data-name="Path 1329" d="M251.755,435.236A1.047,1.047,0,1,1,250.7,434.2,1.047,1.047,0,0,1,251.755,435.236Z" transform="translate(-205.857 -290.31)" fill="#263238"/>
      <path id="Path_1330" data-name="Path 1330" d="M301.405,95.03c0,.03-1.381.067-3.079.081s-3.076,0-3.076-.033S296.638,95,298.326,95,301.4,95,301.405,95.03Z" transform="translate(-234.573 -76.653)" fill="#263238"/>
      <path id="Path_1331" data-name="Path 1331" d="M301.435,99.264c0,.033-1.377.07-3.076.085s-3.079,0-3.079-.033,1.377-.07,3.079-.085S301.435,99.23,301.435,99.264Z" transform="translate(-234.592 -79.314)" fill="#263238"/>
      <path id="Path_1332" data-name="Path 1332" d="M301.525,103.52c0,.033-1.381.07-3.079.085s-3.076,0-3.076-.033,1.377-.067,3.076-.081S301.5,103.49,301.525,103.52Z" transform="translate(-234.649 -81.998)" fill="#263238"/>
      <path id="Path_1333" data-name="Path 1333" d="M160.65,99.741h.5l1.318-.03-.033.033v-.951a5.439,5.439,0,0,1,0-.548.492.492,0,0,1,.433-.4h.629a.5.5,0,0,1,.426.5v1.392l-.056-.056h1.658l-.056.056V97.147a.433.433,0,0,0-.067-.215,1.529,1.529,0,0,0-.17-.181c-.244-.241-.485-.481-.74-.714l-.7-.688c-.111-.115-.226-.226-.337-.337a.735.735,0,0,0-.348-.255.448.448,0,0,0-.37.074c-.1.085-.207.2-.307.3l-.6.6c-.37.37-.762.74-1.047,1.081a1.188,1.188,0,0,0-.081.622v1.551c0-.222,0-.585-.019-.947v-.922a.677.677,0,0,1,.093-.344c.307-.37.674-.707,1.051-1.11l.588-.6c.107-.1.2-.211.318-.318a.559.559,0,0,1,.477-.093.881.881,0,0,1,.392.281l.34.333.7.688.74.714a1.391,1.391,0,0,1,.185.2.555.555,0,0,1,.085.274v2.65h-1.769V98.346a.411.411,0,0,0-.341-.411h-.6a.411.411,0,0,0-.37.326c0,.17,0,.37,0,.529v.988h-1.8A.607.607,0,0,1,160.65,99.741Z" transform="translate(-149.791 -76.42)" fill="#263238"/>
      <path id="Path_1334" data-name="Path 1334" d="M189.985,190.647c0,1.284-.962,2.084-2.5,2.084h-1.158v1.584H185V188.56h2.491C189.023,188.56,189.985,189.359,189.985,190.647Zm-1.351,0c0-.633-.411-1-1.225-1h-1.084v2h1.084C188.224,191.643,188.635,191.273,188.635,190.647Z" transform="translate(-165.129 -135.585)" fill="#263238"/>
      <path id="Path_1335" data-name="Path 1335" d="M204.091,193.944v2.524h-1.2v-.551a1.455,1.455,0,0,1-1.347.618c-1.036,0-1.654-.574-1.654-1.34s.551-1.325,1.9-1.325h1.022c0-.551-.329-.87-1.022-.87a2.121,2.121,0,0,0-1.273.411l-.463-.9a3.4,3.4,0,0,1,1.91-.537C203.31,191.986,204.091,192.6,204.091,193.944Zm-1.281,1.129v-.452h-.881c-.6,0-.788.218-.788.514s.27.551.722.551A.944.944,0,0,0,202.81,195.073Z" transform="translate(-174.507 -137.738)" fill="#263238"/>
      <path id="Path_1336" data-name="Path 1336" d="M213.22,196.057l.429-.922a3.005,3.005,0,0,0,1.536.429c.592,0,.814-.155.814-.4,0-.74-2.672,0-2.672-1.751,0-.84.74-1.432,2.047-1.432a3.612,3.612,0,0,1,1.7.389l-.426.91a2.591,2.591,0,0,0-1.277-.329c-.574,0-.822.181-.822.415,0,.74,2.672.022,2.672,1.765,0,.822-.766,1.406-2.087,1.406A3.779,3.779,0,0,1,213.22,196.057Z" transform="translate(-182.904 -137.738)" fill="#263238"/>
      <path id="Path_1337" data-name="Path 1337" d="M225,196.058l.426-.922a3.031,3.031,0,0,0,1.54.429c.592,0,.814-.155.814-.4,0-.74-2.672,0-2.672-1.751,0-.84.74-1.432,2.047-1.432a3.623,3.623,0,0,1,1.7.389l-.429.91a2.554,2.554,0,0,0-1.273-.329c-.577,0-.822.181-.822.415,0,.74,2.672.022,2.672,1.765,0,.822-.766,1.406-2.087,1.406a3.768,3.768,0,0,1-1.917-.477Z" transform="translate(-190.324 -137.739)" fill="#263238"/>
      <path id="Path_1338" data-name="Path 1338" d="M243.857,192.16l-1.6,4.441h-1.232l-1-2.746L239,196.6h-1.232l-1.6-4.441h1.21l1.044,2.994,1.084-2.994h1.084l1.055,2.994,1.077-2.994Z" transform="translate(-197.36 -137.853)" fill="#263238"/>
      <path id="Path_1339" data-name="Path 1339" d="M257.35,194.26a2.435,2.435,0,1,1,2.432,2.276A2.277,2.277,0,0,1,257.35,194.26Zm3.561,0a1.133,1.133,0,1,0-1.129,1.225,1.11,1.11,0,0,0,1.14-1.225Z" transform="translate(-210.701 -137.74)" fill="#263238"/>
      <path id="Path_1340" data-name="Path 1340" d="M275.536,191.99v1.184h-.289a1.08,1.08,0,0,0-1.177,1.232v2.087H272.79v-4.441h1.225v.585A1.777,1.777,0,0,1,275.536,191.99Z" transform="translate(-220.426 -137.742)" fill="#263238"/>
      <path id="Path_1341" data-name="Path 1341" d="M286.163,187.63v6.1h-1.236v-.507a1.706,1.706,0,0,1-1.381.574,2.28,2.28,0,0,1,0-4.556,1.691,1.691,0,0,1,1.321.537V187.63Zm-1.258,3.89a1.133,1.133,0,1,0-1.11,1.225,1.11,1.11,0,0,0,1.11-1.225Z" transform="translate(-225.823 -135)" fill="#263238"/>
      <path id="Path_1342" data-name="Path 1342" d="M216.817,216.836c0,.052-13.694.1-30.6.1s-30.612-.044-30.612-.1,13.694-.1,30.612-.1S216.817,216.773,216.817,216.836Z" transform="translate(-146.61 -153.336)" fill="#e0e0e0"/>
      <path id="Path_1343" data-name="Path 1343" d="M212.967,369.066c0,.056-13.694.1-30.609.1s-30.609-.041-30.609-.1,13.694-.1,30.609-.1S212.967,369.014,212.967,369.066Z" transform="translate(-144.185 -249.223)" fill="#e0e0e0"/>
      <path id="Path_1344" data-name="Path 1344" d="M221.866,380.506c0,.052-7.613.1-17,.1s-17-.044-17-.1,7.61-.1,17-.1S221.866,380.451,221.866,380.506Z" transform="translate(-166.93 -256.429)" fill="#e0e0e0"/>
      <path id="Path_1345" data-name="Path 1345" d="M165.058,257.716l1.158.625-.522.873-1.17-.692.022,1.288h-1v-1.3l-1.173.7-.5-.87,1.147-.629-1.162-.64.511-.87,1.173.7v-1.3h1l-.022,1.3,1.17-.7.522.87Z" transform="translate(-150.553 -177.819)" fill="#25304e"/>
      <path id="Path_1346" data-name="Path 1346" d="M201,257.716l1.158.625-.522.873-1.162-.692v1.3h-1v-1.3l-1.17.7-.485-.885,1.177-.629-1.158-.64.511-.87,1.17.7v-1.3h.959l-.022,1.3,1.17-.7.522.87Z" transform="translate(-173.204 -177.819)" fill="#25304e"/>
      <path id="Path_1347" data-name="Path 1347" d="M235.963,257.722l1.158.626-.522.873-1.17-.692.022,1.3h-1v-1.3l-1.173.7-.5-.885,1.162-.625-1.162-.64.511-.87,1.173.7v-1.3h.988l-.022,1.3,1.17-.7.522.87Z" transform="translate(-195.224 -177.825)" fill="#25304e"/>
      <path id="Path_1348" data-name="Path 1348" d="M269.833,257.722l1.158.626-.511.873-1.17-.692.022,1.288h-1v-1.3l-1.17.7-.514-.87,1.162-.625-1.162-.64.511-.87,1.17.7v-1.3h1l-.022,1.3,1.17-.7.522.87Z" transform="translate(-216.559 -177.825)" fill="#25304e"/>
      <path id="Path_1349" data-name="Path 1349" d="M303.439,257.722l1.166.629-.522.873-1.17-.692.019,1.288h-1v-1.3l-1.17.7-.5-.873,1.158-.625-1.158-.64.511-.87,1.17.7v-1.3h1l-.018,1.3,1.17-.7.522.87Z" transform="translate(-237.729 -177.825)" fill="#25304e"/>
      <path id="Path_1350" data-name="Path 1350" d="M162.074,257.236h-5.607a2.62,2.62,0,0,1-2.617-2.617v-9.956a2.617,2.617,0,0,1,2.617-2.613h5.607a2.617,2.617,0,0,1,2.617,2.613v9.952a2.62,2.62,0,0,1-2.617,2.62Zm-5.607-15a2.432,2.432,0,0,0-2.432,2.428v9.952a2.435,2.435,0,0,0,2.432,2.432h5.607a2.432,2.432,0,0,0,2.432-2.432v-9.956a2.432,2.432,0,0,0-2.432-2.428Z" transform="translate(-145.508 -169.278)" fill="#263238"/>
      <path id="Path_1351" data-name="Path 1351" d="M197.239,257.23h-5.607a2.62,2.62,0,0,1-2.632-2.62v-9.956a2.617,2.617,0,0,1,2.617-2.613h5.607a2.617,2.617,0,0,1,2.617,2.613v9.956a2.62,2.62,0,0,1-2.6,2.62Zm-5.607-15a2.432,2.432,0,0,0-2.432,2.428v9.952a2.435,2.435,0,0,0,2.432,2.432h5.607a2.432,2.432,0,0,0,2.432-2.432v-9.956a2.432,2.432,0,0,0-2.432-2.428Z" transform="translate(-167.648 -169.272)" fill="#263238"/>
      <path id="Path_1352" data-name="Path 1352" d="M231.488,257.236h-5.611a2.62,2.62,0,0,1-2.617-2.617v-9.956a2.617,2.617,0,0,1,2.617-2.613h5.611a2.617,2.617,0,0,1,2.613,2.613v9.952a2.617,2.617,0,0,1-2.613,2.62Zm-5.611-15a2.432,2.432,0,0,0-2.432,2.428v9.952a2.435,2.435,0,0,0,2.432,2.432h5.611a2.432,2.432,0,0,0,2.428-2.432v-9.956a2.428,2.428,0,0,0-2.428-2.428Z" transform="translate(-189.228 -169.278)" fill="#263238"/>
      <path id="Path_1353" data-name="Path 1353" d="M266.1,257.236h-5.611a2.62,2.62,0,0,1-2.617-2.617v-9.956a2.617,2.617,0,0,1,2.617-2.613H266.1a2.617,2.617,0,0,1,2.613,2.613v9.952a2.617,2.617,0,0,1-2.613,2.62Zm-5.611-15a2.432,2.432,0,0,0-2.432,2.428v9.952a2.435,2.435,0,0,0,2.432,2.432H266.1a2.432,2.432,0,0,0,2.428-2.432v-9.956a2.428,2.428,0,0,0-2.428-2.428Z" transform="translate(-211.028 -169.278)" fill="#263238"/>
      <path id="Path_1354" data-name="Path 1354" d="M299.7,257.236H294.1a2.62,2.62,0,0,1-2.617-2.617v-9.956a2.617,2.617,0,0,1,2.617-2.613H299.7a2.617,2.617,0,0,1,2.617,2.613v9.952A2.62,2.62,0,0,1,299.7,257.236Zm-5.607-15a2.432,2.432,0,0,0-2.432,2.428v9.952a2.432,2.432,0,0,0,2.432,2.432H299.7a2.435,2.435,0,0,0,2.432-2.432v-9.956a2.432,2.432,0,0,0-2.432-2.428Z" transform="translate(-232.199 -169.278)" fill="#263238"/>
      <path id="Path_2064" data-name="Path 2064" d="M5.5,0H57.338a5.5,5.5,0,0,1,0,11.007H5.5A5.5,5.5,0,0,1,5.5,0Z" transform="translate(8.431 99.979)" fill="#b92056"/>
      <path id="Path_1355" data-name="Path 1355" d="M217.55,324.45h1.691a1.861,1.861,0,1,1,0,3.7H217.55Zm1.647,3.016a1.155,1.155,0,0,0,0-2.31h-.788v2.31Z" transform="translate(-185.631 -221.18)" fill="#fff"/>
      <path id="Path_1356" data-name="Path 1356" d="M228.685,327.8a1.577,1.577,0,1,1,1.577,1.48,1.48,1.48,0,0,1-1.577-1.48Zm2.306,0a.74.74,0,1,0-.74.74A.74.74,0,0,0,230.991,327.8Z" transform="translate(-192.643 -222.239)" fill="#fff"/>
      <path id="Path_1357" data-name="Path 1357" d="M241.614,327.946v1.636h-.829v-1.51c0-.463-.215-.674-.581-.674a.68.68,0,0,0-.685.77v1.414h-.829v-2.861h.792v.337a1.255,1.255,0,0,1,.947-.37A1.111,1.111,0,0,1,241.614,327.946Z" transform="translate(-198.947 -222.589)" fill="#fff"/>
      <path id="Path_1358" data-name="Path 1358" d="M251.131,328.348h-2.165a.766.766,0,0,0,.818.574.959.959,0,0,0,.718-.278l.444.481a1.673,1.673,0,0,1-2.817-1.018,1.455,1.455,0,0,1,1.529-1.48,1.414,1.414,0,0,1,1.48,1.48A1.69,1.69,0,0,1,251.131,328.348Zm-2.176-.474h1.41a.714.714,0,0,0-1.41,0Z" transform="translate(-204.893 -222.55)" fill="#fff"/>
      <circle id="Ellipse_27" data-name="Ellipse 27" cx="11.122" cy="11.122" r="11.122" transform="translate(28.11 25.183)" fill="#b92056"/>
      <path id="Path_1359" data-name="Path 1359" d="M231.685,132.6H231.5v-1.036a2.169,2.169,0,0,1,4.338,0v.844h-.185v-.844a1.984,1.984,0,0,0-3.968,0Z" transform="translate(-194.418 -98.315)" fill="#fff"/>
      <path id="Path_1360" data-name="Path 1360" d="M233.819,145.147H228.3a.918.918,0,0,1-.914-.914v-5.518a.918.918,0,0,1,.914-.914h5.515a.918.918,0,0,1,.914.914v5.518A.918.918,0,0,1,233.819,145.147Zm-5.515-7.162a.74.74,0,0,0-.74.74v5.518a.74.74,0,0,0,.74.74h5.515a.74.74,0,0,0,.74-.74v-5.53a.74.74,0,0,0-.74-.74Z" transform="translate(-191.829 -103.612)" fill="#fff"/>
      <path id="Path_1361" data-name="Path 1361" d="M235.906,145.262a.866.866,0,1,1,.866-.866A.866.866,0,0,1,235.906,145.262Zm0-1.543a.282.282,0,1,0,0-.015Z" transform="translate(-196.648 -107.222)" fill="#fff"/>
      <rect id="Rectangle_135" data-name="Rectangle 135" width="0.185" height="1.562" transform="translate(39.14 37.911)" fill="#fff"/>
    </g>
    <g id="freepik--Floor--inject-43" transform="translate(27 206.238)">
      <path id="Path_1450" data-name="Path 1450" d="M187.63,480.006c0,.056-35.964.1-80.315.1S27,480.062,27,480.006s35.957-.1,80.315-.1S187.63,479.943,187.63,480.006Z" transform="translate(-27 -479.91)" fill="#263238"/>
    </g>
    <g id="freepik--Plant--inject-43" transform="translate(37.344 134.502)">
      <path id="Path_1451" data-name="Path 1451" d="M65.575,307.048c3.52-5.389,3.387-13.265-.822-18.136-1.307-1.514-3.131-2.828-5.122-2.657a5.383,5.383,0,0,0-4.293,3.871A12.764,12.764,0,0,0,55.3,296.2c.511,2.82,1.366,5.7,3.331,7.8s4.441,4.423,6.966,3.05" transform="translate(-54.948 -286.184)" fill="#b92056"/>
      <path id="Path_1452" data-name="Path 1452" d="M67.511,394.779a8.043,8.043,0,0,0-2.243-9.142,3.356,3.356,0,0,0-2.88-.9,2.761,2.761,0,0,0-1.851,2.384,6.662,6.662,0,0,0,.529,3.15,7.835,7.835,0,0,0,2.417,3.7c1.2.888,2.872,1.747,4.042.811" transform="translate(-58.457 -348.178)" fill="#b92056"/>
      <path id="Path_1453" data-name="Path 1453" d="M102.018,384.8a11.654,11.654,0,0,1,5.87-12.3,4.91,4.91,0,0,1,4.349-.433,4.086,4.086,0,0,1,1.939,3.931,9.608,9.608,0,0,1-1.673,4.282,11.392,11.392,0,0,1-4.519,4.556c-1.962.925-4.586,1.632-5.966-.037" transform="translate(-84.466 -340.026)" fill="#b92056"/>
      <path id="Path_1454" data-name="Path 1454" d="M99.889,344.183c-1.688-5.444,1.173-12.044,5.922-15.175,1.48-.97,3.353-1.643,5.008-1.014a4.775,4.775,0,0,1,2.717,4.341,11.264,11.264,0,0,1-1.443,5.182,13.336,13.336,0,0,1-4.723,5.829c-2.173,1.307-5.692,2.591-7.495.829" transform="translate(-82.948 -312.331)" fill="#b92056"/>
      <path id="Path_1455" data-name="Path 1455" d="M91.558,405.426a1.111,1.111,0,0,0,.052-.263c.03-.2.07-.448.115-.759.022-.167.048-.352.078-.548s.078-.418.122-.648c.089-.466.181-1,.333-1.569.07-.292.144-.6.218-.911s.189-.633.285-.97c.181-.674.452-1.373.7-2.117a36.871,36.871,0,0,1,4.811-8.986c.481-.622.914-1.232,1.377-1.754.226-.27.444-.526.651-.777l.666-.685c.4-.444.785-.814,1.11-1.144l.47-.463.415-.37.57-.514a1.379,1.379,0,0,0,.189-.189,1.11,1.11,0,0,0-.218.155l-.6.481-.429.352-.485.452c-.348.322-.74.685-1.155,1.11l-.651.677c-.211.248-.433.507-.663.77-.474.522-.914,1.133-1.406,1.754a39.8,39.8,0,0,0-2.754,4.341,38.7,38.7,0,0,0-2.095,4.7c-.248.74-.511,1.455-.685,2.139-.1.337-.185.663-.274.977s-.141.625-.207.918c-.141.581-.222,1.11-.3,1.584-.037.233-.074.452-.107.651s-.037.37-.056.555c-.03.311-.052.566-.07.766a.858.858,0,0,0-.011.285Z" transform="translate(-78.004 -346.981)" fill="#263238"/>
      <path id="Path_1456" data-name="Path 1456" d="M91.015,380.613a.433.433,0,0,0,0-.111,1.706,1.706,0,0,0-.022-.315c-.026-.3-.067-.7-.111-1.21-.026-.263-.056-.555-.089-.87s-.03-.67-.052-1.044c-.026-.74-.1-1.6-.07-2.539v-1.48c0-.514.052-1.047.078-1.6.037-1.11.189-2.28.322-3.52a50.462,50.462,0,0,1,4.582-15.46c.566-1.11,1.077-2.176,1.651-3.124.281-.477.529-.951.807-1.384l.8-1.244c.492-.807,1.014-1.48,1.443-2.091.222-.3.418-.588.614-.844l.548-.685.74-.955.192-.252c.041-.056.063-.085.059-.089s-.03.022-.078.074l-.207.237-.788.929-.548.685c-.2.252-.4.533-.629.833-.44.607-.973,1.277-1.48,2.076l-.814,1.24c-.281.433-.537.907-.822,1.384-.581.948-1.11,2.017-1.673,3.128a49.147,49.147,0,0,0-4.6,15.515c-.13,1.244-.274,2.424-.3,3.535-.019.555-.063,1.092-.067,1.606s0,1.01,0,1.48c0,.944.067,1.8.107,2.546.026.37.041.74.07,1.044s.074.607.107.873c.063.507.115.91.152,1.207.019.126.037.226.048.311a.44.44,0,0,0,.033.111Z" transform="translate(-77.339 -321.18)" fill="#263238"/>
      <path id="Path_1457" data-name="Path 1457" d="M67.12,303.859a.513.513,0,0,0,.048.1c.041.074.089.17.152.281l.6,1.077c.13.233.285.489.437.777l.47.948.544,1.088c.181.389.37.807.551,1.244s.4.9.6,1.377.37,1,.585,1.517l.307.8c.093.278.189.555.285.84.189.566.37,1.151.588,1.747.74,2.417,1.455,5.1,2.05,7.961s.985,5.611,1.284,8.12.448,4.786.5,6.7c.048.955.059,1.817.059,2.591v3.609a.452.452,0,0,0,0-.107,1.763,1.763,0,0,1,.022-.318c0-.3.033-.714.059-1.232s.041-1.192.041-1.951,0-1.628-.026-2.591c-.033-1.917-.2-4.193-.452-6.714a81.935,81.935,0,0,0-1.27-8.143,80.027,80.027,0,0,0-2.073-7.976l-.592-1.762c-.1-.285-.192-.566-.289-.84l-.315-.8-.6-1.517c-.2-.485-.415-.936-.611-1.377s-.37-.855-.57-1.24-.37-.74-.559-1.084-.341-.651-.489-.944-.318-.537-.455-.766l-.64-1.055c-.067-.111-.126-.2-.17-.27S67.124,303.856,67.12,303.859Z" transform="translate(-62.615 -297.282)" fill="#263238"/>
      <path id="Path_1458" data-name="Path 1458" d="M70.36,393.18a4.528,4.528,0,0,0,.37.659c.259.411.611,1.022,1.025,1.784s.873,1.688,1.336,2.735a32.6,32.6,0,0,1,1.3,3.5,36.029,36.029,0,0,1,.9,3.616,26.512,26.512,0,0,1,.44,3.016c.07.866.141,1.562.159,2.047a4.441,4.441,0,0,0,.063.74,5.286,5.286,0,0,0,.026-.74,20.049,20.049,0,0,0-.085-2.062,30.612,30.612,0,0,0-.4-3.039,34.683,34.683,0,0,0-.892-3.649,33.492,33.492,0,0,0-1.321-3.512c-.474-1.051-.947-1.976-1.384-2.731a18.356,18.356,0,0,0-1.11-1.751A5.689,5.689,0,0,0,70.36,393.18Z" transform="translate(-64.656 -353.544)" fill="#263238"/>
      <path id="Path_1459" data-name="Path 1459" d="M83.925,437.47H68.45l1.873,15.8H82Z" transform="translate(-63.453 -381.442)" fill="#25304e"/>
      <path id="Path_1460" data-name="Path 1460" d="M84.246,475.56l-1.314,1.706H71.211l-1.351-1.651Z" transform="translate(-64.341 -405.434)" fill="#263238"/>
      <path id="Path_1461" data-name="Path 1461" d="M70.08,449.8c0,.063,3.213.115,7.173.115s7.169-.052,7.169-.115-3.209-.115-7.169-.115S70.08,449.753,70.08,449.8Z" transform="translate(-64.479 -389.139)" fill="#fafafa"/>
      <path id="Path_1462" data-name="Path 1462" d="M70.08,452.675c0,.063,3.213.115,7.173.115s7.169-.052,7.169-.115-3.209-.115-7.169-.115S70.08,452.612,70.08,452.675Z" transform="translate(-64.479 -390.947)" fill="#fafafa"/>
      <path id="Path_1463" data-name="Path 1463" d="M70.6,455.425c0,.067,3.1.118,6.921.118s6.921-.052,6.921-.118-3.1-.115-6.921-.115S70.6,455.362,70.6,455.425Z" transform="translate(-64.807 -392.679)" fill="#fafafa"/>
      <path id="Path_1464" data-name="Path 1464" d="M103.863,345.44a.674.674,0,0,0,0,.152c0,.115.019.259.033.429.041.4.093.929.159,1.573.141,1.329.348,3.164.585,5.182a.652.652,0,0,0,.026.226v.07h.07c1.988.03,3.775.048,5.067.056h2.087a.561.561,0,0,0-.141-.018l-.415-.018-1.529-.048c-1.292-.037-3.079-.074-5.071-.1l.078.067a.7.7,0,0,0-.026-.226c-.237-2.025-.459-3.857-.629-5.182-.085-.644-.155-1.173-.211-1.569-.022-.17-.044-.311-.063-.426A.433.433,0,0,0,103.863,345.44Z" transform="translate(-85.756 -323.474)" fill="#263238"/>
      <path id="Path_1465" data-name="Path 1465" d="M113.369,332.67a.481.481,0,0,0,0,.155V334.9c.022,1.377.059,3.279.111,5.378v.329h.081a47.747,47.747,0,0,1,5.2-.118c.663,0,1.2.048,1.569.067h.574a.557.557,0,0,1-.144-.03l-.426-.048c-.37-.037-.9-.081-1.569-.118a41.608,41.608,0,0,0-5.219.07l.085.078v-.248c-.052-2.1-.107-4-.155-5.378-.026-.67-.048-1.221-.063-1.629a2.235,2.235,0,0,0-.026-.444A.777.777,0,0,0,113.369,332.67Z" transform="translate(-91.743 -315.43)" fill="#263238"/>
      <path id="Path_1466" data-name="Path 1466" d="M122.239,328.32a3.287,3.287,0,0,0-.1.455c-.059.318-.133.74-.229,1.244-.2,1.051-.514,2.5-.955,4.071l-.048.167.159-.074.185-.093a13.443,13.443,0,0,1,4.13-1.2c.551-.067,1-.092,1.307-.1a2.467,2.467,0,0,0,.481-.026.371.371,0,0,0-.122,0c-.081,0-.2-.018-.37-.018a10.819,10.819,0,0,0-1.318.056,12.54,12.54,0,0,0-4.179,1.173l-.189.093.111.089a40.087,40.087,0,0,0,.914-4.1c.089-.529.148-.959.181-1.255A2.258,2.258,0,0,0,122.239,328.32Z" transform="translate(-96.496 -312.69)" fill="#263238"/>
      <path id="Path_1467" data-name="Path 1467" d="M65.46,400.627c0,.022.452-.022,1.173-.052a19.844,19.844,0,0,1,2.813.093c.222.022.44.052.648.081h.074v-.07c.17-.936.307-1.762.4-2.354a6.829,6.829,0,0,0,.122-.955,6.291,6.291,0,0,0-.222.936c-.122.589-.281,1.41-.455,2.343l.089-.063c-.211-.03-.429-.059-.655-.081a15.864,15.864,0,0,0-2.835-.048c-.37.03-.655.067-.855.1A1.308,1.308,0,0,0,65.46,400.627Z" transform="translate(-61.569 -356.184)" fill="#263238"/>
      <path id="Path_1468" data-name="Path 1468" d="M61.52,392.153c0,.026.433-.074,1.133-.163a12.276,12.276,0,0,1,2.746-.026l.485.059h.081v-.078c.1-.962.174-1.817.226-2.428a6.322,6.322,0,0,0,.048-.988,7.27,7.27,0,0,0-.152.977c-.078.611-.174,1.462-.278,2.421l.089-.067-.5-.052a10.661,10.661,0,0,0-2.776.074,7.976,7.976,0,0,0-.825.174,1.263,1.263,0,0,0-.278.1Z" transform="translate(-59.087 -350.615)" fill="#263238"/>
      <path id="Path_1469" data-name="Path 1469" d="M58.68,317a.905.905,0,0,0,.155.081l.452.2,1.673.711,5.552,2.3.3.122.07.03.03-.07c.914-2.065,1.736-3.923,2.343-5.289l.688-1.6.181-.437a.924.924,0,0,0,.052-.159.825.825,0,0,0-.081.144c-.056.115-.122.255-.207.426l-.74,1.58-2.387,5.27.1-.041-.3-.122-5.544-2.258-1.691-.666-.463-.174A.673.673,0,0,0,58.68,317Z" transform="translate(-57.299 -302.971)" fill="#263238"/>
      <path id="Path_1470" data-name="Path 1470" d="M55,299.152a.814.814,0,0,0,.137.1l.407.263,1.51.94,5.037,3.076.081.048.033-.089.093-.244,2.113-5.7c.255-.714.466-1.3.622-1.732l.163-.474a.611.611,0,0,0,.044-.17,1.173,1.173,0,0,0-.074.159l-.174.463c-.163.426-.392,1.007-.67,1.717-.555,1.48-1.314,3.472-2.154,5.685-.03.081-.063.167-.089.241l.111-.041-5.074-3.031-1.536-.9-.422-.237A.789.789,0,0,0,55,299.152Z" transform="translate(-54.981 -291.809)" fill="#263238"/>
      <path id="Path_1471" data-name="Path 1471" d="M56.22,289.865a1.91,1.91,0,0,0,.333.2c.218.122.533.3.914.537a16.185,16.185,0,0,1,2.8,2.195l.2.189-.067-.266c-.067-.274-.13-.566-.178-.866a10.089,10.089,0,0,1,.218-4.123,12.361,12.361,0,0,1,.4-1.2A2.7,2.7,0,0,0,61,286.09a2.858,2.858,0,0,0-.222.411,9.923,9.923,0,0,0-.448,1.192,9.693,9.693,0,0,0-.266,4.179c.048.307.115.6.185.885l.13-.074a14.9,14.9,0,0,0-2.861-2.184c-.392-.226-.714-.392-.94-.5a2.163,2.163,0,0,0-.359-.137Z" transform="translate(-55.749 -286.09)" fill="#263238"/>
      <path id="Path_1472" data-name="Path 1472" d="M103.93,390a2.014,2.014,0,0,0,.07.4c.052.255.13.625.215,1.084a26.93,26.93,0,0,1,.418,3.668v.07h.411c1.536.093,2.924.17,3.931.215l1.192.048a2.341,2.341,0,0,0,.437,0,2.315,2.315,0,0,0-.433-.056l-1.188-.1c-1.007-.074-2.395-.167-3.927-.259l-.348-.018.074.074a23.054,23.054,0,0,0-.455-3.646c-.1-.463-.192-.829-.266-1.081a2.142,2.142,0,0,0-.13-.4Z" transform="translate(-85.801 -351.541)" fill="#263238"/>
      <path id="Path_1473" data-name="Path 1473" d="M112.138,378.26a2.058,2.058,0,0,0,.026.4c.033.285.074.655.126,1.11.111.929.278,2.221.474,3.672v.063h.063l.5.033c1.573.107,2.991.27,4.016.4l1.214.163a2.61,2.61,0,0,0,.444.044,2.2,2.2,0,0,0-.437-.1c-.281-.059-.7-.133-1.207-.215-1.022-.159-2.443-.341-4.019-.448l-.5-.033.074.067c-.2-1.447-.37-2.739-.526-3.664-.07-.44-.126-.807-.17-1.092A1.851,1.851,0,0,0,112.138,378.26Z" transform="translate(-90.97 -344.146)" fill="#263238"/>
      <path id="Path_1474" data-name="Path 1474" d="M121.8,373.18c-.022,0,.074.426.181,1.11a19.451,19.451,0,0,1,.252,2.739v.085h.089l.259-.033a24.1,24.1,0,0,1,2.92-.174h.892a1.4,1.4,0,0,0,.326,0,1.259,1.259,0,0,0-.322-.052c-.211-.022-.514-.048-.892-.059a18.672,18.672,0,0,0-2.942.126l-.263.033.089.078a16.067,16.067,0,0,0-.3-2.754c-.07-.344-.137-.622-.189-.811A1.047,1.047,0,0,0,121.8,373.18Z" transform="translate(-97.058 -340.947)" fill="#263238"/>
      <path id="Path_1475" data-name="Path 1475" d="M66.73,385a55.514,55.514,0,0,0,1.432,3.116,7.133,7.133,0,0,0-.592-1.636A7.229,7.229,0,0,0,66.73,385Z" transform="translate(-62.369 -348.392)" fill="#263238"/>
      <path id="Path_1476" data-name="Path 1476" d="M61.48,390.491a16.141,16.141,0,0,1,1.758.37,15.4,15.4,0,0,1,1.651.7,3.949,3.949,0,0,0-1.606-.851A4,4,0,0,0,61.48,390.491Z" transform="translate(-59.062 -351.837)" fill="#263238"/>
    </g>
  </g>
</svg>
