<svg xmlns="http://www.w3.org/2000/svg" width="181.705" height="189.406" viewBox="0 0 181.705 189.406">
  <g id="Wallet-bro_1_" data-name="Wallet-bro (1)" transform="translate(-42.2 -40.078)">
    <g id="freepik--background-simple--inject-17" transform="translate(42.2 40.077)">
      <path id="Path_2303" data-name="Path 2303" d="M165.988,40.083c-16.074.275-28.468,13.419-42.228,21.734C102.983,74.372,76.3,76.922,58.746,93.7,46.733,105.193,40.8,122.5,42.48,139.041s10.76,32.04,23.9,42.232c8.376,6.494,18.205,10.874,28.236,14.3,10.166,3.467,20.751,6.039,31.494,6.175,14.887.188,29.511-4.314,42.979-10.668,9.367-4.415,18.4-9.812,25.765-17.092A72.049,72.049,0,0,0,210.8,149.6c9.035-22.428,7.6-48.136-.236-71.014C204.085,59.66,188.242,39.7,165.988,40.083Z" transform="translate(-42.2 -40.077)" fill="#b92056"/>
      <path id="Path_2304" data-name="Path 2304" d="M165.988,40.083c-16.074.275-28.468,13.419-42.228,21.734C102.983,74.372,76.3,76.922,58.746,93.7,46.733,105.193,40.8,122.5,42.48,139.041s10.76,32.04,23.9,42.232c8.376,6.494,18.205,10.874,28.236,14.3,10.166,3.467,20.751,6.039,31.494,6.175,14.887.188,29.511-4.314,42.979-10.668,9.367-4.415,18.4-9.812,25.765-17.092A72.049,72.049,0,0,0,210.8,149.6c9.035-22.428,7.6-48.136-.236-71.014C204.085,59.66,188.242,39.7,165.988,40.083Z" transform="translate(-42.2 -40.077)" fill="#fff" opacity="0.85"/>
    </g>
    <g id="freepik--Wallet--inject-17" transform="translate(50.685 93.465)">
      <path id="Path_2305" data-name="Path 2305" d="M191.314,206.7c-.114-3.288-.328-6.795-.681-10.424-.476-7.249-1.384-14.018-3.031-18.275h0c-9.066-1.856-56.162,1.6-56.2,1.6l-.293-1.31-.118-.52-.21-.913-.057-.21c-.306-1.231-.651-2.45-1.052-3.659h0s-35.7-3.188-47.546-.1h0v.31l.035,2.921c.035,5.655-.1,10.961.2,16.786v.044h0a.95.95,0,0,0-.17,0,2.511,2.511,0,0,0-2.039,1.655h0a2.5,2.5,0,0,0-.127,1.057l.157,1.838v.087c.437,4.638.873,9.232.873,9.232h0s.227.022.6.039l1.961.14c-4.175.384-8.734,5.9-8.533,10.633s-4.367,13.66-3.227,18.778c.873,4,5.367,10.432,7.555,15.319l-.17.969L69.47,272.324c.655-.961,6.55,24.673,33.931,19.245l19.481-31.738h0a37.581,37.581,0,0,0,5.93-5.576,9.7,9.7,0,0,0,1.838-2.542h0a13.581,13.581,0,0,0,1.576-3.581c.087-.332.179-.659.275-1,1.59-4.048,3.712-9.572,5.266-13.4,20.524-.611,42.075-1.865,52.9-4.411h.022A114.126,114.126,0,0,0,191.314,206.7Zm-105.4,17.935a31.523,31.523,0,0,1-.306-3.568c.24,1.258.5,2.511.777,3.769C86.226,224.769,86.068,224.7,85.911,224.638Z" transform="translate(-66.046 -167.525)" opacity="0.1"/>
      <path id="Path_2306" data-name="Path 2306" d="M64.36,308.283s8.769,25.926,36.162,20.5c0,0,6.079-28.538,11.17-32.752,3.284-2.707,10.537-7.563,12.088-11.079s7.777-20.21,8.983-22.219S119.7,237.61,119.7,237.61L89.635,253.121,72.91,282.816S69.7,302.03,64.36,308.283Z" transform="translate(-63.168 -204.737)" fill="#fff"/>
      <path id="Path_2307" data-name="Path 2307" d="M61.848,370.773a.218.218,0,0,1-.167-.359c3.635-4.3,5.937-10.667,7.228-15.256a73.493,73.493,0,0,0,1.954-9.038.218.218,0,0,1,.433.058,73.941,73.941,0,0,1-1.964,9.093A58.9,58.9,0,0,1,66.48,363.3a31.116,31.116,0,0,1-4.465,7.4A.218.218,0,0,1,61.848,370.773Z" transform="translate(-61.63 -265.755)" fill="#263238"/>
      <path id="Path_2308" data-name="Path 2308" d="M146.888,366.218a.219.219,0,0,1-.214-.265c.015-.069,1.537-7,3.666-14.462,1.251-4.387,2.464-8.1,3.606-11.037,1.435-3.69,2.766-6.167,3.957-7.361a.219.219,0,0,1,.045-.035,47.432,47.432,0,0,0,6.026-4.34c2.853-2.419,6.478-6.149,7.541-10.186a112.563,112.563,0,0,1,5.343-14.722.218.218,0,1,1,.4.175,112.117,112.117,0,0,0-5.321,14.658,16,16,0,0,1-3.056,5.714,33.482,33.482,0,0,1-4.631,4.7,48.171,48.171,0,0,1-6.057,4.365c-1.143,1.159-2.435,3.578-3.84,7.191-1.137,2.923-2.346,6.624-3.593,11-2.125,7.453-3.644,14.366-3.659,14.435A.218.218,0,0,1,146.888,366.218Z" transform="translate(-109.534 -241.955)" fill="#263238"/>
      <path id="Path_2309" data-name="Path 2309" d="M159.741,319.951a.218.218,0,0,1-.218-.211c-.228-6.432-5.037-11.6-7.094-13.525l-.118-.111-.038-.038a.221.221,0,0,1,.288-.334.217.217,0,0,1,.073.078l.092.087a27.1,27.1,0,0,1,3.9,4.529,21.172,21.172,0,0,1,2.233,4.181,15.6,15.6,0,0,1,1.1,5.118.218.218,0,0,1-.21.226Z" transform="translate(-112.653 -243.087)" fill="#263238"/>
      <path id="Path_2310" data-name="Path 2310" d="M195.316,220.231c-24.14,5.677-101.888,4.93-101.888,4.93a50.142,50.142,0,0,1-2.21-8.882c-1.528-8.083-2.956-18.385-2.956-18.385l-2.572-.179s-.437-4.594-.873-9.232S87,183.85,87,183.85L86.812,167.8l-.048-4.009c11.843-3.092,47.547.1,47.547.1l1.114,3.869.62,2.742,56.193-1.585C197.39,182.235,195.316,220.231,195.316,220.231Z" transform="translate(-74.664 -162.393)" fill="#b92056"/>
      <rect id="Rectangle_499" data-name="Rectangle 499" width="42.403" height="12.999" rx="6.298" transform="translate(71.713 20.876) rotate(-2.862)" fill="#263238"/>
      <path id="Path_2311" data-name="Path 2311" d="M268.9,246.54l.118,1.245-42.437,1.642-.035-1.118Z" transform="translate(-154.532 -209.768)" fill="#263238"/>
      <path id="Path_2312" data-name="Path 2312" d="M269.283,256.45l.039,1.118-42.433,1.568-.039-1.114Z" transform="translate(-154.701 -215.35)" fill="#263238"/>
      <path id="Path_2313" data-name="Path 2313" d="M258.357,176.549s6.262,29.695,3.087,51.319c0,0-39.6,4.646-53.158,3.9l-.555-7.227,1.135-.175s-5.467-41.249-6.708-46.228C202.16,178.134,249.318,174.689,258.357,176.549Z" transform="translate(-140.792 -170.031)" fill="#25304e" opacity="0.3"/>
      <path id="Path_2314" data-name="Path 2314" d="M154.831,286.91l.467,5.463s-39.913,1.747-43.424.476.188-3.3,9.472-4.026S154.831,286.91,154.831,286.91Z" transform="translate(-89.197 -232.509)" fill="#fff" opacity="0.8"/>
      <ellipse id="Ellipse_139" data-name="Ellipse 139" cx="3.646" cy="3.301" rx="3.646" ry="3.301" transform="translate(38.158 24.628)" fill="#25304e"/>
      <path id="Path_2315" data-name="Path 2315" d="M97.65,232.963a.218.218,0,0,1-.209-.157,142.022,142.022,0,0,1-5.17-27.313.218.218,0,1,1,.435-.039,141.581,141.581,0,0,0,5.107,27.071c16.14-.138,33.337-.319,50.612-.872a474.418,474.418,0,0,0,50.9-4.031c.114-1.093.731-7.413.721-16.179-.01-8.834-.676-22.022-3.789-34.761-2.934-.54-13.41-.439-30.342.293-13.008.563-25.353,1.306-25.476,1.314a.218.218,0,1,1-.026-.436c.123-.007,12.471-.751,25.483-1.314,7.643-.331,14.017-.535,18.944-.608,6.172-.091,10.088.027,11.64.35a.218.218,0,0,1,.168.162,130.306,130.306,0,0,1,3.058,18.507c.509,5.291.771,10.843.777,16.5a161.286,161.286,0,0,1-.742,16.39.218.218,0,0,1-.186.192,474.149,474.149,0,0,1-51.116,4.059c-17.339.555-34.6.736-50.787.874Z" transform="translate(-78.89 -169.976)" fill="#263238"/>
      <path id="Path_2316" data-name="Path 2316" d="M102.617,223.42a7.216,7.216,0,0,1-3.144-.553,1.722,1.722,0,0,1-.915-2.115,2.344,2.344,0,0,1,1.824-1.07,109.8,109.8,0,0,1,14.145-1.711c9.989-.741,20.133-1.251,30.156-1.517-.011-.057-.023-.123-.036-.2-.049-.281-.114-.7-.193-1.241-.141-.966-.333-2.38-.573-4.2-.44-3.357-.964-7.525-1.385-10.873-.351-2.8-.628-5-.71-5.561-.164-1.126-.329-2.271-.489-3.379-.889-6.159-1.809-12.528-2.933-18.745v0a59.626,59.626,0,0,0-2-8.218c-17-1.213-32.3-2.053-47.166-.112.053,2.684.047,5.283.041,7.8-.009,4.046-.018,7.868.195,12.061A.218.218,0,1,1,89,183.8c-.214-4.2-.2-8.031-.2-12.084.006-2.574.012-5.236-.045-7.984a.218.218,0,0,1,.19-.221,159.657,159.657,0,0,1,23.772-1.144c7.951.141,15.806.666,23.823,1.239a.218.218,0,0,1,.192.151,60.06,60.06,0,0,1,2.055,8.418c1.126,6.225,2.046,12.6,2.936,18.76.16,1.107.325,2.253.489,3.378.082.562.36,2.772.711,5.569.7,5.591,2,15.951,2.221,16.661a.218.218,0,0,1-.177.338q-1.093.028-2.188.061l.448,5.235a.218.218,0,0,1-.213.237l-37.985.873C104.367,223.346,103.5,223.42,102.617,223.42Zm39.73-6.464c-9.25.28-18.585.767-27.788,1.45a109.441,109.441,0,0,0-14.09,1.7c-.617.123-1.279.318-1.514.826a1.3,1.3,0,0,0,.718,1.544c1.394.714,3.859.5,5.331.374h.014l37.759-.868Z" transform="translate(-76.913 -162.333)" fill="#263238"/>
      <path id="Path_2317" data-name="Path 2317" d="M102.764,300.17a.218.218,0,0,1-.207-.15,3.6,3.6,0,0,1-.177-.93.218.218,0,1,1,.436-.024,3.167,3.167,0,0,0,.155.817.218.218,0,0,1-.207.287Z" transform="translate(-84.585 -239.24)" fill="#263238"/>
      <path id="Path_2318" data-name="Path 2318" d="M103.178,286.871a.218.218,0,0,1-.2-.3,4.211,4.211,0,0,1,1.011-1.473.218.218,0,0,1,.3.315,3.778,3.778,0,0,0-.908,1.32A.218.218,0,0,1,103.178,286.871Zm2.355-2.372a.218.218,0,0,1-.1-.412,9.845,9.845,0,0,1,1.619-.65.218.218,0,0,1,.129.417,9.41,9.41,0,0,0-1.547.62A.217.217,0,0,1,105.533,284.5Zm3.242-1.035a.218.218,0,0,1-.039-.433c.465-.086.963-.158,1.48-.215l.224-.025a.218.218,0,1,1,.048.434l-.224.025c-.506.056-.994.127-1.449.211A.222.222,0,0,1,108.775,283.464Zm3.386-.422a.218.218,0,0,1-.023-.435l1.7-.178a.218.218,0,1,1,.045.434l-1.7.177Zm3.4-.35a.218.218,0,0,1-.021-.436l1.7-.168a.218.218,0,1,1,.042.435l-1.7.168Zm3.4-.332a.218.218,0,0,1-.021-.436l1.7-.161a.218.218,0,0,1,.041.435l-1.7.161Zm3.4-.318a.218.218,0,0,1-.02-.436l1.7-.154a.218.218,0,0,1,.039.435l-1.7.154Zm3.4-.3a.218.218,0,0,1-.019-.436l1.7-.148a.218.218,0,0,1,.037.435l-1.7.147Zm3.4-.292a.218.218,0,0,1-.018-.436l1.7-.141a.218.218,0,1,1,.035.435l-1.7.141Zm3.4-.277a.218.218,0,0,1-.017-.436l1.7-.133a.218.218,0,0,1,.033.435l-1.7.133Zm3.406-.262a.218.218,0,0,1-.016-.436l1.7-.124a.218.218,0,0,1,.031.436l-1.7.124Zm3.407-.243a.218.218,0,0,1-.015-.436c.578-.039,1.152-.077,1.705-.113a.218.218,0,0,1,.028.436c-.553.036-1.126.074-1.7.113Zm3.409-.22a.218.218,0,0,1-.013-.436c.582-.035,1.156-.068,1.705-.1a.218.218,0,0,1,.024.436c-.549.031-1.122.064-1.7.1Zm3.411-.189a.218.218,0,0,1-.011-.436c.589-.029,1.164-.056,1.708-.079a.218.218,0,0,1,.018.436c-.543.023-1.117.049-1.7.079Z" transform="translate(-84.912 -228.469)" fill="#263238"/>
      <path id="Path_2319" data-name="Path 2319" d="M209.548,278.861a.218.218,0,0,1-.007-.437l.632-.022-.086-.634a.218.218,0,1,1,.433-.058l.118.873a.218.218,0,0,1-.209.247l-.873.031Z" transform="translate(-144.831 -227.219)" fill="#263238"/>
      <path id="Path_2320" data-name="Path 2320" d="M202.255,220.121a.218.218,0,0,1-.216-.188q-.117-.84-.234-1.679a.218.218,0,0,1,.432-.061q.118.84.235,1.68a.218.218,0,0,1-.186.246Zm-.471-3.358a.218.218,0,0,1-.216-.188q-.119-.839-.239-1.678a.218.218,0,1,1,.432-.062q.12.839.239,1.678a.218.218,0,0,1-.186.247Zm-.48-3.356a.218.218,0,0,1-.216-.187q-.121-.839-.243-1.677a.218.218,0,1,1,.432-.063q.122.839.243,1.678a.218.218,0,0,1-.185.247Zm-.488-3.355a.218.218,0,0,1-.216-.187q-.123-.839-.247-1.677a.218.218,0,1,1,.432-.064q.124.838.248,1.677a.218.218,0,0,1-.184.248Zm-.5-3.354a.218.218,0,0,1-.216-.186q-.125-.838-.252-1.676a.218.218,0,0,1,.432-.065q.127.838.252,1.677a.218.218,0,0,1-.184.248Zm-.507-3.352a.218.218,0,0,1-.216-.185q-.128-.838-.257-1.675a.218.218,0,1,1,.432-.066q.129.838.257,1.676a.218.218,0,0,1-.183.249Zm-.516-3.351a.218.218,0,0,1-.215-.185q-.13-.837-.262-1.675a.218.218,0,0,1,.431-.068q.131.837.262,1.675a.218.218,0,0,1-.182.249Zm-.526-3.349a.218.218,0,0,1-.215-.184q-.133-.837-.267-1.674a.218.218,0,1,1,.431-.069q.134.837.267,1.674a.218.218,0,0,1-.181.25Zm-.536-3.348a.218.218,0,0,1-.215-.184q-.135-.837-.272-1.673a.218.218,0,0,1,.431-.07q.137.837.272,1.674a.218.218,0,0,1-.181.25Zm-.546-3.346a.218.218,0,0,1-.215-.183q-.138-.836-.277-1.672a.218.218,0,0,1,.431-.072q.139.836.277,1.673a.218.218,0,0,1-.18.251Zm-.556-3.344a.218.218,0,0,1-.215-.182q-.14-.836-.282-1.671a.218.218,0,1,1,.431-.073q.142.836.282,1.672a.218.218,0,0,1-.179.251A.221.221,0,0,1,197.132,186.607Zm-.567-3.342a.218.218,0,0,1-.215-.182q-.143-.835-.288-1.671a.218.218,0,1,1,.43-.074q.145.836.288,1.671a.219.219,0,0,1-.215.255Zm-.578-3.341a.218.218,0,0,1-.215-.181q-.146-.835-.293-1.669a.218.218,0,1,1,.43-.076q.147.835.293,1.67a.218.218,0,0,1-.215.256Z" transform="translate(-137.027 -171.056)" fill="#263238"/>
      <path id="Path_2321" data-name="Path 2321" d="M193.709,173.241a.218.218,0,0,1-.215-.18l-.127-.706-.7-.049a.218.218,0,0,1,.03-.436l.873.061a.218.218,0,0,1,.2.179l.157.873a.218.218,0,0,1-.215.257Z" transform="translate(-135.328 -167.705)" fill="#263238"/>
      <path id="Path_2322" data-name="Path 2322" d="M136,170.626h-.015c-.577-.038-1.172-.077-1.77-.115a.218.218,0,0,1,.028-.436c.6.038,1.195.077,1.772.115a.218.218,0,0,1-.014.436Zm-3.542-.224h-.013l-1.772-.1a.218.218,0,1,1,.025-.436l1.773.1a.218.218,0,0,1-.013.436Zm-3.547-.2H128.9l-1.771-.092a.218.218,0,0,1,.022-.436l1.772.092a.218.218,0,0,1-.011.436Zm-3.546-.179h-.01l-1.773-.081a.218.218,0,0,1,.019-.436l1.774.081a.218.218,0,0,1-.01.436Zm-3.547-.155h-.009c-.593-.024-1.19-.047-1.773-.068a.218.218,0,0,1,.016-.436c.584.021,1.182.044,1.775.068a.218.218,0,0,1-.009.437ZM95.2,169.818a.218.218,0,0,1-.013-.436c.572-.035,1.169-.067,1.775-.1a.218.218,0,0,1,.021.436c-.6.028-1.2.06-1.769.095Zm23.074-.081h-.007c-.594-.02-1.191-.038-1.774-.055a.218.218,0,0,1,.013-.437c.583.017,1.181.035,1.776.055a.218.218,0,0,1-.007.437Zm-19.527-.087a.218.218,0,0,1-.008-.437c.576-.02,1.174-.039,1.777-.054a.218.218,0,0,1,.011.437c-.6.015-1.2.034-1.773.054Zm15.978-.015h-.005c-.6-.015-1.192-.028-1.774-.04a.218.218,0,0,1,.009-.437c.583.012,1.18.025,1.776.04a.218.218,0,0,1-.005.437Zm-3.55-.071h0c-.6-.009-1.193-.017-1.774-.022a.218.218,0,0,1,0-.437h0c.581.006,1.179.013,1.776.022a.218.218,0,0,1,0,.437Zm-8.877,0a.218.218,0,0,1,0-.437c.578-.01,1.176-.017,1.777-.023a.218.218,0,1,1,0,.437c-.6.005-1.2.013-1.774.023Zm5.326-.031h0c-.6,0-1.195,0-1.774,0h0a.218.218,0,0,1,0-.437c.58,0,1.178,0,1.777,0a.218.218,0,0,1,0,.437Z" transform="translate(-80.417 -166.139)" fill="#263238"/>
      <path id="Path_2323" data-name="Path 2323" d="M89.128,170.547a.218.218,0,0,1-.017-.436l.873-.07a.218.218,0,0,1,.035.435l-.873.07Z" transform="translate(-76.997 -166.674)" fill="#263238"/>
      <path id="Path_2324" data-name="Path 2324" d="M105.515,224.681c-4.722,0-10.343-.162-13.274-.258-1.823-.06-3.6-.127-5.016-.189-.609-.027-1.116-.051-1.469-.071-.173-.01-.307-.018-.4-.025l-.11-.01-.041-.006a.222.222,0,0,1-.187-.2h0L83.977,212.79a2.716,2.716,0,0,1,2.55-2.968c4.629-.268,16.239-.89,24.037-.89,2.275,0,4.087.053,5.386.157a13.66,13.66,0,0,1,4.6,1.09,6.966,6.966,0,0,1,3.443,3.182,8.893,8.893,0,0,1,.934,4.272,5.7,5.7,0,0,1-1.629,3.993,10.437,10.437,0,0,1-5.549,2.468,41.831,41.831,0,0,1-6.321.479c-.5.012-.979.023-1.435.04C108.8,224.658,107.293,224.681,105.515,224.681Zm-20.077-.975c1.452.1,12.271.538,20.077.538,1.772,0,3.271-.023,4.457-.068.459-.016.936-.028,1.441-.04,3.943-.094,8.85-.211,11.578-2.826,1.991-1.911,1.8-5.42.607-7.752-1.2-2.365-3.782-3.722-7.683-4.035-1.288-.1-3.088-.156-5.352-.156-7.786,0-19.386.622-24.012.89a2.28,2.28,0,0,0-2.14,2.491Z" transform="translate(-74.212 -188.583)" fill="#263238"/>
      <path id="Path_2325" data-name="Path 2325" d="M129.674,227.617c0-.31,1.59,6.4-4.218,8.611s-32.686,1.515-32.686,1.515V234.6s19.013.4,22.179.314S129.334,235.879,129.674,227.617Z" transform="translate(-79.172 -199.102)" fill="#263238"/>
      <path id="Path_2326" data-name="Path 2326" d="M170.737,321.376a.218.218,0,0,1-.207-.148,15.054,15.054,0,0,0-3.866-5.868,15.636,15.636,0,0,0-2.566-2.022.218.218,0,0,1,.221-.377,15.739,15.739,0,0,1,2.638,2.075,17.009,17.009,0,0,1,2.189,2.541,14.051,14.051,0,0,1,1.8,3.511.218.218,0,0,1-.207.289Z" transform="translate(-119.291 -247.166)" fill="#263238"/>
      <path id="Path_2327" data-name="Path 2327" d="M86.028,225.394a.218.218,0,0,1,0-.437l1.747-.01a.218.218,0,1,1,0,.437l-1.747.01Zm3.493-.021a.218.218,0,0,1,0-.437l1.747-.012a.218.218,0,1,1,0,.437l-1.747.012Zm3.494-.025a.218.218,0,0,1,0-.437l1.747-.014a.218.218,0,0,1,0,.437l-1.747.014Zm3.494-.03a.218.218,0,0,1,0-.437l1.747-.017a.218.218,0,1,1,0,.437l-1.747.017Zm3.494-.036a.218.218,0,0,1,0-.437l1.747-.02a.218.218,0,1,1,.005.437l-1.747.02Zm3.494-.043a.218.218,0,0,1,0-.437l1.746-.025a.218.218,0,0,1,.007.437l-1.747.025Zm3.493-.052a.218.218,0,0,1,0-.437l1.746-.031a.218.218,0,1,1,.008.437l-1.747.031Zm3.493-.067a.218.218,0,0,1,0-.437c.619-.014,1.207-.028,1.745-.042a.218.218,0,1,1,.012.437c-.539.014-1.127.028-1.747.042Zm3.492-.094a.218.218,0,0,1-.007-.437c.674-.023,1.26-.047,1.742-.071a.218.218,0,0,1,.022.436c-.484.024-1.072.048-1.749.071Zm3.483-.219a.218.218,0,0,1-.038-.433,8.076,8.076,0,0,0,1.631-.472.218.218,0,0,1,.164.4,8.515,8.515,0,0,1-1.719.5A.221.221,0,0,1,117.458,224.807Zm3.215-1.3a.218.218,0,0,1-.123-.4,6.552,6.552,0,0,0,1.269-1.11.218.218,0,1,1,.329.287,6.989,6.989,0,0,1-1.353,1.184A.217.217,0,0,1,120.673,223.5Zm2.227-2.625a.218.218,0,0,1-.2-.3,4.386,4.386,0,0,0,.313-1.624.218.218,0,0,1,.218-.218h0a.218.218,0,0,1,.218.219,4.821,4.821,0,0,1-.344,1.786A.218.218,0,0,1,122.9,220.88Zm.059-3.425a.218.218,0,0,1-.209-.155,4.793,4.793,0,0,0-.732-1.494.218.218,0,1,1,.351-.259,5.3,5.3,0,0,1,.8,1.627.218.218,0,0,1-.209.281Zm-2.037-2.744a.217.217,0,0,1-.119-.035,6.942,6.942,0,0,0-1.526-.724.218.218,0,1,1,.142-.413,7.376,7.376,0,0,1,1.622.771.218.218,0,0,1-.119.4Zm-36.413-.663a.218.218,0,0,1-.01-.436l1.744-.08a.218.218,0,0,1,.02.436l-1.743.08ZM88,213.89a.218.218,0,0,1-.009-.436l1.746-.076a.218.218,0,1,1,.019.436l-1.746.076Zm3.491-.15a.218.218,0,0,1-.009-.437l1.746-.072a.218.218,0,1,1,.018.436l-1.745.072Zm3.491-.142a.218.218,0,0,1-.008-.437l1.746-.068a.218.218,0,0,1,.017.436l-1.745.068Zm22.679-.07a.22.22,0,0,1-.041,0c-.518-.1-1.094-.178-1.71-.239a.218.218,0,1,1,.043-.435c.629.063,1.217.145,1.748.245a.218.218,0,0,1-.04.433Zm-19.188-.063a.218.218,0,0,1-.008-.437l1.746-.063a.218.218,0,0,1,.015.436l-1.745.062Zm3.492-.122a.218.218,0,0,1-.007-.437l1.747-.055a.218.218,0,0,1,.013.436l-1.746.055Zm3.492-.106a.218.218,0,0,1-.006-.437c.608-.017,1.2-.032,1.747-.045a.218.218,0,1,1,.01.437c-.551.013-1.138.028-1.745.045Zm8.732-.072h-.01l-.444-.017c-.358-.012-.793-.019-1.294-.022a.218.218,0,0,1,0-.437c.5,0,.944.01,1.306.022l.448.017a.218.218,0,0,1-.009.436Zm-5.24-.009a.218.218,0,0,1,0-.437c.627-.011,1.216-.02,1.748-.025a.218.218,0,1,1,0,.437c-.531.005-1.118.014-1.744.025Z" transform="translate(-74.395 -190.699)" fill="#263238"/>
      <path id="Path_2328" data-name="Path 2328" d="M89.886,268.624s-3.607-12.529-10.245-15c0,0-1.31-8.55,1.52-9.022s10.821-5.738,8.734-12.31-8.354,3.3-12.529,3.677-8.734,5.9-8.546,10.638-4.367,13.664-3.227,18.778,8.166,14.236,8.734,18.983" transform="translate(-63.759 -200.475)" fill="#fff"/>
      <path id="Path_2328_-_Outline" data-name="Path 2328 - Outline" d="M74.044,284.306a.218.218,0,0,1-.217-.192c-.292-2.444-2.385-6.173-4.41-9.778-1.854-3.3-3.771-6.717-4.321-9.183-.656-2.943.512-7.028,1.642-10.979.854-2.987,1.661-5.809,1.58-7.837a9.156,9.156,0,0,1,.684-3.7,13.035,13.035,0,0,1,2-3.4,12.127,12.127,0,0,1,2.838-2.574,7.26,7.26,0,0,1,3.22-1.189c1.495-.136,3.334-1.593,5.112-3,2.163-1.713,4.206-3.331,5.813-2.84.816.25,1.415,1.007,1.831,2.315a7.311,7.311,0,0,1,.247,3.487,8.8,8.8,0,0,1-1.2,3.089,14.5,14.5,0,0,1-4.045,4.158,11.034,11.034,0,0,1-3.906,1.857c-1.312.219-1.615,2.552-1.639,4.471a30.27,30.27,0,0,0,.281,4.178,11.229,11.229,0,0,1,4.371,3.4,26.589,26.589,0,0,1,3.238,5.081,43.293,43.293,0,0,1,2.648,6.61.218.218,0,0,1-.42.121,42.826,42.826,0,0,0-2.622-6.541c-1.562-3.1-4.129-7.061-7.489-8.31a.218.218,0,0,1-.14-.172,30.771,30.771,0,0,1-.3-4.37c.036-3.036.71-4.685,2-4.9a10.6,10.6,0,0,0,3.728-1.785,14.062,14.062,0,0,0,3.922-4.028,7.286,7.286,0,0,0,.912-6.216c-.369-1.161-.873-1.825-1.542-2.03a3.186,3.186,0,0,0-2.415.592,26.8,26.8,0,0,0-3,2.173c-1.829,1.448-3.719,2.946-5.344,3.094a9.11,9.11,0,0,0-5.759,3.6,10.716,10.716,0,0,0-2.588,6.809c.083,2.1-.733,4.953-1.6,7.975-1.115,3.9-2.267,7.929-1.635,10.764.536,2.4,2.437,5.789,4.275,9.064,1.019,1.815,2.072,3.691,2.888,5.391a15.333,15.333,0,0,1,1.574,4.55.218.218,0,0,1-.191.243Z" transform="translate(-63.476 -200.193)" fill="#263238"/>
      <path id="Path_2329" data-name="Path 2329" d="M101.45,231.932s5,.908,7.716-2.266-.41-3.376-.41-3.376Z" transform="translate(-84.061 -198.361)" fill="#fff"/>
      <path id="Path_2329_-_Outline" data-name="Path 2329 - Outline" d="M102.8,231.989h0a10.239,10.239,0,0,1-1.675-.124.218.218,0,0,1-.094-.388l7.306-5.642a.218.218,0,0,1,.147-.045c.051,0,1.264.091,1.626.949.289.686-.069,1.623-1.064,2.787a6.712,6.712,0,0,1-3.15,2.017A10.3,10.3,0,0,1,102.8,231.989Zm-1.085-.488c.276.027.649.052,1.085.052a7.63,7.63,0,0,0,5.915-2.31c.867-1.013,1.21-1.82.994-2.333s-.935-.641-1.175-.674Z" transform="translate(-83.779 -198.079)" fill="#263238"/>
      <path id="Path_2330" data-name="Path 2330" d="M83.286,256.19a.217.217,0,0,1-.117-.034,5.291,5.291,0,0,0-2.466-.809.218.218,0,1,1,.03-.436,5.729,5.729,0,0,1,2.67.876.218.218,0,0,1-.117.4Z" transform="translate(-72.26 -214.483)" fill="#263238"/>
      <path id="Path_2331" data-name="Path 2331" d="M82.866,260.494a.217.217,0,0,1-.133-.046,4.605,4.605,0,0,0-2.385-.942.218.218,0,0,1,.041-.435A5.041,5.041,0,0,1,83,260.1a.218.218,0,0,1-.134.391Z" transform="translate(-72.063 -216.826)" fill="#263238"/>
      <path id="Path_2332" data-name="Path 2332" d="M111.278,296.853a.218.218,0,0,1-.011-.436c.214-.011,21.474-1.1,27.055-.782a.218.218,0,1,1-.025.436c-.709-.041-1.673-.058-2.815-.058-7.816,0-24.005.83-24.192.84Z" transform="translate(-89.475 -237.391)" fill="#263238"/>
      <path id="Path_2333" data-name="Path 2333" d="M169.982,292.158l-.028,0a53.618,53.618,0,0,0-8.688,0,.218.218,0,0,1-.035-.435,54.075,54.075,0,0,1,8.78,0,.218.218,0,0,1-.028.435Z" transform="translate(-117.623 -235.111)" fill="#263238"/>
      <path id="Line_15" data-name="Line 15" d="M8.43-.063H-.282A.218.218,0,0,1-.5-.282.218.218,0,0,1-.282-.5H8.43a.218.218,0,0,1,.218.218A.218.218,0,0,1,8.43-.063Z" transform="translate(57.549 58.683)" fill="#263238"/>
      <path id="Path_2334" data-name="Path 2334" d="M210.4,232.867a.218.218,0,0,1,0-.437c.579-.013,1.166-.028,1.745-.043a.218.218,0,1,1,.012.437c-.58.015-1.167.03-1.747.043Zm3.492-.093a.218.218,0,0,1-.006-.437c.579-.017,1.166-.036,1.745-.056a.218.218,0,0,1,.015.436c-.579.02-1.167.038-1.747.056Zm3.491-.118a.218.218,0,0,1-.008-.437c.579-.022,1.166-.045,1.745-.068a.218.218,0,0,1,.018.436c-.579.024-1.167.047-1.746.068Zm3.491-.143a.218.218,0,0,1-.01-.436c.579-.026,1.166-.053,1.744-.081a.218.218,0,1,1,.021.436c-.579.028-1.166.055-1.746.081Zm3.489-.168a.218.218,0,0,1-.011-.436c.579-.03,1.165-.061,1.743-.093a.218.218,0,0,1,.024.436c-.579.032-1.166.063-1.745.093Zm3.488-.193a.218.218,0,0,1-.013-.436c.578-.034,1.165-.07,1.743-.106a.218.218,0,1,1,.027.436c-.579.036-1.166.072-1.744.106Zm3.487-.217a.218.218,0,0,1-.014-.436c.578-.038,1.164-.078,1.742-.118a.218.218,0,0,1,.03.436c-.578.04-1.165.08-1.744.118Zm3.485-.242a.218.218,0,0,1-.016-.436c.578-.042,1.164-.086,1.741-.13a.218.218,0,0,1,.033.435c-.578.044-1.164.088-1.743.13Zm3.483-.267a.218.218,0,0,1-.017-.436c.577-.046,1.163-.094,1.74-.143a.218.218,0,1,1,.036.435c-.578.048-1.164.1-1.742.143Zm3.481-.292a.218.218,0,0,1-.019-.436c.577-.05,1.162-.1,1.739-.155a.218.218,0,1,1,.04.435c-.577.053-1.163.1-1.741.155Zm3.479-.317a.218.218,0,0,1-.02-.436c.577-.055,1.161-.111,1.738-.167a.218.218,0,0,1,.043.435c-.577.057-1.162.113-1.739.168Zm3.477-.341a.218.218,0,0,1-.022-.436c.576-.059,1.161-.119,1.737-.18a.218.218,0,0,1,.046.434c-.577.061-1.161.121-1.738.18Zm3.474-.366a.218.218,0,0,1-.023-.435c.576-.063,1.16-.127,1.735-.192a.218.218,0,1,1,.049.434c-.576.065-1.161.13-1.737.192Zm3.472-.391a.218.218,0,0,1-.025-.435c.575-.067,1.159-.136,1.734-.2a.218.218,0,1,1,.052.434c-.576.069-1.16.138-1.736.2Zm3.469-.416a.218.218,0,0,1-.026-.435c.575-.071,1.158-.144,1.732-.217a.218.218,0,1,1,.055.433c-.575.073-1.159.146-1.734.217Zm2.315-1.477h0a.218.218,0,0,1-.214-.223c.012-.583.023-1.17.033-1.744a.218.218,0,0,1,.218-.215h0a.218.218,0,0,1,.215.222c-.01.575-.021,1.162-.033,1.746A.218.218,0,0,1,261.472,227.827Zm.061-3.494h0a.218.218,0,0,1-.215-.221c.008-.584.015-1.171.021-1.746a.218.218,0,0,1,.437,0c-.006.575-.013,1.163-.021,1.748A.218.218,0,0,1,261.532,224.334Zm.035-3.491h0a.218.218,0,0,1-.217-.22c0-.585.006-1.173.007-1.748a.218.218,0,0,1,.218-.218h0a.218.218,0,0,1,.218.219c0,.575,0,1.164-.007,1.749A.218.218,0,0,1,261.567,220.842Zm.006-3.5a.218.218,0,0,1-.218-.218c0-.584,0-1.171-.009-1.745a.218.218,0,0,1,.217-.22h0a.218.218,0,0,1,.218.217c0,.574.007,1.162.009,1.747a.218.218,0,0,1-.218.219Zm-.026-3.493a.218.218,0,0,1-.218-.216c-.007-.585-.016-1.172-.026-1.745a.218.218,0,0,1,.437-.008c.01.574.019,1.161.026,1.747a.218.218,0,0,1-.216.221Zm-.061-3.492a.218.218,0,0,1-.218-.213c-.014-.586-.029-1.174-.046-1.746a.218.218,0,1,1,.436-.013c.017.573.032,1.162.046,1.749a.218.218,0,0,1-.213.223Zm-.1-3.493a.218.218,0,0,1-.218-.211c-.021-.586-.044-1.172-.068-1.743a.218.218,0,1,1,.436-.019c.024.572.047,1.159.068,1.746a.218.218,0,0,1-.21.226Zm-.149-3.488a.218.218,0,0,1-.218-.207c-.029-.587-.061-1.173-.094-1.743a.218.218,0,1,1,.436-.025c.033.571.065,1.158.095,1.746a.218.218,0,0,1-.207.229Zm-.2-3.489a.218.218,0,0,1-.218-.2c-.04-.588-.082-1.174-.126-1.741a.218.218,0,0,1,.435-.034c.044.569.087,1.156.126,1.745a.218.218,0,0,1-.2.233Zm-.271-3.482a.218.218,0,0,1-.217-.2c-.052-.59-.108-1.174-.165-1.738a.218.218,0,0,1,.434-.044c.057.565.113,1.152.166,1.743a.218.218,0,0,1-.2.237Zm-.354-3.477a.218.218,0,0,1-.217-.193c-.069-.591-.141-1.173-.216-1.729a.218.218,0,1,1,.433-.058c.075.559.148,1.144.217,1.737a.218.218,0,0,1-.192.242Zm-.465-3.461a.218.218,0,0,1-.215-.185c-.092-.595-.189-1.173-.288-1.718a.218.218,0,0,1,.43-.078c.1.549.2,1.13.29,1.729a.218.218,0,0,1-.182.249Zm-.628-3.436a.218.218,0,0,1-.213-.172c-.132-.609-.269-1.176-.408-1.686a.218.218,0,1,1,.421-.114c.141.517.28,1.092.413,1.708a.219.219,0,0,1-.214.265Zm-54.755-2.277a.218.218,0,0,1-.019-.436c.006,0,.635-.057,1.738-.148a.218.218,0,0,1,.036.435c-1.1.092-1.73.148-1.736.148Zm3.481-.291a.218.218,0,0,1-.017-.436l1.74-.137a.218.218,0,1,1,.034.435l-1.739.137Zm3.482-.269a.218.218,0,0,1-.016-.436l1.742-.128a.218.218,0,0,1,.031.436l-1.741.128Zm3.484-.251a.218.218,0,0,1-.015-.436l1.743-.119a.218.218,0,1,1,.029.436l-1.742.119Zm3.487-.234a.218.218,0,0,1-.014-.436l1.743-.11a.218.218,0,1,1,.027.436l-1.742.11Zm39.878-.037a.218.218,0,0,1-.2-.138c-.047-.118-.084-.2-.111-.263-.379-.047-.78-.092-1.192-.133a.218.218,0,0,1,.044-.435c.459.046.9.1,1.321.149a.218.218,0,0,1,.164.112,4.064,4.064,0,0,1,.18.409.218.218,0,0,1-.2.3Zm-36.392-.179a.218.218,0,0,1-.013-.436l1.745-.1a.218.218,0,1,1,.025.436l-1.744.1Zm3.489-.2a.218.218,0,0,1-.011-.436l1.745-.091a.218.218,0,0,1,.022.436l-1.744.09Zm3.489-.175a.218.218,0,0,1-.01-.436c.585-.028,1.173-.054,1.746-.079a.218.218,0,1,1,.019.436c-.573.025-1.159.051-1.744.079Zm26.188-.133h-.016c-.552-.041-1.136-.078-1.737-.111a.218.218,0,0,1,.024-.436c.6.033,1.191.07,1.746.111a.218.218,0,0,1-.016.436Zm-22.7-.018a.218.218,0,0,1-.009-.437c.587-.023,1.174-.046,1.746-.066a.218.218,0,0,1,.016.436c-.572.02-1.159.043-1.745.066Zm3.491-.125a.218.218,0,0,1-.007-.437c.588-.018,1.176-.036,1.747-.051a.218.218,0,1,1,.012.437c-.571.015-1.158.032-1.745.051Zm15.718-.048h-.009c-.56-.022-1.146-.04-1.742-.055a.218.218,0,0,1,.011-.437c.6.015,1.186.034,1.747.056a.218.218,0,0,1-.008.437Zm-12.226-.045a.218.218,0,0,1,0-.437c.59-.013,1.178-.024,1.748-.033a.218.218,0,1,1,.007.437c-.569.009-1.156.02-1.745.033Zm8.735-.046h0c-.565-.008-1.152-.014-1.745-.018a.218.218,0,0,1,0-.437h0c.595,0,1.183.009,1.749.018a.218.218,0,0,1,0,.437Zm-5.241-.009a.218.218,0,0,1,0-.437c.592-.006,1.18-.009,1.749-.011h0a.218.218,0,0,1,0,.437c-.567,0-1.155.005-1.745.011Z" transform="translate(-142.02 -172.991)" fill="#263238"/>
    </g>
    <g id="freepik--Card--inject-17" transform="translate(119.907 64.535)">
      <g id="Group_659" data-name="Group 659" transform="translate(0 3.875)" opacity="0.1">
        <path id="Path_2335" data-name="Path 2335" d="M317.053,194.668c-1.087-4.625-2.681-6.363-4.28-7.7a5.6,5.6,0,0,0-2.083-4.114,13.886,13.886,0,0,0-1.747-1.31c-1.921-1.441-4.039-3.057-4.039-3.057-1-2.882-2.345-6.371-3.8-9.8l.074.782c-1.493-3.646-2.956-7.275-3.367-8.48v-.026c.437,1.162.873,2.284,1.354,3.319l-5.467-19.323c-.131-.777-.266-1.542-.4-2.28-.262-2.183-.974-6.3-2.69-6.59a1.426,1.426,0,0,0-.192,0s-2.022-.873-2.022,2.712a5.113,5.113,0,0,0-3.568,4.756,6.385,6.385,0,0,0-.044,2.052c.044.79.135,1.6.258,2.4l-7.747-10.184-.747-.969-9.555-12.577-12.843-16.943a6.013,6.013,0,0,0-8.428-1.148L229.773,118.3l-6.223,4.725c-4.773,2.485-3.528,7.393-2.205,9.135l27.8,36.6a2.9,2.9,0,0,0-.437-.022,2.659,2.659,0,0,0-2.76-1.576,2.275,2.275,0,0,0-1.17.389,2.1,2.1,0,0,0-.782.712,6.212,6.212,0,0,0-.585.838c-1,1.712-.074,5.9,1.371,11.013.092.332.183.651.271.948v.048l.371,1.279c1.415,4.908,4.061,14.546,4.55,19.271.035.437.057.9.066,1.341.031,5.441-2.384,14.55-1.345,18.315.135.493.275.965.415,1.432A42.827,42.827,0,0,0,251.79,230c1.476,2.882,3.236,5.646,4.882,8.437q4.533,7.69,9.38,15.2c1.489,2.3,3.231,4.393,4.917,6.55.773.991,2.459,2.48,2.751,3.751,0,0,14.948,1.236,23.315-4.079l-.786-11.9,5.611-32.249c1.6-2.432,6.55-7.184,7.537-8.686.511-.747,1.009-1.489,1.493-2.214,3.69-3.445,5.537-6.114,6.349-9.218A5.024,5.024,0,0,0,317.053,194.668Zm-52.346,6.31Zm.6.734-.074-.14a17.668,17.668,0,0,0,4.8,1.4C268.293,202.769,266.323,202.49,265.306,201.712Zm6.306,1.445h0l.8.057a6.018,6.018,0,0,1-.8-.057Zm-6.463-1.773-1-1.991c-1.4-4.009-4.555-13.459-4.568-13.5h0A54.586,54.586,0,0,0,257.1,177.9a4.755,4.755,0,0,0,4.459-.7l7.642-5.8c.79.476,1.6.9,2.389,1.279l7.157,5.594-5.677,23.332Zm28.97-53.739h0c.594,2.786,1.533,6.795,2.777,10.677a70,70,0,0,1-2.786-10.677Z" transform="translate(-220.147 -104.96)"/>
        <path id="Path_2336" data-name="Path 2336" d="M315.25,459.45l.044.21S315.281,459.581,315.25,459.45Z" transform="translate(-273.72 -304.649)"/>
      </g>
      <path id="Path_2337" data-name="Path 2337" d="M353.543,194.733c.437-.288,6.839-3.773,10.044,6.677s6.965,28.232,6.965,28.232l-7.616,1.48s-7.057-3.756-13.38-13.162c0,0-8.865-2.3-12.725-7.756-3.493-4.961,7.284-23.175,7.284-23.175Z" transform="translate(-285.484 -147.315)" fill="#fff"/>
      <path id="Path_2338" data-name="Path 2338" d="M379.728,245.046a.218.218,0,0,1-.079-.015c-4.478-1.744-7.853-6.889-9.869-9.963-.182-.278-.354-.54-.513-.779a.218.218,0,1,1,.363-.242c.16.24.333.5.515.782,1.987,3.03,5.314,8.1,9.662,9.8a.218.218,0,0,1-.079.422Z" transform="translate(-304.127 -173.746)" fill="#263238"/>
      <path id="Path_2339" data-name="Path 2339" d="M373.106,254.684a.218.218,0,0,1-.079-.015,17.828,17.828,0,0,1-5-3.067,27.578,27.578,0,0,1-3.739-3.908,32.536,32.536,0,0,1-3.109-4.69,11.994,11.994,0,0,1-3.023-1.19c-.41-.2-.764-.375-1.009-.474a.218.218,0,1,1,.164-.4c.259.1.62.282,1.037.487a10.869,10.869,0,0,0,2.978,1.157.218.218,0,0,1,.185.12,31.348,31.348,0,0,0,3.125,4.732c1.834,2.311,4.807,5.373,8.55,6.831a.218.218,0,0,1-.079.422Z" transform="translate(-297.243 -177.672)" fill="#263238"/>
      <path id="Path_2340" data-name="Path 2340" d="M367.839,264.385a.217.217,0,0,1-.079-.015,17.829,17.829,0,0,1-5-3.067,27.579,27.579,0,0,1-3.739-3.908,32.552,32.552,0,0,1-3.107-4.686,10.876,10.876,0,0,1-3.841-1.156,21.157,21.157,0,0,1-4.334-2.818.218.218,0,1,1,.28-.335c2.671,2.235,5.9,3.794,8.039,3.879a.218.218,0,0,1,.186.12,31.347,31.347,0,0,0,3.125,4.732c1.834,2.311,4.807,5.373,8.55,6.831a.218.218,0,0,1-.079.422Z" transform="translate(-291.977 -181.858)" fill="#263238"/>
      <rect id="Rectangle_500" data-name="Rectangle 500" width="39.861" height="64.983" rx="10.92" transform="translate(4.988 24.111) rotate(-37.22)" fill="#25304e"/>
      <path id="Path_2341" data-name="Path 2341" d="M301.645,150.672l-22.157,16.834a6,6,0,0,1-8.428-1.153l-32.031-42.167a5.887,5.887,0,0,1-1.074-2.306,5.987,5.987,0,0,1,2.223-6.114l6.227-4.725,15.939-12.114a6.013,6.013,0,0,1,8.428,1.153L283.623,117l9.555,12.577,9.607,12.664a6.013,6.013,0,0,1-1.14,8.432Z" transform="translate(-230.092 -96.997)" fill="#b92056"/>
      <path id="Path_2342" data-name="Path 2342" d="M294.685,117l-37.215-5.961,15.952-12.109a6.013,6.013,0,0,1,8.428,1.153Z" transform="translate(-241.171 -96.997)" opacity="0.1"/>
      <path id="Path_2343" data-name="Path 2343" d="M301.841,181.861,279.683,198.7a6,6,0,0,1-8.428-1.153l-32.031-42.167a5.887,5.887,0,0,1-1.074-2.306l55.957,8.7,8.874,11.681A6.013,6.013,0,0,1,301.841,181.861Z" transform="translate(-230.288 -128.185)" opacity="0.1"/>
      <rect id="Rectangle_501" data-name="Rectangle 501" width="8.476" height="11.393" rx="4.08" transform="translate(30.065 10.263) rotate(-37.22)" fill="#fff"/>
      <path id="Rectangle_501_-_Outline" data-name="Rectangle 501 - Outline" d="M2,0H6.913a2,2,0,0,1,2,2V9.83a2,2,0,0,1-2,2H2a2,2,0,0,1-2-2V2A2,2,0,0,1,2,0ZM6.913,11.393A1.565,1.565,0,0,0,8.476,9.83V2A1.565,1.565,0,0,0,6.913.437H2A1.565,1.565,0,0,0,.437,2V9.83A1.565,1.565,0,0,0,2,11.393Z" transform="translate(29.759 10.221) rotate(-37.22)" fill="#263238"/>
      <path id="Line_16" data-name="Line 16" d="M6.474,9.116A.218.218,0,0,1,6.3,9.027L-.458-.152A.218.218,0,0,1-.411-.458a.218.218,0,0,1,.305.046L6.65,8.768a.218.218,0,0,1-.176.348Z" transform="translate(33.803 7.913)" fill="#263238"/>
      <path id="Line_17" data-name="Line 17" d="M-.282,5.059a.218.218,0,0,1-.174-.086.218.218,0,0,1,.042-.306L6.342-.456a.218.218,0,0,1,.306.042.218.218,0,0,1-.042.306L-.15,5.015A.217.217,0,0,1-.282,5.059Z" transform="translate(33.803 9.974)" fill="#263238"/>
      <path id="Path_2344" data-name="Path 2344" d="M307.239,227.353l-1.153.847L292.02,209.685l1.144-.865Z" transform="translate(-260.634 -159.59)" fill="#25304e"/>
      <path id="Path_2345" data-name="Path 2345" d="M311.686,224.015l-1.153.856L296.45,206.325l1.135-.865Z" transform="translate(-263.129 -157.697)" fill="#25304e"/>
      <path id="Path_2346" data-name="Path 2346" d="M316.123,220.685l-1.148.847L300.87,202.969l1.14-.869Z" transform="translate(-265.619 -155.805)" fill="#25304e"/>
      <path id="Path_2347" data-name="Path 2347" d="M320.83,217.691l-1.153.847L305.76,200.219l1.135-.869Z" transform="translate(-268.374 -154.255)" fill="#25304e"/>
      <path id="Path_2348" data-name="Path 2348" d="M325.622,214.1l-1.153.852L310.53,196.6l1.14-.869Z" transform="translate(-271.061 -152.216)" fill="#25304e"/>
      <path id="Path_2349" data-name="Path 2349" d="M325.622,164.657l-1.153.847-13.939-18.35,1.14-.865Z" transform="translate(-271.061 -124.366)" fill="#25304e"/>
      <rect id="Rectangle_502" data-name="Rectangle 502" width="2.24" height="64.935" transform="translate(22.42 9.448) rotate(-37.22)" fill="#25304e"/>
      <path id="Path_2350" data-name="Path 2350" d="M275.567,168.672A6.223,6.223,0,0,1,270.6,166.2l-32.031-42.166a6.145,6.145,0,0,1-1.114-2.391,6.214,6.214,0,0,1,2.3-6.335l6.227-4.725L261.93,98.473A6.176,6.176,0,0,1,265.7,97.2a6.289,6.289,0,0,1,2.73.627,6.166,6.166,0,0,1,2.238,1.838l22.406,29.494,9.607,12.664a6.232,6.232,0,0,1-1.181,8.738L279.338,167.4A6.257,6.257,0,0,1,275.567,168.672ZM265.7,97.64a5.743,5.743,0,0,0-3.5,1.181l-15.939,12.114-6.227,4.725a5.777,5.777,0,0,0-2.142,5.891,5.708,5.708,0,0,0,1.035,2.222l32.032,42.167a5.786,5.786,0,0,0,8.122,1.111l22.158-16.834a5.795,5.795,0,0,0,1.1-8.126l-9.607-12.664L270.316,99.932A5.754,5.754,0,0,0,265.7,97.64Z" transform="translate(-229.811 -96.715)" fill="#263238"/>
      <path id="Path_2351" data-name="Path 2351" d="M312.2,299.851s25.791,9.17,33.594-10.8c0,0-12.205-14.847-5.542-26.979,4.192-7.642,15.786-24.511,15.786-24.511s4.843-4.6,6.349-9.218a17.073,17.073,0,0,0-4.48-8.633,5.613,5.613,0,0,0-2.087-4.114c-2.048-1.493-5.8-4.367-5.8-4.367s-6.175-14.812-7.092-17.489a80.855,80.855,0,0,1-3.681-13.328c-.921-5.59-1.773-11.607-3.729-11.59,0,0-2.018-.873-2.018,2.712,0,0-4.236,2.183-3.611,6.8s1.2,7.009,1.035,9.607.668,11.62,2.755,14.45c0,0,.7,12.664,1.747,15.961.035.1.065.192.1.275,1.1,2.79-9.9,13.537-15.847,16.446,0,0-.624,1.162-2.935.843s-6.218-.467-6.891-2.183-5.149-15.105-5.149-15.105-3.62-17.162-10.852-17.157a2.666,2.666,0,0,0-3.93-1.188c-2.834,1.432-.978,9.24.275,13.511s4.428,15.5,4.943,20.664-2.41,15.515-1.31,19.585,2.323,6.817,5.834,13.481S310.949,294.057,312.2,299.851Z" transform="translate(-258.611 -137.004)" fill="#fff"/>
      <path id="Path_2352" data-name="Path 2352" d="M311.565,340.012a.218.218,0,0,1-.211-.162c-.014-.052-1.406-5.268-3.77-12.056-2.181-6.261-5.658-15.177-9.839-22.1-2.666-4.415-4.125-8.171-4.593-11.82a32.71,32.71,0,0,1,.459-9.282,54.533,54.533,0,0,0,.762-8.382c0-5.4-2.164-12.732-4.072-19.2-1.02-3.456-1.983-6.719-2.531-9.384-.622-3.022-.628-4.912-.021-5.948a4.783,4.783,0,0,1,1.435-1.624,2.421,2.421,0,0,1,1.579-.411,4.217,4.217,0,0,1,2.676,1.691,11.557,11.557,0,0,1,1.919,3.46,6.98,6.98,0,0,1,.461,2.583,3.91,3.91,0,0,1-.611,2.023c-.806,1.235-2.372,1.969-4.53,2.122a.218.218,0,1,1-.031-.436c2.016-.143,3.467-.809,4.195-1.925a4.66,4.66,0,0,0,.1-4.22,11.111,11.111,0,0,0-1.842-3.326,3.807,3.807,0,0,0-2.382-1.537c-.962-.09-1.836.523-2.6,1.821-.542.925-.518,2.769.072,5.64.544,2.646,1.505,5.9,2.522,9.348,1.917,6.5,4.09,13.857,4.09,19.322a54.889,54.889,0,0,1-.767,8.445c-.929,6.318-1.663,11.309,4.076,20.813a92.915,92.915,0,0,1,5.567,11.041c1.469,3.4,2.92,7.15,4.312,11.146,2.369,6.8,3.765,12.032,3.779,12.084a.219.219,0,0,1-.211.274Z" transform="translate(-257.974 -176.947)" fill="#263238"/>
      <path id="Path_2353" data-name="Path 2353" d="M320.528,283.379a.218.218,0,0,1-.168-.079c-3.408-4.1-6.713-14.742-9.369-23.292-1.161-3.738-2.164-6.966-3.03-9.22-1.472-3.831-3.419-5.56-4.793-6.335a5.215,5.215,0,0,0-2.6-.77.218.218,0,1,1-.027-.436,5.58,5.58,0,0,1,2.839.825,9.148,9.148,0,0,1,2.54,2.189,15.766,15.766,0,0,1,2.445,4.37c.871,2.267,1.876,5.5,3.039,9.247,2.644,8.513,5.935,19.107,9.288,23.142a.218.218,0,0,1-.168.358Z" transform="translate(-265.321 -178.983)" fill="#263238"/>
      <path id="Path_2354" data-name="Path 2354" d="M346.336,320.3a23.492,23.492,0,0,1-4.13-.358,19.077,19.077,0,0,1-3.5-.958c-.431-.167-.742-.311-.928-.4-.38-.187-.4-.222-.422-.285a.218.218,0,0,1,.342-.253,8.87,8.87,0,0,0,1.317.59,19,19,0,0,0,3.453.911,26.1,26.1,0,0,0,12.2-1.018.218.218,0,0,1,.131.417,28.814,28.814,0,0,1-7.133,1.322Q347,320.3,346.336,320.3Z" transform="translate(-286.163 -221.087)" fill="#263238"/>
      <path id="Path_2355" data-name="Path 2355" d="M302.608,292.081a.218.218,0,0,1-.169-.357,4.939,4.939,0,0,1,4.615-1.75.218.218,0,1,1-.07.431,4.515,4.515,0,0,0-4.207,1.6A.218.218,0,0,1,302.608,292.081Z" transform="translate(-266.475 -205.27)" fill="#263238"/>
      <path id="Path_2356" data-name="Path 2356" d="M304.658,298.008a.218.218,0,0,1-.167-.358,3.978,3.978,0,0,1,4.015-1.308.218.218,0,1,1-.106.424,3.562,3.562,0,0,0-3.574,1.164A.218.218,0,0,1,304.658,298.008Z" transform="translate(-267.63 -208.825)" fill="#263238"/>
      <path id="Path_2357" data-name="Path 2357" d="M355.488,239.446a.218.218,0,0,1-.081-.421c4.834-1.927,9.257-6.145,11.463-8.488,3.033-3.22,5.521-6.75,6.076-8.613-.116-.8-1.623-11.261-1.633-15.7-1.654-3.955-3.794-11.185-2.951-15.021a15.466,15.466,0,0,0-.416-4.927,24.722,24.722,0,0,1-.568-6.842,6.209,6.209,0,0,1,1.028-2.9,5.177,5.177,0,0,1,2.676-1.9.218.218,0,1,1,.138.414,4.842,4.842,0,0,0-3.409,4.445,24.415,24.415,0,0,0,.564,6.714,15.343,15.343,0,0,1,.412,5.1,18.229,18.229,0,0,0,.549,7.315,48.772,48.772,0,0,0,2.4,7.484.218.218,0,0,1,.017.085c0,4.53,1.619,15.613,1.635,15.724a.218.218,0,0,1-.006.092,14.863,14.863,0,0,1-2.066,3.8,44.837,44.837,0,0,1-4.126,5.034c-2.231,2.369-6.707,6.636-11.619,8.594A.218.218,0,0,1,355.488,239.446Z" transform="translate(-296.263 -140.325)" fill="#263238"/>
      <path id="Path_2358" data-name="Path 2358" d="M394.544,180.782h0a2.285,2.285,0,0,1-1.582-.717,4.506,4.506,0,0,1-1.11-2.075,21.925,21.925,0,0,1-.715-5,6.748,6.748,0,0,1,.837-3.869,1.7,1.7,0,0,1,1.4-.709c1.154,0,2.048,1.391,2.658,4.134a30.092,30.092,0,0,1,.572,3.986,4.434,4.434,0,0,1-.634,3.566A1.863,1.863,0,0,1,394.544,180.782Zm-1.171-11.935a1.267,1.267,0,0,0-1.053.539c-1.113,1.443-.866,5.365-.046,8.493a4.075,4.075,0,0,0,.995,1.875,1.855,1.855,0,0,0,1.275.591h0a1.415,1.415,0,0,0,1.093-.533,4.034,4.034,0,0,0,.534-3.224c0-.007,0-.013,0-.02a29.609,29.609,0,0,0-.564-3.934,10.689,10.689,0,0,0-.9-2.666C394.306,169.224,393.857,168.847,393.373,168.847Z" transform="translate(-316.467 -136.827)" fill="#263238"/>
      <path id="Path_2359" data-name="Path 2359" d="M408.621,207.281a.218.218,0,0,1-.2-.127,76.5,76.5,0,0,1-4.24-13.117c-.975-4.053-1.515-7.191-1.52-7.222a.218.218,0,0,1,.43-.074c.005.031.543,3.157,1.515,7.2a76.071,76.071,0,0,0,4.211,13.033.218.218,0,0,1-.2.31Z" transform="translate(-322.959 -147.051)" fill="#263238"/>
      <path id="Path_2360" data-name="Path 2360" d="M422.8,268.316a.218.218,0,0,1-.186-.333,24.133,24.133,0,0,0,3.132-8.81,33.171,33.171,0,0,0-1.714-6.114c-1-2.883-2.331-6.308-3.743-9.646a.218.218,0,1,1,.4-.17c3.026,7.152,5.336,13.85,5.493,15.925a.216.216,0,0,1,0,.057,34.088,34.088,0,0,1-1.178,4.7,20.793,20.793,0,0,1-2.017,4.285A.218.218,0,0,1,422.8,268.316Z" transform="translate(-332.879 -178.906)" fill="#263238"/>
      <path id="Path_2361" data-name="Path 2361" d="M433.116,285.375a.218.218,0,0,1-.188-.329,30.586,30.586,0,0,0,3.772-10.357c.4-2.622-2.2-4.185-4.724-5.7a27.8,27.8,0,0,1-2.388-1.54.218.218,0,0,1,.262-.349,27.49,27.49,0,0,0,2.35,1.514,18.666,18.666,0,0,1,3.578,2.531,4.038,4.038,0,0,1,1.353,3.609v0a31.023,31.023,0,0,1-3.826,10.506A.218.218,0,0,1,433.116,285.375Z" transform="translate(-338.078 -192.397)" fill="#263238"/>
      <path id="Path_2362" data-name="Path 2362" d="M410.437,355.194a.218.218,0,0,1-.177-.091,60.129,60.129,0,0,1-4.709-8.07,39.629,39.629,0,0,1-2.822-7.565,17.517,17.517,0,0,1-.4-7.712c1.146-5.49,7.117-14.133,12.891-22.491,1.569-2.271,3.191-4.619,4.652-6.817a.217.217,0,0,1,.033-.039c3.653-3.407,5.474-6.037,6.274-9.065-1.2-5.886-3.149-7.458-4.865-8.846a.218.218,0,0,1,.275-.34,11.828,11.828,0,0,1,2.771,2.937,18.188,18.188,0,0,1,2.257,6.212.219.219,0,0,1,0,.1c-.815,3.13-2.667,5.828-6.393,9.306-1.46,2.195-3.078,4.537-4.643,6.8-5.749,8.323-11.694,16.929-12.823,22.332-1.009,4.829,1.176,10.818,3.186,14.992a59.674,59.674,0,0,0,4.673,8.011.218.218,0,0,1-.177.346Z" transform="translate(-322.622 -202.002)" fill="#263238"/>
      <path id="Path_2363" data-name="Path 2363" d="M411.919,273.169a.218.218,0,0,1-.113-.405,8.563,8.563,0,0,1,6.753-.919.218.218,0,0,1-.118.42,8.155,8.155,0,0,0-6.409.872A.218.218,0,0,1,411.919,273.169Z" transform="translate(-328.051 -194.913)" fill="#263238"/>
      <path id="Path_2364" data-name="Path 2364" d="M416.779,278.643a.218.218,0,0,1-.1-.41,6.479,6.479,0,0,1,4.041-.71.218.218,0,1,1-.065.432,6.04,6.04,0,0,0-3.767.662A.218.218,0,0,1,416.779,278.643Z" transform="translate(-330.789 -198.251)" fill="#263238"/>
    </g>
  </g>
</svg>
