<svg xmlns="http://www.w3.org/2000/svg" width="62.905" height="69.184" viewBox="0 0 62.905 69.184">
  <path id="Path_2644" data-name="Path 2644" d="M292.992,69.184c-9.986-10.4-21.432-2.382-33.669-11.878-21.192-14.481-15.98-48.283,8.568-55.76,30.475-9.564,54.322,27.441,32.823,51.153-.715,2.1-3.6-4.283-4.368-5-1.87-3.527-5.072-6.522-5.941-10.485-.253-3.258.918-6.471.6-9.763.113-2.1-.765-4.1-.729-6.189-.566-1.856,2.7-7.081.583-7.262-4.627.447-4.278,6.376-5.58,9.669-2.72,4.112-6.743-2.682-7.821-5.21-.932-2.093-6.647-16.17-8.941-11.845a3.414,3.414,0,0,0-.239,2.562c1.208,4.095,4.169,7.481,5.763,11.434,1.312,5.321-4.154-1.571-4.779-2.985-2.08-2.83-3.876-6.375-6.988-8.171a2.462,2.462,0,0,0-1.883-.265c-4.566,1.269,9,13.108,9.484,15.713.426,5.377-10.994-7.887-13.379-7.788-6.7.968,8.22,11.537,9.869,13.248,1.971,1.745-.855.594-1.8.083-2.92-1.293-5.23-3.646-8.254-4.719-2.4-.344-1.158,2.719.04,3.46a36.733,36.733,0,0,0,5.42,3.963,34.221,34.221,0,0,1,7.015,5.678,14.449,14.449,0,0,0,1.92,1.745c.762.466,3.866,3.529,4.157,2.526-1.071-1.925-3.094-3.147-3.9-5.306-.13-1.2-4.051-2.918-2.15-3.341a2.388,2.388,0,0,1,1.882.37c1.048.733,1.806,2.066,3.175,1.83,2.021-2.943-.817-6.6-.417-9.856a.785.785,0,0,1,1.5-.4,2.666,2.666,0,0,0,.14.266c.872,1.452.181,6.459,1.807,6.182.744-1.227-.428-5.541.3-7.251a.9.9,0,0,1,1.708.161c.481,2.214-.734,4.851-.03,6.9a.418.418,0,0,0,.743.09c1.029-1.536.74-3.926,1.589-5.6.732-1.749,1.656-.171,1.482,1a2.4,2.4,0,0,0-.03.4c.031,1.4-.969,3.19-.967,4.538a.336.336,0,0,0,.64.135c.737-1.555,1.608-4.944,2.283-3.39a2.029,2.029,0,0,1,.131,1.143c-.316,1.88-1.522,3.493-1.744,5.375a3.869,3.869,0,0,0-.02.4,10,10,0,0,1-.659,3.167,13.409,13.409,0,0,0-.43,7.545c1.89,7.925,7.021,14.746,11.1,21.735" transform="translate(-246.068 0)" fill="#b92056"/>
</svg>
