<svg xmlns="http://www.w3.org/2000/svg" width="211.577" height="45.456" viewBox="0 0 211.577 45.456">
  <g id="logo_text" data-name="logo text" transform="translate(-1076.5 890.409)">
    <path id="Path_2" data-name="Path 2" d="M0,265.465v42.493H9.646V290.872H24.9v-7.817H9.646v-9.709H25.975v-7.881Z" transform="translate(1076.5 -1152.91)" fill="#25304e"/>
    <path id="Path_3" data-name="Path 3" d="M213.65,322.061c0-3.846-.126-7.124-.252-9.835h8.322l.441,4.224h.189a11.286,11.286,0,0,1,9.52-4.918c6.3,0,11.033,4.161,11.033,13.24v18.283H233.32V325.969c0-3.972-1.387-6.683-4.854-6.683a5.115,5.115,0,0,0-4.854,3.593,6.581,6.581,0,0,0-.378,2.4v17.779H213.65Z" transform="translate(914.918 -1188.701)" fill="#25304e"/>
    <path id="Path_4" data-name="Path 4" d="M398.344,255.934v35.558c0,3.467.126,7.124.252,9.2h-8.511l-.441-4.539h-.126a10.762,10.762,0,0,1-9.646,5.233c-7.313,0-13.176-6.242-13.176-15.824-.063-10.4,6.431-16.392,13.807-16.392,3.783,0,6.746,1.324,8.133,3.468h.126V255.934Zm-9.583,26.983a15.508,15.508,0,0,0-.126-1.7,5.757,5.757,0,0,0-5.611-4.729c-4.35,0-6.62,3.909-6.62,8.763,0,5.233,2.585,8.511,6.557,8.511a5.61,5.61,0,0,0,5.548-4.6,8.155,8.155,0,0,0,.252-2.207Z" transform="translate(798.125 -1146.343)" fill="#25304e"/>
    <path id="Path_5" data-name="Path 5" d="M535.6,322.061c0-3.846-.126-7.124-.253-9.835h8.07l.441,4.161h.189a10.691,10.691,0,0,1,9.331-4.855c3.972,0,7.124,2.018,8.448,5.233h.126a13.8,13.8,0,0,1,3.972-3.72,11.121,11.121,0,0,1,5.863-1.513c5.926,0,10.4,4.161,10.4,13.366v18.157h-9.331v-16.77c0-4.476-1.45-7.061-4.539-7.061a4.689,4.689,0,0,0-4.413,3.341,8.014,8.014,0,0,0-.378,2.459v18.031H554.2V325.78c0-3.909-1.387-6.557-4.413-6.557a4.878,4.878,0,0,0-4.476,3.467,6.353,6.353,0,0,0-.378,2.4v17.968H535.6Z" transform="translate(669.632 -1188.701)" fill="#b92056"/>
    <path id="Path_6" data-name="Path 6" d="M770.334,330.7c.315,3.972,4.224,5.863,8.7,5.863a27.15,27.15,0,0,0,8.511-1.261l1.261,6.494a30.434,30.434,0,0,1-11.159,1.891c-10.465,0-16.455-6.052-16.455-15.7,0-7.818,4.854-16.455,15.572-16.455,9.961,0,13.744,7.755,13.744,15.383a22.778,22.778,0,0,1-.315,3.783Zm11.285-6.557c0-2.333-1.009-6.242-5.422-6.242-4.035,0-5.674,3.657-5.926,6.242Z" transform="translate(497.568 -1188.701)" fill="#25304e"/>
    <path id="Path_7" data-name="Path 7" d="M143.741,304.135a1.8,1.8,0,0,1-1.5.814,1.778,1.778,0,0,1-1.5-.814l-3.328-5.14V333.5h9.583V299.109Z" transform="translate(972.81 -1179.149)" fill="#25304e"/>
    <path id="Path_8" data-name="Path 8" d="M142.493,264.875a4.7,4.7,0,0,0-4.748,4.748,4.422,4.422,0,0,0,.744,2.458l3.5,5.412a.593.593,0,0,0,.5.27.6.6,0,0,0,.5-.27l3.5-5.412a4.418,4.418,0,0,0,.744-2.458,4.7,4.7,0,0,0-4.751-4.748m0,7.46a2.713,2.713,0,1,1,2.712-2.713,2.713,2.713,0,0,1-2.712,2.713" transform="translate(972.556 -1153.155)" fill="#b92056"/>
  </g>
</svg>
