<svg xmlns="http://www.w3.org/2000/svg" width="20" height="20" viewBox="0 0 20 20">
  <g id="Group_665" data-name="Group 665" transform="translate(-1192 175)">
    <path id="Stroke_1" data-name="Stroke 1" d="M9.25-.75c3.813,0,6.205.692,7.757,2.243S19.25,5.437,19.25,9.25s-.692,6.205-2.243,7.757S13.063,19.25,9.25,19.25s-6.205-.692-7.757-2.243S-.75,13.063-.75,9.25s.692-6.205,2.243-7.757S5.437-.75,9.25-.75Zm0,18.5c6.514,0,8.5-1.986,8.5-8.5S15.764.75,9.25.75.75,2.736.75,9.25,2.736,17.75,9.25,17.75Z" transform="translate(1192.75 -174.25)" fill="#25304e"/>
    <path id="Path_2517" data-name="Path 2517" d="M-.988-3.216A4.663,4.663,0,0,1-.777-4.683a3.761,3.761,0,0,1,.8-1.193L1.043-6.929A2.36,2.36,0,0,0,1.7-8.519,1.815,1.815,0,0,0,1.27-9.8a1.62,1.62,0,0,0-1.25-.464,1.881,1.881,0,0,0-1.281.422,1.426,1.426,0,0,0-.484,1.133H-3.191a2.632,2.632,0,0,1,.9-2.043A3.374,3.374,0,0,1,.02-11.531a3.185,3.185,0,0,1,2.3.792,2.87,2.87,0,0,1,.824,2.172A3.926,3.926,0,0,1,1.879-5.876l-.852.842a2.623,2.623,0,0,0-.57,1.818ZM-1.051-.734a.861.861,0,0,1,.215-.6A.81.81,0,0,1-.2-1.57a.822.822,0,0,1,.641.241.852.852,0,0,1,.219.6.824.824,0,0,1-.219.588A.837.837,0,0,1-.2.086.824.824,0,0,1-.836-.147.832.832,0,0,1-1.051-.734Z" transform="translate(1202 -160)" fill="#25304e"/>
  </g>
</svg>
