<svg xmlns="http://www.w3.org/2000/svg" width="20.548" height="25.21" viewBox="0 0 20.548 25.21">
  <g id="Group_667" data-name="Group 667" transform="translate(-805 230.42)">
    <path id="Stroke_2" data-name="Stroke 2" d="M1.922-.75A2.672,2.672,0,1,1-.75,1.922,2.675,2.675,0,0,1,1.922-.75Zm0,3.844A1.172,1.172,0,1,0,.75,1.922,1.173,1.173,0,0,0,1.922,3.094Z" transform="translate(813.75 -214.065)" fill="#25304e"/>
    <path id="Stroke_3" data-name="Stroke 3" d="M9.524-.75c3.913,0,6.368.868,7.959,2.814S19.8,7.041,19.8,11.855s-.714,7.833-2.315,9.791S13.437,24.46,9.524,24.46s-6.368-.868-7.959-2.814S-.75,16.669-.75,11.855s.714-7.834,2.315-9.792S5.611-.75,9.524-.75Zm0,23.294c6.724,0,8.774-2.5,8.774-10.689S16.248,1.166,9.524,1.166.75,3.664.75,11.855,2.8,22.544,9.524,22.544Z" transform="translate(805.75 -229.67)" fill="#25304e"/>
  </g>
</svg>
