<svg xmlns="http://www.w3.org/2000/svg" width="20" height="20" viewBox="0 0 20 20">
  <g id="Group_172" data-name="Group 172" transform="translate(-1009.249 221.891)">
    <g id="Group_149" data-name="Group 149" transform="translate(35 5.221)">
      <path id="Stroke_1" data-name="Stroke 1" d="M9.25-.75c3.813,0,6.205.692,7.757,2.243S19.25,5.437,19.25,9.25s-.692,6.205-2.243,7.757S13.063,19.25,9.25,19.25s-6.205-.692-7.757-2.243S-.75,13.063-.75,9.25s.692-6.205,2.243-7.757S5.437-.75,9.25-.75Zm0,18.5c6.514,0,8.5-1.986,8.5-8.5S15.764.75,9.25.75.75,2.736.75,9.25,2.736,17.75,9.25,17.75Z" transform="translate(974.999 -226.362)" fill="#25304e"/>
      <path id="Stroke_3" data-name="Stroke 3" d="M1.892,4.65a.75.75,0,0,1-.531-.22l-1.892-1.9a.75.75,0,0,1,0-1.061.75.75,0,0,1,1.061,0L1.892,2.839,5.26-.53a.75.75,0,0,1,1.061,0A.75.75,0,0,1,6.32.53l-3.9,3.9A.75.75,0,0,1,1.892,4.65Z" transform="translate(981.354 -219.062)" fill="#25304e"/>
    </g>
  </g>
</svg>
