<svg xmlns="http://www.w3.org/2000/svg" width="20" height="20" viewBox="0 0 20 20">
  <g id="Group_151" data-name="Group 151" transform="translate(-981 227)">
    <g id="Group_150" data-name="Group 150" transform="translate(1.281 -1.219)">
      <path id="Stroke_5" data-name="Stroke 5" d="M4.06,1.226H0a.75.75,0,0,1,0-1.5H4.06a.75.75,0,1,1,0,1.5Z" transform="translate(988.945 -218.031) rotate(90)" fill="#25304e"/>
      <path id="Stroke_5-2" data-name="Stroke 5" d="M4.06,1.226H0a.75.75,0,0,1,0-1.5H4.06a.75.75,0,1,1,0,1.5Z" transform="translate(991.945 -218.031) rotate(90)" fill="#25304e"/>
    </g>
    <path id="Stroke_1" data-name="Stroke 1" d="M9.25-.75c3.813,0,6.205.692,7.757,2.243S19.25,5.437,19.25,9.25s-.692,6.205-2.243,7.757S13.063,19.25,9.25,19.25s-6.205-.692-7.757-2.243S-.75,13.063-.75,9.25s.692-6.205,2.243-7.757S5.437-.75,9.25-.75Zm0,18.5c6.514,0,8.5-1.986,8.5-8.5S15.764.75,9.25.75.75,2.736.75,9.25,2.736,17.75,9.25,17.75Z" transform="translate(981.75 -226.25)" fill="#25304e"/>
  </g>
</svg>
