<svg xmlns="http://www.w3.org/2000/svg" width="7.013" height="8.187" viewBox="0 0 7.013 8.187">
  <path id="Stroke_3" data-name="Stroke 3" d="M.612-.75h0C1.566-.75,3.344.386,3.866.734c2.4,1.6,2.4,2.329,2.4,2.6,0,.249,0,1.006-2.354,2.6C3.393,6.293,1.632,7.437.643,7.437a1.044,1.044,0,0,1-.765-.293A2.7,2.7,0,0,1-.65,5.507a19.873,19.873,0,0,1-.1-2.19A20.559,20.559,0,0,1-.636,1.139C-.517.113-.344-.245-.122-.468A1,1,0,0,1,.612-.75ZM4.7,3.342A8.628,8.628,0,0,0,2.86,1.868,10.768,10.768,0,0,0,.924.834a15.613,15.613,0,0,0-.174,2.5,14.331,14.331,0,0,0,.168,2.54A9.833,9.833,0,0,0,2.88,4.826,8.811,8.811,0,0,0,4.7,3.342Z" transform="translate(0.75 0.75)" fill="#25304e"/>
</svg>
