<svg xmlns="http://www.w3.org/2000/svg" width="20.101" height="18.578" viewBox="0 0 20.101 18.578">
  <path id="Stroke_7" data-name="Stroke 7" d="M9.3-.75c3.82,0,6.217.637,7.773,2.065,1.575,1.446,2.277,3.674,2.277,7.224s-.7,5.777-2.277,7.223c-1.556,1.429-3.953,2.066-7.773,2.066s-6.218-.637-7.774-2.066C-.048,14.316-.75,12.089-.75,8.539s.7-5.778,2.277-7.224C3.083-.113,5.48-.75,9.3-.75Zm0,17.078c3.416,0,5.5-.515,6.758-1.671,1.239-1.138,1.792-3.025,1.792-6.119S17.3,3.558,16.059,2.42C14.8,1.265,12.717.75,9.3.75s-5.5.515-6.759,1.67C1.3,3.558.75,5.445.75,8.539S1.3,13.52,2.542,14.658C3.8,15.813,5.885,16.328,9.3,16.328Z" transform="translate(0.75 0.75)" fill="#25304e"/>
</svg>
