<svg xmlns="http://www.w3.org/2000/svg" xmlns:xlink="http://www.w3.org/1999/xlink" width="50" height="50" viewBox="0 0 50 50">
  <defs>
    <filter id="Ellipse_252">
      <feOffset dy="3" input="SourceAlpha"/>
      <feGaussianBlur stdDeviation="3" result="blur"/>
      <feFlood flood-opacity="0.412" result="color"/>
      <feComposite operator="out" in="SourceGraphic" in2="blur"/>
      <feComposite operator="in" in="color"/>
      <feComposite operator="in" in2="SourceGraphic"/>
    </filter>
  </defs>
  <g id="Group_660" data-name="Group 660" transform="translate(-2825 350)">
    <g data-type="innerShadowGroup">
      <circle id="Ellipse_252-2" data-name="Ellipse 252" cx="25" cy="25" r="25" transform="translate(2825 -350)" fill="#b92056"/>
      <g transform="matrix(1, 0, 0, 1, 2825, -350)" filter="url(#Ellipse_252)">
        <circle id="Ellipse_252-3" data-name="Ellipse 252" cx="25" cy="25" r="25" fill="#fff"/>
      </g>
    </g>
    <path id="Path_2414" data-name="Path 2414" d="M269.886,35.117c-5.069-5.28-10.879-1.209-17.09-6.029-10.757-7.35-8.111-24.508,4.349-28.3,15.469-4.855,27.573,13.929,16.661,25.964-.363,1.063-1.828-2.174-2.217-2.538-.949-1.79-2.575-3.311-3.015-5.322-.128-1.654.466-3.285.3-4.956.057-1.068-.388-2.082-.37-3.142-.287-.942,1.368-3.594.3-3.686-2.349.227-2.171,3.236-2.832,4.908-1.381,2.087-3.422-1.361-3.97-2.644-.473-1.062-3.374-8.208-4.538-6.012a1.733,1.733,0,0,0-.121,1.3c.613,2.078,2.116,3.8,2.925,5.8.666,2.7-2.109-.8-2.426-1.515-1.056-1.436-1.967-3.236-3.547-4.147a1.25,1.25,0,0,0-.956-.134c-2.318.644,4.567,6.654,4.814,7.976.216,2.729-5.581-4-6.791-3.953-3.4.491,4.172,5.856,5.01,6.725,1,.886-.434.3-.916.042-1.482-.656-2.654-1.851-4.19-2.4-1.216-.175-.588,1.38.02,1.756a18.644,18.644,0,0,0,2.751,2.012,17.368,17.368,0,0,1,3.561,2.882,7.335,7.335,0,0,0,.974.886c.387.237,1.962,1.791,2.11,1.282-.544-.977-1.57-1.6-1.978-2.693-.066-.61-2.056-1.481-1.091-1.7a1.212,1.212,0,0,1,.955.188c.532.372.917,1.049,1.611.929,1.026-1.494-.414-3.352-.212-5a.4.4,0,0,1,.761-.2,1.376,1.376,0,0,0,.071.135c.443.737.092,3.278.917,3.138.378-.623-.217-2.812.15-3.68a.458.458,0,0,1,.867.082c.244,1.124-.373,2.462-.015,3.5a.212.212,0,0,0,.377.046c.522-.78.376-1.993.807-2.844.371-.888.841-.087.752.506a1.222,1.222,0,0,0-.015.2c.016.713-.492,1.619-.491,2.3a.17.17,0,0,0,.325.069c.374-.789.816-2.51,1.159-1.721a1.03,1.03,0,0,1,.067.58c-.16.955-.772,1.773-.885,2.728a1.976,1.976,0,0,0-.01.2,5.077,5.077,0,0,1-.335,1.607,6.806,6.806,0,0,0-.218,3.83c.959,4.023,3.564,7.485,5.635,11.032" transform="translate(2587.967 -340.505)" fill="#fff"/>
  </g>
</svg>
