<svg xmlns="http://www.w3.org/2000/svg" width="20" height="20" viewBox="0 0 20 20">
  <g id="Arrow_-_Left_Circle" data-name="Arrow - Left Circle" transform="translate(20) rotate(90)">
    <path id="Stroke_1" data-name="Stroke 1" d="M10,20c3.813,0,6.205-.692,7.757-2.243S20,13.813,20,10s-.692-6.205-2.243-7.757S13.813,0,10,0,3.795.692,2.243,2.243,0,6.187,0,10s.692,6.205,2.243,7.757S6.187,20,10,20ZM10,1.5c6.514,0,8.5,1.986,8.5,8.5s-1.986,8.5-8.5,8.5S1.5,16.514,1.5,10,3.486,1.5,10,1.5Z" fill="#fff"/>
    <path id="Stroke_3" data-name="Stroke 3" d="M4.222,0C3.745,0,3.006.228,1.507,2.01.759,2.9.157,3.775.132,3.812a.75.75,0,1,0,1.237.849c.009-.013.549-.8,1.213-1.6C3.627,1.8,4.1,1.554,4.222,1.508c.119.047.595.3,1.64,1.556.665.8,1.206,1.588,1.212,1.6a.75.75,0,0,0,1.237-.848c-.025-.037-.627-.912-1.374-1.8C5.438.229,4.7,0,4.222,0Z" transform="translate(5.778 7.206)" fill="#fff"/>
  </g>
</svg>
