<svg xmlns="http://www.w3.org/2000/svg" width="41.686" height="24.849" viewBox="0 0 41.686 24.849">
  <g id="bracelet-svgrepo-com" transform="translate(0 -103.396)">
    <g id="Group_187" data-name="Group 187" transform="translate(0 103.396)">
      <path id="Path_1847" data-name="Path 1847" d="M38.628,112.755V110.2h0c0-9.076-38.628-9.071-38.628,0H0V121.44c0,9.078,38.628,9.071,38.628,0v-2.355a3.167,3.167,0,0,0,0-6.33Zm-24.775,9.969a1.938,1.938,0,1,1,1.938-1.938A1.938,1.938,0,0,1,13.852,122.723Zm5.462,0a1.938,1.938,0,1,1,1.938-1.938A1.938,1.938,0,0,1,19.314,122.723Zm5.462,0a1.938,1.938,0,1,1,1.938-1.938A1.938,1.938,0,0,1,24.775,122.723Zm-15.5-9.936a53.716,53.716,0,0,1,20.076,0A53.439,53.439,0,0,1,9.276,112.788Zm25.271-1.838c-7.442-3.182-23.028-3.18-30.466,0-.219-.142-.723-.507-.8-.748.383-1.137,5.987-3.535,16.035-3.535,9.876,0,15.633,2.347,16.033,3.535C35.268,110.444,34.769,110.805,34.547,110.949Z" transform="translate(0 -103.396)" fill="#25304e"/>
    </g>
  </g>
</svg>
