<svg xmlns="http://www.w3.org/2000/svg" width="22.424" height="24.576" viewBox="0 0 22.424 24.576">
  <g id="Buy" transform="translate(0.75 0.75)">
    <path id="Stroke_1" data-name="Stroke 1" d="M11.735,19.036c-1.545,0-5.894-.149-8.112-1.727C.846,15.331,1.233,10.8,1.574,6.8a37.322,37.322,0,0,0,.2-3.822q0-.024,0-.047a1.544,1.544,0,0,0-.8-1.469A2.913,2.913,0,0,0,.041,1.1.928.928,0,0,1,.315-.74a3.731,3.731,0,0,1,3.32,3.692q.005.238,0,.485a39.765,39.765,0,0,1,9.193-.885c2.55.072,5.877.486,7.247,2.046,1.056,1.2,1.651,3.584,1.591,6.37-.061,2.85-.82,5.2-2.029,6.277-1.811,1.62-6.375,1.78-7.73,1.79ZM3.552,5.357c-.037.518-.083,1.052-.129,1.6-.3,3.506-.638,7.479,1.276,8.843,1.214.864,4.039,1.406,7.2,1.382,3.489-.027,5.819-.7,6.507-1.318.808-.722,1.361-2.658,1.41-4.933.048-2.23-.406-4.282-1.13-5.106-.543-.619-2.38-1.315-5.906-1.415A37.857,37.857,0,0,0,3.552,5.357Z" transform="translate(0 0)" fill="#fff"/>
    <path id="Stroke_3" data-name="Stroke 3" d="M3.608,1.606H.178a.928.928,0,0,1,0-1.856h3.43a.928.928,0,0,1,0,1.856Z" transform="translate(12.997 9.235)" fill="#fff"/>
    <path id="Stroke_5" data-name="Stroke 5" d="M.674,0A.674.674,0,1,1,0,.673.674.674,0,0,1,.674,0Z" transform="translate(3.974 21.551)" fill="#fff"/>
    <path id="Stroke_5_-_Outline" data-name="Stroke 5 - Outline" d="M.852-.75A1.6,1.6,0,1,1-.75.851,1.6,1.6,0,0,1,.852-.75Z" transform="translate(3.796 21.373)" fill="#fff"/>
    <path id="Stroke_7" data-name="Stroke 7" d="M.673,0A.674.674,0,1,1,0,.673.674.674,0,0,1,.673,0Z" transform="translate(16.756 21.551)" fill="#fff"/>
    <path id="Stroke_7_-_Outline" data-name="Stroke 7 - Outline" d="M.851-.75A1.6,1.6,0,1,1-.75.851,1.6,1.6,0,0,1,.851-.75Z" transform="translate(16.579 21.373)" fill="#fff"/>
  </g>
</svg>
