<svg xmlns="http://www.w3.org/2000/svg" width="67.115" height="67.115" viewBox="0 0 67.115 67.115">
  <g id="Close_Square" data-name="Close Square" transform="translate(0 0)">
    <path id="Stroke_1" data-name="Stroke 1" d="M1.767,20.364a2.517,2.517,0,0,1-1.78-4.3L16.068-.013a2.517,2.517,0,0,1,3.559,3.559L3.546,19.627A2.509,2.509,0,0,1,1.767,20.364Z" transform="translate(23.744 23.719)" fill="#b92056"/>
    <path id="Stroke_2" data-name="Stroke 2" d="M17.874,20.391a2.509,2.509,0,0,1-1.78-.737L-.013,3.546A2.517,2.517,0,0,1,3.546-.013L19.654,16.095a2.517,2.517,0,0,1-1.78,4.3Z" transform="translate(23.737 23.714)" fill="#b92056"/>
    <path id="Stroke_3" data-name="Stroke 3" d="M32.808-.75c12.8,0,20.823,2.322,26.03,7.528s7.528,13.234,7.528,26.03-2.322,20.823-7.528,26.03S45.6,66.365,32.808,66.365s-20.823-2.322-26.03-7.528S-.75,45.6-.75,32.808,1.572,11.984,6.778,6.778,20.012-.75,32.808-.75Zm0,62.081c21.859,0,28.524-6.664,28.524-28.524S54.667,4.284,32.808,4.284,4.284,10.948,4.284,32.808,10.948,61.331,32.808,61.331Z" transform="translate(0.75 0.75)" fill="#b92056"/>
  </g>
</svg>
