<svg id="Component_23_19" data-name="Component 23 – 19" xmlns="http://www.w3.org/2000/svg" xmlns:xlink="http://www.w3.org/1999/xlink" width="32" height="32" viewBox="0 0 32 32">
  <defs>
    <filter id="Ellipse_150">
      <feOffset dy="3" input="SourceAlpha"/>
      <feGaussianBlur stdDeviation="3" result="blur"/>
      <feFlood flood-opacity="0.161" result="color"/>
      <feComposite operator="out" in="SourceGraphic" in2="blur"/>
      <feComposite operator="in" in="color"/>
      <feComposite operator="in" in2="SourceGraphic"/>
    </filter>
  </defs>
  <g data-type="innerShadowGroup">
    <circle id="Ellipse_150-2" data-name="Ellipse 150" cx="16" cy="16" r="16" fill="#fff"/>
    <g transform="matrix(1, 0, 0, 1, 0, 0)" filter="url(#Ellipse_150)">
      <circle id="Ellipse_150-3" data-name="Ellipse 150" cx="16" cy="16" r="16" fill="#fff"/>
    </g>
  </g>
  <g id="Buy" transform="translate(7.687 6.817)">
    <path id="Stroke_1" data-name="Stroke 1" d="M9.342,15.244c-1.249,0-4.765-.12-6.557-1.4C.54,12.249.853,8.584,1.129,5.351a30.17,30.17,0,0,0,.165-3.089q0-.019,0-.038A1.248,1.248,0,0,0,.647,1.036,2.355,2.355,0,0,0-.111.742.75.75,0,0,1-.742-.111.75.75,0,0,1,.111-.742,3.016,3.016,0,0,1,2.794,2.243q0,.193,0,.392a32.144,32.144,0,0,1,7.431-.715c2.061.058,4.751.393,5.858,1.654.854.972,1.334,2.9,1.286,5.15-.049,2.3-.662,4.2-1.64,5.074-1.464,1.309-5.153,1.439-6.249,1.447ZM2.728,4.187c-.03.419-.067.85-.1,1.291-.242,2.834-.516,6.046,1.032,7.148.981.7,3.265,1.137,5.818,1.117,2.82-.022,4.7-.567,5.26-1.065.653-.584,1.1-2.149,1.14-3.988a6.933,6.933,0,0,0-.913-4.128c-.439-.5-1.924-1.063-4.774-1.144A30.6,30.6,0,0,0,2.728,4.187Z" transform="translate(0)" fill="#b92056"/>
    <path id="Stroke_3" data-name="Stroke 3" d="M2.773,1.25H0A.75.75,0,1,1,0-.25H2.773a.75.75,0,0,1,0,1.5Z" transform="translate(10.506 7.37)" fill="#b92056"/>
    <path id="Stroke_5" data-name="Stroke 5" d="M.545,0A.545.545,0,1,1,0,.544.545.545,0,0,1,.545,0Z" transform="translate(3.069 17.277)" fill="#b92056"/>
    <path id="Stroke_5_-_Outline" data-name="Stroke 5 - Outline" d="M.545-.75A1.295,1.295,0,1,1-.75.544,1.3,1.3,0,0,1,.545-.75Z" transform="translate(3.069 17.277)" fill="#b92056"/>
    <path id="Stroke_7" data-name="Stroke 7" d="M.544,0A.545.545,0,1,1,0,.544.545.545,0,0,1,.544,0Z" transform="translate(13.401 17.277)" fill="#b92056"/>
    <path id="Stroke_7_-_Outline" data-name="Stroke 7 - Outline" d="M.544-.75A1.295,1.295,0,1,1-.75.544,1.3,1.3,0,0,1,.544-.75Z" transform="translate(13.401 17.277)" fill="#b92056"/>
  </g>
</svg>
