<svg xmlns="http://www.w3.org/2000/svg" width="67.115" height="67.115" viewBox="0 0 67.115 67.115">
  <g id="Group_692" data-name="Group 692" transform="translate(-1009.249 221.891)">
    <g id="Group_149" data-name="Group 149" transform="translate(1009.249 -221.891)">
      <path id="Stroke_1" data-name="Stroke 1" d="M32.807-.75c12.8,0,20.823,2.322,26.03,7.528s7.528,13.234,7.528,26.03-2.322,20.823-7.528,26.03S45.6,66.365,32.807,66.365s-20.823-2.322-26.03-7.528S-.75,45.6-.75,32.807,1.572,11.984,6.778,6.778,20.012-.75,32.807-.75Zm0,62.081c21.859,0,28.524-6.664,28.524-28.524S54.667,4.284,32.807,4.284,4.284,10.948,4.284,32.807,10.948,61.331,32.807,61.331Z" transform="translate(0.75 0.75)" fill="#58b057"/>
      <path id="Stroke_3" data-name="Stroke 3" d="M8.116,17.371a2.517,2.517,0,0,1-1.781-.739L-.014,10.273A2.517,2.517,0,0,1,3.548,6.717l4.569,4.576L19.416-.012a2.517,2.517,0,0,1,3.56,3.558L9.9,16.633A2.517,2.517,0,0,1,8.116,17.371Z" transform="translate(22.076 25.247)" fill="#58b057"/>
    </g>
  </g>
</svg>
