<svg id="Group_668" data-name="Group 668" xmlns="http://www.w3.org/2000/svg" xmlns:xlink="http://www.w3.org/1999/xlink" width="210.577" height="106.401" viewBox="0 0 210.577 106.401">
  <defs>
    <clipPath id="clip-path">
      <rect id="Rectangle_1" data-name="Rectangle 1" width="210.577" height="106.401" fill="none"/>
    </clipPath>
  </defs>
  <g id="Group_2" data-name="Group 2">
    <g id="Group_1" data-name="Group 1" clip-path="url(#clip-path)">
      <path id="Path_1" data-name="Path 1" d="M292.992,69.184c-9.986-10.4-21.432-2.382-33.669-11.878-21.192-14.481-15.98-48.283,8.568-55.76,30.475-9.564,54.322,27.441,32.823,51.153-.715,2.1-3.6-4.283-4.368-5-1.87-3.527-5.072-6.522-5.941-10.485-.253-3.258.918-6.471.6-9.763.113-2.1-.765-4.1-.729-6.189-.566-1.856,2.7-7.081.583-7.262-4.627.447-4.278,6.376-5.58,9.669-2.72,4.112-6.743-2.682-7.821-5.21-.932-2.093-6.647-16.17-8.941-11.845a3.414,3.414,0,0,0-.239,2.562c1.208,4.095,4.169,7.481,5.763,11.434,1.312,5.321-4.154-1.571-4.779-2.985-2.08-2.83-3.876-6.375-6.988-8.171a2.462,2.462,0,0,0-1.883-.265c-4.566,1.269,9,13.108,9.484,15.713.426,5.377-10.994-7.887-13.379-7.788-6.7.968,8.22,11.537,9.869,13.248,1.971,1.745-.855.594-1.8.083-2.92-1.293-5.23-3.646-8.254-4.719-2.4-.344-1.158,2.719.04,3.46a36.733,36.733,0,0,0,5.42,3.963,34.221,34.221,0,0,1,7.015,5.678,14.449,14.449,0,0,0,1.92,1.745c.762.466,3.866,3.529,4.157,2.526-1.071-1.925-3.094-3.147-3.9-5.306-.13-1.2-4.051-2.918-2.15-3.341a2.388,2.388,0,0,1,1.882.37c1.048.733,1.806,2.066,3.175,1.83,2.021-2.943-.817-6.6-.417-9.856a.785.785,0,0,1,1.5-.4,2.666,2.666,0,0,0,.14.266c.872,1.452.181,6.459,1.807,6.182.744-1.227-.428-5.541.3-7.251a.9.9,0,0,1,1.708.161c.481,2.214-.734,4.851-.03,6.9a.418.418,0,0,0,.743.09c1.029-1.536.74-3.926,1.589-5.6.732-1.749,1.656-.171,1.482,1a2.4,2.4,0,0,0-.03.4c.031,1.4-.969,3.19-.967,4.538a.336.336,0,0,0,.64.135c.737-1.555,1.608-4.944,2.283-3.39a2.029,2.029,0,0,1,.131,1.143c-.316,1.88-1.522,3.493-1.744,5.375a3.869,3.869,0,0,0-.02.4,10,10,0,0,1-.659,3.167,13.409,13.409,0,0,0-.43,7.545c1.89,7.925,7.021,14.746,11.1,21.735" transform="translate(-187.473 0)" fill="#b92056"/>
    </g>
  </g>
  <path id="Path_2" data-name="Path 2" d="M0,265.465v42.493H9.646V290.872H24.9v-7.817H9.646v-9.709H25.975v-7.881Z" transform="translate(0 -202.25)" fill="#25304e"/>
  <g id="Group_4" data-name="Group 4">
    <g id="Group_3" data-name="Group 3" clip-path="url(#clip-path)">
      <path id="Path_3" data-name="Path 3" d="M213.65,322.061c0-3.846-.126-7.124-.252-9.835h8.322l.441,4.224h.189a11.286,11.286,0,0,1,9.52-4.918c6.3,0,11.033,4.161,11.033,13.24v18.283H233.32V325.969c0-3.972-1.387-6.683-4.854-6.683a5.115,5.115,0,0,0-4.854,3.593,6.581,6.581,0,0,0-.378,2.4v17.779H213.65Z" transform="translate(-162.582 -237.348)" fill="#25304e"/>
      <path id="Path_4" data-name="Path 4" d="M398.344,255.934v35.558c0,3.467.126,7.124.252,9.2h-8.511l-.441-4.539h-.126a10.762,10.762,0,0,1-9.646,5.233c-7.313,0-13.176-6.242-13.176-15.824-.063-10.4,6.431-16.392,13.807-16.392,3.783,0,6.746,1.324,8.133,3.468h.126V255.934Zm-9.583,26.983a15.508,15.508,0,0,0-.126-1.7,5.757,5.757,0,0,0-5.611-4.729c-4.35,0-6.62,3.909-6.62,8.763,0,5.233,2.585,8.511,6.557,8.511a5.61,5.61,0,0,0,5.548-4.6,8.155,8.155,0,0,0,.252-2.207Z" transform="translate(-279.375 -194.989)" fill="#25304e"/>
      <path id="Path_5" data-name="Path 5" d="M535.6,322.061c0-3.846-.126-7.124-.253-9.835h8.07l.441,4.161h.189a10.691,10.691,0,0,1,9.331-4.855c3.972,0,7.124,2.018,8.448,5.233h.126a13.8,13.8,0,0,1,3.972-3.72,11.121,11.121,0,0,1,5.863-1.513c5.926,0,10.4,4.161,10.4,13.366v18.157h-9.331v-16.77c0-4.476-1.45-7.061-4.539-7.061a4.689,4.689,0,0,0-4.413,3.341,8.014,8.014,0,0,0-.378,2.459v18.031H554.2V325.78c0-3.909-1.387-6.557-4.413-6.557a4.878,4.878,0,0,0-4.476,3.467,6.353,6.353,0,0,0-.378,2.4v17.968H535.6Z" transform="translate(-407.868 -237.348)" fill="#b92056"/>
      <path id="Path_6" data-name="Path 6" d="M770.334,330.7c.315,3.972,4.224,5.863,8.7,5.863a27.15,27.15,0,0,0,8.511-1.261l1.261,6.494a30.434,30.434,0,0,1-11.159,1.891c-10.465,0-16.455-6.052-16.455-15.7,0-7.818,4.854-16.455,15.572-16.455,9.961,0,13.744,7.755,13.744,15.383a22.778,22.778,0,0,1-.315,3.783Zm11.285-6.557c0-2.333-1.009-6.242-5.422-6.242-4.035,0-5.674,3.657-5.926,6.242Z" transform="translate(-579.932 -237.348)" fill="#25304e"/>
      <path id="Path_7" data-name="Path 7" d="M143.741,304.135a1.8,1.8,0,0,1-1.5.814,1.778,1.778,0,0,1-1.5-.814l-3.328-5.14V333.5h9.583V299.109Z" transform="translate(-104.69 -227.795)" fill="#25304e"/>
      <path id="Path_8" data-name="Path 8" d="M142.493,264.875a4.7,4.7,0,0,0-4.748,4.748,4.422,4.422,0,0,0,.744,2.458l3.5,5.412a.593.593,0,0,0,.5.27.6.6,0,0,0,.5-.27l3.5-5.412a4.418,4.418,0,0,0,.744-2.458,4.7,4.7,0,0,0-4.751-4.748m0,7.46a2.713,2.713,0,1,1,2.712-2.713,2.713,2.713,0,0,1-2.712,2.713" transform="translate(-104.944 -201.801)" fill="#b92056"/>
    </g>
  </g>
</svg>
