<svg xmlns="http://www.w3.org/2000/svg" xmlns:xlink="http://www.w3.org/1999/xlink" width="25" height="25" viewBox="0 0 25 25">
  <defs>
    <filter id="Ellipse_151" x="0" y="0" width="25" height="25" filterUnits="userSpaceOnUse">
      <feOffset dy="3" input="SourceAlpha"/>
      <feGaussianBlur stdDeviation="3" result="blur"/>
      <feFlood flood-opacity="0.161" result="color"/>
      <feComposite operator="out" in="SourceGraphic" in2="blur"/>
      <feComposite operator="in" in="color"/>
      <feComposite operator="in" in2="SourceGraphic"/>
    </filter>
  </defs>
  <g id="Group_697" data-name="Group 697" transform="translate(-1437 1873)">
    <g data-type="innerShadowGroup">
      <circle id="Ellipse_151-2" data-name="Ellipse 151" cx="12.5" cy="12.5" r="12.5" transform="translate(1437 -1873)" fill="#25304e"/>
      <g transform="matrix(1, 0, 0, 1, 1437, -1873)" filter="url(#Ellipse_151)">
        <circle id="Ellipse_151-3" data-name="Ellipse 151" cx="12.5" cy="12.5" r="12.5" fill="#fff"/>
      </g>
    </g>
    <g id="Group_694" data-name="Group 694" transform="translate(572 -1606)">
      <g id="Group_163" data-name="Group 163" transform="translate(874.481 -257.519)">
        <path id="Stroke_2" data-name="Stroke 2" d="M5.155.9H-.19A.56.56,0,0,1-.75.336a.56.56,0,0,1,.56-.56H5.155a.56.56,0,1,1,0,1.12Z" transform="translate(0.75 2.893)" fill="#fff"/>
      </g>
      <path id="Stroke_1" data-name="Stroke 1" d="M6.719-.75A7.469,7.469,0,1,1-.75,6.719,7.477,7.477,0,0,1,6.719-.75Zm0,13.818A6.349,6.349,0,1,0,.37,6.719,6.356,6.356,0,0,0,6.719,13.068Z" transform="translate(870.75 -261.25)" fill="#fff"/>
    </g>
  </g>
</svg>
