<svg xmlns="http://www.w3.org/2000/svg" xmlns:xlink="http://www.w3.org/1999/xlink" width="56.006" height="65.653" viewBox="0 0 56.006 65.653">
  <defs>
    <clipPath id="clip-path">
      <rect id="Rectangle_538" data-name="Rectangle 538" width="56.007" height="65.653" transform="translate(0 0)" fill="none"/>
    </clipPath>
  </defs>
  <g id="Group_677" data-name="Group 677" clip-path="url(#clip-path)">
    <path id="Path_2528" data-name="Path 2528" d="M37.376,106.329a12.213,12.213,0,0,1-9.141-4.276A2.392,2.392,0,1,1,31.8,98.867a7.154,7.154,0,0,0,11.166,0,2.391,2.391,0,1,1,3.563,3.19,12.245,12.245,0,0,1-9.156,4.274" transform="translate(-11.459 -40.677)" fill="#c6c9d1"/>
    <path id="Path_2529" data-name="Path 2529" d="M7.772,59.417a2.634,2.634,0,0,1-1.862-4.5L53.641,7.189a2.634,2.634,0,1,1,3.725,3.724L9.634,58.646a2.625,2.625,0,0,1-1.862.771" transform="translate(-2.131 -2.662)" fill="#c6c9d1"/>
    <path id="Path_2530" data-name="Path 2530" d="M2.916,46.149,6.3,42.768a7.2,7.2,0,0,1-.6-.754,5.288,5.288,0,0,1-.432-5.247C8.04,30.654,8.247,30.094,8.1,26.592c-.03-.746-.068-1.673-.068-2.93,0-6.158,4.37-18.875,17.888-18.875a16.346,16.346,0,0,1,12.784,5.571l3.374-3.374A21.175,21.175,0,0,0,25.926,0,21.179,21.179,0,0,0,8.593,8.388,25.812,25.812,0,0,0,3.252,23.662c0,1.355.04,2.336.073,3.125.1,2.461.1,2.461-2.443,8.067-.018.042-.035.083-.051.122a10.09,10.09,0,0,0,.92,9.739,11.878,11.878,0,0,0,1.165,1.435" transform="translate(0 0)" fill="#c6c9d1"/>
    <path id="Path_2531" data-name="Path 2531" d="M56.047,42.875C53.5,37.269,53.5,37.269,53.6,34.809c.032-.788.073-1.77.073-3.125a25.807,25.807,0,0,0-3.4-12.348l-3.543,3.543a21.413,21.413,0,0,1,2.158,8.8c0,1.258-.038,2.185-.068,2.93-.14,3.5.067,4.062,2.839,10.175h0a5.286,5.286,0,0,1-.434,5.247C48.261,54.37,38.616,56.962,31,56.962a38.394,38.394,0,0,1-15.215-3.138l-3.548,3.548A30.48,30.48,0,0,0,17.9,59.743a46.011,46.011,0,0,0,13.1,2,46,46,0,0,0,13.1-2c3.638-1.131,8.509-3.265,11.07-7.007A10.094,10.094,0,0,0,56.1,43c-.016-.043-.033-.083-.051-.122" transform="translate(-5.076 -8.02)" fill="#c6c9d1"/>
  </g>
</svg>
