<svg xmlns="http://www.w3.org/2000/svg" width="15.954" height="14.379" viewBox="0 0 15.954 14.379">
  <g id="Heart" transform="translate(0.749 0.75)">
    <path id="Stroke_1" data-name="Stroke 1" d="M7.23,13.629c-1.6,0-6.265-2.345-7.662-6.692a6.726,6.726,0,0,1,.111-4.4A5.014,5.014,0,0,1,2.824-.528,4.487,4.487,0,0,1,4.2-.743,4.3,4.3,0,0,1,7.214.439,4.125,4.125,0,0,1,10.2-.75a4.669,4.669,0,0,1,1.429.222,5.021,5.021,0,0,1,3.148,3.063,6.719,6.719,0,0,1,.115,4.4,10.046,10.046,0,0,1-3.777,4.988A8.223,8.223,0,0,1,7.23,13.629ZM4.2.425A3.322,3.322,0,0,0,3.182.583c-2.477.8-3.228,3.734-2.5,6A8.988,8.988,0,0,0,4.047,11,7.344,7.344,0,0,0,7.23,12.461a7.4,7.4,0,0,0,3.2-1.482,8.894,8.894,0,0,0,3.35-4.4c.725-2.266-.028-5.2-2.507-6A3.5,3.5,0,0,0,10.2.418,2.89,2.89,0,0,0,7.717,1.665a.584.584,0,0,1-.96.021A3.1,3.1,0,0,0,4.2.425Z" transform="translate(0 0)" fill="#b92056"/>
    <path id="Stroke_3" data-name="Stroke 3" d="M1.326,2.3h-.02a.584.584,0,0,1-.564-.6A1.1,1.1,0,0,0-.226.415a.584.584,0,0,1-.521-.64.584.584,0,0,1,.64-.521A2.249,2.249,0,0,1,1.91,1.739.584.584,0,0,1,1.326,2.3Z" transform="translate(10.305 3.124)" fill="#b92056"/>
  </g>
</svg>
