<svg xmlns="http://www.w3.org/2000/svg" width="54.01" height="59.401" viewBox="0 0 54.01 59.401">
  <path id="Path_2527" data-name="Path 2527" d="M286.357,59.4c-8.574-8.932-18.4-2.045-28.909-10.2-18.2-12.433-13.72-41.456,7.357-47.875,26.166-8.212,46.641,23.561,28.182,43.92-.614,1.8-3.092-3.678-3.75-4.293-1.605-3.028-4.355-5.6-5.1-9-.217-2.8.788-5.556.513-8.383.1-1.807-.657-3.522-.626-5.314-.486-1.593,2.314-6.08.5-6.235-3.973.384-3.673,5.475-4.791,8.3-2.335,3.531-5.789-2.3-6.715-4.473-.8-1.8-5.707-13.883-7.677-10.17a2.931,2.931,0,0,0-.205,2.2c1.037,3.516,3.58,6.424,4.948,9.818,1.127,4.569-3.567-1.349-4.1-2.563-1.786-2.43-3.328-5.474-6-7.015a2.114,2.114,0,0,0-1.617-.227c-3.921,1.09,7.726,11.255,8.143,13.491.365,4.616-9.44-6.772-11.487-6.687-5.756.831,7.058,9.906,8.474,11.375,1.692,1.5-.734.51-1.549.071-2.507-1.11-4.49-3.13-7.087-4.052-2.057-.3-.994,2.335.034,2.971a31.538,31.538,0,0,0,4.653,3.4,29.381,29.381,0,0,1,6.023,4.875,12.407,12.407,0,0,0,1.648,1.5c.654.4,3.32,3.03,3.569,2.169-.92-1.653-2.656-2.7-3.345-4.556-.111-1.031-3.478-2.506-1.846-2.869a2.05,2.05,0,0,1,1.616.318c.9.63,1.55,1.774,2.726,1.571,1.735-2.526-.7-5.669-.358-8.463a.674.674,0,0,1,1.288-.344,2.313,2.313,0,0,0,.12.228c.749,1.247.156,5.546,1.552,5.307.639-1.053-.368-4.757.254-6.225a.774.774,0,0,1,1.467.138c.413,1.9-.63,4.165-.026,5.922a.359.359,0,0,0,.638.077c.884-1.319.635-3.37,1.365-4.811.628-1.5,1.422-.147,1.273.855a2.067,2.067,0,0,0-.026.346c.027,1.206-.832,2.739-.83,3.9a.288.288,0,0,0,.549.116c.633-1.335,1.38-4.245,1.96-2.911a1.742,1.742,0,0,1,.113.981c-.271,1.615-1.307,3-1.5,4.615a3.32,3.32,0,0,0-.017.344,8.587,8.587,0,0,1-.566,2.719,11.513,11.513,0,0,0-.369,6.478c1.622,6.8,6.029,12.661,9.532,18.662" transform="translate(-246.068 0)" fill="#c6c9d1"/>
</svg>
