<svg xmlns="http://www.w3.org/2000/svg" xmlns:xlink="http://www.w3.org/1999/xlink" width="48" height="48" viewBox="0 0 48 48">
  <defs>
    <filter id="Rectangle_34" x="0" y="0" width="48" height="48" filterUnits="userSpaceOnUse">
      <feOffset dy="3" input="SourceAlpha"/>
      <feGaussianBlur stdDeviation="3" result="blur"/>
      <feFlood flood-opacity="0.161" result="color"/>
      <feComposite operator="out" in="SourceGraphic" in2="blur"/>
      <feComposite operator="in" in="color"/>
      <feComposite operator="in" in2="SourceGraphic"/>
    </filter>
  </defs>
  <g data-type="innerShadowGroup">
    <path id="Rectangle_34-2" data-name="Rectangle 34" d="M14,0H34A14,14,0,0,1,48,14V34A14,14,0,0,1,34,48H14A14,14,0,0,1,0,34V14A14,14,0,0,1,14,0Z" fill="#fff"/>
    <g transform="matrix(1, 0, 0, 1, 0, 0)" filter="url(#Rectangle_34)">
      <path id="Rectangle_34-3" data-name="Rectangle 34" d="M14,0H34A14,14,0,0,1,48,14V34A14,14,0,0,1,34,48H14A14,14,0,0,1,0,34V14A14,14,0,0,1,14,0Z" fill="#fff"/>
    </g>
  </g>
</svg>
