<svg xmlns="http://www.w3.org/2000/svg" width="67.61" height="20.712" viewBox="0 0 67.61 20.712">
  <g id="visa-svgrepo-com" transform="translate(-60.197 -148.968)">
    <path id="Path_2533" data-name="Path 2533" d="M134.343,169.444l3.419-20.065h5.469l-3.422,20.065Zm25.226-19.633a14.123,14.123,0,0,0-4.9-.843c-5.4,0-9.211,2.721-9.243,6.622-.03,2.883,2.718,4.492,4.792,5.451,2.129.984,2.845,1.611,2.834,2.489-.014,1.345-1.7,1.959-3.272,1.959a11.469,11.469,0,0,1-5.148-1.053l-.7-.319-.767,4.492a17.31,17.31,0,0,0,6.092,1.071c5.749,0,9.481-2.69,9.524-6.856.02-2.283-1.437-4.02-4.592-5.452-1.912-.928-3.082-1.548-3.07-2.488,0-.834.991-1.726,3.132-1.726a10.09,10.09,0,0,1,4.093.769l.49.232.741-4.349m14.074-.433h-4.226a2.721,2.721,0,0,0-2.864,1.664l-8.123,18.388h5.743s.939-2.472,1.151-3.015l7,.009c.164.7.665,3.007.665,3.007h5.075l-4.427-20.053Zm-6.705,12.957c.452-1.156,2.179-5.609,2.179-5.609-.032.053.449-1.162.725-1.915l.37,1.73s1.047,4.79,1.266,5.794h-4.54ZM129.7,149.378l-5.354,13.684-.57-2.781a15.66,15.66,0,0,0-7.575-8.417l4.9,17.548,5.787-.006,8.61-20.027H129.7" transform="translate(-50.264 0)" fill="#0e4595"/>
    <path id="Path_2534" data-name="Path 2534" d="M69.086,152.96H60.267l-.07.417c6.861,1.661,11.4,5.675,13.286,10.5l-1.918-9.221a2.289,2.289,0,0,0-2.479-1.694" transform="translate(0 -3.583)" fill="#f2ae14"/>
  </g>
</svg>
