<svg xmlns="http://www.w3.org/2000/svg" width="21.669" height="30.444" viewBox="0 0 21.669 30.444">
  <path id="cat-svgrepo-com" d="M51.231,9.214l-2.822,2.75v8.405L48,20.536a18.228,18.228,0,0,0-4.219-8.23,6.506,6.506,0,0,0,3.05-6.729L47.883,0,43.269.884a6.493,6.493,0,0,0-5.659,0L33,0l1.047,5.577a6.489,6.489,0,0,0,3.041,6.729c-2.808,2.728-4.686,8.3-4.686,11.515,0,4.085,3.082,6.623,8.042,6.623,4.577,0,7.529-2.161,7.963-5.7l4.07-1.594V13.668l1.595-1.556Z" transform="translate(-32.398)" fill="#c6c9d1"/>
</svg>
