<svg xmlns="http://www.w3.org/2000/svg" width="30.633" height="25.429" viewBox="0 0 30.633 25.429">
  <g id="family-silhouette-svgrepo-com" transform="translate(0 -42.749)">
    <g id="Group_145" data-name="Group 145" transform="translate(-0.001 42.749)">
      <path id="Path_1819" data-name="Path 1819" d="M277.065,54.616a2.633,2.633,0,1,0-.271-.014A2.659,2.659,0,0,0,277.065,54.616Z" transform="translate(-257.73 -48.951)" fill="#c6c9d1"/>
      <path id="Path_1820" data-name="Path 1820" d="M424.681,191.168a1.7,1.7,0,1,0-.876-.243A1.711,1.711,0,0,0,424.681,191.168Z" transform="translate(-397.239 -178.946)" fill="#c6c9d1"/>
      <path id="Path_1821" data-name="Path 1821" d="M30.631,142.937c0-.194,0-.387-.007-.581s-.03-.394-.047-.591a7.627,7.627,0,0,0-.219-1.151,4.5,4.5,0,0,0-.187-.562,4.02,4.02,0,0,0-1.5-1.944,3.028,3.028,0,0,0-.516-.306,1.675,1.675,0,0,0-.671-.154,1.656,1.656,0,0,0-.806.218,3.8,3.8,0,0,0-.571.421q-.285.235-.587.447a3.223,3.223,0,0,1-1.232.617,14.843,14.843,0,0,0-.136-2.389,11.052,11.052,0,0,0-.222-1.158,10.175,10.175,0,0,0-.356-1.1A6.816,6.816,0,0,0,22.5,132.83a5.613,5.613,0,0,0-1.473-1.276,3.32,3.32,0,0,0-2.017-.5,3.739,3.739,0,0,0-1.835.844,6.434,6.434,0,0,0-1.821,2.151,5.654,5.654,0,0,0-2.309-2.816,4.066,4.066,0,0,0-1.961-.594,4.006,4.006,0,0,0-2.063.607,5.829,5.829,0,0,0-2.467,3.294,11.344,11.344,0,0,0-.383,4.364q.018.215.04.429a3.356,3.356,0,0,1-.981-.469,6.987,6.987,0,0,1-.926-.68,1.616,1.616,0,0,0-.841-.416,1.687,1.687,0,0,0-.736.069,3.94,3.94,0,0,0-2.47,2.895,7.582,7.582,0,0,0-.21,1.155c-.037.4-.043.791-.046,1.19a.568.568,0,0,0,.125.4.507.507,0,0,0,.361.174.517.517,0,0,0,.522-.485c.034-.339.064-.677.125-1.012A6.791,6.791,0,0,1,1.4,141.14l-.1,1.815-.012.231a1.921,1.921,0,0,0,.1.728q.021.062.047.122a.5.5,0,0,1,.055.118q.008.161.017.321l.1,1.929.12,2.309q.021.4.041.8a3.027,3.027,0,0,0,.023.358.588.588,0,0,0,1.157.015,3.026,3.026,0,0,0,.027-.437l.1-2.117.09-1.853q0-.06.006-.12l.069,1.34.119,2.3.037.7c0,.039,0,.078.006.117a.588.588,0,0,0,1.152.113.818.818,0,0,0,.025-.192l.027-.553.1-2.146.105-2.17.028-.584a.223.223,0,0,1,.023-.113,1.9,1.9,0,0,0,.216-.987L5,141.507l-.073-1.353a4.028,4.028,0,0,0,1.087.3,1.926,1.926,0,0,0,.569-.017,1.378,1.378,0,0,0,.255-.077c.021-.009.041-.019.061-.029l.051.006a.746.746,0,0,0,.117,0,.78.78,0,0,0,.723-.829q-.012-.279-.015-.559a11.763,11.763,0,0,1,.167-2.2,6.759,6.759,0,0,1,.709-2.1l-.154,1.274-.281,2.318-.1.845a5.384,5.384,0,0,0-.052.583,3.053,3.053,0,0,0,.163,1.022,2.976,2.976,0,0,0,.21.476q.061.11.131.215c.011.017.011.011.012.021l.013.268.073,1.543.109,2.292.11,2.328.078,1.65.016.348a.927.927,0,0,0,.649.845.912.912,0,0,0,1.154-.824l.013-.287q.04-.9.08-1.793l.107-2.376.077-1.712.01-.221q.024.512.048,1.024.052,1.119.1,2.238l.1,2.2.033.7a1.942,1.942,0,0,0,.039.408.911.911,0,0,0,1.309.563.933.933,0,0,0,.466-.789l.051-1.124.1-2.116q.055-1.2.11-2.4.045-.985.09-1.971l.038-.833c0-.012.026-.041.033-.051q.032-.051.063-.1.066-.114.122-.233a2.978,2.978,0,0,0,.269-1.516c-.013-.148-.034-.3-.052-.443l-.25-2.062-.241-1.993-.032-.26a6.673,6.673,0,0,1,.672,2.009,10.8,10.8,0,0,1,.159,2.148c0,.2,0,.391,0,.587a.953.953,0,0,0,.044.373.79.79,0,0,0,.6.5.8.8,0,0,0,.737-.276,1.435,1.435,0,0,0,.218-.87,11.849,11.849,0,0,1,.275-1.729,8.349,8.349,0,0,1,.541-1.638v.444a.9.9,0,0,1,0,.181l-.076.365-.37,1.778-.486,2.338-.394,1.893-.1.466a.931.931,0,0,0-.02.117.515.515,0,0,0,.514.549h1.1s0,.1.007.144q.04.836.081,1.671l.115,2.367.076,1.575c0,.032,0,.064,0,.1a.921.921,0,0,0,.323.648.908.908,0,0,0,.776.2.933.933,0,0,0,.625-.48,1.283,1.283,0,0,0,.109-.551l.036-.7q.058-1.118.116-2.236l.11-2.121q.014-.276.029-.552c0-.035-.011-.068.027-.068.082,0,.08-.015.083.054q.036.732.071,1.464l.114,2.36q.043.884.086,1.768a1.467,1.467,0,0,0,.076.5.912.912,0,0,0,1.757-.29c0-.027,0-.053,0-.08l.03-.572q.055-1.069.111-2.137l.115-2.223.035-.678c0-.05.008-.165.008-.165l1.066,0a.514.514,0,0,0,.5-.609c0-.022-.009-.044-.013-.066l-.269-1.32-.458-2.252-.442-2.171-.219-1.077a.835.835,0,0,1,0-.16v-.363a8.468,8.468,0,0,1,.366,1.094,10.138,10.138,0,0,1,.247,1.166c.057.392.1.784.135,1.178a1.254,1.254,0,0,0,.077.416.793.793,0,0,0,.776.468c.053,0,.093.036.14.061a1.173,1.173,0,0,0,.169.073,1.341,1.341,0,0,0,.375.071,3.451,3.451,0,0,0,1.506-.349v1.142l-.466,1.982-.477,2.029c-.037.16-.122.365-.035.52.1.181.291.166.468.166h.547a.411.411,0,0,1,.077,0c0,.015,0,.03,0,.045l.012.25.046.951.107,2.207a3.316,3.316,0,0,0,.03.482.588.588,0,0,0,1.157-.014,4.063,4.063,0,0,0,.029-.475l.053-1.016q.055-1.072.111-2.144.006-.123.013-.246c0-.014,0-.029,0-.043,0,0,.058-.015.059.006q.013.266.026.533.055,1.129.109,2.258.021.434.042.867l.009.181a.6.6,0,0,0,.295.489.587.587,0,0,0,.743-.131.625.625,0,0,0,.14-.382q.017-.321.033-.641.059-1.141.118-2.283l.041-.783c0-.006,0-.114.006-.114h.435a.862.862,0,0,0,.475-.057.34.34,0,0,0,.126-.369l-.127-.582-.484-2.212c-.108-.492-.336-1.486-.336-1.486v-.378a7.321,7.321,0,0,1,.487,2.278.568.568,0,0,0,.133.343.5.5,0,0,0,.879-.338Q30.631,143.04,30.631,142.937Z" transform="translate(0.001 -125.285)" fill="#c6c9d1"/>
      <path id="Path_1822" data-name="Path 1822" d="M26.2,191.168a1.7,1.7,0,1,0-.875-.243A1.711,1.711,0,0,0,26.2,191.168Z" transform="translate(-23.014 -178.946)" fill="#c6c9d1"/>
      <path id="Path_1823" data-name="Path 1823" d="M141.446,47.953a2.606,2.606,0,1,0-.069,0Z" transform="translate(-130.393 -42.749)" fill="#c6c9d1"/>
    </g>
  </g>
</svg>
