<svg xmlns="http://www.w3.org/2000/svg" width="35.898" height="34.215" viewBox="0 0 35.898 34.215">
  <g id="girl-face-svgrepo-com" transform="translate(0 -1.079)">
    <path id="Path_1811" data-name="Path 1811" d="M18.335,23.809c-1.076,0-1.948-.347-1.948-.779s.873-.779,1.948-.779,1.948.348,1.948.779S19.41,23.809,18.335,23.809ZM13.041,16.5a1.754,1.754,0,1,0,1.754,1.754A1.755,1.755,0,0,0,13.041,16.5ZM23.628,20a1.754,1.754,0,1,0-1.754-1.754A1.756,1.756,0,0,0,23.628,20ZM35.87,21.463c-.108,2.921-6.527,10.814,0,13.736l-5.845-1.948a2.278,2.278,0,0,0,.39,1.559c-4.014.581-9.173-.157-13.055-.952a15.048,15.048,0,0,1-4.528-1.019,11.752,11.752,0,0,0,1.51,2.457,14.289,14.289,0,0,1-5.553-2.143L8.4,35.1C-1.149,31.884-.919,15.24,1.189,10.257,2.261,7.724,4.307,1.586,12.3,3.827c0,0,8.1-7.378,17.731,2.046C32.466,8.265,36.26,10.746,35.87,21.463ZM18.358,30.774a11.85,11.85,0,0,0,11.23-7.937,1.534,1.534,0,0,0,.636.143,1.881,1.881,0,0,0,1.748-2,1.889,1.889,0,0,0-1.715-1.994,9.8,9.8,0,0,1-.834,1.165,12.11,12.11,0,0,0,.5-3.393c0-.306-.023-.6-.048-.893-2.538.616-6.1-.135-9.43-2.233A16.334,16.334,0,0,1,16.262,9.9c-1.873,1.044-3.647,3.213-9.3,5.463a10.241,10.241,0,0,0-.1,1.4,12.1,12.1,0,0,0,.5,3.393,9.791,9.791,0,0,1-.871-1.22c0,.018,0,.04,0,.058-.019,0-.036-.007-.054-.007a1.881,1.881,0,0,0-1.748,2,1.881,1.881,0,0,0,1.748,2,1.568,1.568,0,0,0,.681-.157A11.856,11.856,0,0,0,18.358,30.774Z" transform="translate(0 0)" fill="#25304e"/>
  </g>
</svg>
