<svg id="Group_687" data-name="Group 687" xmlns="http://www.w3.org/2000/svg" xmlns:xlink="http://www.w3.org/1999/xlink" width="29.751" height="35.271" viewBox="0 0 29.751 35.271">
  <defs>
    <clipPath id="clip-path">
      <rect id="Rectangle_170" data-name="Rectangle 170" width="29.752" height="35.271" fill="#b92056"/>
    </clipPath>
  </defs>
  <g id="Group_169" data-name="Group 169" clip-path="url(#clip-path)">
    <path id="Path_1840" data-name="Path 1840" d="M2.5,17.554A12.531,12.531,0,0,1,8.149,5.943,2.19,2.19,0,0,0,8.11,5.5a4.558,4.558,0,0,1,.923-2.847A6.336,6.336,0,0,1,11.794.582,8.368,8.368,0,0,1,13.5.1a5.8,5.8,0,0,1,.633-.073,8.633,8.633,0,0,1,2.7.192,7.177,7.177,0,0,1,3,1.489,5.17,5.17,0,0,1,1.486,2.009A3.85,3.85,0,0,1,21.6,5.754c-.008.055-.008.11-.011.162a.714.714,0,0,0,.292.255A11.657,11.657,0,0,1,23.907,7.9a12.449,12.449,0,0,1,2.056,2.948,12.9,12.9,0,0,1,.912,2.405,12.565,12.565,0,0,1,.329,1.8,17.921,17.921,0,0,1,.04,2.505,1.794,1.794,0,0,0,.417.253,4.044,4.044,0,0,1,1.522,1.616,4.751,4.751,0,0,1,.56,2.542,5.379,5.379,0,0,1-1.328,3.28,7.789,7.789,0,0,1-2.4,1.854.662.662,0,0,0-.343.373A11.16,11.16,0,0,1,23.5,30.956,13.31,13.31,0,0,1,20.7,33.261a14.638,14.638,0,0,1-3.283,1.53,9.339,9.339,0,0,1-1.967.452,6.069,6.069,0,0,1-1.686-.071,13.16,13.16,0,0,1-3.456-1.16A13.546,13.546,0,0,1,7.2,31.942a12.046,12.046,0,0,1-1.874-2.11,9.97,9.97,0,0,1-.973-1.708,7.045,7.045,0,0,1-.294-.687.509.509,0,0,0-.286-.317,8.487,8.487,0,0,1-1.425-.907A6.259,6.259,0,0,1,.6,24.158a5.56,5.56,0,0,1-.56-1.846A4.788,4.788,0,0,1,.24,20.2a4.2,4.2,0,0,1,2.073-2.529c.049-.026.1-.05.146-.078a.206.206,0,0,0,.039-.043m2.759.361c0,.208-.009.375,0,.54a1.2,1.2,0,0,1-1.173,1.193,1.457,1.457,0,0,0-1.322.776,2.571,2.571,0,0,0-.122,2.421A3.748,3.748,0,0,0,3.811,24.3a6.512,6.512,0,0,0,1.5.894,1.456,1.456,0,0,1,.844.966,8.136,8.136,0,0,0,1.015,2.088A9.7,9.7,0,0,0,9.1,30.381a11.248,11.248,0,0,0,1.62,1.116,11.953,11.953,0,0,0,3.24,1.274,3.486,3.486,0,0,0,1.4.075,11.664,11.664,0,0,0,3.905-1.523,11.14,11.14,0,0,0,1.7-1.248,9.573,9.573,0,0,0,1.762-2.06,8.7,8.7,0,0,0,.913-1.954,1.3,1.3,0,0,1,.681-.8c.124-.062.25-.12.375-.181a5.682,5.682,0,0,0,1.845-1.352,2.884,2.884,0,0,0,.733-2.618A1.889,1.889,0,0,0,26.7,20.07a12.238,12.238,0,0,1-10.54-3.185A12.267,12.267,0,0,1,12.246,6.6a11.862,11.862,0,0,0-.63,4.183,13.36,13.36,0,0,0,.835,4.122,12.707,12.707,0,0,1-2.178,1.511,12.655,12.655,0,0,1-2.4,1,16.034,16.034,0,0,1-2.615.5" transform="translate(0 0)" fill="#b92056"/>
    <path id="Path_1841" data-name="Path 1841" d="M130.779,384.925c-.463,0-.926.011-1.389,0a2.49,2.49,0,0,1-1.456-.465,2.4,2.4,0,0,1-1.011-1.916c-.009-.222,0-.444,0-.666a.622.622,0,0,0-.621-.615.613.613,0,0,0-.622.608c.009.278-.014.555-.031.832a2.3,2.3,0,0,1-.958,1.739,2.409,2.409,0,0,1-1.478.482q-1.374.016-2.749,0a2.415,2.415,0,0,1-1.922-.9,2.228,2.228,0,0,1-.519-1.232c-.063-.684-.02-1.369-.03-2.053a.93.93,0,0,1,.032-.219.486.486,0,0,1,.507-.421c.416,0,.83-.026,1.247-.011.646.023,1.294.02,1.94,0,.342-.01.683.008,1.025.006.5,0,1-.011,1.5,0,.452.005.9-.005,1.358,0,.471.008.942.013,1.413,0s.924.013,1.385,0,.924.014,1.385,0,.943.015,1.413,0c.509-.016,1.017.02,1.524,0,.389-.016.777.024,1.163,0a.663.663,0,0,1,.714.7c-.023.6-.015,1.2,0,1.8a2.377,2.377,0,0,1-1.5,2.139,2.94,2.94,0,0,1-1.056.192c-.417,0-.833,0-1.25,0m-2.636-3.638a.461.461,0,0,0-.048.287c.006.324.029.647.021.971a1.244,1.244,0,0,0,1.193,1.188c.963-.012,1.926-.009,2.888,0a1.256,1.256,0,0,0,1.227-1.249c0-.324,0-.648,0-.972,0-.072.018-.149-.032-.212-.212-.046-4.937-.056-5.247-.011m-8.915-.011a.2.2,0,0,0-.047.173c0,.361,0,.722,0,1.083a1.225,1.225,0,0,0,1.182,1.2c.981,0,1.962,0,2.942,0a1.23,1.23,0,0,0,1.179-1.2c-.01-.351,0-.7,0-1.055a.238.238,0,0,0-.048-.2Z" transform="translate(-111.43 -358.97)" fill="#b92056"/>
  </g>
</svg>
