<svg xmlns="http://www.w3.org/2000/svg" xmlns:xlink="http://www.w3.org/1999/xlink" width="34.363" height="31.323" viewBox="0 0 34.363 31.323">
  <defs>
    <clipPath id="clip-path">
      <rect id="Rectangle_169" data-name="Rectangle 169" width="34.363" height="31.323" transform="translate(0 0)" fill="#b92056"/>
    </clipPath>
  </defs>
  <g id="Group_686" data-name="Group 686" transform="translate(0 0)">
    <g id="Group_167" data-name="Group 167" clip-path="url(#clip-path)">
      <path id="Path_1835" data-name="Path 1835" d="M34.363,17.264v1.61c-.052.194-.1.388-.156.581a5.078,5.078,0,0,1-2.951,3.473,1.133,1.133,0,0,0-.578.52,14.72,14.72,0,0,1-3.244,4.023,15.308,15.308,0,0,1-9.144,3.81,14.945,14.945,0,0,1-4.656-.384,15.437,15.437,0,0,1-6.555-3.363,14.748,14.748,0,0,1-3.3-4.06,1.043,1.043,0,0,0-.554-.493A5.033,5.033,0,0,1,.816,20.928a5.437,5.437,0,0,1,.9-6.829.626.626,0,0,0,.222-.618,8.6,8.6,0,0,1-.111-.931,15.025,15.025,0,0,1,.324-4.061,11.305,11.305,0,0,1,4.4-6.866A6.845,6.845,0,0,1,8.03.762,1.774,1.774,0,0,1,9.461.708a2.22,2.22,0,0,1,.711.549c.224.239.225.238.534.1A14.643,14.643,0,0,1,12.941.547a16.486,16.486,0,0,1,5.776-.48,14.885,14.885,0,0,1,4.75,1.2c.509.223.508.229.892-.156A1.617,1.617,0,0,1,26.106.672a4.14,4.14,0,0,1,.885.4,10.882,10.882,0,0,1,4.693,5.671,15.169,15.169,0,0,1,.842,3.509,13.389,13.389,0,0,1,.007,3.406.471.471,0,0,0,.167.469,5.038,5.038,0,0,1,1.09,1.432,6.934,6.934,0,0,1,.573,1.709m-5.867.029a.438.438,0,0,1,.014-.344,11.54,11.54,0,0,0,.266-4.747,6.129,6.129,0,0,0-.885-2.4,4.564,4.564,0,0,0-1.852-1.5c-.805-.414-1.648-.747-2.477-1.109a1.156,1.156,0,0,1-.716-.864,2.465,2.465,0,0,1-.062-.93c.059-.363.036-.4-.3-.521s-.651-.237-.983-.331a15.6,15.6,0,0,0-5.4-.553,14.725,14.725,0,0,0-4.145.88c-.385.145-.384.147-.335.56a1.562,1.562,0,0,1-1.094,1.893c-.041.017-.083.033-.124.052a20.332,20.332,0,0,0-2.715,1.3A4.013,4.013,0,0,0,6.11,10.5a8.255,8.255,0,0,0-.624,3.033,12.277,12.277,0,0,0,.413,3.48c.023.089.085.182-.006.294A5.338,5.338,0,0,1,5.154,16.3a.393.393,0,0,0-.506-.2,1.732,1.732,0,0,0-.7.377,2.191,2.191,0,0,0-.283,2.843,1.588,1.588,0,0,0,1.787.663c.227-.059.338,0,.4.207.026.085.062.168.1.251a12.069,12.069,0,0,0,9.638,7.489,12.3,12.3,0,0,0,3.67-.053A12.121,12.121,0,0,0,27.1,23a11.65,11.65,0,0,0,1.476-2.773c.069-.185.137-.3.385-.232a1.535,1.535,0,0,0,1.716-.609,2.06,2.06,0,0,0,.424-1.642,1.878,1.878,0,0,0-1.188-1.582c-.408-.16-.5-.122-.739.246a4.725,4.725,0,0,1-.681.887" fill="#b92056"/>
      <path id="Path_1836" data-name="Path 1836" d="M17.219,22.343c1.3,0,2.59,0,3.885,0a1.01,1.01,0,0,1,1.1.788,3.876,3.876,0,0,1,0,1.464,1.013,1.013,0,0,1-1.932.15.44.44,0,0,0-.5-.315q-2.578.01-5.157,0a.444.444,0,0,0-.495.329,1.007,1.007,0,0,1-1.078.619,1.025,1.025,0,0,1-.883-.956,9.473,9.473,0,0,1,0-1.1,1.021,1.021,0,0,1,1.046-.97c.591-.015,1.183,0,1.775,0q1.122,0,2.244,0" fill="#b92056"/>
      <path id="Path_1837" data-name="Path 1837" d="M22.613,17.084A1.809,1.809,0,0,1,20.8,15.246a1.833,1.833,0,0,1,1.811-1.82,1.859,1.859,0,0,1,1.846,1.864,1.841,1.841,0,0,1-1.84,1.794" fill="#b92056"/>
      <path id="Path_1838" data-name="Path 1838" d="M13.6,15.244a1.814,1.814,0,0,1-1.816,1.84,1.829,1.829,0,1,1,1.816-1.84" fill="#b92056"/>
      <path id="Path_1839" data-name="Path 1839" d="M17.18,20.975a3.427,3.427,0,0,1-1.439-.241c-.259-.109-.547-.236-.555-.56-.011-.345.281-.489.554-.6a3.985,3.985,0,0,1,1.871-.23,3.1,3.1,0,0,1,1.1.255c.243.122.5.255.5.569-.009.3-.259.426-.5.534a3.444,3.444,0,0,1-1.533.269" fill="#b92056"/>
    </g>
  </g>
</svg>
