<svg id="Group_680" data-name="Group 680" xmlns="http://www.w3.org/2000/svg" xmlns:xlink="http://www.w3.org/1999/xlink" width="34" height="29.293" viewBox="0 0 34 29.293">
  <defs>
    <clipPath id="clip-path">
      <rect id="Rectangle_164" data-name="Rectangle 164" width="34" height="29.293" fill="#c6c9d1"/>
    </clipPath>
  </defs>
  <g id="Group_147" data-name="Group 147" clip-path="url(#clip-path)">
    <path id="Path_1830" data-name="Path 1830" d="M325,113.356c-.057.033-.053.091-.059.145a5.7,5.7,0,0,1-1.193,2.979,4.3,4.3,0,0,1-2.028,1.493,3.075,3.075,0,0,1-3.646-1.289,4.236,4.236,0,0,1-.652-1.965,5.859,5.859,0,0,1,1.266-4.218A4.031,4.031,0,0,1,320.937,109a3.026,3.026,0,0,1,3.348,1.321,4.21,4.21,0,0,1,.653,1.759c.011.075,0,.158.064.216Z" transform="translate(-291.001 -99.84)" fill="#c6c9d1"/>
    <path id="Path_1831" data-name="Path 1831" d="M78.475,152.538a8.918,8.918,0,0,1,3.633.79,12.16,12.16,0,0,1,4.227,3.2,14.788,14.788,0,0,1,3.05,5.467,11.449,11.449,0,0,1,.5,3.138,4.267,4.267,0,0,1-.475,2.181,3.315,3.315,0,0,1-2.169,1.622,7.465,7.465,0,0,1-2.437.175,40.493,40.493,0,0,1-4.062-.611c-.61-.1-1.22-.211-1.836-.27a6.294,6.294,0,0,0-1.588.074c-1.342.212-2.677.466-4.02.669a10.22,10.22,0,0,1-2.974.1,4.184,4.184,0,0,1-1.744-.588,3.256,3.256,0,0,1-1.4-2.025,5.725,5.725,0,0,1-.126-1.716,12.245,12.245,0,0,1,.874-3.869,14.909,14.909,0,0,1,2.167-3.754,13.365,13.365,0,0,1,3-2.844,9.721,9.721,0,0,1,4.414-1.691c.318-.035.641-.034.961-.049" transform="translate(-61.467 -139.851)" fill="#c6c9d1"/>
    <path id="Path_1832" data-name="Path 1832" d="M89.348,6.07a7.68,7.68,0,0,1,.862-3.564A4.732,4.732,0,0,1,92.256.4a3.353,3.353,0,0,1,3.468.184,5.038,5.038,0,0,1,1.939,2.383,7.973,7.973,0,0,1,.6,3.96,7.539,7.539,0,0,1-.813,2.852,4.71,4.71,0,0,1-2.039,2.116,3.363,3.363,0,0,1-3.468-.167A5.078,5.078,0,0,1,90,9.349a8.043,8.043,0,0,1-.649-3.278" transform="translate(-81.916 0)" fill="#c6c9d1"/>
    <path id="Path_1833" data-name="Path 1833" d="M220.609,6.194a7.518,7.518,0,0,1-1.138,4.07,4.331,4.331,0,0,1-2.144,1.806,3.368,3.368,0,0,1-3.1-.351,5.062,5.062,0,0,1-1.911-2.325,7.86,7.86,0,0,1-.652-3.692,7.33,7.33,0,0,1,1.116-3.639A4.531,4.531,0,0,1,214.551.409a3.356,3.356,0,0,1,3.468.178,5.085,5.085,0,0,1,1.931,2.349,8.057,8.057,0,0,1,.658,3.259" transform="translate(-194.042 -0.009)" fill="#c6c9d1"/>
    <path id="Path_1834" data-name="Path 1834" d="M7.582,114.442a4.033,4.033,0,0,1-.63,2.27,3.013,3.013,0,0,1-2.877,1.5,3.538,3.538,0,0,1-2.1-.9,5.426,5.426,0,0,1-1.736-2.769,5.806,5.806,0,0,1-.239-1.8,4.106,4.106,0,0,1,1.16-2.887,2.892,2.892,0,0,1,2.58-.831,4.022,4.022,0,0,1,2.571,1.564,5.772,5.772,0,0,1,1.258,3.194c.011.121.029.242.03.363s-.015.221-.022.3" transform="translate(0 -99.917)" fill="#c6c9d1"/>
  </g>
</svg>
