<svg xmlns="http://www.w3.org/2000/svg" width="37.687" height="45.172" viewBox="0 0 37.687 45.172">
  <g id="man-talking-svgrepo-com" transform="translate(-16.024 -52.868)">
    <g id="Group_144" data-name="Group 144" transform="translate(0 52.868)">
      <g id="Group_143" data-name="Group 143" transform="translate(0 0)">
        <path id="Path_1818" data-name="Path 1818" d="M92.032,98.04c7.969,0,18.661-9.956,18.842-26.652.115-11.586-5.4-18.519-18.842-18.519S73.073,59.8,73.19,71.387C73.372,88.083,82.7,98.04,92.032,98.04Zm-3.787-22c9.744,1.038,18.239-12.589,18.1-.388-.083,7.3-6.858,18.333-14.313,18.333-7.825,0-13.223-9.166-14.313-18.329C76.541,65.719,94.779,67.983,88.245,76.04Z" transform="translate(-57.164 -52.868)" fill="#b92056"/>
      </g>
    </g>
  </g>
</svg>
