<svg xmlns="http://www.w3.org/2000/svg" width="30.292" height="32.261" viewBox="0 0 30.292 32.261">
  <g id="woman-avatar-svgrepo-com" transform="translate(-73.719)">
    <g id="Group_142" data-name="Group 142" transform="translate(68.8)">
      <path id="Path_1814" data-name="Path 1814" d="M122.658,32.153c2.178.327,4.837-.174,7.742-.348a6.774,6.774,0,0,0,3.344-.01c7.558.368,13.448,2.506,13.448-12.875C147.192,8.478,140.411,0,132.046,0S116.9,8.478,116.9,18.919c0,8.4,1.606,11.658,4.213,12.794A5.591,5.591,0,0,0,122.658,32.153Zm-2.414-19.134c1.585,2.2,5.7,1.728,9.245-1.053a13.517,13.517,0,0,0,2.321-2.332,2.048,2.048,0,0,1,.245.041,8.176,8.176,0,0,1,1.023.3,9.409,9.409,0,0,1,.972.47,8.877,8.877,0,0,1,.89.583,8.16,8.16,0,0,1,.757.685,5.4,5.4,0,0,1,.6.706,6.929,6.929,0,0,1,.45.665,3.115,3.115,0,0,1,.307.552c.153.317.245.5.245.5s-.031-.194-.092-.552a5.073,5.073,0,0,0-.133-.634,5.3,5.3,0,0,0-.256-.818,7.852,7.852,0,0,0-.409-.931,10.544,10.544,0,0,0-.593-.992,11.455,11.455,0,0,0-.8-.972,10.22,10.22,0,0,0-.972-.9,10.174,10.174,0,0,0-1.012-.665,7.993,7.993,0,0,0,.378-.951,12.021,12.021,0,0,1,3.6,2.332c3.794,3.794,2.3,8.2,5.226,5.287a7.865,7.865,0,0,0,1.135-1.422,1.293,1.293,0,0,1,.286.01,1.345,1.345,0,0,1,.8.655,3.474,3.474,0,0,1,.245,2.587,2.955,2.955,0,0,1-2.066,2.373l-.614.082-.164.6c-1.452,5.267-5.369,10.871-9.8,10.871s-8.335-5.6-9.8-10.871l-.164-.6-.614-.082a3,3,0,0,1-2.066-2.373,3.475,3.475,0,0,1,.245-2.587A1.376,1.376,0,0,1,120.244,13.019Z" transform="translate(-111.981)" fill="#25304e"/>
    </g>
  </g>
</svg>
